<?xml version="1.0" encoding="utf-8" standalone="no"?>
<!DOCTYPE svg PUBLIC "-//W3C//DTD SVG 1.1//EN"
  "http://www.w3.org/Graphics/SVG/1.1/DTD/svg11.dtd">
<!-- Created with matplotlib (http://matplotlib.org/) -->
<svg height="252pt" version="1.1" viewBox="0 0 966 252" width="966pt" xmlns="http://www.w3.org/2000/svg" xmlns:xlink="http://www.w3.org/1999/xlink">
 <defs>
  <style type="text/css">
*{stroke-linecap:butt;stroke-linejoin:round;}
  </style>
 </defs>
 <g id="figure_1">
  <g id="patch_1">
   <path d="M 0 252.071946 
L 966.120117 252.071946 
L 966.120117 -0 
L 0 -0 
z
" style="fill:#ffffff;"/>
  </g>
  <g id="axes_1">
   <g id="patch_2">
    <path d="M 55.693359 209.402024 
L 461.511541 209.402024 
L 461.511541 11.729297 
L 55.693359 11.729297 
z
" style="fill:#eaeaf2;"/>
   </g>
   <g id="matplotlib.axis_1">
    <g id="xtick_1">
     <g id="line2d_1"/>
     <g id="text_1">
      <!-- 0 -->
      <defs>
       <path d="M 51.703125 34.421875 
Q 51.703125 24.515625 49.828125 17.75 
Q 47.953125 10.984375 44.703125 6.8125 
Q 41.453125 2.640625 37.0625 0.828125 
Q 32.671875 -0.984375 27.6875 -0.984375 
Q 22.65625 -0.984375 18.3125 0.828125 
Q 13.96875 2.640625 10.765625 6.78125 
Q 7.5625 10.9375 5.734375 17.703125 
Q 3.90625 24.46875 3.90625 34.421875 
Q 3.90625 44.828125 5.734375 51.640625 
Q 7.5625 58.453125 10.78125 62.5 
Q 14.015625 66.546875 18.40625 68.1875 
Q 22.796875 69.828125 27.984375 69.828125 
Q 32.90625 69.828125 37.21875 68.1875 
Q 41.546875 66.546875 44.765625 62.5 
Q 48 58.453125 49.84375 51.640625 
Q 51.703125 44.828125 51.703125 34.421875 
M 42.78125 34.421875 
Q 42.78125 42.625 41.796875 48.0625 
Q 40.828125 53.515625 38.921875 56.765625 
Q 37.015625 60.015625 34.25 61.359375 
Q 31.5 62.703125 27.984375 62.703125 
Q 24.265625 62.703125 21.4375 61.328125 
Q 18.609375 59.96875 16.671875 56.71875 
Q 14.75 53.46875 13.765625 48.015625 
Q 12.796875 42.578125 12.796875 34.421875 
Q 12.796875 26.515625 13.796875 21.09375 
Q 14.796875 15.671875 16.71875 12.375 
Q 18.65625 9.078125 21.4375 7.640625 
Q 24.21875 6.203125 27.78125 6.203125 
Q 31.25 6.203125 34.03125 7.640625 
Q 36.8125 9.078125 38.734375 12.375 
Q 40.671875 15.671875 41.71875 21.09375 
Q 42.78125 26.515625 42.78125 34.421875 
" id="LiberationSans-30"/>
      </defs>
      <g style="fill:#262626;" transform="translate(52.217773 225.460618)scale(0.125 -0.125)">
       <use xlink:href="#LiberationSans-30"/>
      </g>
     </g>
    </g>
    <g id="xtick_2">
     <g id="line2d_2"/>
     <g id="text_2">
      <!-- 50 -->
      <defs>
       <path d="M 51.421875 22.40625 
Q 51.421875 17.234375 49.859375 12.9375 
Q 48.296875 8.640625 45.21875 5.53125 
Q 42.140625 2.4375 37.578125 0.71875 
Q 33.015625 -0.984375 27 -0.984375 
Q 21.578125 -0.984375 17.546875 0.28125 
Q 13.53125 1.5625 10.734375 3.78125 
Q 7.953125 6 6.3125 8.984375 
Q 4.6875 11.96875 4 15.375 
L 12.890625 16.40625 
Q 13.421875 14.453125 14.390625 12.625 
Q 15.375 10.796875 17.0625 9.34375 
Q 18.75 7.90625 21.21875 7.046875 
Q 23.6875 6.203125 27.203125 6.203125 
Q 30.609375 6.203125 33.390625 7.25 
Q 36.1875 8.296875 38.15625 10.34375 
Q 40.140625 12.40625 41.203125 15.375 
Q 42.28125 18.359375 42.28125 22.21875 
Q 42.28125 25.390625 41.25 28.046875 
Q 40.234375 30.71875 38.328125 32.640625 
Q 36.421875 34.578125 33.65625 35.640625 
Q 30.90625 36.71875 27.390625 36.71875 
Q 25.203125 36.71875 23.34375 36.328125 
Q 21.484375 35.9375 19.890625 35.25 
Q 18.3125 34.578125 17.015625 33.671875 
Q 15.71875 32.765625 14.59375 31.78125 
L 6 31.78125 
L 8.296875 68.796875 
L 47.40625 68.796875 
L 47.40625 61.328125 
L 16.3125 61.328125 
L 14.984375 39.5 
Q 17.328125 41.3125 20.84375 42.59375 
Q 24.359375 43.890625 29.203125 43.890625 
Q 34.328125 43.890625 38.421875 42.328125 
Q 42.53125 40.765625 45.40625 37.90625 
Q 48.296875 35.0625 49.859375 31.109375 
Q 51.421875 27.15625 51.421875 22.40625 
" id="LiberationSans-35"/>
      </defs>
      <g style="fill:#262626;" transform="translate(99.46946 225.460618)scale(0.125 -0.125)">
       <use xlink:href="#LiberationSans-35"/>
       <use x="55.615234" xlink:href="#LiberationSans-30"/>
      </g>
     </g>
    </g>
    <g id="xtick_3">
     <g id="line2d_3"/>
     <g id="text_3">
      <!-- 100 -->
      <defs>
       <path d="M 7.625 0 
L 7.625 7.46875 
L 25.140625 7.46875 
L 25.140625 60.40625 
L 9.625 49.3125 
L 9.625 57.625 
L 25.875 68.796875 
L 33.984375 68.796875 
L 33.984375 7.46875 
L 50.734375 7.46875 
L 50.734375 0 
z
" id="LiberationSans-31"/>
      </defs>
      <g style="fill:#262626;" transform="translate(146.721147 225.460618)scale(0.125 -0.125)">
       <use xlink:href="#LiberationSans-31"/>
       <use x="55.615234" xlink:href="#LiberationSans-30"/>
       <use x="111.230469" xlink:href="#LiberationSans-30"/>
      </g>
     </g>
    </g>
    <g id="xtick_4">
     <g id="line2d_4"/>
     <g id="text_4">
      <!-- 150 -->
      <g style="fill:#262626;" transform="translate(197.44842 225.460618)scale(0.125 -0.125)">
       <use xlink:href="#LiberationSans-31"/>
       <use x="55.615234" xlink:href="#LiberationSans-35"/>
       <use x="111.230469" xlink:href="#LiberationSans-30"/>
      </g>
     </g>
    </g>
    <g id="xtick_5">
     <g id="line2d_5"/>
     <g id="text_5">
      <!-- 200 -->
      <defs>
       <path d="M 5.03125 0 
L 5.03125 6.203125 
Q 7.515625 11.921875 11.109375 16.28125 
Q 14.703125 20.65625 18.65625 24.1875 
Q 22.609375 27.734375 26.484375 30.765625 
Q 30.375 33.796875 33.5 36.8125 
Q 36.625 39.84375 38.546875 43.15625 
Q 40.484375 46.484375 40.484375 50.6875 
Q 40.484375 53.609375 39.59375 55.828125 
Q 38.71875 58.0625 37.0625 59.5625 
Q 35.40625 61.078125 33.078125 61.828125 
Q 30.765625 62.59375 27.9375 62.59375 
Q 25.296875 62.59375 22.96875 61.859375 
Q 20.65625 61.140625 18.84375 59.671875 
Q 17.046875 58.203125 15.890625 56.03125 
Q 14.75 53.859375 14.40625 50.984375 
L 5.421875 51.8125 
Q 5.859375 55.515625 7.46875 58.78125 
Q 9.078125 62.0625 11.90625 64.53125 
Q 14.75 67 18.71875 68.40625 
Q 22.703125 69.828125 27.9375 69.828125 
Q 33.0625 69.828125 37.0625 68.609375 
Q 41.0625 67.390625 43.8125 64.984375 
Q 46.578125 62.59375 48.046875 59.078125 
Q 49.515625 55.5625 49.515625 50.984375 
Q 49.515625 47.515625 48.265625 44.390625 
Q 47.015625 41.265625 44.9375 38.421875 
Q 42.875 35.59375 40.140625 32.953125 
Q 37.40625 30.328125 34.421875 27.8125 
Q 31.453125 25.296875 28.421875 22.828125 
Q 25.390625 20.359375 22.71875 17.859375 
Q 20.0625 15.375 17.96875 12.8125 
Q 15.875 10.25 14.703125 7.46875 
L 50.59375 7.46875 
L 50.59375 0 
z
" id="LiberationSans-32"/>
      </defs>
      <g style="fill:#262626;" transform="translate(248.175692 225.460618)scale(0.125 -0.125)">
       <use xlink:href="#LiberationSans-32"/>
       <use x="55.615234" xlink:href="#LiberationSans-30"/>
       <use x="111.230469" xlink:href="#LiberationSans-30"/>
      </g>
     </g>
    </g>
    <g id="xtick_6">
     <g id="line2d_6"/>
     <g id="text_6">
      <!-- 250 -->
      <g style="fill:#262626;" transform="translate(298.902965 225.460618)scale(0.125 -0.125)">
       <use xlink:href="#LiberationSans-32"/>
       <use x="55.615234" xlink:href="#LiberationSans-35"/>
       <use x="111.230469" xlink:href="#LiberationSans-30"/>
      </g>
     </g>
    </g>
    <g id="xtick_7">
     <g id="line2d_7"/>
     <g id="text_7">
      <!-- 300 -->
      <defs>
       <path d="M 51.21875 19 
Q 51.21875 14.265625 49.671875 10.546875 
Q 48.140625 6.84375 45.1875 4.265625 
Q 42.234375 1.703125 37.859375 0.359375 
Q 33.5 -0.984375 27.875 -0.984375 
Q 21.484375 -0.984375 17.109375 0.609375 
Q 12.75 2.203125 9.90625 4.8125 
Q 7.078125 7.421875 5.65625 10.765625 
Q 4.25 14.109375 3.8125 17.671875 
L 12.890625 18.5 
Q 13.28125 15.765625 14.328125 13.515625 
Q 15.375 11.28125 17.1875 9.671875 
Q 19 8.0625 21.625 7.171875 
Q 24.265625 6.296875 27.875 6.296875 
Q 34.515625 6.296875 38.296875 9.5625 
Q 42.09375 12.84375 42.09375 19.28125 
Q 42.09375 23.09375 40.40625 25.40625 
Q 38.71875 27.734375 36.203125 29.03125 
Q 33.6875 30.328125 30.734375 30.765625 
Q 27.78125 31.203125 25.296875 31.203125 
L 20.3125 31.203125 
L 20.3125 38.8125 
L 25.09375 38.8125 
Q 27.59375 38.8125 30.265625 39.328125 
Q 32.953125 39.84375 35.171875 41.1875 
Q 37.40625 42.53125 38.84375 44.828125 
Q 40.28125 47.125 40.28125 50.6875 
Q 40.28125 56.203125 37.03125 59.390625 
Q 33.796875 62.59375 27.390625 62.59375 
Q 21.578125 62.59375 17.984375 59.609375 
Q 14.40625 56.640625 13.8125 51.21875 
L 4.984375 51.90625 
Q 5.515625 56.453125 7.46875 59.8125 
Q 9.421875 63.1875 12.421875 65.40625 
Q 15.4375 67.625 19.28125 68.71875 
Q 23.140625 69.828125 27.484375 69.828125 
Q 33.25 69.828125 37.390625 68.375 
Q 41.546875 66.9375 44.1875 64.46875 
Q 46.828125 62.015625 48.0625 58.6875 
Q 49.3125 55.375 49.3125 51.609375 
Q 49.3125 48.578125 48.484375 45.9375 
Q 47.65625 43.3125 45.890625 41.203125 
Q 44.140625 39.109375 41.421875 37.59375 
Q 38.71875 36.078125 34.90625 35.296875 
L 34.90625 35.109375 
Q 39.0625 34.671875 42.140625 33.21875 
Q 45.21875 31.78125 47.21875 29.625 
Q 49.21875 27.484375 50.21875 24.75 
Q 51.21875 22.015625 51.21875 19 
" id="LiberationSans-33"/>
      </defs>
      <g style="fill:#262626;" transform="translate(349.630238 225.460618)scale(0.125 -0.125)">
       <use xlink:href="#LiberationSans-33"/>
       <use x="55.615234" xlink:href="#LiberationSans-30"/>
       <use x="111.230469" xlink:href="#LiberationSans-30"/>
      </g>
     </g>
    </g>
    <g id="xtick_8">
     <g id="line2d_8"/>
     <g id="text_8">
      <!-- 350 -->
      <g style="fill:#262626;" transform="translate(400.357511 225.460618)scale(0.125 -0.125)">
       <use xlink:href="#LiberationSans-33"/>
       <use x="55.615234" xlink:href="#LiberationSans-35"/>
       <use x="111.230469" xlink:href="#LiberationSans-30"/>
      </g>
     </g>
    </g>
    <g id="xtick_9">
     <g id="line2d_9"/>
     <g id="text_9">
      <!-- 400 -->
      <defs>
       <path d="M 43.015625 15.578125 
L 43.015625 0 
L 34.71875 0 
L 34.71875 15.578125 
L 2.296875 15.578125 
L 2.296875 22.40625 
L 33.796875 68.796875 
L 43.015625 68.796875 
L 43.015625 22.515625 
L 52.6875 22.515625 
L 52.6875 15.578125 
z
M 34.71875 58.890625 
Q 34.625 58.640625 34.234375 57.9375 
Q 33.84375 57.234375 33.34375 56.34375 
Q 32.859375 55.46875 32.34375 54.5625 
Q 31.84375 53.65625 31.453125 53.078125 
L 13.8125 27.09375 
Q 13.578125 26.703125 13.109375 26.0625 
Q 12.640625 25.4375 12.15625 24.78125 
Q 11.671875 24.125 11.171875 23.484375 
Q 10.6875 22.859375 10.40625 22.515625 
L 34.71875 22.515625 
z
" id="LiberationSans-34"/>
      </defs>
      <g style="fill:#262626;" transform="translate(451.084783 225.460618)scale(0.125 -0.125)">
       <use xlink:href="#LiberationSans-34"/>
       <use x="55.615234" xlink:href="#LiberationSans-30"/>
       <use x="111.230469" xlink:href="#LiberationSans-30"/>
      </g>
     </g>
    </g>
    <g id="text_10">
     <!-- Lag -->
     <defs>
      <path d="M 8.203125 0 
L 8.203125 68.796875 
L 17.53125 68.796875 
L 17.53125 7.625 
L 52.296875 7.625 
L 52.296875 0 
z
" id="LiberationSans-4c"/>
      <path d="M 20.21875 -0.984375 
Q 12.25 -0.984375 8.25 3.21875 
Q 4.25 7.421875 4.25 14.75 
Q 4.25 19.96875 6.21875 23.3125 
Q 8.203125 26.65625 11.390625 28.5625 
Q 14.59375 30.46875 18.6875 31.203125 
Q 22.796875 31.9375 27.046875 32.03125 
L 38.921875 32.234375 
L 38.921875 35.109375 
Q 38.921875 38.375 38.234375 40.671875 
Q 37.546875 42.96875 36.125 44.375 
Q 34.71875 45.796875 32.59375 46.453125 
Q 30.46875 47.125 27.59375 47.125 
Q 25.046875 47.125 23 46.75 
Q 20.953125 46.390625 19.4375 45.4375 
Q 17.921875 44.484375 16.984375 42.84375 
Q 16.0625 41.21875 15.765625 38.71875 
L 6.59375 39.546875 
Q 7.078125 42.671875 8.4375 45.28125 
Q 9.8125 47.90625 12.328125 49.796875 
Q 14.84375 51.703125 18.625 52.75 
Q 22.40625 53.8125 27.78125 53.8125 
Q 37.75 53.8125 42.765625 49.234375 
Q 47.796875 44.671875 47.796875 36.03125 
L 47.796875 13.28125 
Q 47.796875 9.375 48.828125 7.390625 
Q 49.859375 5.421875 52.734375 5.421875 
Q 53.46875 5.421875 54.203125 5.515625 
Q 54.9375 5.609375 55.609375 5.765625 
L 55.609375 0.296875 
Q 53.953125 -0.09375 52.3125 -0.28125 
Q 50.6875 -0.484375 48.828125 -0.484375 
Q 46.34375 -0.484375 44.5625 0.171875 
Q 42.78125 0.828125 41.65625 2.171875 
Q 40.53125 3.515625 39.9375 5.484375 
Q 39.359375 7.46875 39.203125 10.109375 
L 38.921875 10.109375 
Q 37.5 7.5625 35.8125 5.515625 
Q 34.125 3.46875 31.875 2.03125 
Q 29.640625 0.59375 26.78125 -0.1875 
Q 23.921875 -0.984375 20.21875 -0.984375 
M 22.21875 5.609375 
Q 26.421875 5.609375 29.5625 7.140625 
Q 32.71875 8.6875 34.78125 11.078125 
Q 36.859375 13.484375 37.890625 16.3125 
Q 38.921875 19.140625 38.921875 21.734375 
L 38.921875 26.078125 
L 29.296875 25.875 
Q 26.078125 25.828125 23.171875 25.40625 
Q 20.265625 25 18.0625 23.78125 
Q 15.875 22.5625 14.578125 20.359375 
Q 13.28125 18.171875 13.28125 14.59375 
Q 13.28125 10.296875 15.59375 7.953125 
Q 17.921875 5.609375 22.21875 5.609375 
" id="LiberationSans-61"/>
      <path d="M 26.765625 -20.75 
Q 22.21875 -20.75 18.703125 -19.8125 
Q 15.1875 -18.890625 12.6875 -17.15625 
Q 10.203125 -15.4375 8.640625 -13.03125 
Q 7.078125 -10.640625 6.390625 -7.71875 
L 15.234375 -6.453125 
Q 16.109375 -10.109375 19.109375 -12.078125 
Q 22.125 -14.0625 27 -14.0625 
Q 29.984375 -14.0625 32.421875 -13.234375 
Q 34.859375 -12.40625 36.5625 -10.5625 
Q 38.28125 -8.734375 39.203125 -5.796875 
Q 40.140625 -2.875 40.140625 1.3125 
L 40.140625 9.8125 
L 40.046875 9.8125 
Q 39.0625 7.8125 37.625 5.984375 
Q 36.1875 4.15625 34.109375 2.734375 
Q 32.03125 1.3125 29.296875 0.453125 
Q 26.5625 -0.390625 23.046875 -0.390625 
Q 18.015625 -0.390625 14.421875 1.296875 
Q 10.84375 2.984375 8.5625 6.34375 
Q 6.296875 9.71875 5.25 14.71875 
Q 4.203125 19.734375 4.203125 26.3125 
Q 4.203125 32.671875 5.25 37.75 
Q 6.296875 42.828125 8.65625 46.359375 
Q 11.03125 49.90625 14.8125 51.78125 
Q 18.609375 53.65625 24.03125 53.65625 
Q 29.640625 53.65625 33.765625 51.09375 
Q 37.890625 48.53125 40.140625 43.796875 
L 40.234375 43.796875 
Q 40.234375 45.015625 40.296875 46.53125 
Q 40.375 48.046875 40.453125 49.390625 
Q 40.53125 50.734375 40.625 51.703125 
Q 40.71875 52.6875 40.828125 52.828125 
L 49.171875 52.828125 
Q 49.125 52.390625 49.078125 51.34375 
Q 49.03125 50.296875 48.96875 48.828125 
Q 48.921875 47.359375 48.890625 45.578125 
Q 48.875 43.796875 48.875 41.890625 
L 48.875 1.515625 
Q 48.875 -9.578125 43.421875 -15.15625 
Q 37.984375 -20.75 26.765625 -20.75 
M 40.140625 26.421875 
Q 40.140625 31.9375 38.9375 35.859375 
Q 37.75 39.796875 35.796875 42.28125 
Q 33.84375 44.78125 31.328125 45.953125 
Q 28.8125 47.125 26.171875 47.125 
Q 22.796875 47.125 20.375 45.953125 
Q 17.96875 44.78125 16.375 42.265625 
Q 14.796875 39.75 14.03125 35.8125 
Q 13.28125 31.890625 13.28125 26.421875 
Q 13.28125 20.703125 14.03125 16.8125 
Q 14.796875 12.9375 16.359375 10.546875 
Q 17.921875 8.15625 20.3125 7.125 
Q 22.703125 6.109375 26.03125 6.109375 
Q 28.65625 6.109375 31.171875 7.21875 
Q 33.6875 8.34375 35.6875 10.78125 
Q 37.703125 13.234375 38.921875 17.09375 
Q 40.140625 20.953125 40.140625 26.421875 
" id="LiberationSans-67"/>
     </defs>
     <g style="fill:#262626;" transform="translate(247.133017 242.018821)scale(0.1375 -0.1375)">
      <use xlink:href="#LiberationSans-4c"/>
      <use x="55.615234" xlink:href="#LiberationSans-61"/>
      <use x="111.230469" xlink:href="#LiberationSans-67"/>
     </g>
    </g>
   </g>
   <g id="matplotlib.axis_2">
    <g id="ytick_1">
     <g id="line2d_10"/>
     <g id="text_11">
      <!-- −0.2 -->
      <defs>
       <path d="M 4.9375 29.6875 
L 4.9375 36.8125 
L 53.515625 36.8125 
L 53.515625 29.6875 
z
" id="LiberationSans-2212"/>
       <path d="M 9.125 0 
L 9.125 10.6875 
L 18.65625 10.6875 
L 18.65625 0 
z
" id="LiberationSans-2e"/>
      </defs>
      <g style="fill:#262626;" transform="translate(24.017578 206.024412)scale(0.125 -0.125)">
       <use xlink:href="#LiberationSans-2212"/>
       <use x="58.398438" xlink:href="#LiberationSans-30"/>
       <use x="114.013672" xlink:href="#LiberationSans-2e"/>
       <use x="141.796875" xlink:href="#LiberationSans-32"/>
      </g>
     </g>
    </g>
    <g id="ytick_2">
     <g id="line2d_11"/>
     <g id="text_12">
      <!-- 0.0 -->
      <g style="fill:#262626;" transform="translate(31.318359 174.396776)scale(0.125 -0.125)">
       <use xlink:href="#LiberationSans-30"/>
       <use x="55.615234" xlink:href="#LiberationSans-2e"/>
       <use x="83.398438" xlink:href="#LiberationSans-30"/>
      </g>
     </g>
    </g>
    <g id="ytick_3">
     <g id="line2d_12"/>
     <g id="text_13">
      <!-- 0.2 -->
      <g style="fill:#262626;" transform="translate(31.318359 142.769139)scale(0.125 -0.125)">
       <use xlink:href="#LiberationSans-30"/>
       <use x="55.615234" xlink:href="#LiberationSans-2e"/>
       <use x="83.398438" xlink:href="#LiberationSans-32"/>
      </g>
     </g>
    </g>
    <g id="ytick_4">
     <g id="line2d_13"/>
     <g id="text_14">
      <!-- 0.4 -->
      <g style="fill:#262626;" transform="translate(31.318359 111.141503)scale(0.125 -0.125)">
       <use xlink:href="#LiberationSans-30"/>
       <use x="55.615234" xlink:href="#LiberationSans-2e"/>
       <use x="83.398438" xlink:href="#LiberationSans-34"/>
      </g>
     </g>
    </g>
    <g id="ytick_5">
     <g id="line2d_14"/>
     <g id="text_15">
      <!-- 0.6 -->
      <defs>
       <path d="M 51.21875 22.515625 
Q 51.21875 17.328125 49.78125 13 
Q 48.34375 8.6875 45.53125 5.578125 
Q 42.71875 2.484375 38.5625 0.75 
Q 34.421875 -0.984375 29 -0.984375 
Q 23 -0.984375 18.5 1.3125 
Q 14.015625 3.609375 11.03125 7.921875 
Q 8.0625 12.25 6.5625 18.53125 
Q 5.078125 24.8125 5.078125 32.8125 
Q 5.078125 42 6.765625 48.921875 
Q 8.453125 55.859375 11.625 60.5 
Q 14.796875 65.140625 19.359375 67.484375 
Q 23.921875 69.828125 29.6875 69.828125 
Q 33.203125 69.828125 36.28125 69.09375 
Q 39.359375 68.359375 41.875 66.71875 
Q 44.390625 65.09375 46.28125 62.40625 
Q 48.1875 59.71875 49.3125 55.8125 
L 40.921875 54.296875 
Q 39.546875 58.734375 36.546875 60.71875 
Q 33.546875 62.703125 29.59375 62.703125 
Q 25.984375 62.703125 23.046875 60.984375 
Q 20.125 59.28125 18.0625 55.875 
Q 16.015625 52.484375 14.90625 47.359375 
Q 13.8125 42.234375 13.8125 35.40625 
Q 16.21875 39.84375 20.5625 42.15625 
Q 24.90625 44.484375 30.515625 44.484375 
Q 35.203125 44.484375 39.015625 42.96875 
Q 42.828125 41.453125 45.53125 38.59375 
Q 48.25 35.75 49.734375 31.671875 
Q 51.21875 27.59375 51.21875 22.515625 
M 42.28125 22.125 
Q 42.28125 25.6875 41.40625 28.5625 
Q 40.53125 31.453125 38.765625 33.46875 
Q 37.015625 35.5 34.421875 36.59375 
Q 31.84375 37.703125 28.421875 37.703125 
Q 26.03125 37.703125 23.578125 36.984375 
Q 21.140625 36.28125 19.15625 34.6875 
Q 17.1875 33.109375 15.9375 30.515625 
Q 14.703125 27.9375 14.703125 24.21875 
Q 14.703125 20.40625 15.671875 17.109375 
Q 16.65625 13.8125 18.484375 11.375 
Q 20.3125 8.9375 22.890625 7.515625 
Q 25.484375 6.109375 28.71875 6.109375 
Q 31.890625 6.109375 34.40625 7.203125 
Q 36.921875 8.296875 38.671875 10.375 
Q 40.4375 12.453125 41.359375 15.421875 
Q 42.28125 18.40625 42.28125 22.125 
" id="LiberationSans-36"/>
      </defs>
      <g style="fill:#262626;" transform="translate(31.318359 79.513866)scale(0.125 -0.125)">
       <use xlink:href="#LiberationSans-30"/>
       <use x="55.615234" xlink:href="#LiberationSans-2e"/>
       <use x="83.398438" xlink:href="#LiberationSans-36"/>
      </g>
     </g>
    </g>
    <g id="ytick_6">
     <g id="line2d_15"/>
     <g id="text_16">
      <!-- 0.8 -->
      <defs>
       <path d="M 51.265625 19.1875 
Q 51.265625 14.796875 49.875 11.109375 
Q 48.484375 7.421875 45.625 4.734375 
Q 42.78125 2.046875 38.328125 0.53125 
Q 33.890625 -0.984375 27.828125 -0.984375 
Q 21.78125 -0.984375 17.359375 0.53125 
Q 12.9375 2.046875 10.03125 4.703125 
Q 7.125 7.375 5.734375 11.0625 
Q 4.34375 14.75 4.34375 19.09375 
Q 4.34375 22.859375 5.484375 25.78125 
Q 6.640625 28.71875 8.5625 30.828125 
Q 10.5 32.953125 12.96875 34.25 
Q 15.4375 35.546875 18.0625 35.984375 
L 18.0625 36.1875 
Q 15.1875 36.859375 12.90625 38.375 
Q 10.640625 39.890625 9.09375 42.015625 
Q 7.5625 44.140625 6.75 46.71875 
Q 5.953125 49.3125 5.953125 52.203125 
Q 5.953125 55.8125 7.34375 59 
Q 8.734375 62.203125 11.46875 64.625 
Q 14.203125 67.046875 18.25 68.4375 
Q 22.3125 69.828125 27.640625 69.828125 
Q 33.25 69.828125 37.375 68.40625 
Q 41.5 67 44.203125 64.578125 
Q 46.921875 62.15625 48.234375 58.9375 
Q 49.5625 55.71875 49.5625 52.09375 
Q 49.5625 49.265625 48.75 46.671875 
Q 47.953125 44.09375 46.40625 41.96875 
Q 44.875 39.84375 42.59375 38.34375 
Q 40.328125 36.859375 37.359375 36.28125 
L 37.359375 36.078125 
Q 40.328125 35.59375 42.859375 34.296875 
Q 45.40625 33.015625 47.265625 30.890625 
Q 49.125 28.765625 50.1875 25.828125 
Q 51.265625 22.90625 51.265625 19.1875 
M 40.4375 51.609375 
Q 40.4375 54.203125 39.765625 56.34375 
Q 39.109375 58.5 37.59375 60.03125 
Q 36.078125 61.578125 33.640625 62.421875 
Q 31.203125 63.28125 27.640625 63.28125 
Q 24.171875 63.28125 21.78125 62.421875 
Q 19.390625 61.578125 17.84375 60.03125 
Q 16.3125 58.5 15.625 56.34375 
Q 14.9375 54.203125 14.9375 51.609375 
Q 14.9375 49.5625 15.46875 47.40625 
Q 16.015625 45.265625 17.421875 43.5 
Q 18.84375 41.75 21.328125 40.625 
Q 23.828125 39.5 27.734375 39.5 
Q 31.890625 39.5 34.40625 40.625 
Q 36.921875 41.75 38.25 43.5 
Q 39.59375 45.265625 40.015625 47.40625 
Q 40.4375 49.5625 40.4375 51.609375 
M 42.140625 20.015625 
Q 42.140625 22.515625 41.453125 24.828125 
Q 40.765625 27.15625 39.109375 28.9375 
Q 37.453125 30.71875 34.640625 31.8125 
Q 31.84375 32.90625 27.640625 32.90625 
Q 23.78125 32.90625 21.0625 31.8125 
Q 18.359375 30.71875 16.671875 28.90625 
Q 14.984375 27.09375 14.203125 24.71875 
Q 13.421875 22.359375 13.421875 19.828125 
Q 13.421875 16.65625 14.203125 14.03125 
Q 14.984375 11.421875 16.6875 9.546875 
Q 18.40625 7.671875 21.1875 6.640625 
Q 23.96875 5.609375 27.9375 5.609375 
Q 31.9375 5.609375 34.671875 6.640625 
Q 37.40625 7.671875 39.0625 9.546875 
Q 40.71875 11.421875 41.421875 14.078125 
Q 42.140625 16.75 42.140625 20.015625 
" id="LiberationSans-38"/>
      </defs>
      <g style="fill:#262626;" transform="translate(31.318359 47.88623)scale(0.125 -0.125)">
       <use xlink:href="#LiberationSans-30"/>
       <use x="55.615234" xlink:href="#LiberationSans-2e"/>
       <use x="83.398438" xlink:href="#LiberationSans-38"/>
      </g>
     </g>
    </g>
    <g id="ytick_7">
     <g id="line2d_16"/>
     <g id="text_17">
      <!-- 1.0 -->
      <g style="fill:#262626;" transform="translate(31.318359 16.258594)scale(0.125 -0.125)">
       <use xlink:href="#LiberationSans-31"/>
       <use x="55.615234" xlink:href="#LiberationSans-2e"/>
       <use x="83.398438" xlink:href="#LiberationSans-30"/>
      </g>
     </g>
    </g>
    <g id="text_18">
     <!-- Autocorrelation -->
     <defs>
      <path d="M 56.984375 0 
L 49.125 20.125 
L 17.78125 20.125 
L 9.859375 0 
L 0.203125 0 
L 28.265625 68.796875 
L 38.875 68.796875 
L 66.5 0 
z
M 37.5 50.09375 
Q 36.71875 52.046875 36 54.046875 
Q 35.296875 56.0625 34.765625 57.6875 
Q 34.234375 59.328125 33.859375 60.421875 
Q 33.5 61.53125 33.453125 61.765625 
Q 33.34375 61.53125 33 60.40625 
Q 32.671875 59.28125 32.109375 57.609375 
Q 31.546875 55.953125 30.828125 53.953125 
Q 30.125 51.953125 29.390625 50 
L 20.609375 27.390625 
L 46.34375 27.390625 
z
" id="LiberationSans-41"/>
      <path d="M 15.328125 52.828125 
L 15.328125 19.34375 
Q 15.328125 15.484375 15.890625 12.890625 
Q 16.453125 10.296875 17.71875 8.703125 
Q 19 7.125 21.0625 6.46875 
Q 23.140625 5.8125 26.21875 5.8125 
Q 29.34375 5.8125 31.859375 6.90625 
Q 34.375 8.015625 36.15625 10.078125 
Q 37.9375 12.15625 38.90625 15.203125 
Q 39.890625 18.265625 39.890625 22.21875 
L 39.890625 52.828125 
L 48.6875 52.828125 
L 48.6875 11.28125 
Q 48.6875 9.625 48.703125 7.78125 
Q 48.734375 5.953125 48.78125 4.3125 
Q 48.828125 2.6875 48.875 1.515625 
Q 48.921875 0.34375 48.96875 0 
L 40.671875 0 
Q 40.625 0.25 40.578125 1.3125 
Q 40.53125 2.390625 40.453125 3.78125 
Q 40.375 5.171875 40.328125 6.609375 
Q 40.28125 8.0625 40.28125 9.03125 
L 40.140625 9.03125 
Q 38.875 6.734375 37.359375 4.875 
Q 35.84375 3.03125 33.84375 1.734375 
Q 31.84375 0.4375 29.25 -0.265625 
Q 26.65625 -0.984375 23.25 -0.984375 
Q 18.84375 -0.984375 15.671875 0.09375 
Q 12.5 1.171875 10.453125 3.421875 
Q 8.40625 5.671875 7.453125 9.1875 
Q 6.5 12.703125 6.5 17.625 
L 6.5 52.828125 
z
" id="LiberationSans-75"/>
      <path d="M 27.046875 0.390625 
Q 25.046875 -0.140625 22.96875 -0.453125 
Q 20.90625 -0.78125 18.171875 -0.78125 
Q 7.625 -0.78125 7.625 11.1875 
L 7.625 46.4375 
L 1.515625 46.4375 
L 1.515625 52.828125 
L 7.953125 52.828125 
L 10.546875 64.65625 
L 16.40625 64.65625 
L 16.40625 52.828125 
L 26.171875 52.828125 
L 26.171875 46.4375 
L 16.40625 46.4375 
L 16.40625 13.09375 
Q 16.40625 9.28125 17.640625 7.734375 
Q 18.890625 6.203125 21.96875 6.203125 
Q 23.25 6.203125 24.4375 6.390625 
Q 25.640625 6.59375 27.046875 6.890625 
z
" id="LiberationSans-74"/>
      <path d="M 51.421875 26.46875 
Q 51.421875 12.59375 45.3125 5.796875 
Q 39.203125 -0.984375 27.59375 -0.984375 
Q 22.078125 -0.984375 17.71875 0.671875 
Q 13.375 2.34375 10.375 5.765625 
Q 7.375 9.1875 5.78125 14.328125 
Q 4.203125 19.484375 4.203125 26.46875 
Q 4.203125 53.8125 27.875 53.8125 
Q 34.03125 53.8125 38.5 52.09375 
Q 42.96875 50.390625 45.828125 46.96875 
Q 48.6875 43.5625 50.046875 38.421875 
Q 51.421875 33.296875 51.421875 26.46875 
M 42.1875 26.46875 
Q 42.1875 32.625 41.234375 36.625 
Q 40.28125 40.625 38.453125 43.015625 
Q 36.625 45.40625 33.984375 46.359375 
Q 31.34375 47.3125 28.03125 47.3125 
Q 24.65625 47.3125 21.9375 46.3125 
Q 19.234375 45.3125 17.328125 42.890625 
Q 15.4375 40.484375 14.421875 36.46875 
Q 13.421875 32.46875 13.421875 26.46875 
Q 13.421875 20.3125 14.5 16.28125 
Q 15.578125 12.25 17.453125 9.859375 
Q 19.34375 7.46875 21.90625 6.484375 
Q 24.46875 5.515625 27.484375 5.515625 
Q 30.859375 5.515625 33.59375 6.46875 
Q 36.328125 7.421875 38.234375 9.8125 
Q 40.140625 12.203125 41.15625 16.25 
Q 42.1875 20.3125 42.1875 26.46875 
" id="LiberationSans-6f"/>
      <path d="M 13.421875 26.65625 
Q 13.421875 22.125 14.078125 18.3125 
Q 14.75 14.5 16.3125 11.734375 
Q 17.875 8.984375 20.4375 7.46875 
Q 23 5.953125 26.765625 5.953125 
Q 31.453125 5.953125 34.59375 8.484375 
Q 37.75 11.03125 38.484375 16.3125 
L 47.359375 15.71875 
Q 46.921875 12.453125 45.453125 9.421875 
Q 44 6.390625 41.484375 4.09375 
Q 38.96875 1.8125 35.34375 0.40625 
Q 31.734375 -0.984375 27 -0.984375 
Q 20.796875 -0.984375 16.453125 1.109375 
Q 12.109375 3.21875 9.390625 6.90625 
Q 6.6875 10.59375 5.46875 15.59375 
Q 4.25 20.609375 4.25 26.46875 
Q 4.25 31.78125 5.125 35.859375 
Q 6 39.9375 7.59375 42.984375 
Q 9.1875 46.046875 11.328125 48.125 
Q 13.484375 50.203125 15.984375 51.4375 
Q 18.5 52.6875 21.28125 53.25 
Q 24.078125 53.8125 26.90625 53.8125 
Q 31.34375 53.8125 34.8125 52.59375 
Q 38.28125 51.375 40.796875 49.25 
Q 43.3125 47.125 44.875 44.234375 
Q 46.4375 41.359375 47.078125 38.03125 
L 38.03125 37.359375 
Q 37.359375 41.75 34.5625 44.328125 
Q 31.78125 46.921875 26.65625 46.921875 
Q 22.90625 46.921875 20.390625 45.671875 
Q 17.875 44.4375 16.3125 41.921875 
Q 14.75 39.40625 14.078125 35.59375 
Q 13.421875 31.78125 13.421875 26.65625 
" id="LiberationSans-63"/>
      <path d="M 6.9375 0 
L 6.9375 40.53125 
Q 6.9375 42.1875 6.90625 43.921875 
Q 6.890625 45.65625 6.828125 47.265625 
Q 6.78125 48.875 6.734375 50.28125 
Q 6.6875 51.703125 6.640625 52.828125 
L 14.9375 52.828125 
Q 14.984375 51.703125 15.0625 50.265625 
Q 15.140625 48.828125 15.203125 47.3125 
Q 15.28125 45.796875 15.296875 44.40625 
Q 15.328125 43.015625 15.328125 42.046875 
L 15.53125 42.046875 
Q 16.453125 45.0625 17.5 47.28125 
Q 18.5625 49.515625 19.96875 50.953125 
Q 21.390625 52.390625 23.34375 53.09375 
Q 25.296875 53.8125 28.078125 53.8125 
Q 29.15625 53.8125 30.125 53.640625 
Q 31.109375 53.46875 31.640625 53.328125 
L 31.640625 45.265625 
Q 30.765625 45.515625 29.59375 45.625 
Q 28.421875 45.75 26.953125 45.75 
Q 23.921875 45.75 21.796875 44.375 
Q 19.671875 43.015625 18.328125 40.59375 
Q 17 38.1875 16.359375 34.84375 
Q 15.71875 31.5 15.71875 27.546875 
L 15.71875 0 
z
" id="LiberationSans-72"/>
      <path d="M 13.484375 24.5625 
Q 13.484375 20.40625 14.328125 16.90625 
Q 15.1875 13.421875 16.96875 10.90625 
Q 18.75 8.40625 21.53125 7 
Q 24.3125 5.609375 28.21875 5.609375 
Q 33.9375 5.609375 37.375 7.90625 
Q 40.828125 10.203125 42.046875 13.71875 
L 49.75 11.53125 
Q 48.921875 9.328125 47.4375 7.109375 
Q 45.953125 4.890625 43.453125 3.09375 
Q 40.96875 1.3125 37.234375 0.15625 
Q 33.5 -0.984375 28.21875 -0.984375 
Q 16.5 -0.984375 10.375 6 
Q 4.25 12.984375 4.25 26.765625 
Q 4.25 34.1875 6.09375 39.328125 
Q 7.953125 44.484375 11.171875 47.703125 
Q 14.40625 50.921875 18.703125 52.359375 
Q 23 53.8125 27.875 53.8125 
Q 34.515625 53.8125 38.984375 51.65625 
Q 43.453125 49.515625 46.15625 45.71875 
Q 48.875 41.9375 50.015625 36.8125 
Q 51.171875 31.6875 51.171875 25.734375 
L 51.171875 24.5625 
z
M 42.09375 31.296875 
Q 41.359375 39.65625 37.84375 43.484375 
Q 34.328125 47.3125 27.734375 47.3125 
Q 25.53125 47.3125 23.109375 46.609375 
Q 20.703125 45.90625 18.65625 44.09375 
Q 16.609375 42.28125 15.1875 39.171875 
Q 13.765625 36.078125 13.578125 31.296875 
z
" id="LiberationSans-65"/>
      <path d="M 6.734375 0 
L 6.734375 72.46875 
L 15.53125 72.46875 
L 15.53125 0 
z
" id="LiberationSans-6c"/>
      <path d="M 6.6875 64.0625 
L 6.6875 72.46875 
L 15.484375 72.46875 
L 15.484375 64.0625 
z
M 6.6875 0 
L 6.6875 52.828125 
L 15.484375 52.828125 
L 15.484375 0 
z
" id="LiberationSans-69"/>
      <path d="M 40.28125 0 
L 40.28125 33.5 
Q 40.28125 37.359375 39.71875 39.9375 
Q 39.15625 42.53125 37.890625 44.109375 
Q 36.625 45.703125 34.546875 46.359375 
Q 32.46875 47.015625 29.390625 47.015625 
Q 26.265625 47.015625 23.75 45.921875 
Q 21.234375 44.828125 19.453125 42.75 
Q 17.671875 40.671875 16.6875 37.625 
Q 15.71875 34.578125 15.71875 30.609375 
L 15.71875 0 
L 6.9375 0 
L 6.9375 41.546875 
Q 6.9375 43.21875 6.90625 45.046875 
Q 6.890625 46.875 6.828125 48.5 
Q 6.78125 50.140625 6.734375 51.3125 
Q 6.6875 52.484375 6.640625 52.828125 
L 14.9375 52.828125 
Q 14.984375 52.59375 15.03125 51.515625 
Q 15.09375 50.4375 15.15625 49.046875 
Q 15.234375 47.65625 15.28125 46.21875 
Q 15.328125 44.78125 15.328125 43.796875 
L 15.484375 43.796875 
Q 16.75 46.09375 18.265625 47.953125 
Q 19.78125 49.8125 21.78125 51.09375 
Q 23.78125 52.390625 26.359375 53.09375 
Q 28.953125 53.8125 32.375 53.8125 
Q 36.765625 53.8125 39.9375 52.734375 
Q 43.109375 51.65625 45.15625 49.40625 
Q 47.21875 47.171875 48.171875 43.625 
Q 49.125 40.09375 49.125 35.203125 
L 49.125 0 
z
" id="LiberationSans-6e"/>
     </defs>
     <g style="fill:#262626;" transform="translate(17.164453 156.804332)rotate(-90)scale(0.1375 -0.1375)">
      <use xlink:href="#LiberationSans-41"/>
      <use x="66.699219" xlink:href="#LiberationSans-75"/>
      <use x="122.314453" xlink:href="#LiberationSans-74"/>
      <use x="150.097656" xlink:href="#LiberationSans-6f"/>
      <use x="205.712891" xlink:href="#LiberationSans-63"/>
      <use x="255.712891" xlink:href="#LiberationSans-6f"/>
      <use x="311.328125" xlink:href="#LiberationSans-72"/>
      <use x="344.628906" xlink:href="#LiberationSans-72"/>
      <use x="377.929688" xlink:href="#LiberationSans-65"/>
      <use x="433.544922" xlink:href="#LiberationSans-6c"/>
      <use x="455.761719" xlink:href="#LiberationSans-61"/>
      <use x="511.376953" xlink:href="#LiberationSans-74"/>
      <use x="539.160156" xlink:href="#LiberationSans-69"/>
      <use x="561.376953" xlink:href="#LiberationSans-6f"/>
      <use x="616.992188" xlink:href="#LiberationSans-6e"/>
     </g>
    </g>
   </g>
   <g id="line2d_17">
    <path clip-path="url(#p65b28ab3b8)" d="M 55.693359 156.553254 
L 461.511541 156.553254 
" style="fill:none;stroke:#808080;stroke-dasharray:5.6,2.4;stroke-dashoffset:0;stroke-width:1.75;"/>
   </g>
   <g id="line2d_18">
    <path clip-path="url(#p65b28ab3b8)" d="M 55.693359 159.736605 
L 461.511541 159.736605 
" style="fill:none;stroke:#808080;stroke-linecap:round;stroke-width:1.75;"/>
   </g>
   <g id="line2d_19">
    <path clip-path="url(#p65b28ab3b8)" d="M 55.693359 169.867479 
L 461.511541 169.867479 
" style="fill:none;stroke:#000000;stroke-linecap:round;stroke-width:1.75;"/>
   </g>
   <g id="line2d_20">
    <path clip-path="url(#p65b28ab3b8)" d="M 55.693359 179.998353 
L 461.511541 179.998353 
" style="fill:none;stroke:#808080;stroke-linecap:round;stroke-width:1.75;"/>
   </g>
   <g id="line2d_21">
    <path clip-path="url(#p65b28ab3b8)" d="M 55.693359 183.181704 
L 461.511541 183.181704 
" style="fill:none;stroke:#808080;stroke-dasharray:5.6,2.4;stroke-dashoffset:0;stroke-width:1.75;"/>
   </g>
   <g id="line2d_22">
    <path clip-path="url(#p65b28ab3b8)" d="M 56.707905 17.347749 
L 57.72245 24.481582 
L 59.751541 41.310454 
L 60.766087 50.625385 
L 63.809723 82.659082 
L 65.838814 105.328713 
L 67.867905 125.137247 
L 68.88245 133.208639 
L 69.896996 140.224502 
L 71.926087 152.295553 
L 72.940632 157.540969 
L 73.955178 162.055888 
L 75.984268 169.004339 
L 76.998814 171.691567 
L 79.027905 175.741688 
L 81.056996 178.423503 
L 82.071541 179.381577 
L 83.086087 180.113491 
L 84.100632 180.365926 
L 85.115178 180.312688 
L 86.129723 179.732045 
L 87.144268 179.464738 
L 88.158814 178.763672 
L 89.173359 177.726195 
L 91.20245 175.199232 
L 92.216996 174.203986 
L 94.246087 171.451965 
L 96.275178 167.972697 
L 99.318814 164.52949 
L 100.333359 163.88107 
L 101.347905 163.510741 
L 103.376996 162.082143 
L 104.391541 161.308739 
L 105.406087 161.178472 
L 106.420632 161.538848 
L 108.449723 162.887736 
L 109.464268 163.811158 
L 110.478814 164.511532 
L 112.507905 166.706226 
L 114.536996 169.941995 
L 116.566087 172.980692 
L 118.595178 176.89936 
L 119.609723 178.895865 
L 121.638814 182.329057 
L 124.68245 187.418756 
L 127.726087 192.161973 
L 128.740632 193.521385 
L 130.769723 195.379424 
L 132.798814 196.511218 
L 133.813359 196.89677 
L 134.827905 197.006316 
L 135.84245 196.933059 
L 137.871541 196.154751 
L 138.886087 195.286384 
L 139.900632 193.983121 
L 140.915178 192.883385 
L 141.929723 191.57947 
L 142.944268 189.969768 
L 143.958814 188.143908 
L 147.00245 181.68022 
L 152.075178 169.977237 
L 154.104268 165.923907 
L 156.133359 162.49853 
L 159.176996 157.817661 
L 161.206087 156.495804 
L 163.235178 156.340319 
L 164.249723 156.567774 
L 165.264268 157.239908 
L 167.293359 160.013472 
L 175.409723 176.797146 
L 179.467905 184.063674 
L 180.48245 185.299285 
L 181.496996 186.209841 
L 182.511541 186.858504 
L 184.540632 188.36617 
L 185.555178 188.577836 
L 186.569723 188.344277 
L 188.598814 187.509768 
L 189.613359 186.792152 
L 190.627905 185.740119 
L 193.671541 181.44896 
L 194.686087 179.235236 
L 197.729723 171.349056 
L 198.744268 168.638557 
L 201.787905 158.812 
L 203.816996 152.486696 
L 205.846087 145.389143 
L 207.875178 139.012012 
L 209.904268 134.229488 
L 211.933359 131.068795 
L 212.947905 130.534685 
L 213.96245 130.257886 
L 214.976996 130.400874 
L 215.991541 130.97425 
L 217.006087 132.095257 
L 218.020632 133.483818 
L 219.035178 135.437341 
L 220.049723 137.837555 
L 225.12245 152.317905 
L 226.136996 154.949203 
L 228.166087 161.171429 
L 229.180632 164.511286 
L 231.209723 169.94477 
L 233.238814 174.366416 
L 234.253359 176.133626 
L 235.267905 177.330491 
L 237.296996 178.641564 
L 238.311541 178.6496 
L 239.326087 178.22633 
L 240.340632 177.08361 
L 241.355178 175.521982 
L 242.369723 173.548342 
L 243.384268 170.749501 
L 244.398814 167.342283 
L 246.427905 159.826919 
L 247.44245 155.345704 
L 251.500632 135.645561 
L 252.515178 131.632467 
L 254.544268 126.496146 
L 256.573359 122.246657 
L 257.587905 121.558115 
L 258.60245 121.978713 
L 259.616996 123.068954 
L 260.631541 125.219067 
L 262.660632 131.756251 
L 263.675178 134.885942 
L 265.704268 139.378354 
L 267.733359 143.64342 
L 270.776996 151.528069 
L 271.791541 153.911486 
L 273.820632 159.408913 
L 275.849723 163.872266 
L 277.878814 169.750905 
L 278.893359 172.620197 
L 281.936996 179.919981 
L 282.951541 182.380145 
L 283.966087 184.489165 
L 284.980632 186.277611 
L 285.995178 187.721054 
L 287.009723 188.673758 
L 289.038814 190.053315 
L 290.053359 190.141761 
L 291.067905 190.029088 
L 292.08245 189.734204 
L 295.126087 188.272058 
L 296.140632 187.425462 
L 298.169723 185.225954 
L 299.184268 184.210621 
L 300.198814 182.968491 
L 301.213359 181.992138 
L 302.227905 180.809537 
L 304.256996 177.710635 
L 307.300632 174.083698 
L 309.329723 171.562021 
L 310.344268 170.346103 
L 312.373359 168.655943 
L 315.416996 166.407322 
L 317.446087 165.827587 
L 318.460632 165.839896 
L 321.504268 166.938178 
L 324.547905 169.797023 
L 326.576996 171.683039 
L 328.606087 174.226025 
L 330.635178 177.070378 
L 335.707905 183.232456 
L 338.751541 186.359408 
L 339.766087 187.0389 
L 340.780632 187.439905 
L 343.824268 188.13031 
L 345.853359 187.816641 
L 346.867905 187.526543 
L 347.88245 187.030123 
L 348.896996 186.324371 
L 350.926087 185.108547 
L 351.940632 184.387536 
L 354.984268 180.787166 
L 355.998814 179.687449 
L 365.129723 167.050278 
L 366.144268 166.057995 
L 368.173359 164.49084 
L 369.187905 164.354142 
L 371.216996 164.509108 
L 372.231541 164.694734 
L 373.246087 165.176457 
L 374.260632 165.823768 
L 375.275178 166.212389 
L 376.289723 166.740559 
L 377.304268 167.585531 
L 379.333359 169.608496 
L 380.347905 170.85346 
L 382.376996 172.788363 
L 384.406087 174.769882 
L 385.420632 176.035337 
L 387.449723 178.001523 
L 389.478814 179.297208 
L 390.493359 179.860656 
L 391.507905 180.247818 
L 393.536996 180.541104 
L 395.566087 180.24877 
L 396.580632 179.662409 
L 398.609723 178.217282 
L 399.624268 177.038865 
L 400.638814 175.641296 
L 403.68245 171.0701 
L 404.696996 169.579614 
L 405.711541 167.740831 
L 408.755178 161.268882 
L 411.798814 155.568002 
L 412.813359 154.217791 
L 413.827905 153.171573 
L 416.871541 148.9585 
L 419.915178 146.758907 
L 420.929723 146.261315 
L 421.944268 145.590109 
L 423.973359 144.862753 
L 424.987905 145.102036 
L 426.00245 145.747338 
L 427.016996 146.609241 
L 428.031541 147.912555 
L 429.046087 149.572695 
L 430.060632 151.539369 
L 432.089723 156.375256 
L 435.133359 164.764881 
L 437.16245 169.477893 
L 439.191541 173.648704 
L 441.220632 177.890061 
L 443.249723 181.318387 
L 445.278814 184.158695 
L 446.293359 185.079185 
L 447.307905 185.803668 
L 450.351541 186.870586 
L 451.366087 186.870332 
L 453.395178 186.117032 
L 455.424268 185.611757 
L 457.453359 184.458429 
L 458.467905 183.705726 
L 460.496996 181.433661 
L 462.526087 179.370404 
L 464.555178 178.094707 
L 468.613359 176.209476 
L 469.627905 176.29496 
L 470.64245 176.258841 
L 471.656996 176.418115 
L 473.686087 176.965121 
L 474.700632 177.531056 
L 476.729723 178.181547 
L 478.758814 179.65525 
L 479.773359 180.7151 
L 480.787905 181.437731 
L 483.831541 184.078507 
L 484.846087 184.796107 
L 485.860632 185.674612 
L 488.904268 187.780601 
L 489.918814 188.29802 
L 490.933359 188.630164 
L 494.991541 189.097322 
L 496.006087 189.27551 
L 499.049723 189.348735 
L 500.064268 189.294647 
L 501.078814 188.86626 
L 503.107905 188.312058 
L 505.136996 187.002685 
L 507.166087 185.353864 
L 511.224268 181.360419 
L 515.28245 176.734019 
L 516.296996 175.331716 
L 523.398814 167.069119 
L 524.413359 166.256759 
L 525.427905 165.693327 
L 526.44245 164.897477 
L 527.456996 163.945212 
L 529.486087 162.472117 
L 531.515178 161.780987 
L 533.544268 162.013273 
L 535.573359 162.046009 
L 536.587905 162.516376 
L 538.616996 164.406467 
L 539.631541 166.257298 
L 542.675178 172.802605 
L 544.704268 176.529043 
L 545.718814 178.038255 
L 547.747905 180.400465 
L 548.76245 181.485293 
L 550.791541 182.714162 
L 551.806087 183.094132 
L 552.820632 183.35456 
L 554.849723 183.563428 
L 556.878814 183.229274 
L 557.893359 182.607214 
L 558.907905 182.152523 
L 560.936996 180.755085 
L 562.966087 179.28495 
L 564.995178 177.450649 
L 568.038814 174.55149 
L 569.053359 173.166476 
L 571.08245 171.183851 
L 574.126087 169.133654 
L 576.155178 168.623072 
L 578.184268 168.518325 
L 579.198814 168.098823 
L 580.213359 168.212053 
L 581.227905 168.639541 
L 582.24245 169.290407 
L 583.256996 170.189754 
L 584.271541 170.859565 
L 589.344268 175.219765 
L 591.373359 177.147858 
L 593.40245 178.611552 
L 595.431541 179.530281 
L 599.489723 181.933616 
L 601.518814 182.622175 
L 603.547905 183.090759 
L 604.56245 183.116469 
L 605.576996 183.281813 
L 606.591541 183.26443 
L 608.620632 182.733933 
L 609.635178 182.23593 
L 610.649723 181.545131 
L 611.664268 180.640971 
L 613.693359 178.202591 
L 614.707905 176.772284 
L 615.72245 175.142003 
L 617.751541 171.091785 
L 621.809723 161.60828 
L 623.838814 156.848512 
L 624.853359 154.992449 
L 625.867905 153.493566 
L 626.88245 152.64968 
L 627.896996 152.015969 
L 628.911541 151.807277 
L 629.926087 151.77883 
L 630.940632 152.331211 
L 631.955178 153.221868 
L 632.969723 154.838443 
L 633.984268 156.706738 
L 636.013359 161.128661 
L 638.04245 165.092784 
L 640.071541 168.721671 
L 642.100632 171.683455 
L 644.129723 174.518148 
L 646.158814 177.066624 
L 648.187905 179.076658 
L 651.231541 181.15497 
L 653.260632 182.307304 
L 655.289723 182.993555 
L 657.318814 183.166983 
L 659.347905 183.020651 
L 661.376996 182.505148 
L 663.406087 181.75187 
L 666.449723 180.272467 
L 671.52245 177.71583 
L 673.551541 176.492584 
L 674.566087 175.862516 
L 675.580632 175.38101 
L 677.609723 174.101657 
L 679.638814 173.097196 
L 681.667905 172.672267 
L 685.726087 172.585025 
L 687.755178 173.279817 
L 690.798814 174.594978 
L 691.813359 175.051175 
L 695.871541 177.276881 
L 698.915178 178.72938 
L 699.929723 179.226153 
L 706.016996 181.221579 
L 708.046087 181.760057 
L 709.060632 181.979801 
L 712.104268 181.811066 
L 714.133359 181.016213 
L 716.16245 179.835306 
L 717.176996 179.028152 
L 719.206087 176.946521 
L 722.249723 172.806371 
L 724.278814 169.407962 
L 726.307905 165.362362 
L 729.351541 159.404615 
L 733.409723 151.976752 
L 734.424268 151.054055 
L 735.438814 150.331056 
L 736.453359 150.464575 
L 737.467905 151.156173 
L 739.496996 152.913604 
L 740.511541 154.196686 
L 741.526087 156.289484 
L 743.555178 161.634672 
L 745.584268 166.990462 
L 747.613359 171.279953 
L 748.627905 173.128389 
L 749.64245 174.73485 
L 751.671541 177.216942 
L 753.700632 179.192554 
L 755.729723 180.675819 
L 756.744268 181.224065 
L 757.758814 181.634465 
L 759.787905 181.980936 
L 761.816996 181.945048 
L 762.831541 181.463944 
L 763.846087 180.84706 
L 764.860632 180.025388 
L 768.918814 175.90748 
L 771.96245 171.888803 
L 775.006087 168.57607 
L 777.035178 166.964019 
L 783.12245 163.411957 
L 784.136996 163.219586 
L 785.151541 163.143724 
L 786.166087 163.243629 
L 787.180632 163.548113 
L 788.195178 163.540786 
L 790.224268 164.336373 
L 791.238814 164.954158 
L 793.267905 166.55213 
L 798.340632 169.91668 
L 800.369723 171.300815 
L 802.398814 172.359984 
L 804.427905 173.082597 
L 807.471541 173.922885 
L 809.500632 174.394698 
L 812.544268 174.887967 
L 815.587905 174.963727 
L 819.646087 174.635636 
L 823.704268 173.492428 
L 825.733359 172.948849 
L 829.791541 171.154334 
L 832.835178 169.809863 
L 836.893359 168.228293 
L 837.907905 168.057329 
L 839.936996 168.084839 
L 841.966087 168.306136 
L 843.995178 168.411518 
L 845.009723 168.514356 
L 846.024268 168.813538 
L 852.111541 171.483837 
L 856.169723 173.509256 
L 859.213359 174.128944 
L 862.256996 174.255363 
L 864.286087 174.132864 
L 866.315178 173.721978 
L 870.373359 172.471684 
L 871.387905 172.298032 
L 874.431541 171.109342 
L 882.547905 167.010585 
L 884.576996 165.84114 
L 885.591541 165.354272 
L 886.606087 165.009259 
L 887.620632 164.784645 
L 891.678814 163.323641 
L 892.693359 163.396248 
L 896.751541 164.687649 
L 897.766087 165.101594 
L 899.795178 166.169794 
L 901.824268 167.763488 
L 903.853359 169.146459 
L 907.911541 171.04817 
L 908.926087 171.69998 
L 910.955178 172.499401 
L 912.984268 172.957788 
L 915.013359 173.032613 
L 919.071541 173.035077 
L 921.100632 172.714401 
L 922.115178 172.390483 
L 925.158814 171.719758 
L 927.187905 171.181907 
L 932.260632 169.776071 
L 934.289723 169.466806 
L 936.318814 168.932629 
L 937.333359 168.737877 
L 939.36245 168.513662 
L 944.435178 167.939674 
L 945.449723 167.941589 
L 946.464268 168.092738 
L 947.478814 168.084235 
L 950.52245 168.810785 
L 953.566087 169.610309 
L 955.595178 170.027107 
L 957.624268 170.451995 
L 961.68245 171.09458 
L 964.726087 171.460296 
L 967.120117 171.452648 
L 967.120117 171.452648 
" style="fill:none;stroke:#4c72b0;stroke-linecap:round;stroke-width:1.75;"/>
   </g>
   <g id="line2d_23">
    <path clip-path="url(#p65b28ab3b8)" d="M 109.464268 209.402024 
L 109.464268 11.729297 
" style="fill:none;stroke:#000000;stroke-dasharray:2.2,2.2;stroke-dashoffset:0;stroke-width:1.75;"/>
   </g>
   <g id="line2d_24">
    <path clip-path="url(#p65b28ab3b8)" d="M 71.926087 209.402024 
L 71.926087 11.729297 
" style="fill:none;stroke:#000000;stroke-dasharray:5.6,2.4;stroke-dashoffset:0;stroke-width:1.75;"/>
   </g>
   <g id="patch_3">
    <path d="M 55.693359 209.402024 
L 55.693359 11.729297 
" style="fill:none;"/>
   </g>
   <g id="patch_4">
    <path d="M 461.511541 209.402024 
L 461.511541 11.729297 
" style="fill:none;"/>
   </g>
   <g id="patch_5">
    <path d="M 55.693359 209.402024 
L 461.511541 209.402024 
" style="fill:none;"/>
   </g>
   <g id="patch_6">
    <path d="M 55.693359 11.729297 
L 461.511541 11.729297 
" style="fill:none;"/>
   </g>
   <g id="legend_1">
    <g id="line2d_25">
     <path d="M 352.033026 27.662891 
L 377.033026 27.662891 
" style="fill:none;stroke:#4c72b0;stroke-linecap:round;stroke-width:1.75;"/>
    </g>
    <g id="line2d_26"/>
    <g id="text_19">
     <!-- total_cases -->
     <defs>
      <path d="M -1.515625 -19.875 
L -1.515625 -13.53125 
L 56.734375 -13.53125 
L 56.734375 -19.875 
z
" id="LiberationSans-5f"/>
      <path d="M 46.390625 14.59375 
Q 46.390625 10.890625 44.9375 7.984375 
Q 43.5 5.078125 40.765625 3.09375 
Q 38.03125 1.125 34.046875 0.0625 
Q 30.078125 -0.984375 24.953125 -0.984375 
Q 20.359375 -0.984375 16.671875 -0.265625 
Q 12.984375 0.4375 10.203125 2 
Q 7.421875 3.5625 5.53125 6.125 
Q 3.65625 8.6875 2.78125 12.40625 
L 10.546875 13.921875 
Q 11.671875 9.671875 15.1875 7.6875 
Q 18.703125 5.71875 24.953125 5.71875 
Q 27.78125 5.71875 30.140625 6.109375 
Q 32.515625 6.5 34.21875 7.453125 
Q 35.9375 8.40625 36.890625 9.984375 
Q 37.84375 11.578125 37.84375 13.921875 
Q 37.84375 16.3125 36.71875 17.84375 
Q 35.59375 19.390625 33.59375 20.40625 
Q 31.59375 21.4375 28.734375 22.1875 
Q 25.875 22.953125 22.46875 23.875 
Q 19.28125 24.703125 16.15625 25.734375 
Q 13.03125 26.765625 10.515625 28.4375 
Q 8.015625 30.125 6.453125 32.609375 
Q 4.890625 35.109375 4.890625 38.875 
Q 4.890625 46.09375 10.03125 49.875 
Q 15.1875 53.65625 25.046875 53.65625 
Q 33.796875 53.65625 38.9375 50.578125 
Q 44.09375 47.515625 45.453125 40.71875 
L 37.546875 39.75 
Q 37.109375 41.796875 35.9375 43.1875 
Q 34.765625 44.578125 33.109375 45.4375 
Q 31.453125 46.296875 29.375 46.65625 
Q 27.296875 47.015625 25.046875 47.015625 
Q 19.09375 47.015625 16.25 45.203125 
Q 13.421875 43.40625 13.421875 39.75 
Q 13.421875 37.59375 14.46875 36.203125 
Q 15.53125 34.8125 17.40625 33.859375 
Q 19.28125 32.90625 21.921875 32.203125 
Q 24.5625 31.5 27.734375 30.71875 
Q 29.828125 30.171875 32.03125 29.5625 
Q 34.234375 28.953125 36.296875 28.09375 
Q 38.375 27.25 40.203125 26.09375 
Q 42.046875 24.953125 43.40625 23.34375 
Q 44.78125 21.734375 45.578125 19.578125 
Q 46.390625 17.4375 46.390625 14.59375 
" id="LiberationSans-73"/>
     </defs>
     <g style="fill:#262626;" transform="translate(387.033026 32.037891)scale(0.125 -0.125)">
      <use xlink:href="#LiberationSans-74"/>
      <use x="27.783203" xlink:href="#LiberationSans-6f"/>
      <use x="83.398438" xlink:href="#LiberationSans-74"/>
      <use x="111.181641" xlink:href="#LiberationSans-61"/>
      <use x="166.796875" xlink:href="#LiberationSans-6c"/>
      <use x="189.013672" xlink:href="#LiberationSans-5f"/>
      <use x="244.628906" xlink:href="#LiberationSans-63"/>
      <use x="294.628906" xlink:href="#LiberationSans-61"/>
      <use x="350.244141" xlink:href="#LiberationSans-73"/>
      <use x="400.244141" xlink:href="#LiberationSans-65"/>
      <use x="455.859375" xlink:href="#LiberationSans-73"/>
     </g>
    </g>
   </g>
  </g>
  <g id="axes_2">
   <g id="patch_7">
    <path d="M 542.675178 209.402024 
L 948.493359 209.402024 
L 948.493359 11.729297 
L 542.675178 11.729297 
z
" style="fill:#eaeaf2;"/>
   </g>
   <g id="matplotlib.axis_3">
    <g id="xtick_10">
     <g id="line2d_27"/>
     <g id="text_20">
      <!-- 0 -->
      <g style="fill:#262626;" transform="translate(539.199592 225.460618)scale(0.125 -0.125)">
       <use xlink:href="#LiberationSans-30"/>
      </g>
     </g>
    </g>
    <g id="xtick_11">
     <g id="line2d_28"/>
     <g id="text_21">
      <!-- 50 -->
      <g style="fill:#262626;" transform="translate(586.451278 225.460618)scale(0.125 -0.125)">
       <use xlink:href="#LiberationSans-35"/>
       <use x="55.615234" xlink:href="#LiberationSans-30"/>
      </g>
     </g>
    </g>
    <g id="xtick_12">
     <g id="line2d_29"/>
     <g id="text_22">
      <!-- 100 -->
      <g style="fill:#262626;" transform="translate(633.702965 225.460618)scale(0.125 -0.125)">
       <use xlink:href="#LiberationSans-31"/>
       <use x="55.615234" xlink:href="#LiberationSans-30"/>
       <use x="111.230469" xlink:href="#LiberationSans-30"/>
      </g>
     </g>
    </g>
    <g id="xtick_13">
     <g id="line2d_30"/>
     <g id="text_23">
      <!-- 150 -->
      <g style="fill:#262626;" transform="translate(684.430238 225.460618)scale(0.125 -0.125)">
       <use xlink:href="#LiberationSans-31"/>
       <use x="55.615234" xlink:href="#LiberationSans-35"/>
       <use x="111.230469" xlink:href="#LiberationSans-30"/>
      </g>
     </g>
    </g>
    <g id="xtick_14">
     <g id="line2d_31"/>
     <g id="text_24">
      <!-- 200 -->
      <g style="fill:#262626;" transform="translate(735.157511 225.460618)scale(0.125 -0.125)">
       <use xlink:href="#LiberationSans-32"/>
       <use x="55.615234" xlink:href="#LiberationSans-30"/>
       <use x="111.230469" xlink:href="#LiberationSans-30"/>
      </g>
     </g>
    </g>
    <g id="xtick_15">
     <g id="line2d_32"/>
     <g id="text_25">
      <!-- 250 -->
      <g style="fill:#262626;" transform="translate(785.884783 225.460618)scale(0.125 -0.125)">
       <use xlink:href="#LiberationSans-32"/>
       <use x="55.615234" xlink:href="#LiberationSans-35"/>
       <use x="111.230469" xlink:href="#LiberationSans-30"/>
      </g>
     </g>
    </g>
    <g id="xtick_16">
     <g id="line2d_33"/>
     <g id="text_26">
      <!-- 300 -->
      <g style="fill:#262626;" transform="translate(836.612056 225.460618)scale(0.125 -0.125)">
       <use xlink:href="#LiberationSans-33"/>
       <use x="55.615234" xlink:href="#LiberationSans-30"/>
       <use x="111.230469" xlink:href="#LiberationSans-30"/>
      </g>
     </g>
    </g>
    <g id="xtick_17">
     <g id="line2d_34"/>
     <g id="text_27">
      <!-- 350 -->
      <g style="fill:#262626;" transform="translate(887.339329 225.460618)scale(0.125 -0.125)">
       <use xlink:href="#LiberationSans-33"/>
       <use x="55.615234" xlink:href="#LiberationSans-35"/>
       <use x="111.230469" xlink:href="#LiberationSans-30"/>
      </g>
     </g>
    </g>
    <g id="xtick_18">
     <g id="line2d_35"/>
     <g id="text_28">
      <!-- 400 -->
      <g style="fill:#262626;" transform="translate(938.066602 225.460618)scale(0.125 -0.125)">
       <use xlink:href="#LiberationSans-34"/>
       <use x="55.615234" xlink:href="#LiberationSans-30"/>
       <use x="111.230469" xlink:href="#LiberationSans-30"/>
      </g>
     </g>
    </g>
    <g id="text_29">
     <!-- Lag -->
     <g style="fill:#262626;" transform="translate(734.114835 242.018821)scale(0.1375 -0.1375)">
      <use xlink:href="#LiberationSans-4c"/>
      <use x="55.615234" xlink:href="#LiberationSans-61"/>
      <use x="111.230469" xlink:href="#LiberationSans-67"/>
     </g>
    </g>
   </g>
   <g id="matplotlib.axis_4">
    <g id="ytick_8">
     <g id="line2d_36"/>
     <g id="text_30">
      <!-- −0.2 -->
      <g style="fill:#262626;" transform="translate(510.999396 206.024412)scale(0.125 -0.125)">
       <use xlink:href="#LiberationSans-2212"/>
       <use x="58.398438" xlink:href="#LiberationSans-30"/>
       <use x="114.013672" xlink:href="#LiberationSans-2e"/>
       <use x="141.796875" xlink:href="#LiberationSans-32"/>
      </g>
     </g>
    </g>
    <g id="ytick_9">
     <g id="line2d_37"/>
     <g id="text_31">
      <!-- 0.0 -->
      <g style="fill:#262626;" transform="translate(518.300178 174.396776)scale(0.125 -0.125)">
       <use xlink:href="#LiberationSans-30"/>
       <use x="55.615234" xlink:href="#LiberationSans-2e"/>
       <use x="83.398438" xlink:href="#LiberationSans-30"/>
      </g>
     </g>
    </g>
    <g id="ytick_10">
     <g id="line2d_38"/>
     <g id="text_32">
      <!-- 0.2 -->
      <g style="fill:#262626;" transform="translate(518.300178 142.769139)scale(0.125 -0.125)">
       <use xlink:href="#LiberationSans-30"/>
       <use x="55.615234" xlink:href="#LiberationSans-2e"/>
       <use x="83.398438" xlink:href="#LiberationSans-32"/>
      </g>
     </g>
    </g>
    <g id="ytick_11">
     <g id="line2d_39"/>
     <g id="text_33">
      <!-- 0.4 -->
      <g style="fill:#262626;" transform="translate(518.300178 111.141503)scale(0.125 -0.125)">
       <use xlink:href="#LiberationSans-30"/>
       <use x="55.615234" xlink:href="#LiberationSans-2e"/>
       <use x="83.398438" xlink:href="#LiberationSans-34"/>
      </g>
     </g>
    </g>
    <g id="ytick_12">
     <g id="line2d_40"/>
     <g id="text_34">
      <!-- 0.6 -->
      <g style="fill:#262626;" transform="translate(518.300178 79.513866)scale(0.125 -0.125)">
       <use xlink:href="#LiberationSans-30"/>
       <use x="55.615234" xlink:href="#LiberationSans-2e"/>
       <use x="83.398438" xlink:href="#LiberationSans-36"/>
      </g>
     </g>
    </g>
    <g id="ytick_13">
     <g id="line2d_41"/>
     <g id="text_35">
      <!-- 0.8 -->
      <g style="fill:#262626;" transform="translate(518.300178 47.88623)scale(0.125 -0.125)">
       <use xlink:href="#LiberationSans-30"/>
       <use x="55.615234" xlink:href="#LiberationSans-2e"/>
       <use x="83.398438" xlink:href="#LiberationSans-38"/>
      </g>
     </g>
    </g>
    <g id="ytick_14">
     <g id="line2d_42"/>
     <g id="text_36">
      <!-- 1.0 -->
      <g style="fill:#262626;" transform="translate(518.300178 16.258594)scale(0.125 -0.125)">
       <use xlink:href="#LiberationSans-31"/>
       <use x="55.615234" xlink:href="#LiberationSans-2e"/>
       <use x="83.398438" xlink:href="#LiberationSans-30"/>
      </g>
     </g>
    </g>
    <g id="text_37">
     <!-- Autocorrelation -->
     <g style="fill:#262626;" transform="translate(504.146271 156.804332)rotate(-90)scale(0.1375 -0.1375)">
      <use xlink:href="#LiberationSans-41"/>
      <use x="66.699219" xlink:href="#LiberationSans-75"/>
      <use x="122.314453" xlink:href="#LiberationSans-74"/>
      <use x="150.097656" xlink:href="#LiberationSans-6f"/>
      <use x="205.712891" xlink:href="#LiberationSans-63"/>
      <use x="255.712891" xlink:href="#LiberationSans-6f"/>
      <use x="311.328125" xlink:href="#LiberationSans-72"/>
      <use x="344.628906" xlink:href="#LiberationSans-72"/>
      <use x="377.929688" xlink:href="#LiberationSans-65"/>
      <use x="433.544922" xlink:href="#LiberationSans-6c"/>
      <use x="455.761719" xlink:href="#LiberationSans-61"/>
      <use x="511.376953" xlink:href="#LiberationSans-74"/>
      <use x="539.160156" xlink:href="#LiberationSans-69"/>
      <use x="561.376953" xlink:href="#LiberationSans-6f"/>
      <use x="616.992188" xlink:href="#LiberationSans-6e"/>
     </g>
    </g>
   </g>
   <g id="line2d_43">
    <path clip-path="url(#pe35e8b7888)" d="M 542.675178 152.004571 
L 948.493359 152.004571 
" style="fill:none;stroke:#808080;stroke-dasharray:5.6,2.4;stroke-dashoffset:0;stroke-width:1.75;"/>
   </g>
   <g id="line2d_44">
    <path clip-path="url(#pe35e8b7888)" d="M 542.675178 156.275485 
L 948.493359 156.275485 
" style="fill:none;stroke:#808080;stroke-linecap:round;stroke-width:1.75;"/>
   </g>
   <g id="line2d_45">
    <path clip-path="url(#pe35e8b7888)" d="M 542.675178 169.867479 
L 948.493359 169.867479 
" style="fill:none;stroke:#000000;stroke-linecap:round;stroke-width:1.75;"/>
   </g>
   <g id="line2d_46">
    <path clip-path="url(#pe35e8b7888)" d="M 542.675178 183.459472 
L 948.493359 183.459472 
" style="fill:none;stroke:#808080;stroke-linecap:round;stroke-width:1.75;"/>
   </g>
   <g id="line2d_47">
    <path clip-path="url(#pe35e8b7888)" d="M 542.675178 187.730386 
L 948.493359 187.730386 
" style="fill:none;stroke:#808080;stroke-dasharray:5.6,2.4;stroke-dashoffset:0;stroke-width:1.75;"/>
   </g>
   <g id="line2d_48">
    <path clip-path="url(#pe35e8b7888)" d="M 543.689723 51.793678 
L 544.704268 77.494631 
L 545.718814 83.714151 
L 546.733359 92.641727 
L 547.747905 112.203106 
L 548.76245 124.909005 
L 549.776996 128.569404 
L 551.806087 145.705909 
L 552.820632 151.194658 
L 553.835178 154.176756 
L 554.849723 156.774666 
L 555.864268 156.82192 
L 556.878814 159.7879 
L 557.893359 163.942333 
L 558.907905 162.837819 
L 559.92245 165.066972 
L 560.936996 170.311327 
L 561.951541 174.555947 
L 562.966087 175.453645 
L 563.980632 176.876016 
L 564.995178 180.609797 
L 566.009723 183.40877 
L 567.024268 183.540609 
L 568.038814 182.099918 
L 569.053359 181.803451 
L 570.067905 183.092315 
L 571.08245 183.383274 
L 573.111541 178.398411 
L 574.126087 177.41621 
L 575.140632 173.839114 
L 576.155178 171.236717 
L 577.169723 166.166651 
L 578.184268 165.078489 
L 579.198814 164.989375 
L 580.213359 165.580048 
L 581.227905 162.48476 
L 582.24245 163.129157 
L 583.256996 161.654865 
L 584.271541 163.929287 
L 585.286087 165.063835 
L 586.300632 166.449631 
L 587.315178 170.88595 
L 588.329723 171.102264 
L 589.344268 171.568683 
L 590.358814 171.618222 
L 591.373359 172.454197 
L 592.387905 173.535364 
L 593.40245 175.126572 
L 594.416996 172.309622 
L 595.431541 168.493968 
L 596.446087 172.627145 
L 597.460632 174.005853 
L 598.475178 172.400906 
L 599.489723 167.307178 
L 600.504268 170.562245 
L 601.518814 171.117598 
L 602.533359 168.563899 
L 603.547905 167.125726 
L 604.56245 171.85536 
L 605.576996 175.518732 
L 606.591541 172.388578 
L 607.606087 170.607483 
L 608.620632 178.673522 
L 609.635178 179.883969 
L 610.649723 179.781821 
L 611.664268 179.513697 
L 612.678814 182.077429 
L 614.707905 186.083643 
L 615.72245 185.105437 
L 616.736996 186.952908 
L 617.751541 187.604606 
L 618.766087 189.18014 
L 619.780632 189.93964 
L 620.795178 189.995691 
L 621.809723 193.290194 
L 624.853359 196.496181 
L 625.867905 194.803433 
L 626.88245 194.643323 
L 628.911541 193.416297 
L 629.926087 192.453855 
L 630.940632 189.501427 
L 632.969723 185.769095 
L 633.984268 185.007605 
L 634.998814 181.747464 
L 636.013359 179.835816 
L 637.027905 178.408149 
L 638.04245 177.365581 
L 639.056996 175.298594 
L 641.086087 169.102629 
L 642.100632 166.620137 
L 643.115178 161.599336 
L 644.129723 154.753382 
L 645.144268 153.214162 
L 646.158814 150.320392 
L 647.173359 146.309266 
L 648.187905 141.097231 
L 649.20245 147.819014 
L 650.216996 152.247103 
L 651.231541 152.197081 
L 652.246087 151.770758 
L 653.260632 153.572402 
L 654.275178 156.312282 
L 655.289723 155.398094 
L 656.304268 159.027288 
L 657.318814 164.752309 
L 658.333359 167.344384 
L 659.347905 167.910021 
L 660.36245 172.879233 
L 661.376996 176.009581 
L 662.391541 176.335507 
L 663.406087 179.331317 
L 664.420632 181.065505 
L 665.435178 180.745012 
L 666.449723 178.571477 
L 667.464268 179.073996 
L 668.478814 179.38357 
L 669.493359 177.033311 
L 670.507905 174.239204 
L 671.52245 173.085739 
L 672.536996 172.294753 
L 673.551541 169.293849 
L 674.566087 168.956328 
L 675.580632 168.813368 
L 676.595178 167.653179 
L 677.609723 164.884796 
L 678.624268 160.46033 
L 679.638814 158.626764 
L 680.653359 158.655271 
L 682.68245 152.541616 
L 683.696996 154.587531 
L 684.711541 153.914419 
L 685.726087 156.232161 
L 686.740632 156.400119 
L 687.755178 154.705895 
L 688.769723 157.616553 
L 689.784268 161.243118 
L 690.798814 158.178348 
L 691.813359 155.840688 
L 692.827905 159.747766 
L 693.84245 161.913365 
L 694.856996 159.56439 
L 695.871541 157.658242 
L 696.886087 164.15164 
L 697.900632 167.499978 
L 698.915178 165.633267 
L 699.929723 161.073696 
L 700.944268 157.438073 
L 701.958814 160.303693 
L 702.973359 163.578306 
L 703.987905 157.467583 
L 705.00245 148.850553 
L 707.031541 154.488745 
L 708.046087 149.138622 
L 709.060632 146.422719 
L 710.075178 150.530749 
L 711.089723 151.902024 
L 712.104268 148.159296 
L 713.118814 152.785021 
L 714.133359 159.419246 
L 715.147905 163.925064 
L 717.176996 166.469979 
L 718.191541 170.955109 
L 719.206087 173.976755 
L 721.235178 177.418639 
L 722.249723 179.955393 
L 723.264268 180.027107 
L 724.278814 180.870737 
L 725.293359 180.945536 
L 726.307905 180.279046 
L 727.32245 181.763604 
L 729.351541 182.635974 
L 730.366087 182.106429 
L 732.395178 183.24753 
L 733.409723 185.351285 
L 734.424268 183.398957 
L 735.438814 184.674786 
L 736.453359 183.379837 
L 737.467905 182.403694 
L 738.48245 182.266225 
L 739.496996 178.601227 
L 740.511541 175.764842 
L 741.526087 172.0172 
L 742.540632 167.211295 
L 743.555178 159.670011 
L 744.569723 155.292191 
L 745.584268 149.839534 
L 746.598814 146.835232 
L 747.613359 147.246896 
L 748.627905 148.986585 
L 749.64245 156.393414 
L 750.656996 159.44764 
L 751.671541 159.361266 
L 752.686087 160.32549 
L 753.700632 163.074289 
L 754.715178 167.324399 
L 755.729723 169.506461 
L 756.744268 170.970209 
L 758.773359 170.089208 
L 759.787905 166.77776 
L 760.80245 162.24265 
L 762.831541 168.41511 
L 763.846087 169.798843 
L 764.860632 172.34314 
L 765.875178 175.921462 
L 766.889723 177.531174 
L 767.904268 178.405888 
L 768.918814 179.84563 
L 769.933359 180.954221 
L 770.947905 181.72628 
L 772.976996 184.689874 
L 773.991541 184.416472 
L 776.020632 186.753074 
L 778.049723 184.067295 
L 779.064268 181.732699 
L 780.078814 183.535598 
L 781.093359 182.451773 
L 783.12245 183.604988 
L 785.151541 184.370931 
L 786.166087 184.817339 
L 787.180632 183.575426 
L 788.195178 183.667485 
L 789.209723 182.538512 
L 790.224268 181.643526 
L 791.238814 181.109976 
L 792.253359 182.279956 
L 793.267905 181.525453 
L 794.28245 181.370036 
L 795.296996 180.931477 
L 796.311541 181.586845 
L 797.326087 181.792299 
L 798.340632 181.750508 
L 799.355178 181.494498 
L 800.369723 181.749215 
L 801.384268 180.215708 
L 802.398814 178.93802 
L 803.413359 178.864792 
L 804.427905 177.558184 
L 805.44245 176.601586 
L 806.456996 175.346761 
L 807.471541 175.303939 
L 808.486087 175.672394 
L 809.500632 173.895182 
L 810.515178 168.500709 
L 811.529723 165.140795 
L 812.544268 162.771242 
L 813.558814 159.063946 
L 814.573359 160.340686 
L 815.587905 158.873937 
L 816.60245 157.076036 
L 817.616996 154.834166 
L 818.631541 157.16928 
L 819.646087 158.054975 
L 820.660632 157.939338 
L 821.675178 160.450144 
L 822.689723 163.741897 
L 823.704268 166.241045 
L 824.718814 166.271493 
L 825.733359 170.859268 
L 827.76245 176.773158 
L 828.776996 177.203225 
L 829.791541 179.313725 
L 830.806087 180.145009 
L 831.820632 180.669379 
L 832.835178 182.369743 
L 833.849723 183.844007 
L 834.864268 183.021129 
L 835.878814 178.921818 
L 836.893359 178.229463 
L 838.92245 174.742666 
L 839.936996 174.356214 
L 840.951541 172.335054 
L 841.966087 171.183551 
L 842.980632 171.151114 
L 843.995178 169.125849 
L 845.009723 167.489575 
L 846.024268 166.076995 
L 847.038814 164.466092 
L 848.053359 161.965996 
L 849.067905 159.049708 
L 850.08245 156.581848 
L 851.096996 154.824182 
L 852.111541 151.856799 
L 853.126087 151.730645 
L 854.140632 148.908204 
L 855.155178 151.433299 
L 856.169723 151.024348 
L 857.184268 149.172834 
L 858.198814 150.789644 
L 859.213359 151.322245 
L 860.227905 153.971139 
L 861.24245 155.658358 
L 862.256996 157.948667 
L 864.286087 160.827474 
L 865.300632 161.228965 
L 866.315178 162.705403 
L 867.329723 165.366755 
L 869.358814 168.147942 
L 870.373359 168.301957 
L 871.387905 168.333547 
L 872.40245 168.889698 
L 873.416996 168.403705 
L 874.431541 168.750673 
L 875.446087 169.336199 
L 876.460632 169.117229 
L 877.475178 168.676729 
L 878.489723 169.587118 
L 879.504268 169.301622 
L 881.533359 170.199816 
L 882.547905 170.085665 
L 883.56245 170.473667 
L 884.576996 170.572016 
L 885.591541 171.062096 
L 886.606087 173.051436 
L 887.620632 172.392834 
L 888.635178 173.853154 
L 889.649723 173.521589 
L 890.664268 173.548609 
L 891.678814 172.843715 
L 892.693359 171.901062 
L 893.707905 171.363974 
L 894.72245 169.826806 
L 896.751541 168.924207 
L 897.766087 168.00476 
L 898.780632 169.813149 
L 899.795178 170.886884 
L 900.809723 172.260445 
L 901.824268 175.003641 
L 902.838814 176.585243 
L 903.853359 177.788146 
L 904.867905 179.210405 
L 906.896996 179.879304 
L 907.911541 180.508038 
L 912.984268 179.332262 
L 913.998814 179.639106 
L 915.013359 180.104382 
L 918.056996 180.363076 
L 919.071541 179.780839 
L 920.086087 180.305896 
L 921.100632 180.232556 
L 922.115178 179.58802 
L 924.144268 179.153396 
L 925.158814 179.258833 
L 926.173359 178.910694 
L 927.187905 178.697437 
L 928.20245 179.122246 
L 929.216996 179.266775 
L 930.231541 178.56268 
L 931.246087 179.275999 
L 932.260632 179.639541 
L 933.275178 180.188604 
L 935.304268 180.994892 
L 936.318814 180.732016 
L 937.333359 180.773314 
L 938.347905 181.219267 
L 939.36245 181.18146 
L 940.376996 179.818468 
L 942.406087 178.357768 
L 943.420632 177.929826 
L 944.435178 177.270061 
L 945.449723 177.316729 
L 946.464268 176.70452 
L 948.493359 174.888793 
L 949.507905 174.306768 
L 950.52245 174.053043 
L 952.551541 172.971535 
L 953.566087 172.821942 
L 954.580632 172.509468 
L 957.624268 172.73272 
L 958.638814 173.430154 
L 960.667905 173.215684 
L 961.68245 173.47292 
L 962.696996 172.82084 
L 963.711541 172.945136 
L 964.726087 172.857619 
L 965.740632 172.406835 
L 967.120117 173.022386 
L 967.120117 173.022386 
" style="fill:none;stroke:#4c72b0;stroke-linecap:round;stroke-width:1.75;"/>
   </g>
   <g id="line2d_49">
    <path clip-path="url(#pe35e8b7888)" d="M 596.446087 209.402024 
L 596.446087 11.729297 
" style="fill:none;stroke:#000000;stroke-dasharray:2.2,2.2;stroke-dashoffset:0;stroke-width:1.75;"/>
   </g>
   <g id="line2d_50">
    <path clip-path="url(#pe35e8b7888)" d="M 554.849723 209.402024 
L 554.849723 11.729297 
" style="fill:none;stroke:#000000;stroke-dasharray:5.6,2.4;stroke-dashoffset:0;stroke-width:1.75;"/>
   </g>
   <g id="patch_8">
    <path d="M 542.675178 209.402024 
L 542.675178 11.729297 
" style="fill:none;"/>
   </g>
   <g id="patch_9">
    <path d="M 948.493359 209.402024 
L 948.493359 11.729297 
" style="fill:none;"/>
   </g>
   <g id="patch_10">
    <path d="M 542.675178 209.402024 
L 948.493359 209.402024 
" style="fill:none;"/>
   </g>
   <g id="patch_11">
    <path d="M 542.675178 11.729297 
L 948.493359 11.729297 
" style="fill:none;"/>
   </g>
   <g id="legend_2">
    <g id="line2d_51">
     <path d="M 839.014844 27.662891 
L 864.014844 27.662891 
" style="fill:none;stroke:#4c72b0;stroke-linecap:round;stroke-width:1.75;"/>
    </g>
    <g id="line2d_52"/>
    <g id="text_38">
     <!-- total_cases -->
     <g style="fill:#262626;" transform="translate(874.014844 32.037891)scale(0.125 -0.125)">
      <use xlink:href="#LiberationSans-74"/>
      <use x="27.783203" xlink:href="#LiberationSans-6f"/>
      <use x="83.398438" xlink:href="#LiberationSans-74"/>
      <use x="111.181641" xlink:href="#LiberationSans-61"/>
      <use x="166.796875" xlink:href="#LiberationSans-6c"/>
      <use x="189.013672" xlink:href="#LiberationSans-5f"/>
      <use x="244.628906" xlink:href="#LiberationSans-63"/>
      <use x="294.628906" xlink:href="#LiberationSans-61"/>
      <use x="350.244141" xlink:href="#LiberationSans-73"/>
      <use x="400.244141" xlink:href="#LiberationSans-65"/>
      <use x="455.859375" xlink:href="#LiberationSans-73"/>
     </g>
    </g>
   </g>
  </g>
 </g>
 <defs>
  <clipPath id="p65b28ab3b8">
   <rect height="197.672727" width="405.818182" x="55.693359" y="11.729297"/>
  </clipPath>
  <clipPath id="pe35e8b7888">
   <rect height="197.672727" width="405.818182" x="542.675178" y="11.729297"/>
  </clipPath>
 </defs>
</svg>
