<?xml version="1.0" encoding="utf-8" standalone="no"?>
<!DOCTYPE svg PUBLIC "-//W3C//DTD SVG 1.1//EN"
  "http://www.w3.org/Graphics/SVG/1.1/DTD/svg11.dtd">
<!-- Created with matplotlib (http://matplotlib.org/) -->
<svg height="369pt" version="1.1" viewBox="0 0 484 369" width="484pt" xmlns="http://www.w3.org/2000/svg" xmlns:xlink="http://www.w3.org/1999/xlink">
 <defs>
  <style type="text/css">
*{stroke-linecap:butt;stroke-linejoin:round;}
  </style>
 </defs>
 <g id="figure_1">
  <g id="patch_1">
   <path d="M 0 369.301875 
L 484.482813 369.301875 
L 484.482813 0 
L 0 0 
z
" style="fill:#ffffff;"/>
  </g>
  <g id="axes_1">
   <g id="patch_2">
    <path d="M 30.882812 182.7 
L 477.282812 182.7 
L 477.282812 46.8 
L 30.882812 46.8 
z
" style="fill:#eaeaf2;"/>
   </g>
   <g id="matplotlib.axis_1">
    <g id="xtick_1">
     <g id="line2d_1">
      <path clip-path="url(#p506dbf3b8d)" d="M 30.882812 182.7 
L 30.882812 46.8 
" style="fill:none;stroke:#ffffff;stroke-linecap:round;"/>
     </g>
     <g id="line2d_2"/>
     <g id="text_1">
      <!-- 0 -->
      <defs>
       <path d="M 51.703125 34.421875 
Q 51.703125 24.515625 49.828125 17.75 
Q 47.953125 10.984375 44.703125 6.8125 
Q 41.453125 2.640625 37.0625 0.828125 
Q 32.671875 -0.984375 27.6875 -0.984375 
Q 22.65625 -0.984375 18.3125 0.828125 
Q 13.96875 2.640625 10.765625 6.78125 
Q 7.5625 10.9375 5.734375 17.703125 
Q 3.90625 24.46875 3.90625 34.421875 
Q 3.90625 44.828125 5.734375 51.640625 
Q 7.5625 58.453125 10.78125 62.5 
Q 14.015625 66.546875 18.40625 68.1875 
Q 22.796875 69.828125 27.984375 69.828125 
Q 32.90625 69.828125 37.21875 68.1875 
Q 41.546875 66.546875 44.765625 62.5 
Q 48 58.453125 49.84375 51.640625 
Q 51.703125 44.828125 51.703125 34.421875 
M 42.78125 34.421875 
Q 42.78125 42.625 41.796875 48.0625 
Q 40.828125 53.515625 38.921875 56.765625 
Q 37.015625 60.015625 34.25 61.359375 
Q 31.5 62.703125 27.984375 62.703125 
Q 24.265625 62.703125 21.4375 61.328125 
Q 18.609375 59.96875 16.671875 56.71875 
Q 14.75 53.46875 13.765625 48.015625 
Q 12.796875 42.578125 12.796875 34.421875 
Q 12.796875 26.515625 13.796875 21.09375 
Q 14.796875 15.671875 16.71875 12.375 
Q 18.65625 9.078125 21.4375 7.640625 
Q 24.21875 6.203125 27.78125 6.203125 
Q 31.25 6.203125 34.03125 7.640625 
Q 36.8125 9.078125 38.734375 12.375 
Q 40.671875 15.671875 41.71875 21.09375 
Q 42.78125 26.515625 42.78125 34.421875 
" id="LiberationSans-30"/>
      </defs>
      <g style="fill:#262626;" transform="translate(28.102344 196.946875)scale(0.1 -0.1)">
       <use xlink:href="#LiberationSans-30"/>
      </g>
     </g>
    </g>
    <g id="xtick_2">
     <g id="line2d_3">
      <path clip-path="url(#p506dbf3b8d)" d="M 97.114267 182.7 
L 97.114267 46.8 
" style="fill:none;stroke:#ffffff;stroke-linecap:round;"/>
     </g>
     <g id="line2d_4"/>
     <g id="text_2">
      <!-- 100 -->
      <defs>
       <path d="M 7.625 0 
L 7.625 7.46875 
L 25.140625 7.46875 
L 25.140625 60.40625 
L 9.625 49.3125 
L 9.625 57.625 
L 25.875 68.796875 
L 33.984375 68.796875 
L 33.984375 7.46875 
L 50.734375 7.46875 
L 50.734375 0 
z
" id="LiberationSans-31"/>
      </defs>
      <g style="fill:#262626;" transform="translate(88.77286 196.946875)scale(0.1 -0.1)">
       <use xlink:href="#LiberationSans-31"/>
       <use x="55.615234" xlink:href="#LiberationSans-30"/>
       <use x="111.230469" xlink:href="#LiberationSans-30"/>
      </g>
     </g>
    </g>
    <g id="xtick_3">
     <g id="line2d_5">
      <path clip-path="url(#p506dbf3b8d)" d="M 163.345721 182.7 
L 163.345721 46.8 
" style="fill:none;stroke:#ffffff;stroke-linecap:round;"/>
     </g>
     <g id="line2d_6"/>
     <g id="text_3">
      <!-- 200 -->
      <defs>
       <path d="M 5.03125 0 
L 5.03125 6.203125 
Q 7.515625 11.921875 11.109375 16.28125 
Q 14.703125 20.65625 18.65625 24.1875 
Q 22.609375 27.734375 26.484375 30.765625 
Q 30.375 33.796875 33.5 36.8125 
Q 36.625 39.84375 38.546875 43.15625 
Q 40.484375 46.484375 40.484375 50.6875 
Q 40.484375 53.609375 39.59375 55.828125 
Q 38.71875 58.0625 37.0625 59.5625 
Q 35.40625 61.078125 33.078125 61.828125 
Q 30.765625 62.59375 27.9375 62.59375 
Q 25.296875 62.59375 22.96875 61.859375 
Q 20.65625 61.140625 18.84375 59.671875 
Q 17.046875 58.203125 15.890625 56.03125 
Q 14.75 53.859375 14.40625 50.984375 
L 5.421875 51.8125 
Q 5.859375 55.515625 7.46875 58.78125 
Q 9.078125 62.0625 11.90625 64.53125 
Q 14.75 67 18.71875 68.40625 
Q 22.703125 69.828125 27.9375 69.828125 
Q 33.0625 69.828125 37.0625 68.609375 
Q 41.0625 67.390625 43.8125 64.984375 
Q 46.578125 62.59375 48.046875 59.078125 
Q 49.515625 55.5625 49.515625 50.984375 
Q 49.515625 47.515625 48.265625 44.390625 
Q 47.015625 41.265625 44.9375 38.421875 
Q 42.875 35.59375 40.140625 32.953125 
Q 37.40625 30.328125 34.421875 27.8125 
Q 31.453125 25.296875 28.421875 22.828125 
Q 25.390625 20.359375 22.71875 17.859375 
Q 20.0625 15.375 17.96875 12.8125 
Q 15.875 10.25 14.703125 7.46875 
L 50.59375 7.46875 
L 50.59375 0 
z
" id="LiberationSans-32"/>
      </defs>
      <g style="fill:#262626;" transform="translate(155.004314 196.946875)scale(0.1 -0.1)">
       <use xlink:href="#LiberationSans-32"/>
       <use x="55.615234" xlink:href="#LiberationSans-30"/>
       <use x="111.230469" xlink:href="#LiberationSans-30"/>
      </g>
     </g>
    </g>
    <g id="xtick_4">
     <g id="line2d_7">
      <path clip-path="url(#p506dbf3b8d)" d="M 229.577175 182.7 
L 229.577175 46.8 
" style="fill:none;stroke:#ffffff;stroke-linecap:round;"/>
     </g>
     <g id="line2d_8"/>
     <g id="text_4">
      <!-- 300 -->
      <defs>
       <path d="M 51.21875 19 
Q 51.21875 14.265625 49.671875 10.546875 
Q 48.140625 6.84375 45.1875 4.265625 
Q 42.234375 1.703125 37.859375 0.359375 
Q 33.5 -0.984375 27.875 -0.984375 
Q 21.484375 -0.984375 17.109375 0.609375 
Q 12.75 2.203125 9.90625 4.8125 
Q 7.078125 7.421875 5.65625 10.765625 
Q 4.25 14.109375 3.8125 17.671875 
L 12.890625 18.5 
Q 13.28125 15.765625 14.328125 13.515625 
Q 15.375 11.28125 17.1875 9.671875 
Q 19 8.0625 21.625 7.171875 
Q 24.265625 6.296875 27.875 6.296875 
Q 34.515625 6.296875 38.296875 9.5625 
Q 42.09375 12.84375 42.09375 19.28125 
Q 42.09375 23.09375 40.40625 25.40625 
Q 38.71875 27.734375 36.203125 29.03125 
Q 33.6875 30.328125 30.734375 30.765625 
Q 27.78125 31.203125 25.296875 31.203125 
L 20.3125 31.203125 
L 20.3125 38.8125 
L 25.09375 38.8125 
Q 27.59375 38.8125 30.265625 39.328125 
Q 32.953125 39.84375 35.171875 41.1875 
Q 37.40625 42.53125 38.84375 44.828125 
Q 40.28125 47.125 40.28125 50.6875 
Q 40.28125 56.203125 37.03125 59.390625 
Q 33.796875 62.59375 27.390625 62.59375 
Q 21.578125 62.59375 17.984375 59.609375 
Q 14.40625 56.640625 13.8125 51.21875 
L 4.984375 51.90625 
Q 5.515625 56.453125 7.46875 59.8125 
Q 9.421875 63.1875 12.421875 65.40625 
Q 15.4375 67.625 19.28125 68.71875 
Q 23.140625 69.828125 27.484375 69.828125 
Q 33.25 69.828125 37.390625 68.375 
Q 41.546875 66.9375 44.1875 64.46875 
Q 46.828125 62.015625 48.0625 58.6875 
Q 49.3125 55.375 49.3125 51.609375 
Q 49.3125 48.578125 48.484375 45.9375 
Q 47.65625 43.3125 45.890625 41.203125 
Q 44.140625 39.109375 41.421875 37.59375 
Q 38.71875 36.078125 34.90625 35.296875 
L 34.90625 35.109375 
Q 39.0625 34.671875 42.140625 33.21875 
Q 45.21875 31.78125 47.21875 29.625 
Q 49.21875 27.484375 50.21875 24.75 
Q 51.21875 22.015625 51.21875 19 
" id="LiberationSans-33"/>
      </defs>
      <g style="fill:#262626;" transform="translate(221.235768 196.946875)scale(0.1 -0.1)">
       <use xlink:href="#LiberationSans-33"/>
       <use x="55.615234" xlink:href="#LiberationSans-30"/>
       <use x="111.230469" xlink:href="#LiberationSans-30"/>
      </g>
     </g>
    </g>
    <g id="xtick_5">
     <g id="line2d_9">
      <path clip-path="url(#p506dbf3b8d)" d="M 295.808629 182.7 
L 295.808629 46.8 
" style="fill:none;stroke:#ffffff;stroke-linecap:round;"/>
     </g>
     <g id="line2d_10"/>
     <g id="text_5">
      <!-- 400 -->
      <defs>
       <path d="M 43.015625 15.578125 
L 43.015625 0 
L 34.71875 0 
L 34.71875 15.578125 
L 2.296875 15.578125 
L 2.296875 22.40625 
L 33.796875 68.796875 
L 43.015625 68.796875 
L 43.015625 22.515625 
L 52.6875 22.515625 
L 52.6875 15.578125 
z
M 34.71875 58.890625 
Q 34.625 58.640625 34.234375 57.9375 
Q 33.84375 57.234375 33.34375 56.34375 
Q 32.859375 55.46875 32.34375 54.5625 
Q 31.84375 53.65625 31.453125 53.078125 
L 13.8125 27.09375 
Q 13.578125 26.703125 13.109375 26.0625 
Q 12.640625 25.4375 12.15625 24.78125 
Q 11.671875 24.125 11.171875 23.484375 
Q 10.6875 22.859375 10.40625 22.515625 
L 34.71875 22.515625 
z
" id="LiberationSans-34"/>
      </defs>
      <g style="fill:#262626;" transform="translate(287.467222 196.946875)scale(0.1 -0.1)">
       <use xlink:href="#LiberationSans-34"/>
       <use x="55.615234" xlink:href="#LiberationSans-30"/>
       <use x="111.230469" xlink:href="#LiberationSans-30"/>
      </g>
     </g>
    </g>
    <g id="xtick_6">
     <g id="line2d_11">
      <path clip-path="url(#p506dbf3b8d)" d="M 362.040083 182.7 
L 362.040083 46.8 
" style="fill:none;stroke:#ffffff;stroke-linecap:round;"/>
     </g>
     <g id="line2d_12"/>
     <g id="text_6">
      <!-- 500 -->
      <defs>
       <path d="M 51.421875 22.40625 
Q 51.421875 17.234375 49.859375 12.9375 
Q 48.296875 8.640625 45.21875 5.53125 
Q 42.140625 2.4375 37.578125 0.71875 
Q 33.015625 -0.984375 27 -0.984375 
Q 21.578125 -0.984375 17.546875 0.28125 
Q 13.53125 1.5625 10.734375 3.78125 
Q 7.953125 6 6.3125 8.984375 
Q 4.6875 11.96875 4 15.375 
L 12.890625 16.40625 
Q 13.421875 14.453125 14.390625 12.625 
Q 15.375 10.796875 17.0625 9.34375 
Q 18.75 7.90625 21.21875 7.046875 
Q 23.6875 6.203125 27.203125 6.203125 
Q 30.609375 6.203125 33.390625 7.25 
Q 36.1875 8.296875 38.15625 10.34375 
Q 40.140625 12.40625 41.203125 15.375 
Q 42.28125 18.359375 42.28125 22.21875 
Q 42.28125 25.390625 41.25 28.046875 
Q 40.234375 30.71875 38.328125 32.640625 
Q 36.421875 34.578125 33.65625 35.640625 
Q 30.90625 36.71875 27.390625 36.71875 
Q 25.203125 36.71875 23.34375 36.328125 
Q 21.484375 35.9375 19.890625 35.25 
Q 18.3125 34.578125 17.015625 33.671875 
Q 15.71875 32.765625 14.59375 31.78125 
L 6 31.78125 
L 8.296875 68.796875 
L 47.40625 68.796875 
L 47.40625 61.328125 
L 16.3125 61.328125 
L 14.984375 39.5 
Q 17.328125 41.3125 20.84375 42.59375 
Q 24.359375 43.890625 29.203125 43.890625 
Q 34.328125 43.890625 38.421875 42.328125 
Q 42.53125 40.765625 45.40625 37.90625 
Q 48.296875 35.0625 49.859375 31.109375 
Q 51.421875 27.15625 51.421875 22.40625 
" id="LiberationSans-35"/>
      </defs>
      <g style="fill:#262626;" transform="translate(353.698676 196.946875)scale(0.1 -0.1)">
       <use xlink:href="#LiberationSans-35"/>
       <use x="55.615234" xlink:href="#LiberationSans-30"/>
       <use x="111.230469" xlink:href="#LiberationSans-30"/>
      </g>
     </g>
    </g>
    <g id="xtick_7">
     <g id="line2d_13">
      <path clip-path="url(#p506dbf3b8d)" d="M 428.271537 182.7 
L 428.271537 46.8 
" style="fill:none;stroke:#ffffff;stroke-linecap:round;"/>
     </g>
     <g id="line2d_14"/>
     <g id="text_7">
      <!-- 600 -->
      <defs>
       <path d="M 51.21875 22.515625 
Q 51.21875 17.328125 49.78125 13 
Q 48.34375 8.6875 45.53125 5.578125 
Q 42.71875 2.484375 38.5625 0.75 
Q 34.421875 -0.984375 29 -0.984375 
Q 23 -0.984375 18.5 1.3125 
Q 14.015625 3.609375 11.03125 7.921875 
Q 8.0625 12.25 6.5625 18.53125 
Q 5.078125 24.8125 5.078125 32.8125 
Q 5.078125 42 6.765625 48.921875 
Q 8.453125 55.859375 11.625 60.5 
Q 14.796875 65.140625 19.359375 67.484375 
Q 23.921875 69.828125 29.6875 69.828125 
Q 33.203125 69.828125 36.28125 69.09375 
Q 39.359375 68.359375 41.875 66.71875 
Q 44.390625 65.09375 46.28125 62.40625 
Q 48.1875 59.71875 49.3125 55.8125 
L 40.921875 54.296875 
Q 39.546875 58.734375 36.546875 60.71875 
Q 33.546875 62.703125 29.59375 62.703125 
Q 25.984375 62.703125 23.046875 60.984375 
Q 20.125 59.28125 18.0625 55.875 
Q 16.015625 52.484375 14.90625 47.359375 
Q 13.8125 42.234375 13.8125 35.40625 
Q 16.21875 39.84375 20.5625 42.15625 
Q 24.90625 44.484375 30.515625 44.484375 
Q 35.203125 44.484375 39.015625 42.96875 
Q 42.828125 41.453125 45.53125 38.59375 
Q 48.25 35.75 49.734375 31.671875 
Q 51.21875 27.59375 51.21875 22.515625 
M 42.28125 22.125 
Q 42.28125 25.6875 41.40625 28.5625 
Q 40.53125 31.453125 38.765625 33.46875 
Q 37.015625 35.5 34.421875 36.59375 
Q 31.84375 37.703125 28.421875 37.703125 
Q 26.03125 37.703125 23.578125 36.984375 
Q 21.140625 36.28125 19.15625 34.6875 
Q 17.1875 33.109375 15.9375 30.515625 
Q 14.703125 27.9375 14.703125 24.21875 
Q 14.703125 20.40625 15.671875 17.109375 
Q 16.65625 13.8125 18.484375 11.375 
Q 20.3125 8.9375 22.890625 7.515625 
Q 25.484375 6.109375 28.71875 6.109375 
Q 31.890625 6.109375 34.40625 7.203125 
Q 36.921875 8.296875 38.671875 10.375 
Q 40.4375 12.453125 41.359375 15.421875 
Q 42.28125 18.40625 42.28125 22.125 
" id="LiberationSans-36"/>
      </defs>
      <g style="fill:#262626;" transform="translate(419.93013 196.946875)scale(0.1 -0.1)">
       <use xlink:href="#LiberationSans-36"/>
       <use x="55.615234" xlink:href="#LiberationSans-30"/>
       <use x="111.230469" xlink:href="#LiberationSans-30"/>
      </g>
     </g>
    </g>
   </g>
   <g id="matplotlib.axis_2">
    <g id="ytick_1">
     <g id="line2d_15">
      <path clip-path="url(#p506dbf3b8d)" d="M 30.882812 176.522727 
L 477.282812 176.522727 
" style="fill:none;stroke:#ffffff;stroke-linecap:round;"/>
     </g>
     <g id="line2d_16"/>
     <g id="text_8">
      <!-- 0 -->
      <g style="fill:#262626;" transform="translate(18.321875 180.146165)scale(0.1 -0.1)">
       <use xlink:href="#LiberationSans-30"/>
      </g>
     </g>
    </g>
    <g id="ytick_2">
     <g id="line2d_17">
      <path clip-path="url(#p506dbf3b8d)" d="M 30.882812 149.723279 
L 477.282812 149.723279 
" style="fill:none;stroke:#ffffff;stroke-linecap:round;"/>
     </g>
     <g id="line2d_18"/>
     <g id="text_9">
      <!-- 100 -->
      <g style="fill:#262626;" transform="translate(7.2 153.346717)scale(0.1 -0.1)">
       <use xlink:href="#LiberationSans-31"/>
       <use x="55.615234" xlink:href="#LiberationSans-30"/>
       <use x="111.230469" xlink:href="#LiberationSans-30"/>
      </g>
     </g>
    </g>
    <g id="ytick_3">
     <g id="line2d_19">
      <path clip-path="url(#p506dbf3b8d)" d="M 30.882812 122.923832 
L 477.282812 122.923832 
" style="fill:none;stroke:#ffffff;stroke-linecap:round;"/>
     </g>
     <g id="line2d_20"/>
     <g id="text_10">
      <!-- 200 -->
      <g style="fill:#262626;" transform="translate(7.2 126.547269)scale(0.1 -0.1)">
       <use xlink:href="#LiberationSans-32"/>
       <use x="55.615234" xlink:href="#LiberationSans-30"/>
       <use x="111.230469" xlink:href="#LiberationSans-30"/>
      </g>
     </g>
    </g>
    <g id="ytick_4">
     <g id="line2d_21">
      <path clip-path="url(#p506dbf3b8d)" d="M 30.882812 96.124384 
L 477.282812 96.124384 
" style="fill:none;stroke:#ffffff;stroke-linecap:round;"/>
     </g>
     <g id="line2d_22"/>
     <g id="text_11">
      <!-- 300 -->
      <g style="fill:#262626;" transform="translate(7.2 99.747821)scale(0.1 -0.1)">
       <use xlink:href="#LiberationSans-33"/>
       <use x="55.615234" xlink:href="#LiberationSans-30"/>
       <use x="111.230469" xlink:href="#LiberationSans-30"/>
      </g>
     </g>
    </g>
    <g id="ytick_5">
     <g id="line2d_23">
      <path clip-path="url(#p506dbf3b8d)" d="M 30.882812 69.324936 
L 477.282812 69.324936 
" style="fill:none;stroke:#ffffff;stroke-linecap:round;"/>
     </g>
     <g id="line2d_24"/>
     <g id="text_12">
      <!-- 400 -->
      <g style="fill:#262626;" transform="translate(7.2 72.948373)scale(0.1 -0.1)">
       <use xlink:href="#LiberationSans-34"/>
       <use x="55.615234" xlink:href="#LiberationSans-30"/>
       <use x="111.230469" xlink:href="#LiberationSans-30"/>
      </g>
     </g>
    </g>
   </g>
   <g id="line2d_25">
    <path clip-path="url(#p506dbf3b8d)" d="M 30.882812 169.896107 
L 31.545127 169.161456 
L 32.207442 167.602007 
L 32.869756 167.694813 
L 33.532071 165.423334 
L 34.194385 166.534001 
L 34.8567 166.942943 
L 35.519014 163.76594 
L 36.181329 164.526101 
L 36.843643 164.530906 
L 37.505958 165.958153 
L 38.168272 165.324415 
L 38.830587 165.809704 
L 39.492902 164.864432 
L 40.155216 164.522392 
L 40.817531 162.756652 
L 41.479845 163.627996 
L 42.14216 162.366151 
L 42.804474 164.786345 
L 43.466789 160.633466 
L 44.129103 164.331534 
L 44.791418 165.339546 
L 45.453732 162.475388 
L 46.116047 161.325032 
L 47.440676 165.183114 
L 48.102991 163.564759 
L 48.765305 163.164391 
L 49.42762 166.444405 
L 50.089934 167.772251 
L 51.414563 169.114862 
L 52.076878 170.550746 
L 52.739192 169.17947 
L 53.401507 170.699403 
L 54.063821 170.761663 
L 54.726136 170.940145 
L 55.38845 170.660623 
L 57.375394 170.867439 
L 58.037709 170.071525 
L 58.700023 169.750335 
L 59.362338 170.4468 
L 60.024652 169.963638 
L 61.349281 169.591368 
L 62.011596 169.924223 
L 62.67391 170.62732 
L 63.336225 170.501424 
L 63.99854 170.519242 
L 64.660854 169.01416 
L 65.323169 168.283454 
L 65.985483 168.546759 
L 66.647798 169.201505 
L 67.310112 167.747324 
L 67.972427 167.239513 
L 68.634741 167.340441 
L 69.297056 166.656834 
L 69.95937 164.842651 
L 70.621685 165.390519 
L 71.283999 165.64014 
L 71.946314 166.492033 
L 72.608629 165.120861 
L 73.270943 165.653179 
L 73.933258 165.000492 
L 74.595572 164.561893 
L 75.257887 163.851143 
L 75.920201 163.354877 
L 76.582516 164.500888 
L 77.24483 162.899937 
L 77.907145 163.363352 
L 78.569459 162.244459 
L 79.231774 164.443709 
L 79.894088 164.867689 
L 80.556403 165.587271 
L 81.218718 165.440661 
L 81.881032 166.875702 
L 82.543347 165.577547 
L 83.205661 167.126799 
L 83.867976 166.943331 
L 84.53029 169.303841 
L 85.192605 168.679906 
L 85.854919 168.695016 
L 87.179548 170.682712 
L 87.841863 170.832188 
L 89.166492 169.024911 
L 90.491121 170.57409 
L 91.153436 170.832305 
L 91.81575 170.742556 
L 92.478065 168.464323 
L 93.140379 170.27995 
L 93.802694 170.950469 
L 94.465008 170.415091 
L 95.127323 170.216666 
L 95.789637 169.697275 
L 96.451952 170.108495 
L 97.114267 169.759505 
L 97.776581 168.597002 
L 98.438896 168.414725 
L 99.10121 169.215386 
L 99.763525 168.936559 
L 100.425839 167.924902 
L 101.088154 168.456285 
L 101.750468 165.635617 
L 103.075097 164.513355 
L 103.737412 165.564599 
L 104.399726 165.837417 
L 105.062041 164.595076 
L 105.724356 164.903335 
L 106.38667 165.424134 
L 107.048985 166.561632 
L 107.711299 166.749344 
L 108.373614 166.420419 
L 109.035928 165.628424 
L 109.698243 165.912037 
L 111.022872 165.633159 
L 111.685186 165.251303 
L 112.347501 165.926362 
L 113.009815 165.367156 
L 114.334445 164.807155 
L 114.996759 163.389688 
L 115.659074 165.136868 
L 116.321388 165.901949 
L 116.983703 165.150874 
L 117.646017 163.817835 
L 118.308332 167.401438 
L 118.970646 168.444358 
L 119.632961 165.453835 
L 120.295275 167.6479 
L 120.95759 168.590182 
L 121.619904 169.1914 
L 122.282219 170.053011 
L 123.606848 169.80395 
L 124.269163 171.197303 
L 124.931477 170.806047 
L 125.593792 170.962555 
L 126.256106 168.44977 
L 126.918421 170.143665 
L 127.580735 169.834071 
L 128.24305 170.425425 
L 128.905364 170.591121 
L 129.567679 170.312862 
L 130.229994 169.404167 
L 130.892308 169.930284 
L 132.216937 168.850848 
L 132.879252 168.664688 
L 133.541566 169.564841 
L 134.203881 167.160779 
L 134.866195 167.605254 
L 135.52851 168.487918 
L 136.853139 162.02782 
L 137.515453 164.13279 
L 138.177768 160.658444 
L 138.840083 166.63144 
L 140.164712 164.474788 
L 140.827026 166.130914 
L 141.489341 165.451069 
L 142.151655 166.00192 
L 142.81397 164.01199 
L 143.476284 162.584238 
L 144.138599 163.977072 
L 144.800913 163.165838 
L 145.463228 163.948633 
L 146.125542 165.08484 
L 146.787857 164.768856 
L 147.450172 164.742177 
L 148.112486 163.774118 
L 149.437115 163.891801 
L 150.09943 164.66905 
L 150.761744 165.274346 
L 151.424059 165.312406 
L 152.086373 165.551674 
L 152.748688 167.545199 
L 153.411002 167.724348 
L 154.735631 167.492425 
L 155.397946 168.466796 
L 156.060261 169.116908 
L 156.722575 169.275453 
L 157.38489 168.677976 
L 158.047204 170.477923 
L 158.709519 170.319914 
L 159.371833 170.469142 
L 160.034148 170.279416 
L 160.696462 170.290246 
L 161.358777 170.834989 
L 162.021091 170.773519 
L 162.683406 170.321768 
L 163.345721 170.508869 
L 164.008035 170.039864 
L 164.67035 170.270553 
L 165.332664 169.472024 
L 165.994979 169.434419 
L 166.657293 170.228426 
L 167.319608 169.731552 
L 167.981922 170.585204 
L 168.644237 169.677858 
L 169.306551 167.186365 
L 169.968866 168.438519 
L 170.63118 167.04839 
L 171.293495 164.610756 
L 171.95581 166.555477 
L 172.618124 166.426219 
L 173.280439 167.196711 
L 173.942753 167.005122 
L 174.605068 166.094335 
L 175.267382 167.99794 
L 175.929697 167.682245 
L 176.592011 167.210697 
L 177.254326 167.344743 
L 177.91664 167.241685 
L 178.578955 166.783934 
L 179.241269 166.665003 
L 180.565899 164.409473 
L 181.228213 164.669679 
L 181.890528 165.595317 
L 182.552842 165.935586 
L 183.215157 165.802794 
L 183.877471 166.606056 
L 184.539786 166.282931 
L 185.2021 165.492027 
L 185.864415 165.131454 
L 186.526729 166.064486 
L 187.189044 166.768317 
L 187.851358 165.17825 
L 188.513673 164.545957 
L 189.175988 168.215107 
L 189.838302 168.357487 
L 190.500617 169.397441 
L 191.162931 169.209352 
L 191.825246 166.746108 
L 192.48756 169.970957 
L 193.149875 170.523514 
L 193.812189 170.853932 
L 194.474504 169.712236 
L 195.136818 170.192184 
L 195.799133 169.979674 
L 196.461448 169.503381 
L 197.123762 170.541233 
L 197.786077 170.288378 
L 198.448391 170.183081 
L 199.110706 170.584301 
L 199.77302 170.246688 
L 200.435335 169.626133 
L 201.097649 169.486968 
L 201.759964 168.62276 
L 202.422278 169.128186 
L 203.084593 170.021164 
L 203.746907 168.039468 
L 204.409222 166.820589 
L 205.071537 167.386851 
L 205.733851 166.094426 
L 206.396166 165.959608 
L 207.05848 166.749005 
L 207.720795 166.045272 
L 208.383109 163.858323 
L 209.045424 162.624327 
L 209.707738 164.049957 
L 210.370053 163.333401 
L 211.032367 162.068176 
L 211.694682 161.286227 
L 212.356996 160.90273 
L 213.019311 162.562318 
L 213.681626 158.695644 
L 214.34394 162.21249 
L 215.006255 161.33851 
L 215.668569 159.969387 
L 216.330884 159.958715 
L 216.993198 160.358111 
L 217.655513 161.783653 
L 218.317827 163.837627 
L 218.980142 163.420878 
L 219.642456 165.069311 
L 220.304771 164.607406 
L 220.967085 164.340992 
L 221.6294 167.831921 
L 222.291715 167.420867 
L 222.954029 167.57178 
L 223.616344 166.532447 
L 224.278658 168.432077 
L 224.940973 168.730561 
L 225.603287 169.981791 
L 226.265602 170.019242 
L 226.927916 169.115562 
L 227.590231 169.355856 
L 228.252545 170.186215 
L 229.577175 170.879452 
L 230.901804 169.668627 
L 231.564118 170.111094 
L 232.226433 170.402264 
L 233.551062 169.785449 
L 234.213376 169.770072 
L 234.875691 170.319618 
L 235.538005 169.221787 
L 236.862634 170.218237 
L 237.524949 170.198963 
L 238.187264 170.723666 
L 238.849578 169.794024 
L 239.511893 167.764221 
L 240.174207 165.063831 
L 240.836522 166.328771 
L 241.498836 167.999248 
L 242.161151 168.182447 
L 242.823465 165.83292 
L 243.48578 166.722023 
L 244.148094 165.002019 
L 244.810409 166.435163 
L 245.472723 167.284932 
L 246.135038 167.199275 
L 246.797353 165.884742 
L 247.459667 165.508422 
L 248.121982 166.77337 
L 248.784296 165.906615 
L 249.446611 161.218978 
L 250.108925 163.729572 
L 250.77124 163.745097 
L 251.433554 163.019684 
L 252.095869 166.164012 
L 252.758183 164.95203 
L 253.420498 165.808378 
L 254.082813 162.241918 
L 254.745127 166.479212 
L 255.407442 165.842765 
L 256.069756 168.159998 
L 256.732071 168.245196 
L 257.394385 167.842885 
L 258.0567 170.525938 
L 258.719014 170.292802 
L 260.043643 170.451917 
L 260.705958 168.35758 
L 261.368272 170.731927 
L 262.030587 170.813659 
L 262.692902 170.528132 
L 263.355216 171.022294 
L 264.017531 171.352965 
L 264.679845 170.888077 
L 265.34216 171.091028 
L 266.004474 171.431309 
L 267.991418 171.076811 
L 268.653732 170.600075 
L 269.316047 170.793599 
L 269.978361 170.482181 
L 270.640676 169.796836 
L 271.302991 168.124993 
L 271.965305 168.03942 
L 272.62762 168.14009 
L 273.289934 168.114839 
L 273.952249 168.769703 
L 275.276878 166.37209 
L 275.939192 164.551312 
L 276.601507 163.736082 
L 277.926136 165.400458 
L 278.58845 163.801867 
L 279.250765 164.224938 
L 279.91308 164.444009 
L 280.575394 165.489823 
L 281.237709 163.918869 
L 281.900023 164.588071 
L 282.562338 164.256926 
L 283.886967 162.87785 
L 284.549281 158.860187 
L 285.211596 160.506777 
L 285.87391 164.451713 
L 286.536225 161.473396 
L 287.19854 162.238256 
L 287.860854 164.611293 
L 288.523169 164.562092 
L 289.185483 165.055415 
L 289.847798 166.738849 
L 290.510112 167.108908 
L 291.172427 165.971346 
L 291.834741 165.916869 
L 292.497056 167.487747 
L 293.15937 167.959505 
L 293.821685 168.880379 
L 294.483999 168.087433 
L 296.470943 169.636589 
L 298.457887 169.21919 
L 299.120201 166.375824 
L 299.782516 170.901453 
L 300.44483 169.48971 
L 301.107145 170.041787 
L 301.769459 169.040725 
L 302.431774 170.771967 
L 303.094088 169.639694 
L 304.418718 169.274055 
L 305.081032 167.687728 
L 305.743347 169.893568 
L 306.405661 167.078658 
L 307.067976 168.319952 
L 307.73029 167.675809 
L 308.392605 162.077007 
L 309.054919 163.388604 
L 309.717234 165.467757 
L 310.379548 160.902339 
L 311.041863 165.006719 
L 311.704177 163.142431 
L 312.366492 163.912493 
L 313.028807 162.691998 
L 313.691121 164.827251 
L 314.353436 165.229024 
L 315.01575 162.502749 
L 315.678065 162.336845 
L 316.340379 159.800239 
L 317.002694 160.10979 
L 317.665008 159.943548 
L 318.327323 159.449729 
L 318.989637 161.567434 
L 319.651952 160.579223 
L 320.314267 163.171652 
L 320.976581 163.766582 
L 321.638896 163.127232 
L 322.30121 164.157497 
L 322.963525 162.920721 
L 323.625839 163.34714 
L 324.288154 163.134579 
L 326.275097 168.016071 
L 326.937412 168.661632 
L 327.599726 168.141182 
L 328.262041 168.935594 
L 328.924356 168.908187 
L 330.248985 169.248175 
L 330.911299 169.994612 
L 331.573614 170.078618 
L 332.235928 170.704869 
L 332.898243 170.719203 
L 333.560557 171.052755 
L 334.885186 170.547464 
L 335.547501 170.604038 
L 336.209815 170.824998 
L 336.87213 170.776148 
L 338.196759 169.762723 
L 339.521388 170.351034 
L 340.183703 169.106374 
L 340.846017 169.367107 
L 341.508332 166.348496 
L 342.170646 168.360463 
L 342.832961 167.245291 
L 343.495275 165.163463 
L 344.15759 165.101566 
L 344.819904 164.77068 
L 345.482219 165.004863 
L 346.144534 165.535876 
L 346.806848 164.561955 
L 347.469163 166.659567 
L 348.131477 165.87807 
L 348.793792 164.603729 
L 349.456106 164.823391 
L 350.118421 161.83626 
L 350.780735 163.849109 
L 351.44305 163.629593 
L 352.105364 163.529899 
L 352.767679 162.831324 
L 353.429994 163.395468 
L 354.092308 160.648775 
L 354.754623 163.080564 
L 355.416937 162.139777 
L 356.079252 163.974062 
L 356.741566 166.533888 
L 357.403881 164.993836 
L 358.066195 161.36757 
L 358.72851 164.846009 
L 359.390824 167.045905 
L 360.053139 165.568355 
L 360.715453 164.830764 
L 361.377768 168.355042 
L 362.040083 170.113531 
L 362.702397 170.736737 
L 363.364712 170.86688 
L 364.027026 170.194776 
L 364.689341 170.109264 
L 365.351655 170.820013 
L 366.01397 171.364408 
L 366.676284 170.06195 
L 367.338599 170.645134 
L 368.000913 170.889075 
L 368.663228 170.921618 
L 369.325542 171.229129 
L 370.650172 170.229888 
L 371.312486 170.735384 
L 372.637115 170.573251 
L 373.29943 170.118379 
L 373.961744 169.828404 
L 374.624059 170.411922 
L 375.286373 169.070743 
L 376.611002 169.226622 
L 377.273317 168.759881 
L 377.935631 168.586867 
L 379.260261 166.813717 
L 379.922575 167.863917 
L 380.58489 167.192174 
L 381.247204 167.573824 
L 381.909519 166.73997 
L 382.571833 166.408322 
L 383.234148 165.304026 
L 383.896462 166.047217 
L 384.558777 164.325072 
L 385.221091 163.904233 
L 385.883406 163.877866 
L 386.545721 163.692101 
L 387.208035 163.809196 
L 387.87035 163.128626 
L 388.532664 162.695898 
L 389.194979 164.255332 
L 389.857293 164.562866 
L 390.519608 163.192573 
L 391.181922 166.497061 
L 391.844237 165.123708 
L 392.506551 167.17377 
L 393.168866 164.42606 
L 393.83118 168.494275 
L 394.493495 169.08161 
L 396.480439 167.960179 
L 397.142753 170.026884 
L 397.805068 170.390234 
L 398.467382 169.914 
L 399.129697 170.340463 
L 400.454326 170.848546 
L 401.11664 170.462501 
L 401.778955 170.921642 
L 402.441269 170.683959 
L 403.103584 171.004831 
L 403.765899 171.130943 
L 404.428213 170.470699 
L 405.090528 169.53806 
L 405.752842 170.123751 
L 406.415157 169.541172 
L 407.077471 169.36414 
L 407.739786 169.914881 
L 408.4021 170.063154 
L 409.064415 169.128117 
L 409.726729 169.701025 
L 410.389044 167.070102 
L 411.051358 166.41545 
L 411.713673 166.144085 
L 412.375988 166.890903 
L 413.038302 167.05002 
L 413.700617 166.072042 
L 414.362931 167.828174 
L 415.025246 165.084626 
L 415.68756 165.480781 
L 416.349875 165.141969 
L 417.012189 165.530806 
L 417.674504 164.627591 
L 418.336818 165.245055 
L 418.999133 164.243357 
L 419.661448 161.942639 
L 420.323762 161.600057 
L 420.986077 164.584412 
L 421.648391 164.055006 
L 422.310706 164.278379 
L 422.97302 163.85554 
L 423.635335 164.611628 
L 424.297649 161.366448 
L 424.959964 162.971365 
L 425.622278 165.382477 
L 426.284593 163.88619 
L 426.946907 164.336203 
L 427.609222 166.817219 
L 428.271537 166.76866 
L 428.933851 167.61483 
L 429.596166 169.259369 
L 430.25848 169.742329 
L 430.920795 167.360717 
L 431.583109 168.4928 
L 432.245424 167.841346 
L 432.907738 169.760502 
L 433.570053 169.619316 
L 434.232367 170.023694 
L 434.894682 169.830012 
L 435.556996 170.419987 
L 436.219311 170.761424 
L 437.54394 170.213732 
L 438.206255 170.672278 
L 439.530884 170.416416 
L 440.193198 170.256838 
L 440.855513 169.520241 
L 441.517827 169.343469 
L 442.180142 168.340543 
L 442.842456 170.670943 
L 443.504771 169.114308 
L 444.167085 168.50041 
L 444.8294 168.879383 
L 445.491715 169.483211 
L 446.154029 167.61712 
L 446.816344 166.821615 
L 447.478658 164.479156 
L 448.140973 164.821081 
L 448.803287 164.924705 
L 449.465602 166.459732 
L 450.127916 166.594445 
L 451.452545 165.169496 
L 452.11486 166.28781 
L 452.777175 163.197374 
L 453.439489 163.938005 
L 454.101804 162.723638 
L 454.764118 163.928539 
L 455.426433 164.206987 
L 456.088747 164.102183 
L 457.413376 161.210466 
L 458.075691 163.17465 
L 458.738005 162.004163 
L 459.40032 163.770817 
L 460.062634 164.740033 
L 460.724949 164.188243 
L 462.049578 166.55073 
L 462.711893 167.438951 
L 464.036522 166.049924 
L 464.698836 168.206203 
L 466.023465 169.533363 
L 467.348094 169.338395 
L 468.010409 169.741414 
L 468.672723 169.60305 
L 469.335038 169.94799 
L 469.997353 169.803275 
L 470.659667 170.000326 
L 471.321982 169.919781 
L 471.984296 170.060279 
L 472.646611 170.317555 
L 473.308925 170.418758 
L 473.97124 169.300763 
L 474.633554 169.865402 
L 475.295869 169.311681 
L 475.958183 168.927806 
L 476.620498 169.35369 
L 477.282813 168.702411 
L 477.282813 168.702411 
" style="fill:none;stroke:#4c72b0;stroke-linecap:round;stroke-width:1.75;"/>
   </g>
   <g id="line2d_26">
    <path clip-path="url(#p506dbf3b8d)" d="M 30.882812 175.450749 
L 31.545127 175.182755 
L 32.869756 175.718744 
L 33.532071 174.91476 
L 34.194385 175.986738 
L 34.8567 175.450749 
L 35.519014 175.182755 
L 36.181329 173.842782 
L 36.843643 174.91476 
L 37.505958 174.378771 
L 38.168272 175.986738 
L 38.830587 174.91476 
L 39.492902 171.966821 
L 40.155216 170.358854 
L 40.817531 173.038799 
L 42.14216 169.018882 
L 43.466789 171.162838 
L 44.129103 165.802948 
L 44.791418 169.286876 
L 45.453732 165.266959 
L 46.116047 167.678909 
L 46.778361 164.998965 
L 47.440676 166.606932 
L 48.102991 161.247042 
L 48.765305 157.495119 
L 49.42762 164.73097 
L 50.089934 161.515036 
L 50.752249 162.31902 
L 51.414563 162.587014 
L 52.076878 163.926987 
L 52.739192 169.554871 
L 53.401507 169.286876 
L 54.063821 170.894843 
L 54.726136 170.894843 
L 55.38845 169.554871 
L 56.050765 167.410915 
L 56.71308 166.606932 
L 57.375394 171.966821 
L 58.037709 171.430832 
L 58.700023 169.822865 
L 59.362338 171.698827 
L 60.024652 170.894843 
L 60.686967 171.966821 
L 61.349281 171.966821 
L 62.011596 172.234816 
L 62.67391 172.234816 
L 63.336225 172.50281 
L 63.99854 170.358854 
L 64.660854 172.234816 
L 65.323169 171.966821 
L 65.985483 173.306794 
L 66.647798 171.966821 
L 67.310112 173.842782 
L 67.972427 172.50281 
L 68.634741 171.430832 
L 69.297056 170.894843 
L 69.95937 172.770805 
L 70.621685 171.698827 
L 71.283999 173.038799 
L 71.946314 172.770805 
L 72.608629 171.698827 
L 73.270943 170.358854 
L 73.933258 169.822865 
L 74.595572 159.90707 
L 75.257887 160.443059 
L 75.920201 156.155147 
L 76.582516 158.835092 
L 77.24483 159.371081 
L 77.907145 158.299103 
L 78.569459 152.671219 
L 79.231774 151.867235 
L 79.894088 139.0035 
L 80.556403 145.435368 
L 81.218718 138.467511 
L 81.881032 141.95144 
L 82.543347 139.0035 
L 83.205661 139.0035 
L 83.867976 142.487429 
L 84.53029 141.95144 
L 85.192605 131.23166 
L 85.854919 138.735506 
L 87.179548 155.619158 
L 87.841863 157.763114 
L 88.504177 154.815175 
L 89.166492 148.651302 
L 89.828807 152.403224 
L 90.491121 153.743197 
L 91.153436 161.783031 
L 91.81575 162.31902 
L 92.478065 159.103086 
L 93.140379 167.678909 
L 93.802694 166.338937 
L 94.465008 160.711053 
L 95.127323 165.802948 
L 95.789637 166.606932 
L 96.451952 168.750887 
L 97.114267 168.482893 
L 97.776581 168.482893 
L 98.438896 169.018882 
L 99.10121 170.358854 
L 99.763525 170.09086 
L 100.425839 168.750887 
L 102.412783 171.162838 
L 103.075097 171.430832 
L 103.737412 171.162838 
L 104.399726 169.554871 
L 105.062041 168.750887 
L 105.724356 168.214898 
L 106.38667 169.018882 
L 107.048985 169.554871 
L 107.711299 167.946904 
L 108.373614 167.142921 
L 109.035928 167.678909 
L 109.698243 168.482893 
L 110.360557 162.587014 
L 111.685186 158.567097 
L 112.347501 159.103086 
L 113.009815 156.691136 
L 113.67213 157.763114 
L 114.996759 162.31902 
L 115.659074 156.155147 
L 116.321388 160.175064 
L 116.983703 161.247042 
L 117.646017 164.73097 
L 118.308332 167.410915 
L 119.632961 160.443059 
L 120.295275 160.443059 
L 120.95759 162.31902 
L 121.619904 166.874926 
L 122.282219 168.214898 
L 122.944534 168.482893 
L 123.606848 167.946904 
L 124.269163 169.018882 
L 124.931477 167.678909 
L 125.593792 167.678909 
L 126.256106 167.142921 
L 126.918421 170.626849 
L 127.580735 173.038799 
L 128.24305 173.038799 
L 128.905364 170.894843 
L 129.567679 171.966821 
L 130.229994 173.574788 
L 130.892308 174.378771 
L 131.554623 174.378771 
L 132.216937 174.91476 
L 132.879252 174.91476 
L 133.541566 174.646766 
L 134.866195 171.966821 
L 135.52851 173.842782 
L 136.190824 173.842782 
L 136.853139 171.698827 
L 137.515453 171.430832 
L 138.177768 173.306794 
L 138.840083 170.626849 
L 139.502397 173.306794 
L 140.164712 170.894843 
L 140.827026 171.698827 
L 141.489341 172.234816 
L 142.151655 172.234816 
L 142.81397 170.626849 
L 143.476284 171.966821 
L 144.138599 169.822865 
L 144.800913 170.358854 
L 145.463228 173.306794 
L 146.125542 169.822865 
L 146.787857 169.018882 
L 147.450172 169.286876 
L 148.112486 171.698827 
L 148.774801 170.358854 
L 149.437115 170.358854 
L 150.09943 168.750887 
L 150.761744 166.338937 
L 151.424059 166.874926 
L 152.086373 164.998965 
L 152.748688 164.194981 
L 153.411002 168.214898 
L 154.073317 169.822865 
L 154.735631 165.802948 
L 155.397946 168.214898 
L 156.060261 166.338937 
L 157.38489 170.626849 
L 158.047204 168.214898 
L 158.709519 169.554871 
L 159.371833 167.142921 
L 160.034148 166.874926 
L 160.696462 166.070943 
L 161.358777 169.822865 
L 162.683406 166.606932 
L 163.345721 167.678909 
L 164.008035 169.822865 
L 164.67035 170.09086 
L 165.332664 171.698827 
L 165.994979 170.358854 
L 166.657293 173.038799 
L 167.319608 171.698827 
L 167.981922 172.770805 
L 168.644237 171.966821 
L 169.306551 170.626849 
L 169.968866 173.038799 
L 170.63118 170.09086 
L 171.293495 168.214898 
L 171.95581 167.410915 
L 172.618124 168.214898 
L 173.280439 168.214898 
L 173.942753 166.338937 
L 174.605068 163.390998 
L 175.267382 165.266959 
L 176.592011 161.783031 
L 177.254326 155.083169 
L 177.91664 154.011191 
L 178.578955 157.227125 
L 179.241269 152.671219 
L 179.903584 145.703362 
L 180.565899 128.551716 
L 181.228213 122.387843 
L 181.890528 103.628229 
L 182.552842 95.588395 
L 183.215157 70.664908 
L 184.539786 52.977273 
L 185.2021 74.416831 
L 185.864415 87.280566 
L 186.526729 81.920676 
L 187.189044 66.644991 
L 187.851358 78.972737 
L 188.513673 80.31271 
L 190.500617 136.59155 
L 191.162931 146.507346 
L 191.825246 135.251578 
L 192.48756 152.13523 
L 193.812189 161.515036 
L 196.461448 171.966821 
L 197.123762 171.966821 
L 197.786077 171.162838 
L 198.448391 173.574788 
L 199.110706 174.646766 
L 199.77302 172.234816 
L 200.435335 172.770805 
L 201.097649 172.234816 
L 201.759964 175.182755 
L 202.422278 175.986738 
L 203.084593 174.91476 
L 205.071537 175.718744 
L 205.733851 175.450749 
L 206.396166 172.234816 
L 207.05848 174.378771 
L 207.720795 174.646766 
L 208.383109 173.842782 
L 209.045424 172.770805 
L 209.707738 174.646766 
L 211.032367 173.574788 
L 211.694682 170.358854 
L 212.356996 171.966821 
L 213.019311 171.430832 
L 213.681626 170.09086 
L 214.34394 171.966821 
L 215.668569 165.802948 
L 216.330884 167.678909 
L 216.993198 168.214898 
L 217.655513 167.678909 
L 218.317827 168.750887 
L 218.980142 168.482893 
L 219.642456 166.874926 
L 220.304771 163.658992 
L 220.967085 165.802948 
L 221.6294 169.018882 
L 222.291715 166.874926 
L 222.954029 171.430832 
L 223.616344 167.410915 
L 224.278658 170.358854 
L 224.940973 171.966821 
L 225.603287 171.966821 
L 226.265602 170.358854 
L 226.927916 172.770805 
L 227.590231 171.162838 
L 228.252545 173.038799 
L 228.91486 170.358854 
L 229.577175 171.162838 
L 230.239489 172.234816 
L 230.901804 172.234816 
L 231.564118 170.358854 
L 232.226433 172.770805 
L 232.888747 172.50281 
L 233.551062 175.450749 
L 234.213376 175.182755 
L 234.875691 175.182755 
L 235.538005 173.574788 
L 236.20032 173.574788 
L 236.862634 174.646766 
L 237.524949 175.450749 
L 238.187264 174.91476 
L 238.849578 175.182755 
L 239.511893 175.986738 
L 240.174207 175.450749 
L 240.836522 175.986738 
L 242.161151 174.91476 
L 242.823465 174.91476 
L 243.48578 175.450749 
L 244.148094 174.91476 
L 245.472723 172.234816 
L 246.135038 174.110777 
L 246.797353 173.306794 
L 247.459667 173.038799 
L 248.121982 169.286876 
L 248.784296 170.894843 
L 250.108925 171.966821 
L 250.77124 170.09086 
L 252.095869 168.482893 
L 252.758183 168.750887 
L 253.420498 169.822865 
L 254.082813 167.142921 
L 254.745127 167.678909 
L 255.407442 168.482893 
L 256.069756 168.750887 
L 256.732071 168.214898 
L 257.394385 168.750887 
L 258.0567 170.626849 
L 258.719014 169.286876 
L 259.381329 170.09086 
L 260.043643 169.554871 
L 260.705958 168.750887 
L 261.368272 170.626849 
L 262.030587 167.678909 
L 262.692902 170.09086 
L 263.355216 168.482893 
L 264.017531 171.162838 
L 264.679845 171.966821 
L 265.34216 170.09086 
L 266.004474 169.018882 
L 266.666789 171.698827 
L 267.329103 173.038799 
L 267.991418 174.110777 
L 268.653732 172.770805 
L 269.316047 173.574788 
L 269.978361 173.574788 
L 270.640676 171.430832 
L 271.302991 173.842782 
L 271.965305 174.378771 
L 272.62762 174.378771 
L 273.289934 174.110777 
L 273.952249 175.718744 
L 274.614563 174.646766 
L 275.276878 172.770805 
L 275.939192 175.450749 
L 277.263821 172.770805 
L 277.926136 174.646766 
L 278.58845 174.110777 
L 279.250765 175.718744 
L 279.91308 175.718744 
L 280.575394 172.770805 
L 281.900023 173.842782 
L 282.562338 170.894843 
L 283.224652 169.554871 
L 283.886967 163.926987 
L 284.549281 165.266959 
L 285.211596 168.214898 
L 285.87391 167.410915 
L 286.536225 167.678909 
L 287.19854 162.587014 
L 287.860854 161.515036 
L 288.523169 157.763114 
L 289.185483 146.507346 
L 289.847798 157.763114 
L 290.510112 163.926987 
L 291.834741 163.390998 
L 292.497056 158.835092 
L 293.15937 161.515036 
L 293.821685 160.175064 
L 294.483999 158.567097 
L 295.146314 159.371081 
L 295.808629 158.299103 
L 296.470943 163.390998 
L 297.133258 163.123003 
L 297.795572 161.515036 
L 298.457887 156.423141 
L 299.120201 159.639075 
L 299.782516 159.90707 
L 300.44483 165.534954 
L 301.107145 163.123003 
L 301.769459 167.410915 
L 302.431774 168.214898 
L 303.094088 166.338937 
L 303.756403 168.482893 
L 304.418718 167.946904 
L 305.081032 169.554871 
L 305.743347 168.482893 
L 306.405661 166.874926 
L 307.067976 167.142921 
L 307.73029 164.194981 
L 308.392605 163.658992 
L 309.054919 164.73097 
L 310.379548 160.711053 
L 311.041863 157.495119 
L 312.366492 142.219434 
L 313.028807 142.487429 
L 313.691121 136.323556 
L 314.353436 125.335782 
L 315.678065 88.352544 
L 316.340379 106.040179 
L 317.002694 117.563942 
L 317.665008 121.851854 
L 318.327323 128.015727 
L 318.989637 149.991274 
L 319.651952 162.051025 
L 320.976581 149.18729 
L 321.638896 142.487429 
L 322.30121 156.95913 
L 322.963525 158.299103 
L 323.625839 159.371081 
L 324.288154 161.783031 
L 324.950468 158.567097 
L 325.612783 154.011191 
L 326.275097 153.743197 
L 326.937412 158.567097 
L 327.599726 156.95913 
L 328.262041 152.671219 
L 328.924356 158.299103 
L 329.58667 160.711053 
L 330.248985 161.515036 
L 330.911299 155.887152 
L 331.573614 156.423141 
L 332.235928 163.926987 
L 332.898243 163.123003 
L 333.560557 165.266959 
L 334.222872 169.018882 
L 334.885186 166.606932 
L 335.547501 166.606932 
L 336.209815 169.286876 
L 336.87213 173.306794 
L 337.534445 172.50281 
L 338.196759 170.626849 
L 338.859074 174.378771 
L 339.521388 172.50281 
L 340.183703 171.966821 
L 340.846017 173.842782 
L 341.508332 174.110777 
L 342.170646 173.574788 
L 342.832961 171.162838 
L 343.495275 173.038799 
L 344.15759 173.574788 
L 344.819904 172.234816 
L 345.482219 173.574788 
L 346.144534 174.646766 
L 346.806848 171.966821 
L 347.469163 172.770805 
L 348.131477 173.038799 
L 348.793792 172.50281 
L 349.456106 168.482893 
L 350.118421 169.822865 
L 350.780735 165.802948 
L 351.44305 164.73097 
L 352.105364 169.822865 
L 352.767679 170.894843 
L 353.429994 163.658992 
L 354.092308 161.515036 
L 354.754623 160.443059 
L 355.416937 164.462976 
L 356.079252 161.783031 
L 356.741566 167.946904 
L 358.066195 160.175064 
L 358.72851 165.266959 
L 359.390824 166.606932 
L 360.053139 164.998965 
L 360.715453 167.410915 
L 361.377768 165.802948 
L 362.040083 169.822865 
L 362.702397 172.234816 
L 363.364712 171.966821 
L 364.027026 171.966821 
L 364.689341 172.234816 
L 365.351655 170.358854 
L 366.01397 171.698827 
L 366.676284 171.698827 
L 367.338599 174.110777 
L 368.000913 174.646766 
L 368.663228 174.646766 
L 369.325542 175.450749 
L 370.650172 175.986738 
L 371.312486 174.378771 
L 371.974801 175.718744 
L 372.637115 176.254733 
L 373.29943 176.254733 
L 374.624059 175.718744 
L 375.286373 175.718744 
L 375.948688 175.986738 
L 376.611002 176.522727 
L 377.273317 176.522727 
L 377.935631 175.986738 
L 378.597946 175.986738 
L 379.260261 176.522727 
L 379.922575 174.91476 
L 380.58489 175.718744 
L 381.247204 174.91476 
L 381.909519 175.986738 
L 382.571833 175.718744 
L 383.234148 175.986738 
L 383.896462 175.450749 
L 384.558777 175.182755 
L 385.221091 175.986738 
L 385.883406 174.110777 
L 386.545721 175.986738 
L 387.208035 175.450749 
L 387.87035 174.378771 
L 388.532664 174.91476 
L 389.194979 175.718744 
L 389.857293 173.574788 
L 390.519608 172.770805 
L 391.181922 172.50281 
L 391.844237 171.162838 
L 392.506551 174.110777 
L 393.168866 171.162838 
L 393.83118 169.018882 
L 394.493495 166.338937 
L 395.15581 168.482893 
L 395.818124 168.482893 
L 397.142753 172.234816 
L 398.467382 169.018882 
L 399.129697 172.770805 
L 400.454326 171.162838 
L 401.11664 171.966821 
L 401.778955 173.842782 
L 402.441269 173.038799 
L 403.103584 171.162838 
L 403.765899 174.110777 
L 404.428213 171.698827 
L 405.090528 174.110777 
L 405.752842 174.378771 
L 406.415157 171.430832 
L 407.739786 175.450749 
L 408.4021 174.91476 
L 409.064415 174.91476 
L 409.726729 174.378771 
L 410.389044 173.038799 
L 411.051358 174.378771 
L 411.713673 174.378771 
L 412.375988 175.182755 
L 413.038302 172.234816 
L 413.700617 173.306794 
L 414.362931 173.574788 
L 415.025246 171.698827 
L 415.68756 173.842782 
L 416.349875 170.626849 
L 417.012189 172.770805 
L 418.336818 171.698827 
L 418.999133 169.286876 
L 419.661448 166.338937 
L 420.323762 167.142921 
L 420.986077 165.534954 
L 421.648391 162.855009 
L 422.310706 159.103086 
L 422.97302 161.783031 
L 423.635335 162.051025 
L 424.297649 159.90707 
L 424.959964 159.371081 
L 425.622278 161.515036 
L 426.284593 159.103086 
L 426.946907 157.495119 
L 427.609222 156.423141 
L 428.271537 157.495119 
L 428.933851 157.227125 
L 429.596166 163.926987 
L 430.25848 169.286876 
L 430.920795 167.142921 
L 431.583109 169.822865 
L 432.245424 171.430832 
L 432.907738 166.606932 
L 433.570053 166.338937 
L 434.232367 167.410915 
L 435.556996 171.430832 
L 436.219311 171.698827 
L 436.881626 170.626849 
L 437.54394 172.234816 
L 438.206255 171.698827 
L 438.868569 174.91476 
L 439.530884 173.306794 
L 440.193198 174.91476 
L 440.855513 174.91476 
L 441.517827 175.718744 
L 442.180142 174.646766 
L 442.842456 174.91476 
L 443.504771 176.254733 
L 444.167085 175.718744 
L 444.8294 175.986738 
L 445.491715 175.986738 
L 446.154029 176.254733 
L 446.816344 173.842782 
L 447.478658 175.718744 
L 448.140973 175.718744 
L 448.803287 176.254733 
L 449.465602 176.254733 
L 450.127916 175.986738 
L 450.790231 174.91476 
L 451.452545 175.718744 
L 452.11486 175.718744 
L 452.777175 175.182755 
L 453.439489 175.450749 
L 454.101804 174.646766 
L 455.426433 175.182755 
L 456.088747 174.646766 
L 456.751062 174.91476 
L 457.413376 175.450749 
L 458.075691 175.450749 
L 458.738005 174.646766 
L 459.40032 174.110777 
L 460.062634 175.182755 
L 460.724949 175.182755 
L 461.387264 173.842782 
L 462.049578 174.91476 
L 462.711893 173.038799 
L 463.374207 174.91476 
L 464.036522 175.182755 
L 464.698836 175.182755 
L 465.361151 174.110777 
L 466.023465 175.718744 
L 466.68578 174.91476 
L 467.348094 173.574788 
L 468.010409 174.646766 
L 468.672723 174.646766 
L 469.335038 172.50281 
L 469.997353 174.110777 
L 470.659667 174.91476 
L 471.984296 174.91476 
L 472.646611 174.646766 
L 473.308925 173.842782 
L 473.97124 174.378771 
L 474.633554 174.646766 
L 475.295869 173.306794 
L 475.958183 175.718744 
L 476.620498 175.986738 
L 477.282813 174.646766 
L 477.282813 174.646766 
" style="fill:none;stroke:#55a868;stroke-linecap:round;stroke-width:1.75;"/>
   </g>
   <g id="patch_3">
    <path d="M 30.882812 182.7 
L 30.882812 46.8 
" style="fill:none;"/>
   </g>
   <g id="patch_4">
    <path d="M 477.282812 182.7 
L 477.282812 46.8 
" style="fill:none;"/>
   </g>
   <g id="patch_5">
    <path d="M 30.882812 182.7 
L 477.282813 182.7 
" style="fill:none;"/>
   </g>
   <g id="patch_6">
    <path d="M 30.882812 46.8 
L 477.282813 46.8 
" style="fill:none;"/>
   </g>
  </g>
  <g id="axes_2">
   <g id="patch_7">
    <path d="M 30.882812 345.78 
L 477.282812 345.78 
L 477.282812 209.88 
L 30.882812 209.88 
z
" style="fill:#eaeaf2;"/>
   </g>
   <g id="matplotlib.axis_3">
    <g id="xtick_8">
     <g id="line2d_27">
      <path clip-path="url(#p0a4f1411ac)" d="M 30.882812 345.78 
L 30.882812 209.88 
" style="fill:none;stroke:#ffffff;stroke-linecap:round;"/>
     </g>
     <g id="line2d_28"/>
     <g id="text_13">
      <!-- 0 -->
      <g style="fill:#262626;" transform="translate(28.102344 360.026875)scale(0.1 -0.1)">
       <use xlink:href="#LiberationSans-30"/>
      </g>
     </g>
    </g>
    <g id="xtick_9">
     <g id="line2d_29">
      <path clip-path="url(#p0a4f1411ac)" d="M 92.540271 345.78 
L 92.540271 209.88 
" style="fill:none;stroke:#ffffff;stroke-linecap:round;"/>
     </g>
     <g id="line2d_30"/>
     <g id="text_14">
      <!-- 50 -->
      <g style="fill:#262626;" transform="translate(86.979334 360.026875)scale(0.1 -0.1)">
       <use xlink:href="#LiberationSans-35"/>
       <use x="55.615234" xlink:href="#LiberationSans-30"/>
      </g>
     </g>
    </g>
    <g id="xtick_10">
     <g id="line2d_31">
      <path clip-path="url(#p0a4f1411ac)" d="M 154.19773 345.78 
L 154.19773 209.88 
" style="fill:none;stroke:#ffffff;stroke-linecap:round;"/>
     </g>
     <g id="line2d_32"/>
     <g id="text_15">
      <!-- 100 -->
      <g style="fill:#262626;" transform="translate(145.856323 360.026875)scale(0.1 -0.1)">
       <use xlink:href="#LiberationSans-31"/>
       <use x="55.615234" xlink:href="#LiberationSans-30"/>
       <use x="111.230469" xlink:href="#LiberationSans-30"/>
      </g>
     </g>
    </g>
    <g id="xtick_11">
     <g id="line2d_33">
      <path clip-path="url(#p0a4f1411ac)" d="M 215.855188 345.78 
L 215.855188 209.88 
" style="fill:none;stroke:#ffffff;stroke-linecap:round;"/>
     </g>
     <g id="line2d_34"/>
     <g id="text_16">
      <!-- 150 -->
      <g style="fill:#262626;" transform="translate(207.513782 360.026875)scale(0.1 -0.1)">
       <use xlink:href="#LiberationSans-31"/>
       <use x="55.615234" xlink:href="#LiberationSans-35"/>
       <use x="111.230469" xlink:href="#LiberationSans-30"/>
      </g>
     </g>
    </g>
    <g id="xtick_12">
     <g id="line2d_35">
      <path clip-path="url(#p0a4f1411ac)" d="M 277.512647 345.78 
L 277.512647 209.88 
" style="fill:none;stroke:#ffffff;stroke-linecap:round;"/>
     </g>
     <g id="line2d_36"/>
     <g id="text_17">
      <!-- 200 -->
      <g style="fill:#262626;" transform="translate(269.171241 360.026875)scale(0.1 -0.1)">
       <use xlink:href="#LiberationSans-32"/>
       <use x="55.615234" xlink:href="#LiberationSans-30"/>
       <use x="111.230469" xlink:href="#LiberationSans-30"/>
      </g>
     </g>
    </g>
    <g id="xtick_13">
     <g id="line2d_37">
      <path clip-path="url(#p0a4f1411ac)" d="M 339.170105 345.78 
L 339.170105 209.88 
" style="fill:none;stroke:#ffffff;stroke-linecap:round;"/>
     </g>
     <g id="line2d_38"/>
     <g id="text_18">
      <!-- 250 -->
      <g style="fill:#262626;" transform="translate(330.828699 360.026875)scale(0.1 -0.1)">
       <use xlink:href="#LiberationSans-32"/>
       <use x="55.615234" xlink:href="#LiberationSans-35"/>
       <use x="111.230469" xlink:href="#LiberationSans-30"/>
      </g>
     </g>
    </g>
    <g id="xtick_14">
     <g id="line2d_39">
      <path clip-path="url(#p0a4f1411ac)" d="M 400.827564 345.78 
L 400.827564 209.88 
" style="fill:none;stroke:#ffffff;stroke-linecap:round;"/>
     </g>
     <g id="line2d_40"/>
     <g id="text_19">
      <!-- 300 -->
      <g style="fill:#262626;" transform="translate(392.486158 360.026875)scale(0.1 -0.1)">
       <use xlink:href="#LiberationSans-33"/>
       <use x="55.615234" xlink:href="#LiberationSans-30"/>
       <use x="111.230469" xlink:href="#LiberationSans-30"/>
      </g>
     </g>
    </g>
    <g id="xtick_15">
     <g id="line2d_41">
      <path clip-path="url(#p0a4f1411ac)" d="M 462.485022 345.78 
L 462.485022 209.88 
" style="fill:none;stroke:#ffffff;stroke-linecap:round;"/>
     </g>
     <g id="line2d_42"/>
     <g id="text_20">
      <!-- 350 -->
      <g style="fill:#262626;" transform="translate(454.143616 360.026875)scale(0.1 -0.1)">
       <use xlink:href="#LiberationSans-33"/>
       <use x="55.615234" xlink:href="#LiberationSans-35"/>
       <use x="111.230469" xlink:href="#LiberationSans-30"/>
      </g>
     </g>
    </g>
   </g>
   <g id="matplotlib.axis_4">
    <g id="ytick_6">
     <g id="line2d_43">
      <path clip-path="url(#p0a4f1411ac)" d="M 30.882812 339.602727 
L 477.282812 339.602727 
" style="fill:none;stroke:#ffffff;stroke-linecap:round;"/>
     </g>
     <g id="line2d_44"/>
     <g id="text_21">
      <!-- 0 -->
      <g style="fill:#262626;" transform="translate(18.321875 343.226165)scale(0.1 -0.1)">
       <use xlink:href="#LiberationSans-30"/>
      </g>
     </g>
    </g>
    <g id="ytick_7">
     <g id="line2d_45">
      <path clip-path="url(#p0a4f1411ac)" d="M 30.882812 312.976552 
L 477.282812 312.976552 
" style="fill:none;stroke:#ffffff;stroke-linecap:round;"/>
     </g>
     <g id="line2d_46"/>
     <g id="text_22">
      <!-- 25 -->
      <g style="fill:#262626;" transform="translate(12.760937 316.599989)scale(0.1 -0.1)">
       <use xlink:href="#LiberationSans-32"/>
       <use x="55.615234" xlink:href="#LiberationSans-35"/>
      </g>
     </g>
    </g>
    <g id="ytick_8">
     <g id="line2d_47">
      <path clip-path="url(#p0a4f1411ac)" d="M 30.882812 286.350376 
L 477.282812 286.350376 
" style="fill:none;stroke:#ffffff;stroke-linecap:round;"/>
     </g>
     <g id="line2d_48"/>
     <g id="text_23">
      <!-- 50 -->
      <g style="fill:#262626;" transform="translate(12.760937 289.973814)scale(0.1 -0.1)">
       <use xlink:href="#LiberationSans-35"/>
       <use x="55.615234" xlink:href="#LiberationSans-30"/>
      </g>
     </g>
    </g>
    <g id="ytick_9">
     <g id="line2d_49">
      <path clip-path="url(#p0a4f1411ac)" d="M 30.882812 259.724201 
L 477.282812 259.724201 
" style="fill:none;stroke:#ffffff;stroke-linecap:round;"/>
     </g>
     <g id="line2d_50"/>
     <g id="text_24">
      <!-- 75 -->
      <defs>
       <path d="M 50.59375 61.671875 
Q 45.40625 53.765625 41.0625 46.453125 
Q 36.71875 39.15625 33.59375 31.75 
Q 30.46875 24.359375 28.734375 16.578125 
Q 27 8.796875 27 0 
L 17.828125 0 
Q 17.828125 8.25 19.78125 16.1875 
Q 21.734375 24.125 25.046875 31.765625 
Q 28.375 39.40625 32.765625 46.78125 
Q 37.15625 54.15625 42.09375 61.328125 
L 5.125 61.328125 
L 5.125 68.796875 
L 50.59375 68.796875 
z
" id="LiberationSans-37"/>
      </defs>
      <g style="fill:#262626;" transform="translate(12.760937 263.347638)scale(0.1 -0.1)">
       <use xlink:href="#LiberationSans-37"/>
       <use x="55.615234" xlink:href="#LiberationSans-35"/>
      </g>
     </g>
    </g>
    <g id="ytick_10">
     <g id="line2d_51">
      <path clip-path="url(#p0a4f1411ac)" d="M 30.882812 233.098025 
L 477.282812 233.098025 
" style="fill:none;stroke:#ffffff;stroke-linecap:round;"/>
     </g>
     <g id="line2d_52"/>
     <g id="text_25">
      <!-- 100 -->
      <g style="fill:#262626;" transform="translate(7.2 236.721463)scale(0.1 -0.1)">
       <use xlink:href="#LiberationSans-31"/>
       <use x="55.615234" xlink:href="#LiberationSans-30"/>
       <use x="111.230469" xlink:href="#LiberationSans-30"/>
      </g>
     </g>
    </g>
   </g>
   <g id="line2d_53">
    <path clip-path="url(#p0a4f1411ac)" d="M 30.882812 333.994724 
L 32.115962 333.304825 
L 33.349111 333.15408 
L 34.58226 337.397968 
L 35.815409 335.699488 
L 37.048558 337.186346 
L 38.281708 335.33188 
L 39.514857 335.115611 
L 40.748006 336.16242 
L 43.214304 333.92176 
L 45.680603 335.108701 
L 46.913752 335.04744 
L 48.146901 334.691483 
L 49.38005 333.91135 
L 50.613199 334.200606 
L 51.846348 334.214252 
L 53.079498 332.197443 
L 54.312647 331.82352 
L 55.545796 332.038361 
L 56.778945 333.717977 
L 58.012094 333.680798 
L 59.245243 333.784437 
L 60.478393 333.712696 
L 61.711542 333.402585 
L 62.944691 327.703115 
L 64.17784 334.34946 
L 65.410989 333.544519 
L 66.644138 335.080358 
L 67.877288 335.17468 
L 69.110437 334.425508 
L 70.343586 334.44699 
L 71.576735 333.747811 
L 72.809884 332.890189 
L 74.043033 331.603438 
L 75.276183 333.446575 
L 76.509332 333.186789 
L 77.742481 332.263358 
L 78.97563 332.93194 
L 80.208779 333.01747 
L 81.441929 332.401298 
L 82.675078 332.498211 
L 83.908227 332.265004 
L 85.141376 331.217611 
L 86.374525 329.339696 
L 87.607674 332.434327 
L 88.840824 333.502245 
L 90.073973 334.794624 
L 91.307122 335.143589 
L 92.540271 335.372854 
L 93.77342 336.962347 
L 95.006569 335.953177 
L 96.239719 335.709297 
L 97.472868 334.60878 
L 98.706017 333.205114 
L 99.939166 336.145403 
L 101.172315 336.594997 
L 102.405464 335.684881 
L 103.638614 334.938511 
L 104.871763 335.135949 
L 106.104912 333.448449 
L 107.338061 334.635926 
L 108.57121 334.24786 
L 109.804359 334.022928 
L 111.037509 333.229838 
L 112.270658 333.699006 
L 113.503807 333.768706 
L 114.736956 329.217654 
L 115.970105 331.276307 
L 117.203254 330.357267 
L 118.436404 330.373512 
L 119.669553 329.027203 
L 120.902702 330.209854 
L 122.135851 330.419583 
L 123.369 325.376462 
L 124.60215 327.468569 
L 125.835299 324.459626 
L 127.068448 329.303278 
L 128.301597 332.338076 
L 129.534746 332.197488 
L 130.767895 332.56092 
L 132.001045 332.206999 
L 133.234194 333.642686 
L 134.467343 330.309153 
L 135.700492 331.617039 
L 136.933641 331.193221 
L 138.16679 329.149851 
L 139.39994 331.010938 
L 140.633089 330.262072 
L 141.866238 332.262524 
L 143.099387 330.349484 
L 144.332536 331.682707 
L 145.565685 331.290618 
L 146.798835 329.704101 
L 148.031984 330.907234 
L 149.265133 330.425056 
L 150.498282 332.079178 
L 151.731431 331.631937 
L 152.96458 332.022127 
L 154.19773 333.110591 
L 155.430879 331.800955 
L 156.664028 335.730614 
L 157.897177 336.240389 
L 159.130326 335.898371 
L 161.596625 335.996628 
L 162.829774 335.531678 
L 164.062923 335.244401 
L 165.296072 335.631323 
L 166.529221 335.160901 
L 167.762371 335.334985 
L 170.228669 333.468139 
L 171.461818 335.272793 
L 172.694967 334.152023 
L 173.928116 332.352785 
L 175.161266 330.997677 
L 176.394415 331.202515 
L 177.627564 330.690145 
L 178.860713 332.451358 
L 180.093862 326.043997 
L 181.327011 327.443851 
L 182.560161 330.430208 
L 183.79331 328.866709 
L 185.026459 326.227368 
L 186.259608 327.377081 
L 187.492757 328.286209 
L 188.725906 326.718268 
L 189.959056 328.862385 
L 191.192205 329.726264 
L 192.425354 329.92873 
L 193.658503 330.408384 
L 194.891652 331.32423 
L 196.124801 332.458771 
L 197.357951 329.648701 
L 198.5911 332.046973 
L 199.824249 327.288591 
L 201.057398 326.640626 
L 202.290547 329.646626 
L 203.523696 330.989186 
L 204.756846 327.980799 
L 205.989995 325.554126 
L 207.223144 327.382933 
L 208.456293 323.85284 
L 209.689442 330.354782 
L 210.922592 328.485473 
L 212.155741 330.232058 
L 213.38889 329.734592 
L 214.622039 333.27233 
L 215.855188 332.577556 
L 217.088337 330.272299 
L 218.321487 330.626718 
L 219.554636 330.853859 
L 220.787785 333.985724 
L 222.020934 333.89621 
L 223.254083 334.675912 
L 224.487232 334.779369 
L 226.953531 336.606618 
L 228.18668 335.074355 
L 229.419829 334.815935 
L 230.652978 334.124334 
L 231.886127 335.292534 
L 233.119277 332.886118 
L 234.352426 335.921271 
L 235.585575 334.268773 
L 236.818724 335.939997 
L 238.051873 331.336381 
L 239.285022 329.898607 
L 240.518172 329.577514 
L 241.751321 328.454886 
L 242.98447 330.163622 
L 245.450768 330.241636 
L 246.683917 330.979643 
L 247.917067 327.496624 
L 249.150216 326.946258 
L 250.383365 329.137651 
L 251.616514 323.49684 
L 252.849663 326.897668 
L 254.082812 331.681334 
L 255.315962 330.213771 
L 256.549111 328.47432 
L 257.78226 324.450984 
L 259.015409 329.927251 
L 260.248558 332.91049 
L 261.481708 333.588224 
L 262.714857 330.538602 
L 263.948006 331.664493 
L 265.181155 331.050068 
L 266.414304 328.032588 
L 267.647453 329.982317 
L 268.880603 328.628825 
L 270.113752 325.845425 
L 271.346901 326.738233 
L 272.58005 326.833681 
L 273.813199 328.224518 
L 275.046348 327.403533 
L 276.279498 327.840982 
L 277.512647 327.954048 
L 278.745796 334.048863 
L 279.978945 330.767459 
L 281.212094 332.421506 
L 283.678393 334.167236 
L 284.911542 334.386556 
L 286.144691 336.424821 
L 287.37784 334.041102 
L 288.610989 333.842201 
L 289.844138 334.577957 
L 291.077288 333.370364 
L 292.310437 335.131779 
L 293.543586 336.298499 
L 294.776735 336.027719 
L 296.009884 334.570231 
L 297.243033 334.331884 
L 298.476183 333.639486 
L 299.709332 329.597586 
L 302.17563 334.979167 
L 303.408779 329.633418 
L 304.641929 333.419915 
L 305.875078 327.614393 
L 307.108227 329.129896 
L 308.341376 330.862054 
L 309.574525 329.347562 
L 310.807674 328.714336 
L 312.040824 328.605563 
L 313.273973 325.834615 
L 314.507122 327.892983 
L 316.97342 327.615512 
L 318.206569 325.129332 
L 320.672868 326.165819 
L 321.906017 326.560184 
L 323.139166 326.574866 
L 324.372315 325.739001 
L 325.605464 325.725425 
L 326.838614 331.079735 
L 328.071763 325.708183 
L 329.304912 327.2558 
L 330.538061 324.586949 
L 331.77121 323.407979 
L 333.004359 329.870056 
L 334.237509 329.521466 
L 335.470658 331.480211 
L 336.703807 329.272346 
L 337.936956 325.996497 
L 339.170105 326.012136 
L 340.403254 321.224853 
L 341.636404 331.175428 
L 342.869553 330.471742 
L 344.102702 327.624019 
L 345.335851 330.244478 
L 346.569 332.566122 
L 347.80215 330.525414 
L 349.035299 332.142026 
L 350.268448 332.707853 
L 351.501597 334.545897 
L 352.734746 333.33261 
L 353.967895 336.293823 
L 355.201045 336.055499 
L 356.434194 336.991688 
L 357.667343 336.014712 
L 358.900492 335.34157 
L 360.133641 336.308272 
L 361.36679 333.833701 
L 362.59994 334.450556 
L 363.833089 334.237205 
L 365.066238 333.799152 
L 366.299387 336.831312 
L 367.532536 333.978708 
L 368.765685 333.848032 
L 369.998835 332.568088 
L 371.231984 329.501519 
L 372.465133 331.207026 
L 373.698282 326.560446 
L 374.931431 328.871645 
L 376.16458 328.031511 
L 377.39773 323.86317 
L 378.630879 327.846341 
L 379.864028 327.916273 
L 381.097177 324.725901 
L 382.330326 324.135838 
L 383.563475 327.427565 
L 384.796625 335.254134 
L 386.029774 327.740098 
L 387.262923 329.988843 
L 388.496072 330.608757 
L 389.729221 329.356912 
L 390.962371 325.828001 
L 392.19552 328.81938 
L 393.428669 330.146492 
L 394.661818 328.57611 
L 395.894967 326.360009 
L 397.128116 328.208182 
L 398.361266 328.517922 
L 399.594415 326.73266 
L 400.827564 329.721256 
L 402.060713 326.617332 
L 403.293862 328.656115 
L 404.527011 334.375693 
L 405.760161 329.069106 
L 406.99331 333.468595 
L 408.226459 336.288574 
L 409.459608 333.034257 
L 410.692757 335.505843 
L 411.925906 332.722336 
L 413.159056 333.099358 
L 414.392205 334.633365 
L 415.625354 335.502567 
L 416.858503 334.237733 
L 418.091652 335.534881 
L 419.324801 334.642428 
L 420.557951 335.862966 
L 421.7911 334.036485 
L 423.024249 335.67726 
L 424.257398 332.566204 
L 425.490547 333.017373 
L 426.723696 333.872082 
L 427.956846 334.44968 
L 429.189995 335.946734 
L 430.423144 333.266789 
L 431.656293 330.96643 
L 432.889442 331.971525 
L 434.122592 327.115826 
L 435.355741 320.048465 
L 436.58889 330.766873 
L 439.055188 319.955223 
L 440.288337 330.179809 
L 441.521487 327.187441 
L 442.754636 324.546895 
L 443.987785 320.329328 
L 445.220934 322.735078 
L 446.454083 326.857164 
L 447.687232 330.129235 
L 448.920382 329.332641 
L 450.153531 329.343267 
L 451.38668 327.360529 
L 452.619829 327.821773 
L 453.852978 330.128113 
L 455.086127 333.310251 
L 456.319277 331.764847 
L 457.552426 332.50979 
L 458.785575 330.007778 
L 460.018724 329.975451 
L 461.251873 331.219525 
L 462.485022 328.686212 
L 463.718172 326.997331 
L 464.951321 329.102649 
L 466.18447 330.856264 
L 467.417619 329.653111 
L 468.650768 331.373292 
L 469.883917 330.25845 
L 471.117067 334.535076 
L 472.350216 330.377719 
L 473.583365 335.828115 
L 474.816514 333.902042 
L 476.049663 334.22888 
L 477.282812 334.163156 
L 477.282812 334.163156 
" style="fill:none;stroke:#4c72b0;stroke-linecap:round;stroke-width:1.75;"/>
   </g>
   <g id="line2d_54">
    <path clip-path="url(#p0a4f1411ac)" d="M 30.882812 339.602727 
L 41.981155 339.602727 
L 43.214304 338.53768 
L 44.447453 339.602727 
L 48.146901 339.602727 
L 49.38005 338.53768 
L 50.613199 338.53768 
L 51.846348 339.602727 
L 59.245243 339.602727 
L 60.478393 338.53768 
L 61.711542 339.602727 
L 80.208779 339.602727 
L 81.441929 338.53768 
L 82.675078 339.602727 
L 86.374525 339.602727 
L 87.607674 338.53768 
L 88.840824 338.53768 
L 90.073973 339.602727 
L 91.307122 339.602727 
L 92.540271 338.53768 
L 93.77342 339.602727 
L 118.436404 339.602727 
L 119.669553 338.53768 
L 122.135851 338.53768 
L 123.369 337.472633 
L 124.60215 335.342539 
L 125.835299 338.53768 
L 127.068448 335.342539 
L 128.301597 327.88721 
L 129.534746 322.561975 
L 130.767895 315.106646 
L 132.001045 326.822163 
L 133.234194 324.692069 
L 134.467343 320.431881 
L 135.700492 331.082351 
L 136.933641 332.147398 
L 138.16679 328.952257 
L 139.39994 332.147398 
L 140.633089 328.952257 
L 141.866238 334.277492 
L 143.099387 327.88721 
L 144.332536 331.082351 
L 145.565685 320.431881 
L 146.798835 325.757116 
L 148.031984 330.017304 
L 149.265133 316.171693 
L 150.498282 328.952257 
L 151.731431 334.277492 
L 152.96458 325.757116 
L 154.19773 337.472633 
L 155.430879 327.88721 
L 156.664028 327.88721 
L 157.897177 336.407586 
L 159.130326 332.147398 
L 160.363475 332.147398 
L 161.596625 335.342539 
L 165.296072 332.147398 
L 166.529221 332.147398 
L 167.762371 335.342539 
L 168.99552 330.017304 
L 170.228669 321.496928 
L 171.461818 331.082351 
L 172.694967 316.171693 
L 173.928116 320.431881 
L 175.161266 317.23674 
L 176.394415 322.561975 
L 177.627564 306.58627 
L 178.860713 312.976552 
L 180.093862 309.781411 
L 181.327011 311.911505 
L 182.560161 320.431881 
L 183.79331 310.846458 
L 185.026459 327.88721 
L 186.259608 299.13094 
L 187.492757 308.716364 
L 188.725906 317.23674 
L 189.959056 327.88721 
L 191.192205 328.952257 
L 192.425354 334.277492 
L 193.658503 333.212445 
L 194.891652 337.472633 
L 196.124801 338.53768 
L 197.357951 337.472633 
L 198.5911 337.472633 
L 199.824249 336.407586 
L 201.057398 334.277492 
L 202.290547 338.53768 
L 203.523696 335.342539 
L 204.756846 337.472633 
L 205.989995 335.342539 
L 207.223144 339.602727 
L 210.922592 339.602727 
L 212.155741 338.53768 
L 217.088337 338.53768 
L 220.787785 335.342539 
L 222.020934 333.212445 
L 223.254083 337.472633 
L 224.487232 337.472633 
L 225.720382 334.277492 
L 226.953531 338.53768 
L 228.18668 338.53768 
L 229.419829 339.602727 
L 233.119277 339.602727 
L 234.352426 337.472633 
L 235.585575 339.602727 
L 236.818724 336.407586 
L 238.051873 339.602727 
L 240.518172 339.602727 
L 241.751321 337.472633 
L 242.98447 337.472633 
L 244.217619 336.407586 
L 246.683917 336.407586 
L 247.917067 338.53768 
L 250.383365 336.407586 
L 251.616514 333.212445 
L 252.849663 334.277492 
L 254.082812 338.53768 
L 255.315962 335.342539 
L 256.549111 334.277492 
L 257.78226 331.082351 
L 260.248558 337.472633 
L 261.481708 336.407586 
L 262.714857 336.407586 
L 263.948006 338.53768 
L 265.181155 333.212445 
L 266.414304 335.342539 
L 267.647453 338.53768 
L 270.113752 336.407586 
L 271.346901 338.53768 
L 272.58005 331.082351 
L 273.813199 335.342539 
L 275.046348 333.212445 
L 276.279498 332.147398 
L 277.512647 334.277492 
L 278.745796 331.082351 
L 279.978945 333.212445 
L 281.212094 334.277492 
L 282.445243 333.212445 
L 283.678393 333.212445 
L 284.911542 325.757116 
L 286.144691 337.472633 
L 287.37784 328.952257 
L 288.610989 336.407586 
L 289.844138 326.822163 
L 291.077288 332.147398 
L 293.543586 334.277492 
L 294.776735 333.212445 
L 297.243033 333.212445 
L 298.476183 331.082351 
L 299.709332 333.212445 
L 302.17563 326.822163 
L 303.408779 319.366834 
L 304.641929 331.082351 
L 305.875078 322.561975 
L 307.108227 317.23674 
L 308.341376 333.212445 
L 310.807674 300.195987 
L 312.040824 304.456176 
L 313.273973 320.431881 
L 314.507122 251.203824 
L 315.740271 216.057273 
L 316.97342 305.521223 
L 318.206569 332.147398 
L 319.439719 330.017304 
L 320.672868 328.952257 
L 321.906017 334.277492 
L 323.139166 331.082351 
L 324.372315 332.147398 
L 325.605464 331.082351 
L 326.838614 327.88721 
L 328.071763 333.212445 
L 329.304912 332.147398 
L 330.538061 332.147398 
L 331.77121 324.692069 
L 333.004359 332.147398 
L 334.237509 330.017304 
L 335.470658 325.757116 
L 336.703807 322.561975 
L 337.936956 332.147398 
L 339.170105 330.017304 
L 340.403254 337.472633 
L 341.636404 325.757116 
L 344.102702 336.407586 
L 345.335851 334.277492 
L 346.569 335.342539 
L 347.80215 331.082351 
L 349.035299 337.472633 
L 350.268448 336.407586 
L 352.734746 332.147398 
L 353.967895 336.407586 
L 355.201045 334.277492 
L 356.434194 333.212445 
L 357.667343 334.277492 
L 358.900492 334.277492 
L 360.133641 335.342539 
L 361.36679 339.602727 
L 366.299387 339.602727 
L 368.765685 335.342539 
L 369.998835 335.342539 
L 371.231984 336.407586 
L 372.465133 336.407586 
L 373.698282 334.277492 
L 374.931431 333.212445 
L 376.16458 324.692069 
L 377.39773 336.407586 
L 379.864028 327.88721 
L 381.097177 337.472633 
L 382.330326 333.212445 
L 383.563475 331.082351 
L 384.796625 312.976552 
L 386.029774 317.23674 
L 387.262923 328.952257 
L 388.496072 309.781411 
L 389.729221 298.065893 
L 390.962371 318.301787 
L 393.428669 309.781411 
L 394.661818 311.911505 
L 395.894967 331.082351 
L 397.128116 330.017304 
L 398.361266 326.822163 
L 399.594415 320.431881 
L 400.827564 330.017304 
L 402.060713 330.017304 
L 403.293862 333.212445 
L 404.527011 333.212445 
L 405.760161 331.082351 
L 406.99331 334.277492 
L 408.226459 332.147398 
L 410.692757 334.277492 
L 413.159056 338.53768 
L 414.392205 339.602727 
L 418.091652 336.407586 
L 419.324801 337.472633 
L 424.257398 337.472633 
L 425.490547 335.342539 
L 426.723696 339.602727 
L 427.956846 333.212445 
L 429.189995 336.407586 
L 430.423144 337.472633 
L 431.656293 333.212445 
L 432.889442 337.472633 
L 434.122592 332.147398 
L 435.355741 335.342539 
L 436.58889 333.212445 
L 437.822039 333.212445 
L 439.055188 337.472633 
L 440.288337 325.757116 
L 441.521487 328.952257 
L 442.754636 334.277492 
L 443.987785 337.472633 
L 445.220934 339.602727 
L 446.454083 338.53768 
L 447.687232 339.602727 
L 448.920382 324.692069 
L 450.153531 333.212445 
L 451.38668 328.952257 
L 452.619829 334.277492 
L 453.852978 326.822163 
L 455.086127 330.017304 
L 456.319277 334.277492 
L 457.552426 327.88721 
L 458.785575 337.472633 
L 460.018724 333.212445 
L 461.251873 332.147398 
L 463.718172 334.277492 
L 464.951321 330.017304 
L 466.18447 334.277492 
L 467.417619 331.082351 
L 468.650768 336.407586 
L 469.883917 335.342539 
L 471.117067 327.88721 
L 472.350216 334.277492 
L 473.583365 331.082351 
L 474.816514 335.342539 
L 476.049663 336.407586 
L 477.282812 338.53768 
L 477.282812 338.53768 
" style="fill:none;stroke:#55a868;stroke-linecap:round;stroke-width:1.75;"/>
   </g>
   <g id="patch_8">
    <path d="M 30.882812 345.78 
L 30.882812 209.88 
" style="fill:none;"/>
   </g>
   <g id="patch_9">
    <path d="M 477.282812 345.78 
L 477.282812 209.88 
" style="fill:none;"/>
   </g>
   <g id="patch_10">
    <path d="M 30.882812 345.78 
L 477.282812 345.78 
" style="fill:none;"/>
   </g>
   <g id="patch_11">
    <path d="M 30.882812 209.88 
L 477.282812 209.88 
" style="fill:none;"/>
   </g>
  </g>
  <g id="text_26">
   <!-- Dengue Predicted Cases vs. Actual Cases -->
   <defs>
    <path d="M 67.4375 35.109375 
Q 67.4375 26.515625 64.84375 19.9375 
Q 62.25 13.375 57.75 8.953125 
Q 53.265625 4.546875 47.140625 2.265625 
Q 41.015625 0 33.9375 0 
L 8.203125 0 
L 8.203125 68.796875 
L 30.953125 68.796875 
Q 38.921875 68.796875 45.625 66.8125 
Q 52.34375 64.84375 57.171875 60.71875 
Q 62.015625 56.59375 64.71875 50.234375 
Q 67.4375 43.890625 67.4375 35.109375 
M 58.0625 35.109375 
Q 58.0625 42.09375 56.046875 47.046875 
Q 54.046875 52 50.4375 55.171875 
Q 46.828125 58.34375 41.796875 59.828125 
Q 36.765625 61.328125 30.765625 61.328125 
L 17.53125 61.328125 
L 17.53125 7.46875 
L 32.859375 7.46875 
Q 38.28125 7.46875 42.890625 9.21875 
Q 47.515625 10.984375 50.875 14.453125 
Q 54.25 17.921875 56.15625 23.09375 
Q 58.0625 28.265625 58.0625 35.109375 
" id="LiberationSans-44"/>
    <path d="M 13.484375 24.5625 
Q 13.484375 20.40625 14.328125 16.90625 
Q 15.1875 13.421875 16.96875 10.90625 
Q 18.75 8.40625 21.53125 7 
Q 24.3125 5.609375 28.21875 5.609375 
Q 33.9375 5.609375 37.375 7.90625 
Q 40.828125 10.203125 42.046875 13.71875 
L 49.75 11.53125 
Q 48.921875 9.328125 47.4375 7.109375 
Q 45.953125 4.890625 43.453125 3.09375 
Q 40.96875 1.3125 37.234375 0.15625 
Q 33.5 -0.984375 28.21875 -0.984375 
Q 16.5 -0.984375 10.375 6 
Q 4.25 12.984375 4.25 26.765625 
Q 4.25 34.1875 6.09375 39.328125 
Q 7.953125 44.484375 11.171875 47.703125 
Q 14.40625 50.921875 18.703125 52.359375 
Q 23 53.8125 27.875 53.8125 
Q 34.515625 53.8125 38.984375 51.65625 
Q 43.453125 49.515625 46.15625 45.71875 
Q 48.875 41.9375 50.015625 36.8125 
Q 51.171875 31.6875 51.171875 25.734375 
L 51.171875 24.5625 
z
M 42.09375 31.296875 
Q 41.359375 39.65625 37.84375 43.484375 
Q 34.328125 47.3125 27.734375 47.3125 
Q 25.53125 47.3125 23.109375 46.609375 
Q 20.703125 45.90625 18.65625 44.09375 
Q 16.609375 42.28125 15.1875 39.171875 
Q 13.765625 36.078125 13.578125 31.296875 
z
" id="LiberationSans-65"/>
    <path d="M 40.28125 0 
L 40.28125 33.5 
Q 40.28125 37.359375 39.71875 39.9375 
Q 39.15625 42.53125 37.890625 44.109375 
Q 36.625 45.703125 34.546875 46.359375 
Q 32.46875 47.015625 29.390625 47.015625 
Q 26.265625 47.015625 23.75 45.921875 
Q 21.234375 44.828125 19.453125 42.75 
Q 17.671875 40.671875 16.6875 37.625 
Q 15.71875 34.578125 15.71875 30.609375 
L 15.71875 0 
L 6.9375 0 
L 6.9375 41.546875 
Q 6.9375 43.21875 6.90625 45.046875 
Q 6.890625 46.875 6.828125 48.5 
Q 6.78125 50.140625 6.734375 51.3125 
Q 6.6875 52.484375 6.640625 52.828125 
L 14.9375 52.828125 
Q 14.984375 52.59375 15.03125 51.515625 
Q 15.09375 50.4375 15.15625 49.046875 
Q 15.234375 47.65625 15.28125 46.21875 
Q 15.328125 44.78125 15.328125 43.796875 
L 15.484375 43.796875 
Q 16.75 46.09375 18.265625 47.953125 
Q 19.78125 49.8125 21.78125 51.09375 
Q 23.78125 52.390625 26.359375 53.09375 
Q 28.953125 53.8125 32.375 53.8125 
Q 36.765625 53.8125 39.9375 52.734375 
Q 43.109375 51.65625 45.15625 49.40625 
Q 47.21875 47.171875 48.171875 43.625 
Q 49.125 40.09375 49.125 35.203125 
L 49.125 0 
z
" id="LiberationSans-6e"/>
    <path d="M 26.765625 -20.75 
Q 22.21875 -20.75 18.703125 -19.8125 
Q 15.1875 -18.890625 12.6875 -17.15625 
Q 10.203125 -15.4375 8.640625 -13.03125 
Q 7.078125 -10.640625 6.390625 -7.71875 
L 15.234375 -6.453125 
Q 16.109375 -10.109375 19.109375 -12.078125 
Q 22.125 -14.0625 27 -14.0625 
Q 29.984375 -14.0625 32.421875 -13.234375 
Q 34.859375 -12.40625 36.5625 -10.5625 
Q 38.28125 -8.734375 39.203125 -5.796875 
Q 40.140625 -2.875 40.140625 1.3125 
L 40.140625 9.8125 
L 40.046875 9.8125 
Q 39.0625 7.8125 37.625 5.984375 
Q 36.1875 4.15625 34.109375 2.734375 
Q 32.03125 1.3125 29.296875 0.453125 
Q 26.5625 -0.390625 23.046875 -0.390625 
Q 18.015625 -0.390625 14.421875 1.296875 
Q 10.84375 2.984375 8.5625 6.34375 
Q 6.296875 9.71875 5.25 14.71875 
Q 4.203125 19.734375 4.203125 26.3125 
Q 4.203125 32.671875 5.25 37.75 
Q 6.296875 42.828125 8.65625 46.359375 
Q 11.03125 49.90625 14.8125 51.78125 
Q 18.609375 53.65625 24.03125 53.65625 
Q 29.640625 53.65625 33.765625 51.09375 
Q 37.890625 48.53125 40.140625 43.796875 
L 40.234375 43.796875 
Q 40.234375 45.015625 40.296875 46.53125 
Q 40.375 48.046875 40.453125 49.390625 
Q 40.53125 50.734375 40.625 51.703125 
Q 40.71875 52.6875 40.828125 52.828125 
L 49.171875 52.828125 
Q 49.125 52.390625 49.078125 51.34375 
Q 49.03125 50.296875 48.96875 48.828125 
Q 48.921875 47.359375 48.890625 45.578125 
Q 48.875 43.796875 48.875 41.890625 
L 48.875 1.515625 
Q 48.875 -9.578125 43.421875 -15.15625 
Q 37.984375 -20.75 26.765625 -20.75 
M 40.140625 26.421875 
Q 40.140625 31.9375 38.9375 35.859375 
Q 37.75 39.796875 35.796875 42.28125 
Q 33.84375 44.78125 31.328125 45.953125 
Q 28.8125 47.125 26.171875 47.125 
Q 22.796875 47.125 20.375 45.953125 
Q 17.96875 44.78125 16.375 42.265625 
Q 14.796875 39.75 14.03125 35.8125 
Q 13.28125 31.890625 13.28125 26.421875 
Q 13.28125 20.703125 14.03125 16.8125 
Q 14.796875 12.9375 16.359375 10.546875 
Q 17.921875 8.15625 20.3125 7.125 
Q 22.703125 6.109375 26.03125 6.109375 
Q 28.65625 6.109375 31.171875 7.21875 
Q 33.6875 8.34375 35.6875 10.78125 
Q 37.703125 13.234375 38.921875 17.09375 
Q 40.140625 20.953125 40.140625 26.421875 
" id="LiberationSans-67"/>
    <path d="M 15.328125 52.828125 
L 15.328125 19.34375 
Q 15.328125 15.484375 15.890625 12.890625 
Q 16.453125 10.296875 17.71875 8.703125 
Q 19 7.125 21.0625 6.46875 
Q 23.140625 5.8125 26.21875 5.8125 
Q 29.34375 5.8125 31.859375 6.90625 
Q 34.375 8.015625 36.15625 10.078125 
Q 37.9375 12.15625 38.90625 15.203125 
Q 39.890625 18.265625 39.890625 22.21875 
L 39.890625 52.828125 
L 48.6875 52.828125 
L 48.6875 11.28125 
Q 48.6875 9.625 48.703125 7.78125 
Q 48.734375 5.953125 48.78125 4.3125 
Q 48.828125 2.6875 48.875 1.515625 
Q 48.921875 0.34375 48.96875 0 
L 40.671875 0 
Q 40.625 0.25 40.578125 1.3125 
Q 40.53125 2.390625 40.453125 3.78125 
Q 40.375 5.171875 40.328125 6.609375 
Q 40.28125 8.0625 40.28125 9.03125 
L 40.140625 9.03125 
Q 38.875 6.734375 37.359375 4.875 
Q 35.84375 3.03125 33.84375 1.734375 
Q 31.84375 0.4375 29.25 -0.265625 
Q 26.65625 -0.984375 23.25 -0.984375 
Q 18.84375 -0.984375 15.671875 0.09375 
Q 12.5 1.171875 10.453125 3.421875 
Q 8.40625 5.671875 7.453125 9.1875 
Q 6.5 12.703125 6.5 17.625 
L 6.5 52.828125 
z
" id="LiberationSans-75"/>
    <path id="LiberationSans-20"/>
    <path d="M 61.421875 48.09375 
Q 61.421875 43.609375 59.9375 39.71875 
Q 58.453125 35.84375 55.5 32.984375 
Q 52.546875 30.125 48.09375 28.46875 
Q 43.65625 26.8125 37.75 26.8125 
L 17.53125 26.8125 
L 17.53125 0 
L 8.203125 0 
L 8.203125 68.796875 
L 37.15625 68.796875 
Q 43.265625 68.796875 47.796875 67.3125 
Q 52.34375 65.828125 55.375 63.109375 
Q 58.40625 60.40625 59.90625 56.5625 
Q 61.421875 52.734375 61.421875 48.09375 
M 52.046875 48 
Q 52.046875 54.546875 48.046875 57.9375 
Q 44.046875 61.328125 36.03125 61.328125 
L 17.53125 61.328125 
L 17.53125 34.1875 
L 36.421875 34.1875 
Q 44.484375 34.1875 48.265625 37.75 
Q 52.046875 41.3125 52.046875 48 
" id="LiberationSans-50"/>
    <path d="M 6.9375 0 
L 6.9375 40.53125 
Q 6.9375 42.1875 6.90625 43.921875 
Q 6.890625 45.65625 6.828125 47.265625 
Q 6.78125 48.875 6.734375 50.28125 
Q 6.6875 51.703125 6.640625 52.828125 
L 14.9375 52.828125 
Q 14.984375 51.703125 15.0625 50.265625 
Q 15.140625 48.828125 15.203125 47.3125 
Q 15.28125 45.796875 15.296875 44.40625 
Q 15.328125 43.015625 15.328125 42.046875 
L 15.53125 42.046875 
Q 16.453125 45.0625 17.5 47.28125 
Q 18.5625 49.515625 19.96875 50.953125 
Q 21.390625 52.390625 23.34375 53.09375 
Q 25.296875 53.8125 28.078125 53.8125 
Q 29.15625 53.8125 30.125 53.640625 
Q 31.109375 53.46875 31.640625 53.328125 
L 31.640625 45.265625 
Q 30.765625 45.515625 29.59375 45.625 
Q 28.421875 45.75 26.953125 45.75 
Q 23.921875 45.75 21.796875 44.375 
Q 19.671875 43.015625 18.328125 40.59375 
Q 17 38.1875 16.359375 34.84375 
Q 15.71875 31.5 15.71875 27.546875 
L 15.71875 0 
z
" id="LiberationSans-72"/>
    <path d="M 40.09375 8.5 
Q 37.640625 3.421875 33.609375 1.21875 
Q 29.59375 -0.984375 23.640625 -0.984375 
Q 13.625 -0.984375 8.90625 5.75 
Q 4.203125 12.5 4.203125 26.171875 
Q 4.203125 53.8125 23.640625 53.8125 
Q 29.640625 53.8125 33.640625 51.609375 
Q 37.640625 49.421875 40.09375 44.625 
L 40.1875 44.625 
Q 40.1875 45.125 40.15625 46.171875 
Q 40.140625 47.21875 40.109375 48.359375 
Q 40.09375 49.515625 40.09375 50.53125 
Q 40.09375 51.5625 40.09375 52 
L 40.09375 72.46875 
L 48.875 72.46875 
L 48.875 10.890625 
Q 48.875 8.984375 48.890625 7.21875 
Q 48.921875 5.46875 48.96875 4 
Q 49.03125 2.546875 49.078125 1.484375 
Q 49.125 0.4375 49.171875 0 
L 40.765625 0 
Q 40.671875 0.484375 40.59375 1.390625 
Q 40.53125 2.296875 40.453125 3.46875 
Q 40.375 4.640625 40.328125 5.9375 
Q 40.28125 7.234375 40.28125 8.5 
z
M 13.421875 26.46875 
Q 13.421875 21 14.109375 17.09375 
Q 14.796875 13.1875 16.3125 10.671875 
Q 17.828125 8.15625 20.171875 6.984375 
Q 22.515625 5.8125 25.875 5.8125 
Q 29.34375 5.8125 32 6.9375 
Q 34.671875 8.0625 36.453125 10.578125 
Q 38.234375 13.09375 39.15625 17.140625 
Q 40.09375 21.1875 40.09375 27.046875 
Q 40.09375 32.671875 39.15625 36.546875 
Q 38.234375 40.4375 36.421875 42.828125 
Q 34.625 45.21875 32 46.265625 
Q 29.390625 47.3125 25.984375 47.3125 
Q 22.75 47.3125 20.40625 46.1875 
Q 18.0625 45.0625 16.5 42.578125 
Q 14.9375 40.09375 14.171875 36.109375 
Q 13.421875 32.125 13.421875 26.46875 
" id="LiberationSans-64"/>
    <path d="M 6.6875 64.0625 
L 6.6875 72.46875 
L 15.484375 72.46875 
L 15.484375 64.0625 
z
M 6.6875 0 
L 6.6875 52.828125 
L 15.484375 52.828125 
L 15.484375 0 
z
" id="LiberationSans-69"/>
    <path d="M 13.421875 26.65625 
Q 13.421875 22.125 14.078125 18.3125 
Q 14.75 14.5 16.3125 11.734375 
Q 17.875 8.984375 20.4375 7.46875 
Q 23 5.953125 26.765625 5.953125 
Q 31.453125 5.953125 34.59375 8.484375 
Q 37.75 11.03125 38.484375 16.3125 
L 47.359375 15.71875 
Q 46.921875 12.453125 45.453125 9.421875 
Q 44 6.390625 41.484375 4.09375 
Q 38.96875 1.8125 35.34375 0.40625 
Q 31.734375 -0.984375 27 -0.984375 
Q 20.796875 -0.984375 16.453125 1.109375 
Q 12.109375 3.21875 9.390625 6.90625 
Q 6.6875 10.59375 5.46875 15.59375 
Q 4.25 20.609375 4.25 26.46875 
Q 4.25 31.78125 5.125 35.859375 
Q 6 39.9375 7.59375 42.984375 
Q 9.1875 46.046875 11.328125 48.125 
Q 13.484375 50.203125 15.984375 51.4375 
Q 18.5 52.6875 21.28125 53.25 
Q 24.078125 53.8125 26.90625 53.8125 
Q 31.34375 53.8125 34.8125 52.59375 
Q 38.28125 51.375 40.796875 49.25 
Q 43.3125 47.125 44.875 44.234375 
Q 46.4375 41.359375 47.078125 38.03125 
L 38.03125 37.359375 
Q 37.359375 41.75 34.5625 44.328125 
Q 31.78125 46.921875 26.65625 46.921875 
Q 22.90625 46.921875 20.390625 45.671875 
Q 17.875 44.4375 16.3125 41.921875 
Q 14.75 39.40625 14.078125 35.59375 
Q 13.421875 31.78125 13.421875 26.65625 
" id="LiberationSans-63"/>
    <path d="M 27.046875 0.390625 
Q 25.046875 -0.140625 22.96875 -0.453125 
Q 20.90625 -0.78125 18.171875 -0.78125 
Q 7.625 -0.78125 7.625 11.1875 
L 7.625 46.4375 
L 1.515625 46.4375 
L 1.515625 52.828125 
L 7.953125 52.828125 
L 10.546875 64.65625 
L 16.40625 64.65625 
L 16.40625 52.828125 
L 26.171875 52.828125 
L 26.171875 46.4375 
L 16.40625 46.4375 
L 16.40625 13.09375 
Q 16.40625 9.28125 17.640625 7.734375 
Q 18.890625 6.203125 21.96875 6.203125 
Q 23.25 6.203125 24.4375 6.390625 
Q 25.640625 6.59375 27.046875 6.890625 
z
" id="LiberationSans-74"/>
    <path d="M 38.671875 62.203125 
Q 32.8125 62.203125 28.296875 60.25 
Q 23.78125 58.296875 20.71875 54.6875 
Q 17.671875 51.078125 16.109375 46 
Q 14.546875 40.921875 14.546875 34.71875 
Q 14.546875 28.515625 16.234375 23.359375 
Q 17.921875 18.21875 21.0625 14.5 
Q 24.21875 10.796875 28.78125 8.734375 
Q 33.34375 6.6875 39.0625 6.6875 
Q 43.0625 6.6875 46.359375 7.734375 
Q 49.65625 8.796875 52.3125 10.6875 
Q 54.984375 12.59375 57.078125 15.203125 
Q 59.1875 17.828125 60.796875 21 
L 68.40625 17.1875 
Q 66.546875 13.328125 63.8125 10 
Q 61.078125 6.6875 57.390625 4.25 
Q 53.71875 1.8125 49.046875 0.40625 
Q 44.390625 -0.984375 38.625 -0.984375 
Q 30.28125 -0.984375 24 1.671875 
Q 17.71875 4.34375 13.5 9.109375 
Q 9.28125 13.875 7.171875 20.40625 
Q 5.078125 26.953125 5.078125 34.71875 
Q 5.078125 42.78125 7.296875 49.265625 
Q 9.515625 55.765625 13.78125 60.328125 
Q 18.0625 64.890625 24.3125 67.359375 
Q 30.5625 69.828125 38.578125 69.828125 
Q 49.5625 69.828125 56.9375 65.53125 
Q 64.3125 61.234375 67.78125 52.78125 
L 58.9375 49.859375 
Q 57.953125 52.296875 56.296875 54.515625 
Q 54.640625 56.734375 52.140625 58.4375 
Q 49.65625 60.15625 46.3125 61.171875 
Q 42.96875 62.203125 38.671875 62.203125 
" id="LiberationSans-43"/>
    <path d="M 20.21875 -0.984375 
Q 12.25 -0.984375 8.25 3.21875 
Q 4.25 7.421875 4.25 14.75 
Q 4.25 19.96875 6.21875 23.3125 
Q 8.203125 26.65625 11.390625 28.5625 
Q 14.59375 30.46875 18.6875 31.203125 
Q 22.796875 31.9375 27.046875 32.03125 
L 38.921875 32.234375 
L 38.921875 35.109375 
Q 38.921875 38.375 38.234375 40.671875 
Q 37.546875 42.96875 36.125 44.375 
Q 34.71875 45.796875 32.59375 46.453125 
Q 30.46875 47.125 27.59375 47.125 
Q 25.046875 47.125 23 46.75 
Q 20.953125 46.390625 19.4375 45.4375 
Q 17.921875 44.484375 16.984375 42.84375 
Q 16.0625 41.21875 15.765625 38.71875 
L 6.59375 39.546875 
Q 7.078125 42.671875 8.4375 45.28125 
Q 9.8125 47.90625 12.328125 49.796875 
Q 14.84375 51.703125 18.625 52.75 
Q 22.40625 53.8125 27.78125 53.8125 
Q 37.75 53.8125 42.765625 49.234375 
Q 47.796875 44.671875 47.796875 36.03125 
L 47.796875 13.28125 
Q 47.796875 9.375 48.828125 7.390625 
Q 49.859375 5.421875 52.734375 5.421875 
Q 53.46875 5.421875 54.203125 5.515625 
Q 54.9375 5.609375 55.609375 5.765625 
L 55.609375 0.296875 
Q 53.953125 -0.09375 52.3125 -0.28125 
Q 50.6875 -0.484375 48.828125 -0.484375 
Q 46.34375 -0.484375 44.5625 0.171875 
Q 42.78125 0.828125 41.65625 2.171875 
Q 40.53125 3.515625 39.9375 5.484375 
Q 39.359375 7.46875 39.203125 10.109375 
L 38.921875 10.109375 
Q 37.5 7.5625 35.8125 5.515625 
Q 34.125 3.46875 31.875 2.03125 
Q 29.640625 0.59375 26.78125 -0.1875 
Q 23.921875 -0.984375 20.21875 -0.984375 
M 22.21875 5.609375 
Q 26.421875 5.609375 29.5625 7.140625 
Q 32.71875 8.6875 34.78125 11.078125 
Q 36.859375 13.484375 37.890625 16.3125 
Q 38.921875 19.140625 38.921875 21.734375 
L 38.921875 26.078125 
L 29.296875 25.875 
Q 26.078125 25.828125 23.171875 25.40625 
Q 20.265625 25 18.0625 23.78125 
Q 15.875 22.5625 14.578125 20.359375 
Q 13.28125 18.171875 13.28125 14.59375 
Q 13.28125 10.296875 15.59375 7.953125 
Q 17.921875 5.609375 22.21875 5.609375 
" id="LiberationSans-61"/>
    <path d="M 46.390625 14.59375 
Q 46.390625 10.890625 44.9375 7.984375 
Q 43.5 5.078125 40.765625 3.09375 
Q 38.03125 1.125 34.046875 0.0625 
Q 30.078125 -0.984375 24.953125 -0.984375 
Q 20.359375 -0.984375 16.671875 -0.265625 
Q 12.984375 0.4375 10.203125 2 
Q 7.421875 3.5625 5.53125 6.125 
Q 3.65625 8.6875 2.78125 12.40625 
L 10.546875 13.921875 
Q 11.671875 9.671875 15.1875 7.6875 
Q 18.703125 5.71875 24.953125 5.71875 
Q 27.78125 5.71875 30.140625 6.109375 
Q 32.515625 6.5 34.21875 7.453125 
Q 35.9375 8.40625 36.890625 9.984375 
Q 37.84375 11.578125 37.84375 13.921875 
Q 37.84375 16.3125 36.71875 17.84375 
Q 35.59375 19.390625 33.59375 20.40625 
Q 31.59375 21.4375 28.734375 22.1875 
Q 25.875 22.953125 22.46875 23.875 
Q 19.28125 24.703125 16.15625 25.734375 
Q 13.03125 26.765625 10.515625 28.4375 
Q 8.015625 30.125 6.453125 32.609375 
Q 4.890625 35.109375 4.890625 38.875 
Q 4.890625 46.09375 10.03125 49.875 
Q 15.1875 53.65625 25.046875 53.65625 
Q 33.796875 53.65625 38.9375 50.578125 
Q 44.09375 47.515625 45.453125 40.71875 
L 37.546875 39.75 
Q 37.109375 41.796875 35.9375 43.1875 
Q 34.765625 44.578125 33.109375 45.4375 
Q 31.453125 46.296875 29.375 46.65625 
Q 27.296875 47.015625 25.046875 47.015625 
Q 19.09375 47.015625 16.25 45.203125 
Q 13.421875 43.40625 13.421875 39.75 
Q 13.421875 37.59375 14.46875 36.203125 
Q 15.53125 34.8125 17.40625 33.859375 
Q 19.28125 32.90625 21.921875 32.203125 
Q 24.5625 31.5 27.734375 30.71875 
Q 29.828125 30.171875 32.03125 29.5625 
Q 34.234375 28.953125 36.296875 28.09375 
Q 38.375 27.25 40.203125 26.09375 
Q 42.046875 24.953125 43.40625 23.34375 
Q 44.78125 21.734375 45.578125 19.578125 
Q 46.390625 17.4375 46.390625 14.59375 
" id="LiberationSans-73"/>
    <path d="M 29.9375 0 
L 19.53125 0 
L 0.34375 52.828125 
L 9.71875 52.828125 
L 21.34375 18.453125 
Q 21.6875 17.390625 22.140625 15.84375 
Q 22.609375 14.3125 23.09375 12.640625 
Q 23.578125 10.984375 24 9.4375 
Q 24.421875 7.90625 24.703125 6.890625 
Q 25 7.90625 25.453125 9.4375 
Q 25.921875 10.984375 26.40625 12.59375 
Q 26.90625 14.203125 27.421875 15.734375 
Q 27.9375 17.28125 28.328125 18.359375 
L 40.328125 52.828125 
L 49.65625 52.828125 
z
" id="LiberationSans-76"/>
    <path d="M 9.125 0 
L 9.125 10.6875 
L 18.65625 10.6875 
L 18.65625 0 
z
" id="LiberationSans-2e"/>
    <path d="M 56.984375 0 
L 49.125 20.125 
L 17.78125 20.125 
L 9.859375 0 
L 0.203125 0 
L 28.265625 68.796875 
L 38.875 68.796875 
L 66.5 0 
z
M 37.5 50.09375 
Q 36.71875 52.046875 36 54.046875 
Q 35.296875 56.0625 34.765625 57.6875 
Q 34.234375 59.328125 33.859375 60.421875 
Q 33.5 61.53125 33.453125 61.765625 
Q 33.34375 61.53125 33 60.40625 
Q 32.671875 59.28125 32.109375 57.609375 
Q 31.546875 55.953125 30.828125 53.953125 
Q 30.125 51.953125 29.390625 50 
L 20.609375 27.390625 
L 46.34375 27.390625 
z
" id="LiberationSans-41"/>
    <path d="M 6.734375 0 
L 6.734375 72.46875 
L 15.53125 72.46875 
L 15.53125 0 
z
" id="LiberationSans-6c"/>
   </defs>
   <g style="fill:#262626;" transform="translate(111.226938 17.6355)scale(0.144 -0.144)">
    <use xlink:href="#LiberationSans-44"/>
    <use x="72.216797" xlink:href="#LiberationSans-65"/>
    <use x="127.832031" xlink:href="#LiberationSans-6e"/>
    <use x="183.447266" xlink:href="#LiberationSans-67"/>
    <use x="239.0625" xlink:href="#LiberationSans-75"/>
    <use x="294.677734" xlink:href="#LiberationSans-65"/>
    <use x="350.292969" xlink:href="#LiberationSans-20"/>
    <use x="378.076172" xlink:href="#LiberationSans-50"/>
    <use x="444.775391" xlink:href="#LiberationSans-72"/>
    <use x="478.076172" xlink:href="#LiberationSans-65"/>
    <use x="533.691406" xlink:href="#LiberationSans-64"/>
    <use x="589.306641" xlink:href="#LiberationSans-69"/>
    <use x="611.523438" xlink:href="#LiberationSans-63"/>
    <use x="661.523438" xlink:href="#LiberationSans-74"/>
    <use x="689.306641" xlink:href="#LiberationSans-65"/>
    <use x="744.921875" xlink:href="#LiberationSans-64"/>
    <use x="800.537109" xlink:href="#LiberationSans-20"/>
    <use x="828.320312" xlink:href="#LiberationSans-43"/>
    <use x="900.537109" xlink:href="#LiberationSans-61"/>
    <use x="956.152344" xlink:href="#LiberationSans-73"/>
    <use x="1006.152344" xlink:href="#LiberationSans-65"/>
    <use x="1061.767578" xlink:href="#LiberationSans-73"/>
    <use x="1111.767578" xlink:href="#LiberationSans-20"/>
    <use x="1139.550781" xlink:href="#LiberationSans-76"/>
    <use x="1189.550781" xlink:href="#LiberationSans-73"/>
    <use x="1239.550781" xlink:href="#LiberationSans-2e"/>
    <use x="1267.333984" xlink:href="#LiberationSans-20"/>
    <use x="1295.039062" xlink:href="#LiberationSans-41"/>
    <use x="1361.738281" xlink:href="#LiberationSans-63"/>
    <use x="1411.738281" xlink:href="#LiberationSans-74"/>
    <use x="1439.521484" xlink:href="#LiberationSans-75"/>
    <use x="1495.136719" xlink:href="#LiberationSans-61"/>
    <use x="1550.751953" xlink:href="#LiberationSans-6c"/>
    <use x="1572.96875" xlink:href="#LiberationSans-20"/>
    <use x="1600.751953" xlink:href="#LiberationSans-43"/>
    <use x="1672.96875" xlink:href="#LiberationSans-61"/>
    <use x="1728.583984" xlink:href="#LiberationSans-73"/>
    <use x="1778.583984" xlink:href="#LiberationSans-65"/>
    <use x="1834.199219" xlink:href="#LiberationSans-73"/>
   </g>
  </g>
 </g>
 <defs>
  <clipPath id="p506dbf3b8d">
   <rect height="135.9" width="446.4" x="30.882812" y="46.8"/>
  </clipPath>
  <clipPath id="p0a4f1411ac">
   <rect height="135.9" width="446.4" x="30.882812" y="209.88"/>
  </clipPath>
 </defs>
</svg>
