<?xml version="1.0" encoding="utf-8" standalone="no"?>
<!DOCTYPE svg PUBLIC "-//W3C//DTD SVG 1.1//EN"
  "http://www.w3.org/Graphics/SVG/1.1/DTD/svg11.dtd">
<!-- Created with matplotlib (http://matplotlib.org/) -->
<svg height="343pt" version="1.1" viewBox="0 0 486 343" width="486pt" xmlns="http://www.w3.org/2000/svg" xmlns:xlink="http://www.w3.org/1999/xlink">
 <defs>
  <style type="text/css">
*{stroke-linecap:butt;stroke-linejoin:round;}
  </style>
 </defs>
 <g id="figure_1">
  <g id="patch_1">
   <path d="M 0 343.955937 
L 486.373437 343.955937 
L 486.373437 0 
L 0 0 
z
" style="fill:#ffffff;"/>
  </g>
  <g id="axes_1">
   <g id="patch_2">
    <path d="M 32.773438 306.18 
L 479.173437 306.18 
L 479.173437 7.2 
L 32.773438 7.2 
z
" style="fill:#eaeaf2;"/>
   </g>
   <g id="matplotlib.axis_1">
    <g id="xtick_1">
     <g id="line2d_1">
      <path clip-path="url(#p4e2630afde)" d="M 32.773438 306.18 
L 32.773438 7.2 
" style="fill:none;stroke:#ffffff;stroke-linecap:round;"/>
     </g>
     <g id="line2d_2"/>
     <g id="text_1">
      <!-- 1990-04-30 -->
      <defs>
       <path d="M 7.625 0 
L 7.625 7.46875 
L 25.140625 7.46875 
L 25.140625 60.40625 
L 9.625 49.3125 
L 9.625 57.625 
L 25.875 68.796875 
L 33.984375 68.796875 
L 33.984375 7.46875 
L 50.734375 7.46875 
L 50.734375 0 
z
" id="LiberationSans-31"/>
       <path d="M 50.875 35.796875 
Q 50.875 26.609375 49.140625 19.703125 
Q 47.40625 12.796875 44.1875 8.203125 
Q 40.96875 3.609375 36.34375 1.3125 
Q 31.734375 -0.984375 25.984375 -0.984375 
Q 22.015625 -0.984375 18.84375 -0.171875 
Q 15.671875 0.640625 13.171875 2.34375 
Q 10.6875 4.046875 8.921875 6.78125 
Q 7.171875 9.515625 6.109375 13.375 
L 14.5 14.703125 
Q 15.875 10.25 18.78125 8.171875 
Q 21.6875 6.109375 26.125 6.109375 
Q 29.6875 6.109375 32.640625 7.78125 
Q 35.59375 9.46875 37.671875 12.84375 
Q 39.75 16.21875 40.921875 21.296875 
Q 42.09375 26.375 42.1875 33.203125 
Q 41.15625 30.90625 39.375 29.09375 
Q 37.59375 27.296875 35.328125 26.046875 
Q 33.0625 24.8125 30.421875 24.140625 
Q 27.78125 23.484375 25.09375 23.484375 
Q 20.40625 23.484375 16.625 25.171875 
Q 12.84375 26.859375 10.203125 29.875 
Q 7.5625 32.90625 6.125 37.171875 
Q 4.6875 41.453125 4.6875 46.6875 
Q 4.6875 52 6.21875 56.296875 
Q 7.765625 60.59375 10.6875 63.59375 
Q 13.625 66.609375 17.890625 68.21875 
Q 22.171875 69.828125 27.59375 69.828125 
Q 39.0625 69.828125 44.96875 61.328125 
Q 50.875 52.828125 50.875 35.796875 
M 41.3125 44.28125 
Q 41.3125 48.09375 40.40625 51.453125 
Q 39.5 54.828125 37.71875 57.3125 
Q 35.9375 59.8125 33.328125 61.25 
Q 30.71875 62.703125 27.296875 62.703125 
Q 24.125 62.703125 21.578125 61.578125 
Q 19.046875 60.453125 17.28125 58.375 
Q 15.53125 56.296875 14.578125 53.3125 
Q 13.625 50.34375 13.625 46.6875 
Q 13.625 43.21875 14.46875 40.234375 
Q 15.328125 37.25 17.03125 35.078125 
Q 18.75 32.90625 21.28125 31.65625 
Q 23.828125 30.421875 27.203125 30.421875 
Q 29.640625 30.421875 32.15625 31.25 
Q 34.671875 32.078125 36.6875 33.78125 
Q 38.71875 35.5 40.015625 38.109375 
Q 41.3125 40.71875 41.3125 44.28125 
" id="LiberationSans-39"/>
       <path d="M 51.703125 34.421875 
Q 51.703125 24.515625 49.828125 17.75 
Q 47.953125 10.984375 44.703125 6.8125 
Q 41.453125 2.640625 37.0625 0.828125 
Q 32.671875 -0.984375 27.6875 -0.984375 
Q 22.65625 -0.984375 18.3125 0.828125 
Q 13.96875 2.640625 10.765625 6.78125 
Q 7.5625 10.9375 5.734375 17.703125 
Q 3.90625 24.46875 3.90625 34.421875 
Q 3.90625 44.828125 5.734375 51.640625 
Q 7.5625 58.453125 10.78125 62.5 
Q 14.015625 66.546875 18.40625 68.1875 
Q 22.796875 69.828125 27.984375 69.828125 
Q 32.90625 69.828125 37.21875 68.1875 
Q 41.546875 66.546875 44.765625 62.5 
Q 48 58.453125 49.84375 51.640625 
Q 51.703125 44.828125 51.703125 34.421875 
M 42.78125 34.421875 
Q 42.78125 42.625 41.796875 48.0625 
Q 40.828125 53.515625 38.921875 56.765625 
Q 37.015625 60.015625 34.25 61.359375 
Q 31.5 62.703125 27.984375 62.703125 
Q 24.265625 62.703125 21.4375 61.328125 
Q 18.609375 59.96875 16.671875 56.71875 
Q 14.75 53.46875 13.765625 48.015625 
Q 12.796875 42.578125 12.796875 34.421875 
Q 12.796875 26.515625 13.796875 21.09375 
Q 14.796875 15.671875 16.71875 12.375 
Q 18.65625 9.078125 21.4375 7.640625 
Q 24.21875 6.203125 27.78125 6.203125 
Q 31.25 6.203125 34.03125 7.640625 
Q 36.8125 9.078125 38.734375 12.375 
Q 40.671875 15.671875 41.71875 21.09375 
Q 42.78125 26.515625 42.78125 34.421875 
" id="LiberationSans-30"/>
       <path d="M 4.4375 22.65625 
L 4.4375 30.46875 
L 28.859375 30.46875 
L 28.859375 22.65625 
z
" id="LiberationSans-2d"/>
       <path d="M 43.015625 15.578125 
L 43.015625 0 
L 34.71875 0 
L 34.71875 15.578125 
L 2.296875 15.578125 
L 2.296875 22.40625 
L 33.796875 68.796875 
L 43.015625 68.796875 
L 43.015625 22.515625 
L 52.6875 22.515625 
L 52.6875 15.578125 
z
M 34.71875 58.890625 
Q 34.625 58.640625 34.234375 57.9375 
Q 33.84375 57.234375 33.34375 56.34375 
Q 32.859375 55.46875 32.34375 54.5625 
Q 31.84375 53.65625 31.453125 53.078125 
L 13.8125 27.09375 
Q 13.578125 26.703125 13.109375 26.0625 
Q 12.640625 25.4375 12.15625 24.78125 
Q 11.671875 24.125 11.171875 23.484375 
Q 10.6875 22.859375 10.40625 22.515625 
L 34.71875 22.515625 
z
" id="LiberationSans-34"/>
       <path d="M 51.21875 19 
Q 51.21875 14.265625 49.671875 10.546875 
Q 48.140625 6.84375 45.1875 4.265625 
Q 42.234375 1.703125 37.859375 0.359375 
Q 33.5 -0.984375 27.875 -0.984375 
Q 21.484375 -0.984375 17.109375 0.609375 
Q 12.75 2.203125 9.90625 4.8125 
Q 7.078125 7.421875 5.65625 10.765625 
Q 4.25 14.109375 3.8125 17.671875 
L 12.890625 18.5 
Q 13.28125 15.765625 14.328125 13.515625 
Q 15.375 11.28125 17.1875 9.671875 
Q 19 8.0625 21.625 7.171875 
Q 24.265625 6.296875 27.875 6.296875 
Q 34.515625 6.296875 38.296875 9.5625 
Q 42.09375 12.84375 42.09375 19.28125 
Q 42.09375 23.09375 40.40625 25.40625 
Q 38.71875 27.734375 36.203125 29.03125 
Q 33.6875 30.328125 30.734375 30.765625 
Q 27.78125 31.203125 25.296875 31.203125 
L 20.3125 31.203125 
L 20.3125 38.8125 
L 25.09375 38.8125 
Q 27.59375 38.8125 30.265625 39.328125 
Q 32.953125 39.84375 35.171875 41.1875 
Q 37.40625 42.53125 38.84375 44.828125 
Q 40.28125 47.125 40.28125 50.6875 
Q 40.28125 56.203125 37.03125 59.390625 
Q 33.796875 62.59375 27.390625 62.59375 
Q 21.578125 62.59375 17.984375 59.609375 
Q 14.40625 56.640625 13.8125 51.21875 
L 4.984375 51.90625 
Q 5.515625 56.453125 7.46875 59.8125 
Q 9.421875 63.1875 12.421875 65.40625 
Q 15.4375 67.625 19.28125 68.71875 
Q 23.140625 69.828125 27.484375 69.828125 
Q 33.25 69.828125 37.390625 68.375 
Q 41.546875 66.9375 44.1875 64.46875 
Q 46.828125 62.015625 48.0625 58.6875 
Q 49.3125 55.375 49.3125 51.609375 
Q 49.3125 48.578125 48.484375 45.9375 
Q 47.65625 43.3125 45.890625 41.203125 
Q 44.140625 39.109375 41.421875 37.59375 
Q 38.71875 36.078125 34.90625 35.296875 
L 34.90625 35.109375 
Q 39.0625 34.671875 42.140625 33.21875 
Q 45.21875 31.78125 47.21875 29.625 
Q 49.21875 27.484375 50.21875 24.75 
Q 51.21875 22.015625 51.21875 19 
" id="LiberationSans-33"/>
      </defs>
      <g style="fill:#262626;" transform="translate(7.2 320.426875)scale(0.1 -0.1)">
       <use xlink:href="#LiberationSans-31"/>
       <use x="55.615234" xlink:href="#LiberationSans-39"/>
       <use x="111.230469" xlink:href="#LiberationSans-39"/>
       <use x="166.845703" xlink:href="#LiberationSans-30"/>
       <use x="222.460938" xlink:href="#LiberationSans-2d"/>
       <use x="255.761719" xlink:href="#LiberationSans-30"/>
       <use x="311.376953" xlink:href="#LiberationSans-34"/>
       <use x="366.992188" xlink:href="#LiberationSans-2d"/>
       <use x="400.292969" xlink:href="#LiberationSans-33"/>
       <use x="455.908203" xlink:href="#LiberationSans-30"/>
      </g>
     </g>
    </g>
    <g id="xtick_2">
     <g id="line2d_3">
      <path clip-path="url(#p4e2630afde)" d="M 107.484735 306.18 
L 107.484735 7.2 
" style="fill:none;stroke:#ffffff;stroke-linecap:round;"/>
     </g>
     <g id="line2d_4"/>
     <g id="text_2">
      <!-- 1994-03-05 -->
      <defs>
       <path d="M 51.421875 22.40625 
Q 51.421875 17.234375 49.859375 12.9375 
Q 48.296875 8.640625 45.21875 5.53125 
Q 42.140625 2.4375 37.578125 0.71875 
Q 33.015625 -0.984375 27 -0.984375 
Q 21.578125 -0.984375 17.546875 0.28125 
Q 13.53125 1.5625 10.734375 3.78125 
Q 7.953125 6 6.3125 8.984375 
Q 4.6875 11.96875 4 15.375 
L 12.890625 16.40625 
Q 13.421875 14.453125 14.390625 12.625 
Q 15.375 10.796875 17.0625 9.34375 
Q 18.75 7.90625 21.21875 7.046875 
Q 23.6875 6.203125 27.203125 6.203125 
Q 30.609375 6.203125 33.390625 7.25 
Q 36.1875 8.296875 38.15625 10.34375 
Q 40.140625 12.40625 41.203125 15.375 
Q 42.28125 18.359375 42.28125 22.21875 
Q 42.28125 25.390625 41.25 28.046875 
Q 40.234375 30.71875 38.328125 32.640625 
Q 36.421875 34.578125 33.65625 35.640625 
Q 30.90625 36.71875 27.390625 36.71875 
Q 25.203125 36.71875 23.34375 36.328125 
Q 21.484375 35.9375 19.890625 35.25 
Q 18.3125 34.578125 17.015625 33.671875 
Q 15.71875 32.765625 14.59375 31.78125 
L 6 31.78125 
L 8.296875 68.796875 
L 47.40625 68.796875 
L 47.40625 61.328125 
L 16.3125 61.328125 
L 14.984375 39.5 
Q 17.328125 41.3125 20.84375 42.59375 
Q 24.359375 43.890625 29.203125 43.890625 
Q 34.328125 43.890625 38.421875 42.328125 
Q 42.53125 40.765625 45.40625 37.90625 
Q 48.296875 35.0625 49.859375 31.109375 
Q 51.421875 27.15625 51.421875 22.40625 
" id="LiberationSans-35"/>
      </defs>
      <g style="fill:#262626;" transform="translate(81.911297 320.426875)scale(0.1 -0.1)">
       <use xlink:href="#LiberationSans-31"/>
       <use x="55.615234" xlink:href="#LiberationSans-39"/>
       <use x="111.230469" xlink:href="#LiberationSans-39"/>
       <use x="166.845703" xlink:href="#LiberationSans-34"/>
       <use x="222.460938" xlink:href="#LiberationSans-2d"/>
       <use x="255.761719" xlink:href="#LiberationSans-30"/>
       <use x="311.376953" xlink:href="#LiberationSans-33"/>
       <use x="366.992188" xlink:href="#LiberationSans-2d"/>
       <use x="400.292969" xlink:href="#LiberationSans-30"/>
       <use x="455.908203" xlink:href="#LiberationSans-35"/>
      </g>
     </g>
    </g>
    <g id="xtick_3">
     <g id="line2d_5">
      <path clip-path="url(#p4e2630afde)" d="M 182.196032 306.18 
L 182.196032 7.2 
" style="fill:none;stroke:#ffffff;stroke-linecap:round;"/>
     </g>
     <g id="line2d_6"/>
     <g id="text_3">
      <!-- 1998-01-08 -->
      <defs>
       <path d="M 51.265625 19.1875 
Q 51.265625 14.796875 49.875 11.109375 
Q 48.484375 7.421875 45.625 4.734375 
Q 42.78125 2.046875 38.328125 0.53125 
Q 33.890625 -0.984375 27.828125 -0.984375 
Q 21.78125 -0.984375 17.359375 0.53125 
Q 12.9375 2.046875 10.03125 4.703125 
Q 7.125 7.375 5.734375 11.0625 
Q 4.34375 14.75 4.34375 19.09375 
Q 4.34375 22.859375 5.484375 25.78125 
Q 6.640625 28.71875 8.5625 30.828125 
Q 10.5 32.953125 12.96875 34.25 
Q 15.4375 35.546875 18.0625 35.984375 
L 18.0625 36.1875 
Q 15.1875 36.859375 12.90625 38.375 
Q 10.640625 39.890625 9.09375 42.015625 
Q 7.5625 44.140625 6.75 46.71875 
Q 5.953125 49.3125 5.953125 52.203125 
Q 5.953125 55.8125 7.34375 59 
Q 8.734375 62.203125 11.46875 64.625 
Q 14.203125 67.046875 18.25 68.4375 
Q 22.3125 69.828125 27.640625 69.828125 
Q 33.25 69.828125 37.375 68.40625 
Q 41.5 67 44.203125 64.578125 
Q 46.921875 62.15625 48.234375 58.9375 
Q 49.5625 55.71875 49.5625 52.09375 
Q 49.5625 49.265625 48.75 46.671875 
Q 47.953125 44.09375 46.40625 41.96875 
Q 44.875 39.84375 42.59375 38.34375 
Q 40.328125 36.859375 37.359375 36.28125 
L 37.359375 36.078125 
Q 40.328125 35.59375 42.859375 34.296875 
Q 45.40625 33.015625 47.265625 30.890625 
Q 49.125 28.765625 50.1875 25.828125 
Q 51.265625 22.90625 51.265625 19.1875 
M 40.4375 51.609375 
Q 40.4375 54.203125 39.765625 56.34375 
Q 39.109375 58.5 37.59375 60.03125 
Q 36.078125 61.578125 33.640625 62.421875 
Q 31.203125 63.28125 27.640625 63.28125 
Q 24.171875 63.28125 21.78125 62.421875 
Q 19.390625 61.578125 17.84375 60.03125 
Q 16.3125 58.5 15.625 56.34375 
Q 14.9375 54.203125 14.9375 51.609375 
Q 14.9375 49.5625 15.46875 47.40625 
Q 16.015625 45.265625 17.421875 43.5 
Q 18.84375 41.75 21.328125 40.625 
Q 23.828125 39.5 27.734375 39.5 
Q 31.890625 39.5 34.40625 40.625 
Q 36.921875 41.75 38.25 43.5 
Q 39.59375 45.265625 40.015625 47.40625 
Q 40.4375 49.5625 40.4375 51.609375 
M 42.140625 20.015625 
Q 42.140625 22.515625 41.453125 24.828125 
Q 40.765625 27.15625 39.109375 28.9375 
Q 37.453125 30.71875 34.640625 31.8125 
Q 31.84375 32.90625 27.640625 32.90625 
Q 23.78125 32.90625 21.0625 31.8125 
Q 18.359375 30.71875 16.671875 28.90625 
Q 14.984375 27.09375 14.203125 24.71875 
Q 13.421875 22.359375 13.421875 19.828125 
Q 13.421875 16.65625 14.203125 14.03125 
Q 14.984375 11.421875 16.6875 9.546875 
Q 18.40625 7.671875 21.1875 6.640625 
Q 23.96875 5.609375 27.9375 5.609375 
Q 31.9375 5.609375 34.671875 6.640625 
Q 37.40625 7.671875 39.0625 9.546875 
Q 40.71875 11.421875 41.421875 14.078125 
Q 42.140625 16.75 42.140625 20.015625 
" id="LiberationSans-38"/>
      </defs>
      <g style="fill:#262626;" transform="translate(156.622594 320.426875)scale(0.1 -0.1)">
       <use xlink:href="#LiberationSans-31"/>
       <use x="55.615234" xlink:href="#LiberationSans-39"/>
       <use x="111.230469" xlink:href="#LiberationSans-39"/>
       <use x="166.845703" xlink:href="#LiberationSans-38"/>
       <use x="222.460938" xlink:href="#LiberationSans-2d"/>
       <use x="255.761719" xlink:href="#LiberationSans-30"/>
       <use x="311.376953" xlink:href="#LiberationSans-31"/>
       <use x="366.992188" xlink:href="#LiberationSans-2d"/>
       <use x="400.292969" xlink:href="#LiberationSans-30"/>
       <use x="455.908203" xlink:href="#LiberationSans-38"/>
      </g>
     </g>
    </g>
    <g id="xtick_4">
     <g id="line2d_7">
      <path clip-path="url(#p4e2630afde)" d="M 256.907329 306.18 
L 256.907329 7.2 
" style="fill:none;stroke:#ffffff;stroke-linecap:round;"/>
     </g>
     <g id="line2d_8"/>
     <g id="text_4">
      <!-- 2001-11-12 -->
      <defs>
       <path d="M 5.03125 0 
L 5.03125 6.203125 
Q 7.515625 11.921875 11.109375 16.28125 
Q 14.703125 20.65625 18.65625 24.1875 
Q 22.609375 27.734375 26.484375 30.765625 
Q 30.375 33.796875 33.5 36.8125 
Q 36.625 39.84375 38.546875 43.15625 
Q 40.484375 46.484375 40.484375 50.6875 
Q 40.484375 53.609375 39.59375 55.828125 
Q 38.71875 58.0625 37.0625 59.5625 
Q 35.40625 61.078125 33.078125 61.828125 
Q 30.765625 62.59375 27.9375 62.59375 
Q 25.296875 62.59375 22.96875 61.859375 
Q 20.65625 61.140625 18.84375 59.671875 
Q 17.046875 58.203125 15.890625 56.03125 
Q 14.75 53.859375 14.40625 50.984375 
L 5.421875 51.8125 
Q 5.859375 55.515625 7.46875 58.78125 
Q 9.078125 62.0625 11.90625 64.53125 
Q 14.75 67 18.71875 68.40625 
Q 22.703125 69.828125 27.9375 69.828125 
Q 33.0625 69.828125 37.0625 68.609375 
Q 41.0625 67.390625 43.8125 64.984375 
Q 46.578125 62.59375 48.046875 59.078125 
Q 49.515625 55.5625 49.515625 50.984375 
Q 49.515625 47.515625 48.265625 44.390625 
Q 47.015625 41.265625 44.9375 38.421875 
Q 42.875 35.59375 40.140625 32.953125 
Q 37.40625 30.328125 34.421875 27.8125 
Q 31.453125 25.296875 28.421875 22.828125 
Q 25.390625 20.359375 22.71875 17.859375 
Q 20.0625 15.375 17.96875 12.8125 
Q 15.875 10.25 14.703125 7.46875 
L 50.59375 7.46875 
L 50.59375 0 
z
" id="LiberationSans-32"/>
      </defs>
      <g style="fill:#262626;" transform="translate(231.333891 320.426875)scale(0.1 -0.1)">
       <use xlink:href="#LiberationSans-32"/>
       <use x="55.615234" xlink:href="#LiberationSans-30"/>
       <use x="111.230469" xlink:href="#LiberationSans-30"/>
       <use x="166.845703" xlink:href="#LiberationSans-31"/>
       <use x="222.460938" xlink:href="#LiberationSans-2d"/>
       <use x="255.761719" xlink:href="#LiberationSans-31"/>
       <use x="311.376953" xlink:href="#LiberationSans-31"/>
       <use x="366.992188" xlink:href="#LiberationSans-2d"/>
       <use x="400.292969" xlink:href="#LiberationSans-31"/>
       <use x="455.908203" xlink:href="#LiberationSans-32"/>
      </g>
     </g>
    </g>
    <g id="xtick_5">
     <g id="line2d_9">
      <path clip-path="url(#p4e2630afde)" d="M 331.618626 306.18 
L 331.618626 7.2 
" style="fill:none;stroke:#ffffff;stroke-linecap:round;"/>
     </g>
     <g id="line2d_10"/>
     <g id="text_5">
      <!-- 2005-09-17 -->
      <defs>
       <path d="M 50.59375 61.671875 
Q 45.40625 53.765625 41.0625 46.453125 
Q 36.71875 39.15625 33.59375 31.75 
Q 30.46875 24.359375 28.734375 16.578125 
Q 27 8.796875 27 0 
L 17.828125 0 
Q 17.828125 8.25 19.78125 16.1875 
Q 21.734375 24.125 25.046875 31.765625 
Q 28.375 39.40625 32.765625 46.78125 
Q 37.15625 54.15625 42.09375 61.328125 
L 5.125 61.328125 
L 5.125 68.796875 
L 50.59375 68.796875 
z
" id="LiberationSans-37"/>
      </defs>
      <g style="fill:#262626;" transform="translate(306.045188 320.426875)scale(0.1 -0.1)">
       <use xlink:href="#LiberationSans-32"/>
       <use x="55.615234" xlink:href="#LiberationSans-30"/>
       <use x="111.230469" xlink:href="#LiberationSans-30"/>
       <use x="166.845703" xlink:href="#LiberationSans-35"/>
       <use x="222.460938" xlink:href="#LiberationSans-2d"/>
       <use x="255.761719" xlink:href="#LiberationSans-30"/>
       <use x="311.376953" xlink:href="#LiberationSans-39"/>
       <use x="366.992188" xlink:href="#LiberationSans-2d"/>
       <use x="400.292969" xlink:href="#LiberationSans-31"/>
       <use x="455.908203" xlink:href="#LiberationSans-37"/>
      </g>
     </g>
    </g>
    <g id="xtick_6">
     <g id="line2d_11">
      <path clip-path="url(#p4e2630afde)" d="M 406.329923 306.18 
L 406.329923 7.2 
" style="fill:none;stroke:#ffffff;stroke-linecap:round;"/>
     </g>
     <g id="line2d_12"/>
     <g id="text_6">
      <!-- 2009-07-23 -->
      <g style="fill:#262626;" transform="translate(380.756485 320.426875)scale(0.1 -0.1)">
       <use xlink:href="#LiberationSans-32"/>
       <use x="55.615234" xlink:href="#LiberationSans-30"/>
       <use x="111.230469" xlink:href="#LiberationSans-30"/>
       <use x="166.845703" xlink:href="#LiberationSans-39"/>
       <use x="222.460938" xlink:href="#LiberationSans-2d"/>
       <use x="255.761719" xlink:href="#LiberationSans-30"/>
       <use x="311.376953" xlink:href="#LiberationSans-37"/>
       <use x="366.992188" xlink:href="#LiberationSans-2d"/>
       <use x="400.292969" xlink:href="#LiberationSans-32"/>
       <use x="455.908203" xlink:href="#LiberationSans-33"/>
      </g>
     </g>
    </g>
    <g id="text_7">
     <!-- week_start_date -->
     <defs>
      <path d="M 57.328125 0 
L 47.125 0 
L 38.671875 34.078125 
Q 38.28125 35.40625 37.859375 37.359375 
Q 37.453125 39.3125 37.0625 41.15625 
Q 36.578125 43.3125 36.140625 45.609375 
Q 35.6875 43.40625 35.203125 41.265625 
Q 34.8125 39.40625 34.34375 37.40625 
Q 33.890625 35.40625 33.5 33.890625 
L 24.8125 0 
L 14.65625 0 
L -0.140625 52.828125 
L 8.546875 52.828125 
L 17.484375 16.9375 
Q 17.828125 15.828125 18.15625 14.1875 
Q 18.5 12.546875 18.84375 10.984375 
Q 19.1875 9.1875 19.578125 7.28125 
Q 19.96875 9.125 20.40625 10.890625 
Q 20.796875 12.40625 21.1875 13.96875 
Q 21.578125 15.53125 21.875 16.546875 
L 31.453125 52.828125 
L 40.875 52.828125 
L 50.09375 16.546875 
Q 50.4375 15.28125 50.828125 13.671875 
Q 51.21875 12.0625 51.5625 10.640625 
Q 51.953125 8.984375 52.34375 7.28125 
Q 52.734375 9.125 53.125 10.890625 
Q 53.46875 12.40625 53.828125 14.03125 
Q 54.203125 15.671875 54.546875 16.9375 
L 63.875 52.828125 
L 72.46875 52.828125 
z
" id="LiberationSans-77"/>
      <path d="M 13.484375 24.5625 
Q 13.484375 20.40625 14.328125 16.90625 
Q 15.1875 13.421875 16.96875 10.90625 
Q 18.75 8.40625 21.53125 7 
Q 24.3125 5.609375 28.21875 5.609375 
Q 33.9375 5.609375 37.375 7.90625 
Q 40.828125 10.203125 42.046875 13.71875 
L 49.75 11.53125 
Q 48.921875 9.328125 47.4375 7.109375 
Q 45.953125 4.890625 43.453125 3.09375 
Q 40.96875 1.3125 37.234375 0.15625 
Q 33.5 -0.984375 28.21875 -0.984375 
Q 16.5 -0.984375 10.375 6 
Q 4.25 12.984375 4.25 26.765625 
Q 4.25 34.1875 6.09375 39.328125 
Q 7.953125 44.484375 11.171875 47.703125 
Q 14.40625 50.921875 18.703125 52.359375 
Q 23 53.8125 27.875 53.8125 
Q 34.515625 53.8125 38.984375 51.65625 
Q 43.453125 49.515625 46.15625 45.71875 
Q 48.875 41.9375 50.015625 36.8125 
Q 51.171875 31.6875 51.171875 25.734375 
L 51.171875 24.5625 
z
M 42.09375 31.296875 
Q 41.359375 39.65625 37.84375 43.484375 
Q 34.328125 47.3125 27.734375 47.3125 
Q 25.53125 47.3125 23.109375 46.609375 
Q 20.703125 45.90625 18.65625 44.09375 
Q 16.609375 42.28125 15.1875 39.171875 
Q 13.765625 36.078125 13.578125 31.296875 
z
" id="LiberationSans-65"/>
      <path d="M 39.84375 0 
L 21.96875 24.125 
L 15.53125 18.796875 
L 15.53125 0 
L 6.734375 0 
L 6.734375 72.46875 
L 15.53125 72.46875 
L 15.53125 27.203125 
L 38.71875 52.828125 
L 49.03125 52.828125 
L 27.59375 30.125 
L 50.140625 0 
z
" id="LiberationSans-6b"/>
      <path d="M -1.515625 -19.875 
L -1.515625 -13.53125 
L 56.734375 -13.53125 
L 56.734375 -19.875 
z
" id="LiberationSans-5f"/>
      <path d="M 46.390625 14.59375 
Q 46.390625 10.890625 44.9375 7.984375 
Q 43.5 5.078125 40.765625 3.09375 
Q 38.03125 1.125 34.046875 0.0625 
Q 30.078125 -0.984375 24.953125 -0.984375 
Q 20.359375 -0.984375 16.671875 -0.265625 
Q 12.984375 0.4375 10.203125 2 
Q 7.421875 3.5625 5.53125 6.125 
Q 3.65625 8.6875 2.78125 12.40625 
L 10.546875 13.921875 
Q 11.671875 9.671875 15.1875 7.6875 
Q 18.703125 5.71875 24.953125 5.71875 
Q 27.78125 5.71875 30.140625 6.109375 
Q 32.515625 6.5 34.21875 7.453125 
Q 35.9375 8.40625 36.890625 9.984375 
Q 37.84375 11.578125 37.84375 13.921875 
Q 37.84375 16.3125 36.71875 17.84375 
Q 35.59375 19.390625 33.59375 20.40625 
Q 31.59375 21.4375 28.734375 22.1875 
Q 25.875 22.953125 22.46875 23.875 
Q 19.28125 24.703125 16.15625 25.734375 
Q 13.03125 26.765625 10.515625 28.4375 
Q 8.015625 30.125 6.453125 32.609375 
Q 4.890625 35.109375 4.890625 38.875 
Q 4.890625 46.09375 10.03125 49.875 
Q 15.1875 53.65625 25.046875 53.65625 
Q 33.796875 53.65625 38.9375 50.578125 
Q 44.09375 47.515625 45.453125 40.71875 
L 37.546875 39.75 
Q 37.109375 41.796875 35.9375 43.1875 
Q 34.765625 44.578125 33.109375 45.4375 
Q 31.453125 46.296875 29.375 46.65625 
Q 27.296875 47.015625 25.046875 47.015625 
Q 19.09375 47.015625 16.25 45.203125 
Q 13.421875 43.40625 13.421875 39.75 
Q 13.421875 37.59375 14.46875 36.203125 
Q 15.53125 34.8125 17.40625 33.859375 
Q 19.28125 32.90625 21.921875 32.203125 
Q 24.5625 31.5 27.734375 30.71875 
Q 29.828125 30.171875 32.03125 29.5625 
Q 34.234375 28.953125 36.296875 28.09375 
Q 38.375 27.25 40.203125 26.09375 
Q 42.046875 24.953125 43.40625 23.34375 
Q 44.78125 21.734375 45.578125 19.578125 
Q 46.390625 17.4375 46.390625 14.59375 
" id="LiberationSans-73"/>
      <path d="M 27.046875 0.390625 
Q 25.046875 -0.140625 22.96875 -0.453125 
Q 20.90625 -0.78125 18.171875 -0.78125 
Q 7.625 -0.78125 7.625 11.1875 
L 7.625 46.4375 
L 1.515625 46.4375 
L 1.515625 52.828125 
L 7.953125 52.828125 
L 10.546875 64.65625 
L 16.40625 64.65625 
L 16.40625 52.828125 
L 26.171875 52.828125 
L 26.171875 46.4375 
L 16.40625 46.4375 
L 16.40625 13.09375 
Q 16.40625 9.28125 17.640625 7.734375 
Q 18.890625 6.203125 21.96875 6.203125 
Q 23.25 6.203125 24.4375 6.390625 
Q 25.640625 6.59375 27.046875 6.890625 
z
" id="LiberationSans-74"/>
      <path d="M 20.21875 -0.984375 
Q 12.25 -0.984375 8.25 3.21875 
Q 4.25 7.421875 4.25 14.75 
Q 4.25 19.96875 6.21875 23.3125 
Q 8.203125 26.65625 11.390625 28.5625 
Q 14.59375 30.46875 18.6875 31.203125 
Q 22.796875 31.9375 27.046875 32.03125 
L 38.921875 32.234375 
L 38.921875 35.109375 
Q 38.921875 38.375 38.234375 40.671875 
Q 37.546875 42.96875 36.125 44.375 
Q 34.71875 45.796875 32.59375 46.453125 
Q 30.46875 47.125 27.59375 47.125 
Q 25.046875 47.125 23 46.75 
Q 20.953125 46.390625 19.4375 45.4375 
Q 17.921875 44.484375 16.984375 42.84375 
Q 16.0625 41.21875 15.765625 38.71875 
L 6.59375 39.546875 
Q 7.078125 42.671875 8.4375 45.28125 
Q 9.8125 47.90625 12.328125 49.796875 
Q 14.84375 51.703125 18.625 52.75 
Q 22.40625 53.8125 27.78125 53.8125 
Q 37.75 53.8125 42.765625 49.234375 
Q 47.796875 44.671875 47.796875 36.03125 
L 47.796875 13.28125 
Q 47.796875 9.375 48.828125 7.390625 
Q 49.859375 5.421875 52.734375 5.421875 
Q 53.46875 5.421875 54.203125 5.515625 
Q 54.9375 5.609375 55.609375 5.765625 
L 55.609375 0.296875 
Q 53.953125 -0.09375 52.3125 -0.28125 
Q 50.6875 -0.484375 48.828125 -0.484375 
Q 46.34375 -0.484375 44.5625 0.171875 
Q 42.78125 0.828125 41.65625 2.171875 
Q 40.53125 3.515625 39.9375 5.484375 
Q 39.359375 7.46875 39.203125 10.109375 
L 38.921875 10.109375 
Q 37.5 7.5625 35.8125 5.515625 
Q 34.125 3.46875 31.875 2.03125 
Q 29.640625 0.59375 26.78125 -0.1875 
Q 23.921875 -0.984375 20.21875 -0.984375 
M 22.21875 5.609375 
Q 26.421875 5.609375 29.5625 7.140625 
Q 32.71875 8.6875 34.78125 11.078125 
Q 36.859375 13.484375 37.890625 16.3125 
Q 38.921875 19.140625 38.921875 21.734375 
L 38.921875 26.078125 
L 29.296875 25.875 
Q 26.078125 25.828125 23.171875 25.40625 
Q 20.265625 25 18.0625 23.78125 
Q 15.875 22.5625 14.578125 20.359375 
Q 13.28125 18.171875 13.28125 14.59375 
Q 13.28125 10.296875 15.59375 7.953125 
Q 17.921875 5.609375 22.21875 5.609375 
" id="LiberationSans-61"/>
      <path d="M 6.9375 0 
L 6.9375 40.53125 
Q 6.9375 42.1875 6.90625 43.921875 
Q 6.890625 45.65625 6.828125 47.265625 
Q 6.78125 48.875 6.734375 50.28125 
Q 6.6875 51.703125 6.640625 52.828125 
L 14.9375 52.828125 
Q 14.984375 51.703125 15.0625 50.265625 
Q 15.140625 48.828125 15.203125 47.3125 
Q 15.28125 45.796875 15.296875 44.40625 
Q 15.328125 43.015625 15.328125 42.046875 
L 15.53125 42.046875 
Q 16.453125 45.0625 17.5 47.28125 
Q 18.5625 49.515625 19.96875 50.953125 
Q 21.390625 52.390625 23.34375 53.09375 
Q 25.296875 53.8125 28.078125 53.8125 
Q 29.15625 53.8125 30.125 53.640625 
Q 31.109375 53.46875 31.640625 53.328125 
L 31.640625 45.265625 
Q 30.765625 45.515625 29.59375 45.625 
Q 28.421875 45.75 26.953125 45.75 
Q 23.921875 45.75 21.796875 44.375 
Q 19.671875 43.015625 18.328125 40.59375 
Q 17 38.1875 16.359375 34.84375 
Q 15.71875 31.5 15.71875 27.546875 
L 15.71875 0 
z
" id="LiberationSans-72"/>
      <path d="M 40.09375 8.5 
Q 37.640625 3.421875 33.609375 1.21875 
Q 29.59375 -0.984375 23.640625 -0.984375 
Q 13.625 -0.984375 8.90625 5.75 
Q 4.203125 12.5 4.203125 26.171875 
Q 4.203125 53.8125 23.640625 53.8125 
Q 29.640625 53.8125 33.640625 51.609375 
Q 37.640625 49.421875 40.09375 44.625 
L 40.1875 44.625 
Q 40.1875 45.125 40.15625 46.171875 
Q 40.140625 47.21875 40.109375 48.359375 
Q 40.09375 49.515625 40.09375 50.53125 
Q 40.09375 51.5625 40.09375 52 
L 40.09375 72.46875 
L 48.875 72.46875 
L 48.875 10.890625 
Q 48.875 8.984375 48.890625 7.21875 
Q 48.921875 5.46875 48.96875 4 
Q 49.03125 2.546875 49.078125 1.484375 
Q 49.125 0.4375 49.171875 0 
L 40.765625 0 
Q 40.671875 0.484375 40.59375 1.390625 
Q 40.53125 2.296875 40.453125 3.46875 
Q 40.375 4.640625 40.328125 5.9375 
Q 40.28125 7.234375 40.28125 8.5 
z
M 13.421875 26.46875 
Q 13.421875 21 14.109375 17.09375 
Q 14.796875 13.1875 16.3125 10.671875 
Q 17.828125 8.15625 20.171875 6.984375 
Q 22.515625 5.8125 25.875 5.8125 
Q 29.34375 5.8125 32 6.9375 
Q 34.671875 8.0625 36.453125 10.578125 
Q 38.234375 13.09375 39.15625 17.140625 
Q 40.09375 21.1875 40.09375 27.046875 
Q 40.09375 32.671875 39.15625 36.546875 
Q 38.234375 40.4375 36.421875 42.828125 
Q 34.625 45.21875 32 46.265625 
Q 29.390625 47.3125 25.984375 47.3125 
Q 22.75 47.3125 20.40625 46.1875 
Q 18.0625 45.0625 16.5 42.578125 
Q 14.9375 40.09375 14.171875 36.109375 
Q 13.421875 32.125 13.421875 26.46875 
" id="LiberationSans-64"/>
     </defs>
     <g style="fill:#262626;" transform="translate(215.618047 334.473437)scale(0.11 -0.11)">
      <use xlink:href="#LiberationSans-77"/>
      <use x="72.216797" xlink:href="#LiberationSans-65"/>
      <use x="127.832031" xlink:href="#LiberationSans-65"/>
      <use x="183.447266" xlink:href="#LiberationSans-6b"/>
      <use x="233.447266" xlink:href="#LiberationSans-5f"/>
      <use x="289.0625" xlink:href="#LiberationSans-73"/>
      <use x="339.0625" xlink:href="#LiberationSans-74"/>
      <use x="366.845703" xlink:href="#LiberationSans-61"/>
      <use x="422.460938" xlink:href="#LiberationSans-72"/>
      <use x="455.761719" xlink:href="#LiberationSans-74"/>
      <use x="483.544922" xlink:href="#LiberationSans-5f"/>
      <use x="539.160156" xlink:href="#LiberationSans-64"/>
      <use x="594.775391" xlink:href="#LiberationSans-61"/>
      <use x="650.390625" xlink:href="#LiberationSans-74"/>
      <use x="678.173828" xlink:href="#LiberationSans-65"/>
     </g>
    </g>
   </g>
   <g id="matplotlib.axis_2">
    <g id="ytick_1">
     <g id="line2d_13">
      <path clip-path="url(#p4e2630afde)" d="M 32.773438 266.238676 
L 479.173437 266.238676 
" style="fill:none;stroke:#ffffff;stroke-linecap:round;"/>
     </g>
     <g id="line2d_14"/>
     <g id="text_8">
      <!-- 0 -->
      <g style="fill:#262626;" transform="translate(20.2125 269.862114)scale(0.1 -0.1)">
       <use xlink:href="#LiberationSans-30"/>
      </g>
     </g>
    </g>
    <g id="ytick_2">
     <g id="line2d_15">
      <path clip-path="url(#p4e2630afde)" d="M 32.773438 218.920987 
L 479.173437 218.920987 
" style="fill:none;stroke:#ffffff;stroke-linecap:round;"/>
     </g>
     <g id="line2d_16"/>
     <g id="text_9">
      <!-- 1 -->
      <g style="fill:#262626;" transform="translate(20.2125 222.544425)scale(0.1 -0.1)">
       <use xlink:href="#LiberationSans-31"/>
      </g>
     </g>
    </g>
    <g id="ytick_3">
     <g id="line2d_17">
      <path clip-path="url(#p4e2630afde)" d="M 32.773438 171.603298 
L 479.173437 171.603298 
" style="fill:none;stroke:#ffffff;stroke-linecap:round;"/>
     </g>
     <g id="line2d_18"/>
     <g id="text_10">
      <!-- 2 -->
      <g style="fill:#262626;" transform="translate(20.2125 175.226736)scale(0.1 -0.1)">
       <use xlink:href="#LiberationSans-32"/>
      </g>
     </g>
    </g>
    <g id="ytick_4">
     <g id="line2d_19">
      <path clip-path="url(#p4e2630afde)" d="M 32.773438 124.28561 
L 479.173437 124.28561 
" style="fill:none;stroke:#ffffff;stroke-linecap:round;"/>
     </g>
     <g id="line2d_20"/>
     <g id="text_11">
      <!-- 3 -->
      <g style="fill:#262626;" transform="translate(20.2125 127.909047)scale(0.1 -0.1)">
       <use xlink:href="#LiberationSans-33"/>
      </g>
     </g>
    </g>
    <g id="ytick_5">
     <g id="line2d_21">
      <path clip-path="url(#p4e2630afde)" d="M 32.773438 76.967921 
L 479.173437 76.967921 
" style="fill:none;stroke:#ffffff;stroke-linecap:round;"/>
     </g>
     <g id="line2d_22"/>
     <g id="text_12">
      <!-- 4 -->
      <g style="fill:#262626;" transform="translate(20.2125 80.591358)scale(0.1 -0.1)">
       <use xlink:href="#LiberationSans-34"/>
      </g>
     </g>
    </g>
    <g id="ytick_6">
     <g id="line2d_23">
      <path clip-path="url(#p4e2630afde)" d="M 32.773438 29.650232 
L 479.173437 29.650232 
" style="fill:none;stroke:#ffffff;stroke-linecap:round;"/>
     </g>
     <g id="line2d_24"/>
     <g id="text_13">
      <!-- 5 -->
      <g style="fill:#262626;" transform="translate(20.2125 33.273669)scale(0.1 -0.1)">
       <use xlink:href="#LiberationSans-35"/>
      </g>
     </g>
    </g>
   </g>
   <g id="line2d_25">
    <path clip-path="url(#p4e2630afde)" d="M 32.773438 155.065896 
L 33.146994 158.140631 
L 33.52055 158.934891 
L 33.894107 157.502873 
L 34.267663 154.763646 
L 35.014776 146.794433 
L 35.761889 138.802049 
L 36.135446 137.669422 
L 36.509002 137.481641 
L 36.882559 135.161905 
L 37.256115 128.54441 
L 38.003228 109.104292 
L 38.376785 102.781957 
L 40.244567 87.392684 
L 40.99168 82.818468 
L 42.11235 73.285632 
L 42.485906 72.684568 
L 43.233019 73.507522 
L 43.606576 73.65797 
L 43.980132 75.085621 
L 44.353689 79.089514 
L 45.100802 91.121184 
L 45.474358 94.663606 
L 45.847914 91.844642 
L 46.221471 90.436679 
L 46.595027 89.777751 
L 46.968584 91.58847 
L 47.34214 96.173477 
L 48.089253 107.933261 
L 48.46281 111.759651 
L 49.209923 117.446659 
L 49.583479 122.93169 
L 50.330592 136.864274 
L 50.704149 140.742116 
L 51.451262 142.957582 
L 51.824818 145.43682 
L 52.571931 152.356935 
L 52.945488 153.241104 
L 53.319044 151.873412 
L 53.692601 149.167817 
L 54.439714 141.254123 
L 55.186827 133.175659 
L 55.560383 131.970081 
L 55.93394 131.79715 
L 56.307496 129.605508 
L 56.681053 123.144822 
L 57.428166 103.692363 
L 57.801722 97.235857 
L 58.175279 94.042572 
L 58.548835 91.860873 
L 61.537287 67.641894 
L 61.910843 66.978745 
L 62.657956 67.805698 
L 63.031513 67.943444 
L 63.405069 69.296744 
L 63.778626 73.204825 
L 64.525739 85.244796 
L 64.899295 88.897563 
L 65.272852 81.029856 
L 65.646408 79.653714 
L 66.019965 78.948108 
L 66.393521 80.671806 
L 66.767078 85.187283 
L 67.514191 97.00723 
L 67.887747 100.918307 
L 68.63486 106.59433 
L 69.008417 112.006887 
L 69.75553 126.012101 
L 70.129086 130.018328 
L 70.502643 131.386967 
L 70.876199 132.297527 
L 71.249755 134.727118 
L 71.996868 141.720843 
L 72.370425 142.711249 
L 72.743981 141.425453 
L 73.117538 138.770372 
L 73.864651 130.973788 
L 74.611764 122.873913 
L 74.98532 121.624372 
L 75.358877 121.492614 
L 75.732433 119.45644 
L 76.10599 113.184344 
L 76.853103 93.788331 
L 77.226659 87.226896 
L 77.600216 83.978977 
L 77.973772 81.833595 
L 78.720885 75.092142 
L 79.094442 71.855263 
L 79.841555 67.34571 
L 80.962224 57.825773 
L 81.335781 57.128624 
L 82.082894 58.01605 
L 82.45645 58.172329 
L 82.830007 59.482419 
L 83.203563 63.323377 
L 83.950676 75.423984 
L 84.697789 82.96319 
L 85.071345 81.563688 
L 85.444902 81.067938 
L 85.818458 83.116837 
L 86.565571 94.082133 
L 86.939128 99.650622 
L 87.312684 103.372726 
L 87.686241 105.882898 
L 88.059797 109.222875 
L 88.80691 122.274331 
L 89.180467 128.808024 
L 89.554023 132.493049 
L 90.301136 134.724439 
L 90.674693 137.364706 
L 91.421806 144.24879 
L 91.795362 144.983855 
L 92.168919 143.519396 
L 92.542475 140.777689 
L 93.289588 132.8146 
L 94.036701 124.97292 
L 94.410258 123.942106 
L 94.783814 123.765758 
L 95.157371 121.345417 
L 95.530927 114.603068 
L 96.27804 95.246003 
L 96.651596 89.088894 
L 98.892935 71.716632 
L 99.266492 69.396194 
L 100.387161 60.000502 
L 100.760718 59.491515 
L 101.134274 60.031835 
L 101.881387 60.567406 
L 102.254944 62.102469 
L 102.6285 66.232731 
L 103.375613 78.312376 
L 103.74917 81.774775 
L 104.122726 82.906982 
L 104.496283 81.517004 
L 104.869839 80.953817 
L 105.243396 82.898733 
L 105.616952 87.619693 
L 106.364065 99.450905 
L 106.737622 103.261358 
L 107.484735 109.100594 
L 107.858291 114.72552 
L 108.605404 128.715293 
L 108.978961 132.533111 
L 109.726073 134.826825 
L 110.09963 137.423414 
L 110.846743 144.401145 
L 111.220299 145.247262 
L 111.593856 143.867101 
L 111.967412 141.179731 
L 112.714525 133.314233 
L 113.461638 125.425564 
L 113.835195 124.399249 
L 114.208751 124.31778 
L 114.582308 122.104356 
L 114.955864 115.593174 
L 115.702977 96.365681 
L 116.076534 90.149657 
L 116.45009 87.143334 
L 116.823647 85.058238 
L 119.812099 61.716455 
L 120.185655 61.221704 
L 120.932768 62.257283 
L 121.306325 62.514043 
L 121.679881 64.048006 
L 122.053437 68.217187 
L 122.80055 80.579434 
L 123.174107 84.287145 
L 123.547663 105.839844 
L 123.92122 104.59717 
L 124.294776 104.10353 
L 124.668333 106.079538 
L 125.041889 110.829834 
L 125.789002 122.920194 
L 126.162559 126.911873 
L 126.909672 132.929457 
L 127.283228 138.579777 
L 128.030341 152.842938 
L 128.403898 156.886068 
L 129.151011 159.432112 
L 129.524567 162.076639 
L 130.27168 169.369549 
L 130.645237 170.440116 
L 131.018793 169.258821 
L 131.39235 166.739624 
L 132.139463 159.198726 
L 132.886576 151.493057 
L 133.260132 150.473876 
L 133.633689 150.487343 
L 134.007245 148.4821 
L 134.380802 142.207811 
L 135.127914 123.12749 
L 135.501471 116.856724 
L 135.875027 113.849179 
L 136.248584 111.85322 
L 136.995697 105.378072 
L 137.369253 102.333425 
L 138.116366 98.135212 
L 139.237036 89.12016 
L 139.610592 88.642751 
L 140.357705 89.841184 
L 140.731262 90.16467 
L 141.104818 91.70371 
L 141.478375 95.797531 
L 142.225488 108.208982 
L 142.599044 112.047489 
L 142.972601 99.063365 
L 143.346157 97.85739 
L 143.719714 97.321952 
L 144.09327 99.215818 
L 144.466827 103.901462 
L 145.21394 116.061745 
L 145.587496 120.142989 
L 146.334609 126.159349 
L 146.708166 131.742073 
L 147.455279 146.087623 
L 147.828835 150.264017 
L 148.575948 152.883552 
L 148.949504 155.483311 
L 149.696617 162.817371 
L 150.070174 163.977945 
L 150.44373 162.862316 
L 150.817287 160.377403 
L 151.5644 152.892532 
L 152.311513 145.10437 
L 152.685069 144.010686 
L 153.058626 144.034784 
L 153.432182 142.154466 
L 153.805739 136.038227 
L 154.552852 116.953926 
L 154.926408 110.548348 
L 155.299965 107.456285 
L 155.673521 105.46676 
L 156.420634 99.03702 
L 156.794191 95.955997 
L 157.541304 91.758158 
L 158.661973 82.70579 
L 159.03553 82.164498 
L 159.782643 83.363636 
L 160.156199 83.675772 
L 160.529755 85.141718 
L 160.903312 89.138532 
L 161.650425 101.550852 
L 162.023981 105.498071 
L 162.397538 94.64901 
L 162.771094 93.405365 
L 163.144651 93.065471 
L 163.518207 95.270226 
L 164.26532 106.547236 
L 164.638877 112.271581 
L 165.012433 116.149541 
L 165.38599 118.815569 
L 165.759546 122.311403 
L 166.506659 135.674572 
L 166.880216 142.364122 
L 167.253772 146.205003 
L 168.000885 148.748106 
L 168.374442 151.544229 
L 169.121555 158.740026 
L 169.495111 159.630947 
L 169.868668 158.322345 
L 170.242224 155.736494 
L 170.989337 148.085119 
L 171.362894 143.655807 
L 171.73645 140.555151 
L 172.110007 139.680194 
L 172.483563 139.659702 
L 172.85712 137.395218 
L 173.230676 130.808725 
L 173.977789 111.763373 
L 174.351345 105.762121 
L 176.592684 89.324995 
L 176.966241 87.160413 
L 178.08691 78.232289 
L 178.460467 77.879158 
L 179.20758 79.070358 
L 179.581136 79.422617 
L 179.954693 81.113536 
L 180.328249 85.399653 
L 181.075362 97.79101 
L 181.448919 101.409266 
L 181.822475 42.712553 
L 182.196032 41.478431 
L 182.569588 41.0711 
L 182.943145 43.171872 
L 183.316701 48.027372 
L 184.063814 60.127665 
L 184.437371 64.072659 
L 185.184484 70.180975 
L 185.55804 75.940441 
L 186.305153 90.199295 
L 186.678709 94.151653 
L 187.425822 96.714449 
L 187.799379 99.445579 
L 188.546492 106.692389 
L 188.920048 107.673047 
L 189.293605 106.427427 
L 189.667161 103.874598 
L 190.414274 96.27818 
L 191.161387 88.658592 
L 191.534944 87.712362 
L 191.9085 87.710979 
L 192.282057 85.577641 
L 192.655613 79.146544 
L 193.402726 60.079222 
L 193.776283 53.943284 
L 194.149839 51.017046 
L 194.523396 49.012035 
L 197.511848 26.310937 
L 197.885404 25.896271 
L 198.632517 27.092021 
L 199.006073 27.428866 
L 199.37963 29.042915 
L 199.753186 33.233206 
L 200.500299 45.637672 
L 200.873856 49.366491 
L 201.247412 112.370389 
L 201.620969 111.148824 
L 201.994525 110.676294 
L 202.368082 112.673411 
L 202.741638 117.444828 
L 203.488751 129.577432 
L 203.862308 133.590233 
L 204.609421 139.650062 
L 204.982977 145.321503 
L 205.73009 159.626907 
L 206.103647 163.69116 
L 206.85076 166.279447 
L 207.224316 168.945096 
L 207.971429 176.238031 
L 208.344986 177.308611 
L 208.718542 176.127329 
L 209.092099 173.608145 
L 209.839212 166.067271 
L 210.586325 158.361627 
L 210.959881 157.34246 
L 211.333437 157.355939 
L 211.706994 155.350709 
L 212.08055 149.076432 
L 212.827663 129.996136 
L 213.20122 123.725383 
L 213.574776 120.717851 
L 213.948333 118.721905 
L 214.695446 112.246782 
L 215.069002 109.202148 
L 215.816115 105.00396 
L 216.936785 95.988946 
L 217.310341 95.511549 
L 218.057454 96.710008 
L 218.431011 97.033507 
L 218.804567 98.572559 
L 219.178124 102.666393 
L 219.925237 115.077869 
L 220.298793 118.916389 
L 220.67235 120.43767 
L 221.045906 119.231708 
L 221.419463 118.696283 
L 221.793019 120.590161 
L 222.166576 125.275819 
L 222.913689 137.436126 
L 223.287245 141.517383 
L 224.034358 147.533768 
L 224.407914 153.116505 
L 225.155027 167.46208 
L 225.528584 171.638488 
L 226.275697 174.258047 
L 226.649253 176.857819 
L 227.396366 184.191904 
L 227.769923 185.35249 
L 228.143479 184.236875 
L 228.517036 181.751974 
L 229.264149 174.267129 
L 230.011262 166.478992 
L 230.384818 165.38532 
L 230.758375 165.409431 
L 231.131931 163.529126 
L 231.505488 157.412899 
L 232.252601 138.328624 
L 232.626157 131.923058 
L 232.999714 128.831008 
L 233.37327 126.841496 
L 234.120383 120.411782 
L 234.49394 117.330771 
L 235.241053 113.132957 
L 236.361722 104.080627 
L 236.735279 103.539347 
L 237.482391 104.738511 
L 237.855948 105.050659 
L 238.229504 106.516619 
L 238.603061 110.513445 
L 239.350174 122.925791 
L 239.72373 126.873022 
L 240.097287 134.895845 
L 240.470843 133.652212 
L 240.8444 133.312331 
L 241.217956 135.517099 
L 241.965069 146.794134 
L 242.338626 152.518492 
L 242.712182 156.396464 
L 243.085739 159.062505 
L 243.459295 162.558352 
L 244.206408 175.921545 
L 244.579965 182.611108 
L 244.953521 186.452003 
L 245.700634 188.995131 
L 246.074191 191.791266 
L 246.821304 198.987088 
L 247.19486 199.878022 
L 247.568417 198.569433 
L 247.941973 195.983595 
L 248.689086 188.332245 
L 249.062643 183.902945 
L 249.436199 180.802302 
L 249.809755 179.927358 
L 250.183312 179.906879 
L 250.556868 177.642407 
L 250.930425 171.055927 
L 251.677538 152.0106 
L 252.051094 146.00936 
L 254.292433 129.572311 
L 254.66599 127.407742 
L 255.786659 118.479655 
L 256.160216 118.126537 
L 256.907329 119.317762 
L 257.280885 119.670034 
L 257.654442 121.360966 
L 258.027998 125.647095 
L 258.775111 138.038478 
L 259.148668 141.656746 
L 259.522224 138.946415 
L 259.895781 137.712305 
L 260.269337 137.304987 
L 260.642894 139.405771 
L 261.01645 144.261284 
L 261.763563 156.361602 
L 262.13712 160.306609 
L 262.884232 166.414951 
L 263.257789 172.17443 
L 264.004902 186.433309 
L 264.378458 190.38568 
L 265.125571 192.9485 
L 265.499128 195.679643 
L 266.246241 202.926479 
L 266.619797 203.907149 
L 266.993354 202.661541 
L 267.36691 200.108725 
L 268.114023 192.512332 
L 268.861136 184.89277 
L 269.234693 183.946553 
L 269.608249 183.945182 
L 269.981806 181.811857 
L 270.355362 175.380772 
L 271.102475 156.313476 
L 271.476032 150.17755 
L 271.849588 147.251326 
L 272.223145 145.246327 
L 275.211596 122.54533 
L 275.585153 122.130677 
L 276.332266 123.326452 
L 276.705822 123.66331 
L 277.079379 125.277371 
L 277.452935 129.467675 
L 278.200048 141.872166 
L 278.573605 145.600998 
L 278.947161 137.821251 
L 279.320718 136.599699 
L 279.694274 136.127181 
L 280.067831 138.124311 
L 280.441387 142.895728 
L 281.1885 155.028333 
L 281.562057 159.041133 
L 282.30917 165.100962 
L 282.682726 170.772404 
L 283.429839 185.077808 
L 283.803396 189.142061 
L 284.550509 191.730348 
L 284.924065 194.395997 
L 285.671178 201.688932 
L 286.044735 202.759512 
L 286.418291 201.57823 
L 286.791848 199.059046 
L 287.538961 191.518172 
L 288.286073 183.812529 
L 288.65963 182.793361 
L 289.033186 182.806841 
L 289.406743 180.80161 
L 289.780299 174.527334 
L 290.527412 155.447038 
L 290.900969 149.176284 
L 291.274525 146.168753 
L 291.648082 144.172806 
L 292.395195 137.697684 
L 292.768751 134.653049 
L 293.515864 130.454862 
L 294.636534 121.439847 
L 295.01009 120.962451 
L 295.757203 122.160909 
L 296.13076 122.484408 
L 296.504316 124.02346 
L 296.877873 128.117294 
L 297.624986 140.52877 
L 297.998542 144.36729 
L 298.372099 85.881531 
L 298.745655 84.675568 
L 299.119212 84.140143 
L 299.492768 86.034022 
L 299.866325 90.719679 
L 300.613437 102.879987 
L 300.986994 106.961244 
L 301.734107 112.977629 
L 302.107663 118.560366 
L 302.854776 132.905941 
L 303.228333 137.082348 
L 303.975446 139.701908 
L 304.349002 142.301679 
L 305.096115 149.635765 
L 305.469672 150.796351 
L 305.843228 149.680735 
L 306.216785 147.195835 
L 306.963898 139.710989 
L 307.711011 131.922852 
L 308.084567 130.829181 
L 308.458124 130.853291 
L 308.83168 128.972987 
L 309.205237 122.85676 
L 309.95235 103.772485 
L 310.325906 97.366919 
L 310.699463 94.274869 
L 311.073019 92.285356 
L 311.820132 85.855642 
L 312.193689 82.774632 
L 312.940802 78.576817 
L 314.061471 69.524488 
L 314.435027 68.983208 
L 315.18214 70.182372 
L 315.555697 70.49452 
L 315.929253 71.960479 
L 316.30281 75.957306 
L 317.049923 88.369651 
L 317.423479 92.316883 
L 317.797036 156.272171 
L 318.170592 155.028538 
L 318.544149 154.688657 
L 318.917705 156.893425 
L 319.664818 168.17046 
L 320.038375 173.894818 
L 320.411931 177.77279 
L 320.785488 180.438831 
L 321.159044 183.934678 
L 321.906157 197.297871 
L 322.279714 203.987434 
L 322.65327 207.828329 
L 323.400383 210.371457 
L 323.77394 213.167592 
L 324.521053 220.363414 
L 324.894609 221.254348 
L 325.268166 219.945759 
L 325.641722 217.359921 
L 326.388835 209.708571 
L 326.762391 205.279271 
L 327.135948 202.178628 
L 327.509504 201.303684 
L 327.883061 201.283205 
L 328.256617 199.018733 
L 328.630174 192.432253 
L 329.377287 173.386926 
L 329.750843 167.385686 
L 331.992182 150.948637 
L 332.365739 148.784067 
L 333.486408 139.855981 
L 333.859965 139.502863 
L 334.607078 140.694088 
L 334.980634 141.04636 
L 335.354191 142.737292 
L 335.727747 147.023421 
L 336.47486 159.414804 
L 336.848417 163.033072 
L 337.221973 184.505503 
L 337.59553 183.271393 
L 337.969086 182.864075 
L 338.342643 184.96486 
L 338.716199 189.820373 
L 339.463312 201.92069 
L 339.836868 205.865697 
L 340.583981 211.974039 
L 340.957538 217.733518 
L 341.704651 231.992397 
L 342.078207 235.944768 
L 342.82532 238.507588 
L 343.198877 241.238731 
L 343.94599 248.485567 
L 344.319546 249.466237 
L 344.693103 248.22063 
L 345.066659 245.667813 
L 345.813772 238.071421 
L 346.560885 230.451858 
L 346.934442 229.505641 
L 347.307998 229.50427 
L 347.681555 227.370945 
L 348.055111 220.93986 
L 348.802224 201.872564 
L 349.175781 195.736639 
L 349.549337 192.810414 
L 349.922894 190.805415 
L 352.911345 168.104418 
L 353.284902 167.689765 
L 354.032015 168.88554 
L 354.405571 169.222398 
L 354.779128 170.83646 
L 355.152684 175.026763 
L 355.899797 187.431254 
L 356.273354 191.160086 
L 356.64691 178.069445 
L 357.020467 176.847892 
L 357.394023 176.375375 
L 357.76758 178.372504 
L 358.141136 183.143922 
L 358.888249 195.276526 
L 359.261806 199.289327 
L 360.008919 205.349155 
L 360.382475 211.020597 
L 361.129588 225.326002 
L 361.503145 229.390254 
L 362.250258 231.978541 
L 362.623814 234.64419 
L 363.370927 241.937126 
L 363.744484 243.007706 
L 364.11804 241.826424 
L 364.491596 239.307239 
L 365.238709 231.766366 
L 365.985822 224.060722 
L 366.359379 223.041555 
L 366.732935 223.055034 
L 367.106492 221.049803 
L 367.480048 214.775527 
L 368.227161 195.695231 
L 368.600718 189.424478 
L 368.974274 186.416946 
L 369.347831 184.420999 
L 370.094944 177.945877 
L 370.4685 174.901242 
L 371.215613 170.703055 
L 372.336283 161.68804 
L 372.709839 161.210644 
L 373.456952 162.409103 
L 373.830509 162.732602 
L 374.204065 164.271654 
L 374.577622 168.365487 
L 375.324735 180.776964 
L 375.698291 184.615483 
L 376.071848 182.116092 
L 376.445404 180.910129 
L 376.818961 180.374704 
L 377.192517 182.268583 
L 377.566073 186.95424 
L 378.313186 199.114547 
L 378.686743 203.195805 
L 379.433856 209.212189 
L 379.807412 214.794926 
L 380.554525 229.140501 
L 380.928082 233.316909 
L 381.675195 235.936468 
L 382.048751 238.53624 
L 382.795864 245.870325 
L 383.169421 247.030912 
L 383.542977 245.915296 
L 383.916534 243.430395 
L 384.663647 235.94555 
L 385.41076 228.157413 
L 385.784316 227.063742 
L 386.157873 227.087852 
L 386.531429 225.207548 
L 386.904986 219.091321 
L 387.652099 200.007045 
L 388.025655 193.60148 
L 388.399212 190.50943 
L 388.772768 188.519917 
L 389.519881 182.090203 
L 389.893437 179.009192 
L 390.64055 174.811378 
L 391.76122 165.759048 
L 392.134776 165.217769 
L 392.881889 166.416932 
L 393.255446 166.729081 
L 393.629002 168.19504 
L 394.002559 172.191867 
L 394.749672 184.604212 
L 395.123228 188.551444 
L 395.496785 121.716031 
L 395.870341 120.472399 
L 396.243898 120.132518 
L 396.617454 122.337286 
L 397.364567 133.61432 
L 397.738124 139.338678 
L 398.11168 143.216651 
L 398.485237 145.882692 
L 398.858793 149.378538 
L 399.605906 162.741732 
L 399.979463 169.431295 
L 400.353019 173.272189 
L 401.100132 175.815317 
L 401.473689 178.611453 
L 402.220802 185.807275 
L 402.594358 186.698209 
L 402.967914 185.38962 
L 403.341471 182.803781 
L 404.088584 175.152431 
L 404.46214 170.723132 
L 404.835697 167.622489 
L 405.209253 166.747544 
L 405.58281 166.727065 
L 405.956366 164.462593 
L 406.329923 157.876113 
L 407.077036 138.830786 
L 407.450592 132.829547 
L 409.691931 116.392498 
L 410.065488 114.227928 
L 411.186157 105.299842 
L 411.559714 104.946723 
L 412.306827 106.137949 
L 412.680383 106.49022 
L 413.05394 108.181152 
L 413.427496 112.467282 
L 414.174609 124.858664 
L 414.548166 128.476933 
L 414.921722 191.376437 
L 415.295279 190.142328 
L 415.668835 189.735009 
L 416.042391 191.835794 
L 416.415948 196.691307 
L 417.163061 208.791625 
L 417.536617 212.736631 
L 418.28373 218.844973 
L 418.657287 224.604452 
L 419.4044 238.863332 
L 419.777956 242.815702 
L 420.525069 245.378523 
L 420.898626 248.109665 
L 421.645739 255.356502 
L 422.019295 256.337172 
L 422.392852 255.091564 
L 422.766408 252.538748 
L 423.513521 244.942355 
L 424.260634 237.322792 
L 424.634191 236.376576 
L 425.007747 236.375205 
L 425.381304 234.241879 
L 425.75486 227.810795 
L 426.501973 208.743498 
L 426.87553 202.607573 
L 427.249086 199.681348 
L 427.622643 197.67635 
L 430.611094 174.975353 
L 430.984651 174.560699 
L 431.731764 175.756474 
L 432.10532 176.093333 
L 432.478877 177.707394 
L 432.852433 181.897697 
L 433.599546 194.302188 
L 433.973103 198.031021 
L 434.346659 199.445771 
L 434.720216 198.224218 
L 435.093772 197.751701 
L 435.467329 199.74883 
L 435.840885 204.520248 
L 436.587998 216.652852 
L 436.961555 220.665653 
L 437.708668 226.725481 
L 438.082224 232.396923 
L 438.829337 246.702328 
L 439.202894 250.76658 
L 439.950007 253.354867 
L 440.323563 256.020516 
L 441.070676 263.313452 
L 441.444232 264.384032 
L 441.817789 263.20275 
L 442.191345 260.683565 
L 442.938458 253.142692 
L 443.685571 245.437048 
L 444.059128 244.417881 
L 444.432684 244.43136 
L 444.806241 242.426129 
L 445.179797 236.151853 
L 445.92691 217.071557 
L 446.300467 210.800804 
L 446.674023 207.793272 
L 447.04758 205.797325 
L 447.794693 199.322203 
L 448.168249 196.277568 
L 448.915362 192.079381 
L 450.036032 183.064366 
L 450.409588 182.58697 
L 451.156701 183.785429 
L 451.530258 184.108928 
L 451.903814 185.64798 
L 452.277371 189.741813 
L 453.024484 202.15329 
L 453.39804 205.991809 
L 453.771596 227.67518 
L 454.145153 226.469217 
L 454.518709 225.933792 
L 454.892266 227.827671 
L 455.265822 232.513328 
L 456.012935 244.673636 
L 456.386492 248.754893 
L 457.133605 254.771277 
L 457.507161 260.354015 
L 458.254274 274.699589 
L 458.627831 278.875997 
L 459.374944 281.495556 
L 459.7485 284.095328 
L 460.495613 291.429414 
L 460.86917 292.59 
L 461.242726 291.474384 
L 461.616283 288.989483 
L 462.363396 281.504638 
L 463.110509 273.716501 
L 463.484065 272.62283 
L 463.857622 272.64694 
L 464.231178 270.766636 
L 464.604735 264.650409 
L 465.351848 245.566134 
L 465.725404 239.160568 
L 466.098961 236.068518 
L 466.472517 234.079005 
L 467.21963 227.649291 
L 467.593186 224.568281 
L 468.340299 220.370466 
L 469.460969 211.318137 
L 469.834525 210.776857 
L 470.581638 211.97602 
L 470.955195 212.288169 
L 471.328751 213.754128 
L 471.702308 217.750955 
L 472.449421 230.1633 
L 472.822977 234.110532 
L 473.196534 217.950592 
L 473.57009 216.706959 
L 473.943647 216.367078 
L 474.317203 218.571846 
L 475.064316 229.848881 
L 475.437873 235.573239 
L 475.811429 239.451212 
L 476.184986 242.117253 
L 476.558542 245.613099 
L 477.305655 258.976293 
L 477.679212 265.665856 
L 478.052768 269.50675 
L 478.799881 272.049878 
L 479.173437 274.846014 
L 479.173437 274.846014 
" style="fill:none;stroke:#4c72b0;stroke-linecap:round;stroke-width:1.75;"/>
   </g>
   <g id="line2d_26">
    <path clip-path="url(#p4e2630afde)" d="M 32.773438 172.579749 
L 33.146994 175.703191 
L 33.52055 176.546159 
L 33.894107 175.162848 
L 34.267663 172.472329 
L 35.014776 164.600531 
L 35.761889 156.705562 
L 36.135446 155.621643 
L 36.509002 155.482569 
L 36.882559 153.211541 
L 37.256115 146.642753 
L 38.003228 127.300051 
L 38.376785 121.026423 
L 38.750341 117.962495 
L 39.123898 115.819794 
L 42.11235 92.017174 
L 42.485906 91.464818 
L 43.233019 92.385187 
L 43.606576 92.584343 
L 43.980132 94.060701 
L 44.353689 98.113302 
L 45.100802 110.242387 
L 45.474358 113.833516 
L 45.847914 111.070218 
L 46.221471 109.710963 
L 46.595027 109.100743 
L 46.968584 110.960169 
L 47.34214 115.593884 
L 48.089253 127.451082 
L 48.46281 131.32618 
L 49.209923 137.110603 
L 49.583479 142.644342 
L 50.330592 156.674341 
L 50.704149 160.60089 
L 51.451262 162.913772 
L 51.824818 165.441718 
L 52.571931 172.459248 
L 52.945488 173.392125 
L 53.319044 172.07314 
L 53.692601 169.416253 
L 54.439714 161.599974 
L 55.186827 153.618924 
L 55.560383 152.462054 
L 55.93394 152.337831 
L 56.307496 150.194897 
L 56.681053 143.782918 
L 57.428166 124.427216 
L 57.801722 118.01876 
L 58.175279 114.873525 
L 58.548835 112.739876 
L 61.537287 88.905294 
L 61.910843 88.290195 
L 62.657956 89.213248 
L 63.031513 89.399044 
L 63.405069 90.800393 
L 63.778626 94.756524 
L 64.525739 106.892595 
L 64.899295 110.593411 
L 65.272852 102.762822 
L 65.646408 101.419156 
L 66.019965 100.746028 
L 66.393521 102.502204 
L 66.767078 107.050159 
L 67.514191 118.93506 
L 67.887747 122.878615 
L 68.63486 128.619594 
L 69.008417 134.064628 
L 69.75553 148.134797 
L 70.129086 152.173502 
L 70.502643 153.574618 
L 70.876199 154.517656 
L 71.249755 156.979724 
L 71.996868 164.038404 
L 72.370425 165.061288 
L 72.743981 163.807969 
L 73.117538 161.185365 
L 73.864651 153.425115 
L 74.611764 145.361572 
L 74.98532 144.130198 
L 75.358877 144.016605 
L 75.732433 141.998598 
L 76.10599 135.744668 
L 76.853103 116.384987 
L 77.226659 109.841719 
L 77.600216 106.611966 
L 77.973772 104.48475 
L 78.720885 97.77963 
L 79.094442 94.560917 
L 79.841555 90.087697 
L 80.962224 80.622259 
L 81.335781 79.943276 
L 82.082894 80.867034 
L 82.45645 81.04148 
L 82.830007 82.369736 
L 83.203563 86.22886 
L 83.950676 98.3658 
L 84.697789 105.946529 
L 85.071345 104.565193 
L 85.444902 104.087609 
L 85.818458 106.154675 
L 86.565571 117.156303 
L 86.939128 122.742959 
L 87.312684 126.483229 
L 87.686241 129.011567 
L 88.059797 132.36971 
L 88.80691 145.457498 
L 89.180467 152.009358 
L 89.554023 155.71255 
L 90.301136 157.980272 
L 90.674693 160.638705 
L 91.421806 167.559121 
L 91.795362 168.312352 
L 92.168919 166.86606 
L 92.542475 164.142519 
L 93.289588 156.215763 
L 94.036701 148.410415 
L 94.410258 147.397768 
L 94.783814 147.239586 
L 95.157371 144.837411 
L 95.530927 138.113228 
L 96.27804 118.792495 
L 96.651596 112.653553 
L 98.892935 95.390287 
L 99.266492 93.088014 
L 100.387161 83.74682 
L 100.760718 83.255998 
L 101.134274 83.814484 
L 101.881387 84.386387 
L 102.254944 85.939616 
L 102.6285 90.088043 
L 103.375613 102.204019 
L 103.74917 105.684585 
L 104.122726 106.837552 
L 104.496283 105.46574 
L 104.869839 104.920719 
L 105.243396 106.8838 
L 105.616952 111.60161 
L 106.364065 123.426523 
L 106.737622 127.233826 
L 107.484735 133.066763 
L 107.858291 138.688539 
L 108.605404 152.672012 
L 108.978961 156.48668 
L 109.726073 158.774095 
L 110.09963 161.367535 
L 110.846743 168.338965 
L 111.220299 169.181933 
L 111.593856 167.798622 
L 111.967412 165.108103 
L 112.714525 157.236304 
L 113.461638 149.341336 
L 113.835195 148.257416 
L 114.208751 148.118343 
L 114.582308 145.847315 
L 114.955864 139.278527 
L 115.702977 119.935825 
L 116.076534 113.662197 
L 116.45009 110.598269 
L 116.823647 108.455568 
L 119.812099 84.652948 
L 120.185655 84.100591 
L 120.932768 85.020961 
L 121.306325 85.220116 
L 121.679881 86.696475 
L 122.053437 90.749075 
L 122.80055 102.878161 
L 123.174107 106.46929 
L 123.547663 127.888754 
L 123.92122 126.529499 
L 124.294776 125.919279 
L 124.668333 127.778705 
L 125.041889 132.41242 
L 125.789002 144.269619 
L 126.162559 148.144716 
L 126.909672 153.929139 
L 127.283228 159.462878 
L 128.030341 173.492877 
L 128.403898 177.419426 
L 129.151011 179.732308 
L 129.524567 182.260254 
L 130.27168 189.277784 
L 130.645237 190.210661 
L 131.018793 188.891676 
L 131.39235 186.234789 
L 132.139463 178.41851 
L 132.886576 170.437461 
L 133.260132 169.28059 
L 133.633689 169.156367 
L 134.007245 167.013433 
L 134.380802 160.601454 
L 135.127914 141.245752 
L 135.501471 134.837296 
L 135.875027 131.692061 
L 136.248584 129.558412 
L 139.237036 105.72383 
L 139.610592 105.108731 
L 140.357705 106.031784 
L 140.731262 106.21758 
L 141.104818 107.618929 
L 141.478375 111.57506 
L 142.225488 123.711131 
L 142.599044 127.411947 
L 142.972601 114.270463 
L 143.346157 112.926798 
L 143.719714 112.25367 
L 144.09327 114.009845 
L 144.466827 118.5578 
L 145.21394 130.442702 
L 145.587496 134.386256 
L 146.334609 140.127235 
L 146.708166 145.572269 
L 147.455279 159.642439 
L 147.828835 163.681143 
L 148.202391 165.08226 
L 148.575948 166.025297 
L 148.949504 168.487366 
L 149.696617 175.546046 
L 150.070174 176.568929 
L 150.44373 175.31561 
L 150.817287 172.693007 
L 151.5644 164.932756 
L 152.311513 156.869213 
L 152.685069 155.637839 
L 153.058626 155.524247 
L 153.432182 153.506239 
L 153.805739 147.25231 
L 154.552852 127.892628 
L 154.926408 121.34936 
L 155.299965 118.119607 
L 155.673521 115.992392 
L 156.420634 109.287272 
L 156.794191 106.068558 
L 157.541304 101.595338 
L 158.661973 92.1299 
L 159.03553 91.450918 
L 159.782643 92.374675 
L 160.156199 92.549121 
L 160.529755 93.877377 
L 160.903312 97.736501 
L 161.650425 109.873441 
L 162.023981 113.68297 
L 162.397538 102.656878 
L 162.771094 101.275542 
L 163.144651 100.797959 
L 163.518207 102.865024 
L 164.26532 113.866653 
L 164.638877 119.453308 
L 165.012433 123.193578 
L 165.38599 125.721916 
L 165.759546 129.080059 
L 166.506659 142.167847 
L 166.880216 148.719708 
L 167.253772 152.422899 
L 168.000885 154.690621 
L 168.374442 157.349054 
L 169.121555 164.26947 
L 169.495111 165.022702 
L 169.868668 163.576409 
L 170.242224 160.852868 
L 170.989337 152.926112 
L 171.73645 145.120764 
L 172.110007 144.108117 
L 172.483563 143.949935 
L 172.85712 141.54776 
L 173.230676 134.823577 
L 173.977789 115.502845 
L 174.351345 109.363902 
L 176.592684 92.100636 
L 176.966241 89.798364 
L 178.08691 80.457169 
L 178.460467 79.966347 
L 178.834023 80.524834 
L 179.581136 81.096736 
L 179.954693 82.649965 
L 180.328249 86.798392 
L 181.075362 98.914368 
L 181.448919 102.394934 
L 181.822475 43.540861 
L 182.196032 42.169048 
L 182.569588 41.624027 
L 182.943145 43.587109 
L 183.316701 48.304919 
L 184.063814 60.129831 
L 184.437371 63.937135 
L 185.184484 69.770071 
L 185.55804 75.391847 
L 186.305153 89.375321 
L 186.678709 93.189989 
L 187.425822 95.477404 
L 187.799379 98.070843 
L 188.546492 105.042274 
L 188.920048 105.885241 
L 189.293605 104.501931 
L 189.667161 101.811411 
L 190.414274 93.939613 
L 191.161387 86.044644 
L 191.534944 84.960725 
L 191.9085 84.821651 
L 192.282057 82.550623 
L 192.655613 75.981836 
L 193.402726 56.639133 
L 193.776283 50.365505 
L 194.149839 47.301578 
L 194.523396 45.158876 
L 197.511848 21.356256 
L 197.885404 20.8039 
L 198.632517 21.72427 
L 199.006073 21.923425 
L 199.37963 23.399784 
L 199.753186 27.452384 
L 200.500299 39.581469 
L 200.873856 43.172599 
L 201.247412 106.019136 
L 201.620969 104.659881 
L 201.994525 104.049661 
L 202.368082 105.909087 
L 202.741638 110.542802 
L 203.488751 122.400001 
L 203.862308 126.275099 
L 204.609421 132.059522 
L 204.982977 137.593261 
L 205.73009 151.623259 
L 206.103647 155.549809 
L 206.85076 157.86269 
L 207.224316 160.390636 
L 207.971429 167.408166 
L 208.344986 168.341043 
L 208.718542 167.022058 
L 209.092099 164.365171 
L 209.839212 156.548892 
L 210.586325 148.567843 
L 210.959881 147.410972 
L 211.333437 147.286749 
L 211.706994 145.143815 
L 212.08055 138.731836 
L 212.827663 119.376134 
L 213.20122 112.967678 
L 213.574776 109.822444 
L 213.948333 107.688794 
L 216.936785 83.854212 
L 217.310341 83.239113 
L 218.057454 84.162166 
L 218.431011 84.347962 
L 218.804567 85.749311 
L 219.178124 89.705442 
L 219.925237 101.841513 
L 220.298793 105.54233 
L 220.67235 106.906237 
L 221.045906 105.562572 
L 221.419463 104.889443 
L 221.793019 106.645619 
L 222.166576 111.193574 
L 222.913689 123.078476 
L 223.287245 127.02203 
L 224.034358 132.763009 
L 224.407914 138.208043 
L 225.155027 152.278212 
L 225.528584 156.316917 
L 225.90214 157.718033 
L 226.275697 158.661071 
L 226.649253 161.12314 
L 227.396366 168.181819 
L 227.769923 169.204703 
L 228.143479 167.951384 
L 228.517036 165.328781 
L 229.264149 157.56853 
L 230.011262 149.504987 
L 230.384818 148.273613 
L 230.758375 148.16002 
L 231.131931 146.142013 
L 231.505488 139.888083 
L 232.252601 120.528402 
L 232.626157 113.985134 
L 232.999714 110.755381 
L 233.37327 108.628165 
L 234.120383 101.923046 
L 234.49394 98.704332 
L 235.241053 94.231112 
L 236.361722 84.765674 
L 236.735279 84.086691 
L 237.482391 85.010449 
L 237.855948 85.184895 
L 238.229504 86.513151 
L 238.603061 90.372275 
L 239.350174 102.509215 
L 239.72373 106.318744 
L 240.097287 114.164519 
L 240.470843 112.783184 
L 240.8444 112.3056 
L 241.217956 114.372665 
L 241.965069 125.374294 
L 242.338626 130.960949 
L 242.712182 134.701219 
L 243.085739 137.229557 
L 243.459295 140.587701 
L 244.206408 153.675489 
L 244.579965 160.227349 
L 244.953521 163.93054 
L 245.700634 166.198263 
L 246.074191 168.856695 
L 246.821304 175.777112 
L 247.19486 176.530343 
L 247.568417 175.084051 
L 247.941973 172.36051 
L 248.689086 164.433754 
L 249.436199 156.628405 
L 249.809755 155.615758 
L 250.183312 155.457576 
L 250.556868 153.055402 
L 250.930425 146.331219 
L 251.677538 127.010486 
L 252.051094 120.871544 
L 254.292433 103.608277 
L 254.66599 101.306005 
L 255.786659 91.96481 
L 256.160216 91.473989 
L 256.533772 92.032475 
L 257.280885 92.604377 
L 257.654442 94.157606 
L 258.027998 98.306033 
L 258.775111 110.42201 
L 259.148668 113.902575 
L 259.522224 111.03487 
L 259.895781 109.663057 
L 260.269337 109.118036 
L 260.642894 111.081118 
L 261.01645 115.798928 
L 261.763563 127.62384 
L 262.13712 131.431144 
L 262.884232 137.26408 
L 263.257789 142.885856 
L 264.004902 156.869329 
L 264.378458 160.683997 
L 265.125571 162.971412 
L 265.499128 165.564852 
L 266.246241 172.536282 
L 266.619797 173.37925 
L 266.993354 171.995939 
L 267.36691 169.30542 
L 268.114023 161.433622 
L 268.861136 153.538653 
L 269.234693 152.454734 
L 269.608249 152.31566 
L 269.981806 150.044632 
L 270.355362 143.475844 
L 271.102475 124.133142 
L 271.476032 117.859514 
L 271.849588 114.795586 
L 272.223145 112.652885 
L 275.211596 88.850265 
L 275.585153 88.297909 
L 276.332266 89.218278 
L 276.705822 89.417433 
L 277.079379 90.893792 
L 277.452935 94.946392 
L 278.200048 107.075478 
L 278.573605 110.666607 
L 278.947161 102.729486 
L 279.320718 101.37023 
L 279.694274 100.76001 
L 280.067831 102.619437 
L 280.441387 107.253152 
L 281.1885 119.11035 
L 281.562057 122.985448 
L 282.30917 128.769871 
L 282.682726 134.30361 
L 283.429839 148.333608 
L 283.803396 152.260158 
L 284.550509 154.57304 
L 284.924065 157.100986 
L 285.671178 164.118515 
L 286.044735 165.051393 
L 286.418291 163.732408 
L 286.791848 161.07552 
L 287.538961 153.259241 
L 288.286073 145.278192 
L 288.65963 144.121322 
L 289.033186 143.997098 
L 289.406743 141.854165 
L 289.780299 135.442186 
L 290.527412 116.086484 
L 290.900969 109.678028 
L 291.274525 106.532793 
L 291.648082 104.399144 
L 294.636534 80.564562 
L 295.01009 79.949463 
L 295.757203 80.872516 
L 296.13076 81.058312 
L 296.504316 82.459661 
L 296.877873 86.415792 
L 297.624986 98.551862 
L 297.998542 102.252679 
L 298.372099 43.609545 
L 298.745655 42.26588 
L 299.119212 41.592752 
L 299.492768 43.348928 
L 299.866325 47.896882 
L 300.613437 59.781784 
L 300.986994 63.725339 
L 301.734107 69.466317 
L 302.107663 74.911352 
L 302.854776 88.981521 
L 303.228333 93.020226 
L 303.601889 94.421342 
L 303.975446 95.364379 
L 304.349002 97.826448 
L 305.096115 104.885128 
L 305.469672 105.908011 
L 305.843228 104.654693 
L 306.216785 102.032089 
L 306.963898 94.271838 
L 307.711011 86.208296 
L 308.084567 84.976921 
L 308.458124 84.863329 
L 308.83168 82.845322 
L 309.205237 76.591392 
L 309.95235 57.231711 
L 310.325906 50.688442 
L 310.699463 47.458689 
L 311.073019 45.331474 
L 311.820132 38.626354 
L 312.193689 35.407641 
L 312.940802 30.934421 
L 314.061471 21.468983 
L 314.435027 20.79 
L 315.18214 21.713758 
L 315.555697 21.888203 
L 315.929253 23.21646 
L 316.30281 27.075584 
L 317.049923 39.212523 
L 317.423479 43.022052 
L 317.797036 106.800293 
L 318.170592 105.418958 
L 318.544149 104.941374 
L 318.917705 107.008439 
L 319.664818 118.010068 
L 320.038375 123.596723 
L 320.411931 127.336993 
L 320.785488 129.865331 
L 321.159044 133.223475 
L 321.906157 146.311263 
L 322.279714 152.863123 
L 322.65327 156.566314 
L 323.400383 158.834037 
L 323.77394 161.492469 
L 324.521053 168.412886 
L 324.894609 169.166117 
L 325.268166 167.719824 
L 325.641722 164.996283 
L 326.388835 157.069528 
L 327.135948 149.264179 
L 327.509504 148.251532 
L 327.883061 148.09335 
L 328.256617 145.691175 
L 328.630174 138.966993 
L 329.377287 119.64626 
L 329.750843 113.507318 
L 331.992182 96.244051 
L 332.365739 93.941779 
L 333.486408 84.600584 
L 333.859965 84.109763 
L 334.233521 84.668249 
L 334.980634 85.240151 
L 335.354191 86.79338 
L 335.727747 90.941807 
L 336.47486 103.057784 
L 336.848417 106.538349 
L 337.221973 127.853406 
L 337.59553 126.481593 
L 337.969086 125.936572 
L 338.342643 127.899654 
L 338.716199 132.617464 
L 339.463312 144.442376 
L 339.836868 148.24968 
L 340.583981 154.082616 
L 340.957538 159.704392 
L 341.704651 173.687866 
L 342.078207 177.502533 
L 342.82532 179.789948 
L 343.198877 182.383388 
L 343.94599 189.354818 
L 344.319546 190.197786 
L 344.693103 188.814475 
L 345.066659 186.123956 
L 345.813772 178.252158 
L 346.560885 170.357189 
L 346.934442 169.27327 
L 347.307998 169.134196 
L 347.681555 166.863168 
L 348.055111 160.29438 
L 348.802224 140.951678 
L 349.175781 134.67805 
L 349.549337 131.614122 
L 349.922894 129.471421 
L 352.911345 105.668801 
L 353.284902 105.116445 
L 354.032015 106.036814 
L 354.405571 106.23597 
L 354.779128 107.712328 
L 355.152684 111.764929 
L 355.899797 123.894014 
L 356.273354 127.485143 
L 356.64691 114.237127 
L 357.020467 112.877872 
L 357.394023 112.267652 
L 357.76758 114.127078 
L 358.141136 118.760793 
L 358.888249 130.617991 
L 359.261806 134.493089 
L 360.008919 140.277512 
L 360.382475 145.811251 
L 361.129588 159.84125 
L 361.503145 163.767799 
L 362.250258 166.080681 
L 362.623814 168.608627 
L 363.370927 175.626157 
L 363.744484 176.559034 
L 364.11804 175.240049 
L 364.491596 172.583162 
L 365.238709 164.766883 
L 365.985822 156.785834 
L 366.359379 155.628963 
L 366.732935 155.50474 
L 367.106492 153.361806 
L 367.480048 146.949827 
L 368.227161 127.594125 
L 368.600718 121.185669 
L 368.974274 118.040434 
L 369.347831 115.906785 
L 372.336283 92.072203 
L 372.709839 91.457104 
L 373.456952 92.380157 
L 373.830509 92.565953 
L 374.204065 93.967302 
L 374.577622 97.923433 
L 375.324735 110.059504 
L 375.698291 113.76032 
L 376.071848 111.103554 
L 376.445404 109.759889 
L 376.818961 109.086761 
L 377.192517 110.842936 
L 377.566073 115.390891 
L 378.313186 127.275793 
L 378.686743 131.219347 
L 379.433856 136.960326 
L 379.807412 142.40536 
L 380.554525 156.475529 
L 380.928082 160.514234 
L 381.301638 161.915351 
L 381.675195 162.858388 
L 382.048751 165.320457 
L 382.795864 172.379137 
L 383.169421 173.40202 
L 383.542977 172.148701 
L 383.916534 169.526098 
L 384.663647 161.765847 
L 385.41076 153.702304 
L 385.784316 152.47093 
L 386.157873 152.357338 
L 386.531429 150.33933 
L 386.904986 144.085401 
L 387.652099 124.725719 
L 388.025655 118.182451 
L 388.399212 114.952698 
L 388.772768 112.825482 
L 389.519881 106.120363 
L 389.893437 102.901649 
L 390.64055 98.428429 
L 391.76122 88.962991 
L 392.134776 88.284009 
L 392.881889 89.207766 
L 393.255446 89.382212 
L 393.629002 90.710468 
L 394.002559 94.569592 
L 394.749672 106.706532 
L 395.123228 110.516061 
L 395.496785 43.503602 
L 395.870341 42.122266 
L 396.243898 41.644682 
L 396.617454 43.711748 
L 397.364567 54.713377 
L 397.738124 60.300032 
L 398.11168 64.040302 
L 398.485237 66.56864 
L 398.858793 69.926783 
L 399.605906 83.014571 
L 399.979463 89.566431 
L 400.353019 93.269623 
L 401.100132 95.537345 
L 401.473689 98.195778 
L 402.220802 105.116194 
L 402.594358 105.869425 
L 402.967914 104.423133 
L 403.341471 101.699592 
L 404.088584 93.772836 
L 404.835697 85.967488 
L 405.209253 84.954841 
L 405.58281 84.796659 
L 405.956366 82.394484 
L 406.329923 75.670301 
L 407.077036 56.349568 
L 407.450592 50.210626 
L 409.691931 32.94736 
L 410.065488 30.645088 
L 411.186157 21.303893 
L 411.559714 20.813071 
L 411.93327 21.371557 
L 412.680383 21.94346 
L 413.05394 23.496689 
L 413.427496 27.645116 
L 414.174609 39.761092 
L 414.548166 43.241658 
L 414.921722 105.983788 
L 415.295279 104.611975 
L 415.668835 104.066954 
L 416.042391 106.030036 
L 416.415948 110.747846 
L 417.163061 122.572758 
L 417.536617 126.380062 
L 418.28373 132.212998 
L 418.657287 137.834774 
L 419.4044 151.818248 
L 419.777956 155.632916 
L 420.525069 157.92033 
L 420.898626 160.51377 
L 421.645739 167.485201 
L 422.019295 168.328168 
L 422.392852 166.944857 
L 422.766408 164.254338 
L 423.513521 156.38254 
L 424.260634 148.487571 
L 424.634191 147.403652 
L 425.007747 147.264578 
L 425.381304 144.99355 
L 425.75486 138.424762 
L 426.501973 119.08206 
L 426.87553 112.808432 
L 427.249086 109.744505 
L 427.622643 107.601803 
L 430.611094 83.799183 
L 430.984651 83.246827 
L 431.731764 84.167197 
L 432.10532 84.366352 
L 432.478877 85.84271 
L 432.852433 89.895311 
L 433.599546 102.024396 
L 433.973103 105.615526 
L 434.346659 106.872901 
L 434.720216 105.513646 
L 435.093772 104.903426 
L 435.467329 106.762852 
L 435.840885 111.396567 
L 436.587998 123.253765 
L 436.961555 127.128863 
L 437.708668 132.913286 
L 438.082224 138.447025 
L 438.829337 152.477024 
L 439.202894 156.403573 
L 439.950007 158.716455 
L 440.323563 161.244401 
L 441.070676 168.261931 
L 441.444232 169.194808 
L 441.817789 167.875823 
L 442.191345 165.218936 
L 442.938458 157.402656 
L 443.685571 149.421607 
L 444.059128 148.264737 
L 444.432684 148.140514 
L 444.806241 145.99758 
L 445.179797 139.585601 
L 445.92691 120.229899 
L 446.300467 113.821443 
L 446.674023 110.676208 
L 447.04758 108.542559 
L 450.036032 84.707977 
L 450.409588 84.092878 
L 451.156701 85.015931 
L 451.530258 85.201727 
L 451.903814 86.603076 
L 452.277371 90.559207 
L 453.024484 102.695277 
L 453.39804 106.396094 
L 453.771596 127.92209 
L 454.145153 126.578425 
L 454.518709 125.905297 
L 454.892266 127.661472 
L 455.265822 132.209427 
L 456.012935 144.094329 
L 456.386492 148.037883 
L 457.133605 153.778862 
L 457.507161 159.223896 
L 458.254274 173.294066 
L 458.627831 177.33277 
L 459.001387 178.733887 
L 459.374944 179.676924 
L 459.7485 182.138993 
L 460.495613 189.197673 
L 460.86917 190.220556 
L 461.242726 188.967237 
L 461.616283 186.344634 
L 462.363396 178.584383 
L 463.110509 170.52084 
L 463.484065 169.289466 
L 463.857622 169.175874 
L 464.231178 167.157866 
L 464.604735 160.903937 
L 465.351848 141.544256 
L 465.725404 135.000987 
L 466.098961 131.771234 
L 466.472517 129.644019 
L 467.21963 122.938899 
L 467.593186 119.720185 
L 468.340299 115.246965 
L 469.460969 105.781527 
L 469.834525 105.102545 
L 470.581638 106.026302 
L 470.955195 106.200748 
L 471.328751 107.529004 
L 471.702308 111.388128 
L 472.449421 123.525068 
L 472.822977 127.334597 
L 473.196534 110.99761 
L 473.57009 109.616275 
L 473.943647 109.138691 
L 474.317203 111.205756 
L 475.064316 122.207385 
L 475.437873 127.79404 
L 475.811429 131.53431 
L 476.184986 134.062648 
L 476.558542 137.420792 
L 477.305655 150.50858 
L 477.679212 157.06044 
L 478.052768 160.763631 
L 478.799881 163.031354 
L 479.173437 165.689786 
L 479.173437 165.689786 
" style="fill:none;stroke:#55a868;stroke-linecap:round;stroke-width:1.75;"/>
   </g>
   <g id="patch_3">
    <path d="M 32.773438 306.18 
L 32.773438 7.2 
" style="fill:none;"/>
   </g>
   <g id="patch_4">
    <path d="M 479.173437 306.18 
L 479.173437 7.2 
" style="fill:none;"/>
   </g>
   <g id="patch_5">
    <path d="M 32.773438 306.18 
L 479.173437 306.18 
" style="fill:none;"/>
   </g>
   <g id="patch_6">
    <path d="M 32.773438 7.2 
L 479.173437 7.2 
" style="fill:none;"/>
   </g>
   <g id="legend_1">
    <g id="line2d_27">
     <path d="M 41.773438 19.946875 
L 61.773438 19.946875 
" style="fill:none;stroke:#4c72b0;stroke-linecap:round;stroke-width:1.75;"/>
    </g>
    <g id="line2d_28"/>
    <g id="text_14">
     <!-- y_pred_trend -->
     <defs>
      <path d="M 29.5 0 
Q 27.640625 -4.78125 25.703125 -8.609375 
Q 23.78125 -12.453125 21.390625 -15.15625 
Q 19 -17.875 16.0625 -19.3125 
Q 13.140625 -20.75 9.328125 -20.75 
Q 7.671875 -20.75 6.25 -20.65625 
Q 4.828125 -20.5625 3.265625 -20.21875 
L 3.265625 -13.625 
Q 4.203125 -13.765625 5.375 -13.84375 
Q 6.546875 -13.921875 7.375 -13.921875 
Q 11.234375 -13.921875 14.546875 -11.03125 
Q 17.875 -8.15625 20.359375 -1.859375 
L 21.1875 0.25 
L 0.25 52.828125 
L 9.625 52.828125 
L 20.75 23.640625 
Q 21.234375 22.3125 21.984375 20.109375 
Q 22.75 17.921875 23.5 15.71875 
Q 24.265625 13.53125 24.84375 11.765625 
Q 25.4375 10.015625 25.53125 9.578125 
Q 25.6875 10.109375 26.25 11.6875 
Q 26.8125 13.28125 27.515625 15.234375 
Q 28.21875 17.1875 28.953125 19.1875 
Q 29.6875 21.1875 30.171875 22.65625 
L 40.53125 52.828125 
L 49.8125 52.828125 
z
" id="LiberationSans-79"/>
      <path d="M 51.421875 26.65625 
Q 51.421875 20.65625 50.4375 15.578125 
Q 49.46875 10.5 47.1875 6.828125 
Q 44.921875 3.171875 41.1875 1.09375 
Q 37.453125 -0.984375 31.984375 -0.984375 
Q 26.3125 -0.984375 22.0625 1.171875 
Q 17.828125 3.328125 15.578125 8.203125 
L 15.328125 8.203125 
Q 15.375 8.109375 15.40625 7.328125 
Q 15.4375 6.546875 15.453125 5.375 
Q 15.484375 4.203125 15.5 2.75 
Q 15.53125 1.3125 15.53125 -0.09375 
L 15.53125 -20.75 
L 6.734375 -20.75 
L 6.734375 42.046875 
Q 6.734375 43.953125 6.703125 45.703125 
Q 6.6875 47.46875 6.640625 48.90625 
Q 6.59375 50.34375 6.546875 51.359375 
Q 6.5 52.390625 6.453125 52.828125 
L 14.9375 52.828125 
Q 14.984375 52.6875 15.0625 51.796875 
Q 15.140625 50.921875 15.203125 49.671875 
Q 15.28125 48.4375 15.359375 47.015625 
Q 15.4375 45.609375 15.4375 44.34375 
L 15.625 44.34375 
Q 16.84375 46.875 18.40625 48.65625 
Q 19.96875 50.4375 21.96875 51.578125 
Q 23.96875 52.734375 26.4375 53.25 
Q 28.90625 53.765625 31.984375 53.765625 
Q 37.453125 53.765625 41.1875 51.8125 
Q 44.921875 49.859375 47.1875 46.3125 
Q 49.46875 42.78125 50.4375 37.765625 
Q 51.421875 32.765625 51.421875 26.65625 
M 42.1875 26.46875 
Q 42.1875 31.34375 41.59375 35.15625 
Q 41.015625 38.96875 39.578125 41.59375 
Q 38.140625 44.234375 35.734375 45.59375 
Q 33.34375 46.96875 29.734375 46.96875 
Q 26.8125 46.96875 24.21875 46.140625 
Q 21.625 45.3125 19.703125 42.96875 
Q 17.78125 40.625 16.65625 36.5 
Q 15.53125 32.375 15.53125 25.78125 
Q 15.53125 20.171875 16.453125 16.28125 
Q 17.390625 12.40625 19.171875 10.015625 
Q 20.953125 7.625 23.578125 6.5625 
Q 26.21875 5.515625 29.640625 5.515625 
Q 33.296875 5.515625 35.71875 6.921875 
Q 38.140625 8.34375 39.578125 11.03125 
Q 41.015625 13.71875 41.59375 17.59375 
Q 42.1875 21.484375 42.1875 26.46875 
" id="LiberationSans-70"/>
      <path d="M 40.28125 0 
L 40.28125 33.5 
Q 40.28125 37.359375 39.71875 39.9375 
Q 39.15625 42.53125 37.890625 44.109375 
Q 36.625 45.703125 34.546875 46.359375 
Q 32.46875 47.015625 29.390625 47.015625 
Q 26.265625 47.015625 23.75 45.921875 
Q 21.234375 44.828125 19.453125 42.75 
Q 17.671875 40.671875 16.6875 37.625 
Q 15.71875 34.578125 15.71875 30.609375 
L 15.71875 0 
L 6.9375 0 
L 6.9375 41.546875 
Q 6.9375 43.21875 6.90625 45.046875 
Q 6.890625 46.875 6.828125 48.5 
Q 6.78125 50.140625 6.734375 51.3125 
Q 6.6875 52.484375 6.640625 52.828125 
L 14.9375 52.828125 
Q 14.984375 52.59375 15.03125 51.515625 
Q 15.09375 50.4375 15.15625 49.046875 
Q 15.234375 47.65625 15.28125 46.21875 
Q 15.328125 44.78125 15.328125 43.796875 
L 15.484375 43.796875 
Q 16.75 46.09375 18.265625 47.953125 
Q 19.78125 49.8125 21.78125 51.09375 
Q 23.78125 52.390625 26.359375 53.09375 
Q 28.953125 53.8125 32.375 53.8125 
Q 36.765625 53.8125 39.9375 52.734375 
Q 43.109375 51.65625 45.15625 49.40625 
Q 47.21875 47.171875 48.171875 43.625 
Q 49.125 40.09375 49.125 35.203125 
L 49.125 0 
z
" id="LiberationSans-6e"/>
     </defs>
     <g style="fill:#262626;" transform="translate(69.773438 23.446875)scale(0.1 -0.1)">
      <use xlink:href="#LiberationSans-79"/>
      <use x="50" xlink:href="#LiberationSans-5f"/>
      <use x="105.615234" xlink:href="#LiberationSans-70"/>
      <use x="161.230469" xlink:href="#LiberationSans-72"/>
      <use x="194.53125" xlink:href="#LiberationSans-65"/>
      <use x="250.146484" xlink:href="#LiberationSans-64"/>
      <use x="305.761719" xlink:href="#LiberationSans-5f"/>
      <use x="361.376953" xlink:href="#LiberationSans-74"/>
      <use x="389.160156" xlink:href="#LiberationSans-72"/>
      <use x="422.460938" xlink:href="#LiberationSans-65"/>
      <use x="478.076172" xlink:href="#LiberationSans-6e"/>
      <use x="533.691406" xlink:href="#LiberationSans-64"/>
     </g>
    </g>
    <g id="line2d_29">
     <path d="M 41.773438 34.26875 
L 61.773438 34.26875 
" style="fill:none;stroke:#55a868;stroke-linecap:round;stroke-width:1.75;"/>
    </g>
    <g id="line2d_30"/>
    <g id="text_15">
     <!-- y_pred_mu -->
     <defs>
      <path d="M 37.5 0 
L 37.5 33.5 
Q 37.5 37.359375 37.015625 39.9375 
Q 36.53125 42.53125 35.375 44.109375 
Q 34.234375 45.703125 32.375 46.359375 
Q 30.515625 47.015625 27.828125 47.015625 
Q 25.046875 47.015625 22.796875 45.921875 
Q 20.5625 44.828125 18.96875 42.75 
Q 17.390625 40.671875 16.53125 37.625 
Q 15.671875 34.578125 15.671875 30.609375 
L 15.671875 0 
L 6.9375 0 
L 6.9375 41.546875 
Q 6.9375 43.21875 6.90625 45.046875 
Q 6.890625 46.875 6.828125 48.5 
Q 6.78125 50.140625 6.734375 51.3125 
Q 6.6875 52.484375 6.640625 52.828125 
L 14.9375 52.828125 
Q 14.984375 52.59375 15.03125 51.515625 
Q 15.09375 50.4375 15.15625 49.046875 
Q 15.234375 47.65625 15.28125 46.21875 
Q 15.328125 44.78125 15.328125 43.796875 
L 15.484375 43.796875 
Q 16.65625 46.09375 18.015625 47.953125 
Q 19.390625 49.8125 21.21875 51.09375 
Q 23.046875 52.390625 25.40625 53.09375 
Q 27.78125 53.8125 30.90625 53.8125 
Q 36.921875 53.8125 40.40625 51.421875 
Q 43.890625 49.03125 45.265625 43.796875 
L 45.40625 43.796875 
Q 46.578125 46.09375 48.046875 47.953125 
Q 49.515625 49.8125 51.46875 51.09375 
Q 53.421875 52.390625 55.859375 53.09375 
Q 58.296875 53.8125 61.421875 53.8125 
Q 65.4375 53.8125 68.328125 52.734375 
Q 71.234375 51.65625 73.09375 49.40625 
Q 74.953125 47.171875 75.828125 43.625 
Q 76.703125 40.09375 76.703125 35.203125 
L 76.703125 0 
L 68.015625 0 
L 68.015625 33.5 
Q 68.015625 37.359375 67.53125 39.9375 
Q 67.046875 42.53125 65.890625 44.109375 
Q 64.75 45.703125 62.890625 46.359375 
Q 61.03125 47.015625 58.34375 47.015625 
Q 55.5625 47.015625 53.3125 45.96875 
Q 51.078125 44.921875 49.484375 42.875 
Q 47.90625 40.828125 47.046875 37.75 
Q 46.1875 34.671875 46.1875 30.609375 
L 46.1875 0 
z
" id="LiberationSans-6d"/>
      <path d="M 15.328125 52.828125 
L 15.328125 19.34375 
Q 15.328125 15.484375 15.890625 12.890625 
Q 16.453125 10.296875 17.71875 8.703125 
Q 19 7.125 21.0625 6.46875 
Q 23.140625 5.8125 26.21875 5.8125 
Q 29.34375 5.8125 31.859375 6.90625 
Q 34.375 8.015625 36.15625 10.078125 
Q 37.9375 12.15625 38.90625 15.203125 
Q 39.890625 18.265625 39.890625 22.21875 
L 39.890625 52.828125 
L 48.6875 52.828125 
L 48.6875 11.28125 
Q 48.6875 9.625 48.703125 7.78125 
Q 48.734375 5.953125 48.78125 4.3125 
Q 48.828125 2.6875 48.875 1.515625 
Q 48.921875 0.34375 48.96875 0 
L 40.671875 0 
Q 40.625 0.25 40.578125 1.3125 
Q 40.53125 2.390625 40.453125 3.78125 
Q 40.375 5.171875 40.328125 6.609375 
Q 40.28125 8.0625 40.28125 9.03125 
L 40.140625 9.03125 
Q 38.875 6.734375 37.359375 4.875 
Q 35.84375 3.03125 33.84375 1.734375 
Q 31.84375 0.4375 29.25 -0.265625 
Q 26.65625 -0.984375 23.25 -0.984375 
Q 18.84375 -0.984375 15.671875 0.09375 
Q 12.5 1.171875 10.453125 3.421875 
Q 8.40625 5.671875 7.453125 9.1875 
Q 6.5 12.703125 6.5 17.625 
L 6.5 52.828125 
z
" id="LiberationSans-75"/>
     </defs>
     <g style="fill:#262626;" transform="translate(69.773438 37.76875)scale(0.1 -0.1)">
      <use xlink:href="#LiberationSans-79"/>
      <use x="50" xlink:href="#LiberationSans-5f"/>
      <use x="105.615234" xlink:href="#LiberationSans-70"/>
      <use x="161.230469" xlink:href="#LiberationSans-72"/>
      <use x="194.53125" xlink:href="#LiberationSans-65"/>
      <use x="250.146484" xlink:href="#LiberationSans-64"/>
      <use x="305.761719" xlink:href="#LiberationSans-5f"/>
      <use x="361.376953" xlink:href="#LiberationSans-6d"/>
      <use x="444.677734" xlink:href="#LiberationSans-75"/>
     </g>
    </g>
   </g>
  </g>
 </g>
 <defs>
  <clipPath id="p4e2630afde">
   <rect height="298.98" width="446.4" x="32.773438" y="7.2"/>
  </clipPath>
 </defs>
</svg>
