<?xml version="1.0" encoding="utf-8" standalone="no"?>
<!DOCTYPE svg PUBLIC "-//W3C//DTD SVG 1.1//EN"
  "http://www.w3.org/Graphics/SVG/1.1/DTD/svg11.dtd">
<!-- Created with matplotlib (http://matplotlib.org/) -->
<svg height="332pt" version="1.1" viewBox="0 0 693 332" width="693pt" xmlns="http://www.w3.org/2000/svg" xmlns:xlink="http://www.w3.org/1999/xlink">
 <defs>
  <style type="text/css">
*{stroke-linecap:butt;stroke-linejoin:round;}
  </style>
 </defs>
 <g id="figure_1">
  <g id="patch_1">
   <path d="M 0 332.032344 
L 693.954297 332.032344 
L 693.954297 0 
L 0 0 
z
" style="fill:#ffffff;"/>
  </g>
  <g id="axes_1">
   <g id="patch_2">
    <path d="M 231.666797 306.18 
L 678.066797 306.18 
L 678.066797 7.2 
L 231.666797 7.2 
z
" style="fill:#eaeaf2;"/>
   </g>
   <g id="matplotlib.axis_1">
    <g id="xtick_1">
     <g id="line2d_1">
      <path clip-path="url(#pcc0d0dfca0)" d="M 272.248615 306.18 
L 272.248615 7.2 
" style="fill:none;stroke:#ffffff;stroke-linecap:round;"/>
     </g>
     <g id="line2d_2"/>
     <g id="text_1">
      <!-- −0.2 -->
      <defs>
       <path d="M 4.9375 29.6875 
L 4.9375 36.8125 
L 53.515625 36.8125 
L 53.515625 29.6875 
z
" id="LiberationSans-2212"/>
       <path d="M 51.703125 34.421875 
Q 51.703125 24.515625 49.828125 17.75 
Q 47.953125 10.984375 44.703125 6.8125 
Q 41.453125 2.640625 37.0625 0.828125 
Q 32.671875 -0.984375 27.6875 -0.984375 
Q 22.65625 -0.984375 18.3125 0.828125 
Q 13.96875 2.640625 10.765625 6.78125 
Q 7.5625 10.9375 5.734375 17.703125 
Q 3.90625 24.46875 3.90625 34.421875 
Q 3.90625 44.828125 5.734375 51.640625 
Q 7.5625 58.453125 10.78125 62.5 
Q 14.015625 66.546875 18.40625 68.1875 
Q 22.796875 69.828125 27.984375 69.828125 
Q 32.90625 69.828125 37.21875 68.1875 
Q 41.546875 66.546875 44.765625 62.5 
Q 48 58.453125 49.84375 51.640625 
Q 51.703125 44.828125 51.703125 34.421875 
M 42.78125 34.421875 
Q 42.78125 42.625 41.796875 48.0625 
Q 40.828125 53.515625 38.921875 56.765625 
Q 37.015625 60.015625 34.25 61.359375 
Q 31.5 62.703125 27.984375 62.703125 
Q 24.265625 62.703125 21.4375 61.328125 
Q 18.609375 59.96875 16.671875 56.71875 
Q 14.75 53.46875 13.765625 48.015625 
Q 12.796875 42.578125 12.796875 34.421875 
Q 12.796875 26.515625 13.796875 21.09375 
Q 14.796875 15.671875 16.71875 12.375 
Q 18.65625 9.078125 21.4375 7.640625 
Q 24.21875 6.203125 27.78125 6.203125 
Q 31.25 6.203125 34.03125 7.640625 
Q 36.8125 9.078125 38.734375 12.375 
Q 40.671875 15.671875 41.71875 21.09375 
Q 42.78125 26.515625 42.78125 34.421875 
" id="LiberationSans-30"/>
       <path d="M 9.125 0 
L 9.125 10.6875 
L 18.65625 10.6875 
L 18.65625 0 
z
" id="LiberationSans-2e"/>
       <path d="M 5.03125 0 
L 5.03125 6.203125 
Q 7.515625 11.921875 11.109375 16.28125 
Q 14.703125 20.65625 18.65625 24.1875 
Q 22.609375 27.734375 26.484375 30.765625 
Q 30.375 33.796875 33.5 36.8125 
Q 36.625 39.84375 38.546875 43.15625 
Q 40.484375 46.484375 40.484375 50.6875 
Q 40.484375 53.609375 39.59375 55.828125 
Q 38.71875 58.0625 37.0625 59.5625 
Q 35.40625 61.078125 33.078125 61.828125 
Q 30.765625 62.59375 27.9375 62.59375 
Q 25.296875 62.59375 22.96875 61.859375 
Q 20.65625 61.140625 18.84375 59.671875 
Q 17.046875 58.203125 15.890625 56.03125 
Q 14.75 53.859375 14.40625 50.984375 
L 5.421875 51.8125 
Q 5.859375 55.515625 7.46875 58.78125 
Q 9.078125 62.0625 11.90625 64.53125 
Q 14.75 67 18.71875 68.40625 
Q 22.703125 69.828125 27.9375 69.828125 
Q 33.0625 69.828125 37.0625 68.609375 
Q 41.0625 67.390625 43.8125 64.984375 
Q 46.578125 62.59375 48.046875 59.078125 
Q 49.515625 55.5625 49.515625 50.984375 
Q 49.515625 47.515625 48.265625 44.390625 
Q 47.015625 41.265625 44.9375 38.421875 
Q 42.875 35.59375 40.140625 32.953125 
Q 37.40625 30.328125 34.421875 27.8125 
Q 31.453125 25.296875 28.421875 22.828125 
Q 25.390625 20.359375 22.71875 17.859375 
Q 20.0625 15.375 17.96875 12.8125 
Q 15.875 10.25 14.703125 7.46875 
L 50.59375 7.46875 
L 50.59375 0 
z
" id="LiberationSans-32"/>
      </defs>
      <g style="fill:#262626;" transform="translate(259.910724 322.238594)scale(0.125 -0.125)">
       <use xlink:href="#LiberationSans-2212"/>
       <use x="58.398438" xlink:href="#LiberationSans-30"/>
       <use x="114.013672" xlink:href="#LiberationSans-2e"/>
       <use x="141.796875" xlink:href="#LiberationSans-32"/>
      </g>
     </g>
    </g>
    <g id="xtick_2">
     <g id="line2d_3">
      <path clip-path="url(#pcc0d0dfca0)" d="M 353.412251 306.18 
L 353.412251 7.2 
" style="fill:none;stroke:#ffffff;stroke-linecap:round;"/>
     </g>
     <g id="line2d_4"/>
     <g id="text_2">
      <!-- −0.1 -->
      <defs>
       <path d="M 7.625 0 
L 7.625 7.46875 
L 25.140625 7.46875 
L 25.140625 60.40625 
L 9.625 49.3125 
L 9.625 57.625 
L 25.875 68.796875 
L 33.984375 68.796875 
L 33.984375 7.46875 
L 50.734375 7.46875 
L 50.734375 0 
z
" id="LiberationSans-31"/>
      </defs>
      <g style="fill:#262626;" transform="translate(341.074361 322.238594)scale(0.125 -0.125)">
       <use xlink:href="#LiberationSans-2212"/>
       <use x="58.398438" xlink:href="#LiberationSans-30"/>
       <use x="114.013672" xlink:href="#LiberationSans-2e"/>
       <use x="141.796875" xlink:href="#LiberationSans-31"/>
      </g>
     </g>
    </g>
    <g id="xtick_3">
     <g id="line2d_5">
      <path clip-path="url(#pcc0d0dfca0)" d="M 434.575888 306.18 
L 434.575888 7.2 
" style="fill:none;stroke:#ffffff;stroke-linecap:round;"/>
     </g>
     <g id="line2d_6"/>
     <g id="text_3">
      <!-- 0.0 -->
      <g style="fill:#262626;" transform="translate(425.888388 322.238594)scale(0.125 -0.125)">
       <use xlink:href="#LiberationSans-30"/>
       <use x="55.615234" xlink:href="#LiberationSans-2e"/>
       <use x="83.398438" xlink:href="#LiberationSans-30"/>
      </g>
     </g>
    </g>
    <g id="xtick_4">
     <g id="line2d_7">
      <path clip-path="url(#pcc0d0dfca0)" d="M 515.739524 306.18 
L 515.739524 7.2 
" style="fill:none;stroke:#ffffff;stroke-linecap:round;"/>
     </g>
     <g id="line2d_8"/>
     <g id="text_4">
      <!-- 0.1 -->
      <g style="fill:#262626;" transform="translate(507.052024 322.238594)scale(0.125 -0.125)">
       <use xlink:href="#LiberationSans-30"/>
       <use x="55.615234" xlink:href="#LiberationSans-2e"/>
       <use x="83.398438" xlink:href="#LiberationSans-31"/>
      </g>
     </g>
    </g>
    <g id="xtick_5">
     <g id="line2d_9">
      <path clip-path="url(#pcc0d0dfca0)" d="M 596.903161 306.18 
L 596.903161 7.2 
" style="fill:none;stroke:#ffffff;stroke-linecap:round;"/>
     </g>
     <g id="line2d_10"/>
     <g id="text_5">
      <!-- 0.2 -->
      <g style="fill:#262626;" transform="translate(588.215661 322.238594)scale(0.125 -0.125)">
       <use xlink:href="#LiberationSans-30"/>
       <use x="55.615234" xlink:href="#LiberationSans-2e"/>
       <use x="83.398438" xlink:href="#LiberationSans-32"/>
      </g>
     </g>
    </g>
    <g id="xtick_6">
     <g id="line2d_11">
      <path clip-path="url(#pcc0d0dfca0)" d="M 678.066797 306.18 
L 678.066797 7.2 
" style="fill:none;stroke:#ffffff;stroke-linecap:round;"/>
     </g>
     <g id="line2d_12"/>
     <g id="text_6">
      <!-- 0.3 -->
      <defs>
       <path d="M 51.21875 19 
Q 51.21875 14.265625 49.671875 10.546875 
Q 48.140625 6.84375 45.1875 4.265625 
Q 42.234375 1.703125 37.859375 0.359375 
Q 33.5 -0.984375 27.875 -0.984375 
Q 21.484375 -0.984375 17.109375 0.609375 
Q 12.75 2.203125 9.90625 4.8125 
Q 7.078125 7.421875 5.65625 10.765625 
Q 4.25 14.109375 3.8125 17.671875 
L 12.890625 18.5 
Q 13.28125 15.765625 14.328125 13.515625 
Q 15.375 11.28125 17.1875 9.671875 
Q 19 8.0625 21.625 7.171875 
Q 24.265625 6.296875 27.875 6.296875 
Q 34.515625 6.296875 38.296875 9.5625 
Q 42.09375 12.84375 42.09375 19.28125 
Q 42.09375 23.09375 40.40625 25.40625 
Q 38.71875 27.734375 36.203125 29.03125 
Q 33.6875 30.328125 30.734375 30.765625 
Q 27.78125 31.203125 25.296875 31.203125 
L 20.3125 31.203125 
L 20.3125 38.8125 
L 25.09375 38.8125 
Q 27.59375 38.8125 30.265625 39.328125 
Q 32.953125 39.84375 35.171875 41.1875 
Q 37.40625 42.53125 38.84375 44.828125 
Q 40.28125 47.125 40.28125 50.6875 
Q 40.28125 56.203125 37.03125 59.390625 
Q 33.796875 62.59375 27.390625 62.59375 
Q 21.578125 62.59375 17.984375 59.609375 
Q 14.40625 56.640625 13.8125 51.21875 
L 4.984375 51.90625 
Q 5.515625 56.453125 7.46875 59.8125 
Q 9.421875 63.1875 12.421875 65.40625 
Q 15.4375 67.625 19.28125 68.71875 
Q 23.140625 69.828125 27.484375 69.828125 
Q 33.25 69.828125 37.390625 68.375 
Q 41.546875 66.9375 44.1875 64.46875 
Q 46.828125 62.015625 48.0625 58.6875 
Q 49.3125 55.375 49.3125 51.609375 
Q 49.3125 48.578125 48.484375 45.9375 
Q 47.65625 43.3125 45.890625 41.203125 
Q 44.140625 39.109375 41.421875 37.59375 
Q 38.71875 36.078125 34.90625 35.296875 
L 34.90625 35.109375 
Q 39.0625 34.671875 42.140625 33.21875 
Q 45.21875 31.78125 47.21875 29.625 
Q 49.21875 27.484375 50.21875 24.75 
Q 51.21875 22.015625 51.21875 19 
" id="LiberationSans-33"/>
      </defs>
      <g style="fill:#262626;" transform="translate(669.379297 322.238594)scale(0.125 -0.125)">
       <use xlink:href="#LiberationSans-30"/>
       <use x="55.615234" xlink:href="#LiberationSans-2e"/>
       <use x="83.398438" xlink:href="#LiberationSans-33"/>
      </g>
     </g>
    </g>
   </g>
   <g id="matplotlib.axis_2">
    <g id="ytick_1">
     <g id="line2d_13">
      <path clip-path="url(#pcc0d0dfca0)" d="M 231.666797 299.385 
L 678.066797 299.385 
" style="fill:none;stroke:#ffffff;stroke-linecap:round;"/>
     </g>
     <g id="line2d_14"/>
     <g id="text_7">
      <!-- weekofyear -->
      <defs>
       <path d="M 57.328125 0 
L 47.125 0 
L 38.671875 34.078125 
Q 38.28125 35.40625 37.859375 37.359375 
Q 37.453125 39.3125 37.0625 41.15625 
Q 36.578125 43.3125 36.140625 45.609375 
Q 35.6875 43.40625 35.203125 41.265625 
Q 34.8125 39.40625 34.34375 37.40625 
Q 33.890625 35.40625 33.5 33.890625 
L 24.8125 0 
L 14.65625 0 
L -0.140625 52.828125 
L 8.546875 52.828125 
L 17.484375 16.9375 
Q 17.828125 15.828125 18.15625 14.1875 
Q 18.5 12.546875 18.84375 10.984375 
Q 19.1875 9.1875 19.578125 7.28125 
Q 19.96875 9.125 20.40625 10.890625 
Q 20.796875 12.40625 21.1875 13.96875 
Q 21.578125 15.53125 21.875 16.546875 
L 31.453125 52.828125 
L 40.875 52.828125 
L 50.09375 16.546875 
Q 50.4375 15.28125 50.828125 13.671875 
Q 51.21875 12.0625 51.5625 10.640625 
Q 51.953125 8.984375 52.34375 7.28125 
Q 52.734375 9.125 53.125 10.890625 
Q 53.46875 12.40625 53.828125 14.03125 
Q 54.203125 15.671875 54.546875 16.9375 
L 63.875 52.828125 
L 72.46875 52.828125 
z
" id="LiberationSans-77"/>
       <path d="M 13.484375 24.5625 
Q 13.484375 20.40625 14.328125 16.90625 
Q 15.1875 13.421875 16.96875 10.90625 
Q 18.75 8.40625 21.53125 7 
Q 24.3125 5.609375 28.21875 5.609375 
Q 33.9375 5.609375 37.375 7.90625 
Q 40.828125 10.203125 42.046875 13.71875 
L 49.75 11.53125 
Q 48.921875 9.328125 47.4375 7.109375 
Q 45.953125 4.890625 43.453125 3.09375 
Q 40.96875 1.3125 37.234375 0.15625 
Q 33.5 -0.984375 28.21875 -0.984375 
Q 16.5 -0.984375 10.375 6 
Q 4.25 12.984375 4.25 26.765625 
Q 4.25 34.1875 6.09375 39.328125 
Q 7.953125 44.484375 11.171875 47.703125 
Q 14.40625 50.921875 18.703125 52.359375 
Q 23 53.8125 27.875 53.8125 
Q 34.515625 53.8125 38.984375 51.65625 
Q 43.453125 49.515625 46.15625 45.71875 
Q 48.875 41.9375 50.015625 36.8125 
Q 51.171875 31.6875 51.171875 25.734375 
L 51.171875 24.5625 
z
M 42.09375 31.296875 
Q 41.359375 39.65625 37.84375 43.484375 
Q 34.328125 47.3125 27.734375 47.3125 
Q 25.53125 47.3125 23.109375 46.609375 
Q 20.703125 45.90625 18.65625 44.09375 
Q 16.609375 42.28125 15.1875 39.171875 
Q 13.765625 36.078125 13.578125 31.296875 
z
" id="LiberationSans-65"/>
       <path d="M 39.84375 0 
L 21.96875 24.125 
L 15.53125 18.796875 
L 15.53125 0 
L 6.734375 0 
L 6.734375 72.46875 
L 15.53125 72.46875 
L 15.53125 27.203125 
L 38.71875 52.828125 
L 49.03125 52.828125 
L 27.59375 30.125 
L 50.140625 0 
z
" id="LiberationSans-6b"/>
       <path d="M 51.421875 26.46875 
Q 51.421875 12.59375 45.3125 5.796875 
Q 39.203125 -0.984375 27.59375 -0.984375 
Q 22.078125 -0.984375 17.71875 0.671875 
Q 13.375 2.34375 10.375 5.765625 
Q 7.375 9.1875 5.78125 14.328125 
Q 4.203125 19.484375 4.203125 26.46875 
Q 4.203125 53.8125 27.875 53.8125 
Q 34.03125 53.8125 38.5 52.09375 
Q 42.96875 50.390625 45.828125 46.96875 
Q 48.6875 43.5625 50.046875 38.421875 
Q 51.421875 33.296875 51.421875 26.46875 
M 42.1875 26.46875 
Q 42.1875 32.625 41.234375 36.625 
Q 40.28125 40.625 38.453125 43.015625 
Q 36.625 45.40625 33.984375 46.359375 
Q 31.34375 47.3125 28.03125 47.3125 
Q 24.65625 47.3125 21.9375 46.3125 
Q 19.234375 45.3125 17.328125 42.890625 
Q 15.4375 40.484375 14.421875 36.46875 
Q 13.421875 32.46875 13.421875 26.46875 
Q 13.421875 20.3125 14.5 16.28125 
Q 15.578125 12.25 17.453125 9.859375 
Q 19.34375 7.46875 21.90625 6.484375 
Q 24.46875 5.515625 27.484375 5.515625 
Q 30.859375 5.515625 33.59375 6.46875 
Q 36.328125 7.421875 38.234375 9.8125 
Q 40.140625 12.203125 41.15625 16.25 
Q 42.1875 20.3125 42.1875 26.46875 
" id="LiberationSans-6f"/>
       <path d="M 17.625 46.4375 
L 17.625 0 
L 8.84375 0 
L 8.84375 46.4375 
L 1.421875 46.4375 
L 1.421875 52.828125 
L 8.84375 52.828125 
L 8.84375 58.796875 
Q 8.84375 61.671875 9.375 64.140625 
Q 9.90625 66.609375 11.34375 68.4375 
Q 12.796875 70.265625 15.28125 71.3125 
Q 17.78125 72.359375 21.734375 72.359375 
Q 23.296875 72.359375 24.96875 72.21875 
Q 26.65625 72.078125 27.9375 71.78125 
L 27.9375 65.09375 
Q 27.09375 65.234375 26 65.359375 
Q 24.90625 65.484375 24.03125 65.484375 
Q 22.078125 65.484375 20.828125 64.9375 
Q 19.578125 64.40625 18.875 63.40625 
Q 18.171875 62.40625 17.890625 60.9375 
Q 17.625 59.46875 17.625 57.5625 
L 17.625 52.828125 
L 27.9375 52.828125 
L 27.9375 46.4375 
z
" id="LiberationSans-66"/>
       <path d="M 29.5 0 
Q 27.640625 -4.78125 25.703125 -8.609375 
Q 23.78125 -12.453125 21.390625 -15.15625 
Q 19 -17.875 16.0625 -19.3125 
Q 13.140625 -20.75 9.328125 -20.75 
Q 7.671875 -20.75 6.25 -20.65625 
Q 4.828125 -20.5625 3.265625 -20.21875 
L 3.265625 -13.625 
Q 4.203125 -13.765625 5.375 -13.84375 
Q 6.546875 -13.921875 7.375 -13.921875 
Q 11.234375 -13.921875 14.546875 -11.03125 
Q 17.875 -8.15625 20.359375 -1.859375 
L 21.1875 0.25 
L 0.25 52.828125 
L 9.625 52.828125 
L 20.75 23.640625 
Q 21.234375 22.3125 21.984375 20.109375 
Q 22.75 17.921875 23.5 15.71875 
Q 24.265625 13.53125 24.84375 11.765625 
Q 25.4375 10.015625 25.53125 9.578125 
Q 25.6875 10.109375 26.25 11.6875 
Q 26.8125 13.28125 27.515625 15.234375 
Q 28.21875 17.1875 28.953125 19.1875 
Q 29.6875 21.1875 30.171875 22.65625 
L 40.53125 52.828125 
L 49.8125 52.828125 
z
" id="LiberationSans-79"/>
       <path d="M 20.21875 -0.984375 
Q 12.25 -0.984375 8.25 3.21875 
Q 4.25 7.421875 4.25 14.75 
Q 4.25 19.96875 6.21875 23.3125 
Q 8.203125 26.65625 11.390625 28.5625 
Q 14.59375 30.46875 18.6875 31.203125 
Q 22.796875 31.9375 27.046875 32.03125 
L 38.921875 32.234375 
L 38.921875 35.109375 
Q 38.921875 38.375 38.234375 40.671875 
Q 37.546875 42.96875 36.125 44.375 
Q 34.71875 45.796875 32.59375 46.453125 
Q 30.46875 47.125 27.59375 47.125 
Q 25.046875 47.125 23 46.75 
Q 20.953125 46.390625 19.4375 45.4375 
Q 17.921875 44.484375 16.984375 42.84375 
Q 16.0625 41.21875 15.765625 38.71875 
L 6.59375 39.546875 
Q 7.078125 42.671875 8.4375 45.28125 
Q 9.8125 47.90625 12.328125 49.796875 
Q 14.84375 51.703125 18.625 52.75 
Q 22.40625 53.8125 27.78125 53.8125 
Q 37.75 53.8125 42.765625 49.234375 
Q 47.796875 44.671875 47.796875 36.03125 
L 47.796875 13.28125 
Q 47.796875 9.375 48.828125 7.390625 
Q 49.859375 5.421875 52.734375 5.421875 
Q 53.46875 5.421875 54.203125 5.515625 
Q 54.9375 5.609375 55.609375 5.765625 
L 55.609375 0.296875 
Q 53.953125 -0.09375 52.3125 -0.28125 
Q 50.6875 -0.484375 48.828125 -0.484375 
Q 46.34375 -0.484375 44.5625 0.171875 
Q 42.78125 0.828125 41.65625 2.171875 
Q 40.53125 3.515625 39.9375 5.484375 
Q 39.359375 7.46875 39.203125 10.109375 
L 38.921875 10.109375 
Q 37.5 7.5625 35.8125 5.515625 
Q 34.125 3.46875 31.875 2.03125 
Q 29.640625 0.59375 26.78125 -0.1875 
Q 23.921875 -0.984375 20.21875 -0.984375 
M 22.21875 5.609375 
Q 26.421875 5.609375 29.5625 7.140625 
Q 32.71875 8.6875 34.78125 11.078125 
Q 36.859375 13.484375 37.890625 16.3125 
Q 38.921875 19.140625 38.921875 21.734375 
L 38.921875 26.078125 
L 29.296875 25.875 
Q 26.078125 25.828125 23.171875 25.40625 
Q 20.265625 25 18.0625 23.78125 
Q 15.875 22.5625 14.578125 20.359375 
Q 13.28125 18.171875 13.28125 14.59375 
Q 13.28125 10.296875 15.59375 7.953125 
Q 17.921875 5.609375 22.21875 5.609375 
" id="LiberationSans-61"/>
       <path d="M 6.9375 0 
L 6.9375 40.53125 
Q 6.9375 42.1875 6.90625 43.921875 
Q 6.890625 45.65625 6.828125 47.265625 
Q 6.78125 48.875 6.734375 50.28125 
Q 6.6875 51.703125 6.640625 52.828125 
L 14.9375 52.828125 
Q 14.984375 51.703125 15.0625 50.265625 
Q 15.140625 48.828125 15.203125 47.3125 
Q 15.28125 45.796875 15.296875 44.40625 
Q 15.328125 43.015625 15.328125 42.046875 
L 15.53125 42.046875 
Q 16.453125 45.0625 17.5 47.28125 
Q 18.5625 49.515625 19.96875 50.953125 
Q 21.390625 52.390625 23.34375 53.09375 
Q 25.296875 53.8125 28.078125 53.8125 
Q 29.15625 53.8125 30.125 53.640625 
Q 31.109375 53.46875 31.640625 53.328125 
L 31.640625 45.265625 
Q 30.765625 45.515625 29.59375 45.625 
Q 28.421875 45.75 26.953125 45.75 
Q 23.921875 45.75 21.796875 44.375 
Q 19.671875 43.015625 18.328125 40.59375 
Q 17 38.1875 16.359375 34.84375 
Q 15.71875 31.5 15.71875 27.546875 
L 15.71875 0 
z
" id="LiberationSans-72"/>
      </defs>
      <g style="fill:#262626;" transform="translate(160.748828 303.914297)scale(0.125 -0.125)">
       <use xlink:href="#LiberationSans-77"/>
       <use x="72.216797" xlink:href="#LiberationSans-65"/>
       <use x="127.832031" xlink:href="#LiberationSans-65"/>
       <use x="183.447266" xlink:href="#LiberationSans-6b"/>
       <use x="233.447266" xlink:href="#LiberationSans-6f"/>
       <use x="289.0625" xlink:href="#LiberationSans-66"/>
       <use x="316.845703" xlink:href="#LiberationSans-79"/>
       <use x="366.845703" xlink:href="#LiberationSans-65"/>
       <use x="422.460938" xlink:href="#LiberationSans-61"/>
       <use x="478.076172" xlink:href="#LiberationSans-72"/>
      </g>
     </g>
    </g>
    <g id="ytick_2">
     <g id="line2d_15">
      <path clip-path="url(#pcc0d0dfca0)" d="M 231.666797 285.795 
L 678.066797 285.795 
" style="fill:none;stroke:#ffffff;stroke-linecap:round;"/>
     </g>
     <g id="line2d_16"/>
     <g id="text_8">
      <!-- reanalysis_specific_humidity_g_per_kg -->
      <defs>
       <path d="M 40.28125 0 
L 40.28125 33.5 
Q 40.28125 37.359375 39.71875 39.9375 
Q 39.15625 42.53125 37.890625 44.109375 
Q 36.625 45.703125 34.546875 46.359375 
Q 32.46875 47.015625 29.390625 47.015625 
Q 26.265625 47.015625 23.75 45.921875 
Q 21.234375 44.828125 19.453125 42.75 
Q 17.671875 40.671875 16.6875 37.625 
Q 15.71875 34.578125 15.71875 30.609375 
L 15.71875 0 
L 6.9375 0 
L 6.9375 41.546875 
Q 6.9375 43.21875 6.90625 45.046875 
Q 6.890625 46.875 6.828125 48.5 
Q 6.78125 50.140625 6.734375 51.3125 
Q 6.6875 52.484375 6.640625 52.828125 
L 14.9375 52.828125 
Q 14.984375 52.59375 15.03125 51.515625 
Q 15.09375 50.4375 15.15625 49.046875 
Q 15.234375 47.65625 15.28125 46.21875 
Q 15.328125 44.78125 15.328125 43.796875 
L 15.484375 43.796875 
Q 16.75 46.09375 18.265625 47.953125 
Q 19.78125 49.8125 21.78125 51.09375 
Q 23.78125 52.390625 26.359375 53.09375 
Q 28.953125 53.8125 32.375 53.8125 
Q 36.765625 53.8125 39.9375 52.734375 
Q 43.109375 51.65625 45.15625 49.40625 
Q 47.21875 47.171875 48.171875 43.625 
Q 49.125 40.09375 49.125 35.203125 
L 49.125 0 
z
" id="LiberationSans-6e"/>
       <path d="M 6.734375 0 
L 6.734375 72.46875 
L 15.53125 72.46875 
L 15.53125 0 
z
" id="LiberationSans-6c"/>
       <path d="M 46.390625 14.59375 
Q 46.390625 10.890625 44.9375 7.984375 
Q 43.5 5.078125 40.765625 3.09375 
Q 38.03125 1.125 34.046875 0.0625 
Q 30.078125 -0.984375 24.953125 -0.984375 
Q 20.359375 -0.984375 16.671875 -0.265625 
Q 12.984375 0.4375 10.203125 2 
Q 7.421875 3.5625 5.53125 6.125 
Q 3.65625 8.6875 2.78125 12.40625 
L 10.546875 13.921875 
Q 11.671875 9.671875 15.1875 7.6875 
Q 18.703125 5.71875 24.953125 5.71875 
Q 27.78125 5.71875 30.140625 6.109375 
Q 32.515625 6.5 34.21875 7.453125 
Q 35.9375 8.40625 36.890625 9.984375 
Q 37.84375 11.578125 37.84375 13.921875 
Q 37.84375 16.3125 36.71875 17.84375 
Q 35.59375 19.390625 33.59375 20.40625 
Q 31.59375 21.4375 28.734375 22.1875 
Q 25.875 22.953125 22.46875 23.875 
Q 19.28125 24.703125 16.15625 25.734375 
Q 13.03125 26.765625 10.515625 28.4375 
Q 8.015625 30.125 6.453125 32.609375 
Q 4.890625 35.109375 4.890625 38.875 
Q 4.890625 46.09375 10.03125 49.875 
Q 15.1875 53.65625 25.046875 53.65625 
Q 33.796875 53.65625 38.9375 50.578125 
Q 44.09375 47.515625 45.453125 40.71875 
L 37.546875 39.75 
Q 37.109375 41.796875 35.9375 43.1875 
Q 34.765625 44.578125 33.109375 45.4375 
Q 31.453125 46.296875 29.375 46.65625 
Q 27.296875 47.015625 25.046875 47.015625 
Q 19.09375 47.015625 16.25 45.203125 
Q 13.421875 43.40625 13.421875 39.75 
Q 13.421875 37.59375 14.46875 36.203125 
Q 15.53125 34.8125 17.40625 33.859375 
Q 19.28125 32.90625 21.921875 32.203125 
Q 24.5625 31.5 27.734375 30.71875 
Q 29.828125 30.171875 32.03125 29.5625 
Q 34.234375 28.953125 36.296875 28.09375 
Q 38.375 27.25 40.203125 26.09375 
Q 42.046875 24.953125 43.40625 23.34375 
Q 44.78125 21.734375 45.578125 19.578125 
Q 46.390625 17.4375 46.390625 14.59375 
" id="LiberationSans-73"/>
       <path d="M 6.6875 64.0625 
L 6.6875 72.46875 
L 15.484375 72.46875 
L 15.484375 64.0625 
z
M 6.6875 0 
L 6.6875 52.828125 
L 15.484375 52.828125 
L 15.484375 0 
z
" id="LiberationSans-69"/>
       <path d="M -1.515625 -19.875 
L -1.515625 -13.53125 
L 56.734375 -13.53125 
L 56.734375 -19.875 
z
" id="LiberationSans-5f"/>
       <path d="M 51.421875 26.65625 
Q 51.421875 20.65625 50.4375 15.578125 
Q 49.46875 10.5 47.1875 6.828125 
Q 44.921875 3.171875 41.1875 1.09375 
Q 37.453125 -0.984375 31.984375 -0.984375 
Q 26.3125 -0.984375 22.0625 1.171875 
Q 17.828125 3.328125 15.578125 8.203125 
L 15.328125 8.203125 
Q 15.375 8.109375 15.40625 7.328125 
Q 15.4375 6.546875 15.453125 5.375 
Q 15.484375 4.203125 15.5 2.75 
Q 15.53125 1.3125 15.53125 -0.09375 
L 15.53125 -20.75 
L 6.734375 -20.75 
L 6.734375 42.046875 
Q 6.734375 43.953125 6.703125 45.703125 
Q 6.6875 47.46875 6.640625 48.90625 
Q 6.59375 50.34375 6.546875 51.359375 
Q 6.5 52.390625 6.453125 52.828125 
L 14.9375 52.828125 
Q 14.984375 52.6875 15.0625 51.796875 
Q 15.140625 50.921875 15.203125 49.671875 
Q 15.28125 48.4375 15.359375 47.015625 
Q 15.4375 45.609375 15.4375 44.34375 
L 15.625 44.34375 
Q 16.84375 46.875 18.40625 48.65625 
Q 19.96875 50.4375 21.96875 51.578125 
Q 23.96875 52.734375 26.4375 53.25 
Q 28.90625 53.765625 31.984375 53.765625 
Q 37.453125 53.765625 41.1875 51.8125 
Q 44.921875 49.859375 47.1875 46.3125 
Q 49.46875 42.78125 50.4375 37.765625 
Q 51.421875 32.765625 51.421875 26.65625 
M 42.1875 26.46875 
Q 42.1875 31.34375 41.59375 35.15625 
Q 41.015625 38.96875 39.578125 41.59375 
Q 38.140625 44.234375 35.734375 45.59375 
Q 33.34375 46.96875 29.734375 46.96875 
Q 26.8125 46.96875 24.21875 46.140625 
Q 21.625 45.3125 19.703125 42.96875 
Q 17.78125 40.625 16.65625 36.5 
Q 15.53125 32.375 15.53125 25.78125 
Q 15.53125 20.171875 16.453125 16.28125 
Q 17.390625 12.40625 19.171875 10.015625 
Q 20.953125 7.625 23.578125 6.5625 
Q 26.21875 5.515625 29.640625 5.515625 
Q 33.296875 5.515625 35.71875 6.921875 
Q 38.140625 8.34375 39.578125 11.03125 
Q 41.015625 13.71875 41.59375 17.59375 
Q 42.1875 21.484375 42.1875 26.46875 
" id="LiberationSans-70"/>
       <path d="M 13.421875 26.65625 
Q 13.421875 22.125 14.078125 18.3125 
Q 14.75 14.5 16.3125 11.734375 
Q 17.875 8.984375 20.4375 7.46875 
Q 23 5.953125 26.765625 5.953125 
Q 31.453125 5.953125 34.59375 8.484375 
Q 37.75 11.03125 38.484375 16.3125 
L 47.359375 15.71875 
Q 46.921875 12.453125 45.453125 9.421875 
Q 44 6.390625 41.484375 4.09375 
Q 38.96875 1.8125 35.34375 0.40625 
Q 31.734375 -0.984375 27 -0.984375 
Q 20.796875 -0.984375 16.453125 1.109375 
Q 12.109375 3.21875 9.390625 6.90625 
Q 6.6875 10.59375 5.46875 15.59375 
Q 4.25 20.609375 4.25 26.46875 
Q 4.25 31.78125 5.125 35.859375 
Q 6 39.9375 7.59375 42.984375 
Q 9.1875 46.046875 11.328125 48.125 
Q 13.484375 50.203125 15.984375 51.4375 
Q 18.5 52.6875 21.28125 53.25 
Q 24.078125 53.8125 26.90625 53.8125 
Q 31.34375 53.8125 34.8125 52.59375 
Q 38.28125 51.375 40.796875 49.25 
Q 43.3125 47.125 44.875 44.234375 
Q 46.4375 41.359375 47.078125 38.03125 
L 38.03125 37.359375 
Q 37.359375 41.75 34.5625 44.328125 
Q 31.78125 46.921875 26.65625 46.921875 
Q 22.90625 46.921875 20.390625 45.671875 
Q 17.875 44.4375 16.3125 41.921875 
Q 14.75 39.40625 14.078125 35.59375 
Q 13.421875 31.78125 13.421875 26.65625 
" id="LiberationSans-63"/>
       <path d="M 15.484375 43.796875 
Q 16.9375 46.484375 18.640625 48.359375 
Q 20.359375 50.25 22.40625 51.46875 
Q 24.46875 52.6875 26.90625 53.25 
Q 29.34375 53.8125 32.375 53.8125 
Q 37.453125 53.8125 40.703125 52.4375 
Q 43.953125 51.078125 45.828125 48.609375 
Q 47.703125 46.140625 48.40625 42.71875 
Q 49.125 39.3125 49.125 35.203125 
L 49.125 0 
L 40.28125 0 
L 40.28125 33.5 
Q 40.28125 36.859375 39.859375 39.390625 
Q 39.453125 41.9375 38.28125 43.625 
Q 37.109375 45.3125 34.953125 46.15625 
Q 32.8125 47.015625 29.390625 47.015625 
Q 26.265625 47.015625 23.75 45.890625 
Q 21.234375 44.78125 19.453125 42.71875 
Q 17.671875 40.671875 16.6875 37.734375 
Q 15.71875 34.8125 15.71875 31.15625 
L 15.71875 0 
L 6.9375 0 
L 6.9375 72.46875 
L 15.71875 72.46875 
L 15.71875 53.609375 
Q 15.71875 52 15.671875 50.390625 
Q 15.625 48.78125 15.546875 47.40625 
Q 15.484375 46.046875 15.421875 45.09375 
Q 15.375 44.140625 15.328125 43.796875 
z
" id="LiberationSans-68"/>
       <path d="M 15.328125 52.828125 
L 15.328125 19.34375 
Q 15.328125 15.484375 15.890625 12.890625 
Q 16.453125 10.296875 17.71875 8.703125 
Q 19 7.125 21.0625 6.46875 
Q 23.140625 5.8125 26.21875 5.8125 
Q 29.34375 5.8125 31.859375 6.90625 
Q 34.375 8.015625 36.15625 10.078125 
Q 37.9375 12.15625 38.90625 15.203125 
Q 39.890625 18.265625 39.890625 22.21875 
L 39.890625 52.828125 
L 48.6875 52.828125 
L 48.6875 11.28125 
Q 48.6875 9.625 48.703125 7.78125 
Q 48.734375 5.953125 48.78125 4.3125 
Q 48.828125 2.6875 48.875 1.515625 
Q 48.921875 0.34375 48.96875 0 
L 40.671875 0 
Q 40.625 0.25 40.578125 1.3125 
Q 40.53125 2.390625 40.453125 3.78125 
Q 40.375 5.171875 40.328125 6.609375 
Q 40.28125 8.0625 40.28125 9.03125 
L 40.140625 9.03125 
Q 38.875 6.734375 37.359375 4.875 
Q 35.84375 3.03125 33.84375 1.734375 
Q 31.84375 0.4375 29.25 -0.265625 
Q 26.65625 -0.984375 23.25 -0.984375 
Q 18.84375 -0.984375 15.671875 0.09375 
Q 12.5 1.171875 10.453125 3.421875 
Q 8.40625 5.671875 7.453125 9.1875 
Q 6.5 12.703125 6.5 17.625 
L 6.5 52.828125 
z
" id="LiberationSans-75"/>
       <path d="M 37.5 0 
L 37.5 33.5 
Q 37.5 37.359375 37.015625 39.9375 
Q 36.53125 42.53125 35.375 44.109375 
Q 34.234375 45.703125 32.375 46.359375 
Q 30.515625 47.015625 27.828125 47.015625 
Q 25.046875 47.015625 22.796875 45.921875 
Q 20.5625 44.828125 18.96875 42.75 
Q 17.390625 40.671875 16.53125 37.625 
Q 15.671875 34.578125 15.671875 30.609375 
L 15.671875 0 
L 6.9375 0 
L 6.9375 41.546875 
Q 6.9375 43.21875 6.90625 45.046875 
Q 6.890625 46.875 6.828125 48.5 
Q 6.78125 50.140625 6.734375 51.3125 
Q 6.6875 52.484375 6.640625 52.828125 
L 14.9375 52.828125 
Q 14.984375 52.59375 15.03125 51.515625 
Q 15.09375 50.4375 15.15625 49.046875 
Q 15.234375 47.65625 15.28125 46.21875 
Q 15.328125 44.78125 15.328125 43.796875 
L 15.484375 43.796875 
Q 16.65625 46.09375 18.015625 47.953125 
Q 19.390625 49.8125 21.21875 51.09375 
Q 23.046875 52.390625 25.40625 53.09375 
Q 27.78125 53.8125 30.90625 53.8125 
Q 36.921875 53.8125 40.40625 51.421875 
Q 43.890625 49.03125 45.265625 43.796875 
L 45.40625 43.796875 
Q 46.578125 46.09375 48.046875 47.953125 
Q 49.515625 49.8125 51.46875 51.09375 
Q 53.421875 52.390625 55.859375 53.09375 
Q 58.296875 53.8125 61.421875 53.8125 
Q 65.4375 53.8125 68.328125 52.734375 
Q 71.234375 51.65625 73.09375 49.40625 
Q 74.953125 47.171875 75.828125 43.625 
Q 76.703125 40.09375 76.703125 35.203125 
L 76.703125 0 
L 68.015625 0 
L 68.015625 33.5 
Q 68.015625 37.359375 67.53125 39.9375 
Q 67.046875 42.53125 65.890625 44.109375 
Q 64.75 45.703125 62.890625 46.359375 
Q 61.03125 47.015625 58.34375 47.015625 
Q 55.5625 47.015625 53.3125 45.96875 
Q 51.078125 44.921875 49.484375 42.875 
Q 47.90625 40.828125 47.046875 37.75 
Q 46.1875 34.671875 46.1875 30.609375 
L 46.1875 0 
z
" id="LiberationSans-6d"/>
       <path d="M 40.09375 8.5 
Q 37.640625 3.421875 33.609375 1.21875 
Q 29.59375 -0.984375 23.640625 -0.984375 
Q 13.625 -0.984375 8.90625 5.75 
Q 4.203125 12.5 4.203125 26.171875 
Q 4.203125 53.8125 23.640625 53.8125 
Q 29.640625 53.8125 33.640625 51.609375 
Q 37.640625 49.421875 40.09375 44.625 
L 40.1875 44.625 
Q 40.1875 45.125 40.15625 46.171875 
Q 40.140625 47.21875 40.109375 48.359375 
Q 40.09375 49.515625 40.09375 50.53125 
Q 40.09375 51.5625 40.09375 52 
L 40.09375 72.46875 
L 48.875 72.46875 
L 48.875 10.890625 
Q 48.875 8.984375 48.890625 7.21875 
Q 48.921875 5.46875 48.96875 4 
Q 49.03125 2.546875 49.078125 1.484375 
Q 49.125 0.4375 49.171875 0 
L 40.765625 0 
Q 40.671875 0.484375 40.59375 1.390625 
Q 40.53125 2.296875 40.453125 3.46875 
Q 40.375 4.640625 40.328125 5.9375 
Q 40.28125 7.234375 40.28125 8.5 
z
M 13.421875 26.46875 
Q 13.421875 21 14.109375 17.09375 
Q 14.796875 13.1875 16.3125 10.671875 
Q 17.828125 8.15625 20.171875 6.984375 
Q 22.515625 5.8125 25.875 5.8125 
Q 29.34375 5.8125 32 6.9375 
Q 34.671875 8.0625 36.453125 10.578125 
Q 38.234375 13.09375 39.15625 17.140625 
Q 40.09375 21.1875 40.09375 27.046875 
Q 40.09375 32.671875 39.15625 36.546875 
Q 38.234375 40.4375 36.421875 42.828125 
Q 34.625 45.21875 32 46.265625 
Q 29.390625 47.3125 25.984375 47.3125 
Q 22.75 47.3125 20.40625 46.1875 
Q 18.0625 45.0625 16.5 42.578125 
Q 14.9375 40.09375 14.171875 36.109375 
Q 13.421875 32.125 13.421875 26.46875 
" id="LiberationSans-64"/>
       <path d="M 27.046875 0.390625 
Q 25.046875 -0.140625 22.96875 -0.453125 
Q 20.90625 -0.78125 18.171875 -0.78125 
Q 7.625 -0.78125 7.625 11.1875 
L 7.625 46.4375 
L 1.515625 46.4375 
L 1.515625 52.828125 
L 7.953125 52.828125 
L 10.546875 64.65625 
L 16.40625 64.65625 
L 16.40625 52.828125 
L 26.171875 52.828125 
L 26.171875 46.4375 
L 16.40625 46.4375 
L 16.40625 13.09375 
Q 16.40625 9.28125 17.640625 7.734375 
Q 18.890625 6.203125 21.96875 6.203125 
Q 23.25 6.203125 24.4375 6.390625 
Q 25.640625 6.59375 27.046875 6.890625 
z
" id="LiberationSans-74"/>
       <path d="M 26.765625 -20.75 
Q 22.21875 -20.75 18.703125 -19.8125 
Q 15.1875 -18.890625 12.6875 -17.15625 
Q 10.203125 -15.4375 8.640625 -13.03125 
Q 7.078125 -10.640625 6.390625 -7.71875 
L 15.234375 -6.453125 
Q 16.109375 -10.109375 19.109375 -12.078125 
Q 22.125 -14.0625 27 -14.0625 
Q 29.984375 -14.0625 32.421875 -13.234375 
Q 34.859375 -12.40625 36.5625 -10.5625 
Q 38.28125 -8.734375 39.203125 -5.796875 
Q 40.140625 -2.875 40.140625 1.3125 
L 40.140625 9.8125 
L 40.046875 9.8125 
Q 39.0625 7.8125 37.625 5.984375 
Q 36.1875 4.15625 34.109375 2.734375 
Q 32.03125 1.3125 29.296875 0.453125 
Q 26.5625 -0.390625 23.046875 -0.390625 
Q 18.015625 -0.390625 14.421875 1.296875 
Q 10.84375 2.984375 8.5625 6.34375 
Q 6.296875 9.71875 5.25 14.71875 
Q 4.203125 19.734375 4.203125 26.3125 
Q 4.203125 32.671875 5.25 37.75 
Q 6.296875 42.828125 8.65625 46.359375 
Q 11.03125 49.90625 14.8125 51.78125 
Q 18.609375 53.65625 24.03125 53.65625 
Q 29.640625 53.65625 33.765625 51.09375 
Q 37.890625 48.53125 40.140625 43.796875 
L 40.234375 43.796875 
Q 40.234375 45.015625 40.296875 46.53125 
Q 40.375 48.046875 40.453125 49.390625 
Q 40.53125 50.734375 40.625 51.703125 
Q 40.71875 52.6875 40.828125 52.828125 
L 49.171875 52.828125 
Q 49.125 52.390625 49.078125 51.34375 
Q 49.03125 50.296875 48.96875 48.828125 
Q 48.921875 47.359375 48.890625 45.578125 
Q 48.875 43.796875 48.875 41.890625 
L 48.875 1.515625 
Q 48.875 -9.578125 43.421875 -15.15625 
Q 37.984375 -20.75 26.765625 -20.75 
M 40.140625 26.421875 
Q 40.140625 31.9375 38.9375 35.859375 
Q 37.75 39.796875 35.796875 42.28125 
Q 33.84375 44.78125 31.328125 45.953125 
Q 28.8125 47.125 26.171875 47.125 
Q 22.796875 47.125 20.375 45.953125 
Q 17.96875 44.78125 16.375 42.265625 
Q 14.796875 39.75 14.03125 35.8125 
Q 13.28125 31.890625 13.28125 26.421875 
Q 13.28125 20.703125 14.03125 16.8125 
Q 14.796875 12.9375 16.359375 10.546875 
Q 17.921875 8.15625 20.3125 7.125 
Q 22.703125 6.109375 26.03125 6.109375 
Q 28.65625 6.109375 31.171875 7.21875 
Q 33.6875 8.34375 35.6875 10.78125 
Q 37.703125 13.234375 38.921875 17.09375 
Q 40.140625 20.953125 40.140625 26.421875 
" id="LiberationSans-67"/>
      </defs>
      <g style="fill:#262626;" transform="translate(7.2 290.324297)scale(0.125 -0.125)">
       <use xlink:href="#LiberationSans-72"/>
       <use x="33.300781" xlink:href="#LiberationSans-65"/>
       <use x="88.916016" xlink:href="#LiberationSans-61"/>
       <use x="144.53125" xlink:href="#LiberationSans-6e"/>
       <use x="200.146484" xlink:href="#LiberationSans-61"/>
       <use x="255.761719" xlink:href="#LiberationSans-6c"/>
       <use x="277.978516" xlink:href="#LiberationSans-79"/>
       <use x="327.978516" xlink:href="#LiberationSans-73"/>
       <use x="377.978516" xlink:href="#LiberationSans-69"/>
       <use x="400.195312" xlink:href="#LiberationSans-73"/>
       <use x="450.195312" xlink:href="#LiberationSans-5f"/>
       <use x="505.810547" xlink:href="#LiberationSans-73"/>
       <use x="555.810547" xlink:href="#LiberationSans-70"/>
       <use x="611.425781" xlink:href="#LiberationSans-65"/>
       <use x="667.041016" xlink:href="#LiberationSans-63"/>
       <use x="717.041016" xlink:href="#LiberationSans-69"/>
       <use x="739.257812" xlink:href="#LiberationSans-66"/>
       <use x="767.041016" xlink:href="#LiberationSans-69"/>
       <use x="789.257812" xlink:href="#LiberationSans-63"/>
       <use x="839.257812" xlink:href="#LiberationSans-5f"/>
       <use x="894.873047" xlink:href="#LiberationSans-68"/>
       <use x="950.488281" xlink:href="#LiberationSans-75"/>
       <use x="1006.103516" xlink:href="#LiberationSans-6d"/>
       <use x="1089.404297" xlink:href="#LiberationSans-69"/>
       <use x="1111.621094" xlink:href="#LiberationSans-64"/>
       <use x="1167.236328" xlink:href="#LiberationSans-69"/>
       <use x="1189.453125" xlink:href="#LiberationSans-74"/>
       <use x="1217.236328" xlink:href="#LiberationSans-79"/>
       <use x="1267.236328" xlink:href="#LiberationSans-5f"/>
       <use x="1322.851562" xlink:href="#LiberationSans-67"/>
       <use x="1378.466797" xlink:href="#LiberationSans-5f"/>
       <use x="1434.082031" xlink:href="#LiberationSans-70"/>
       <use x="1489.697266" xlink:href="#LiberationSans-65"/>
       <use x="1545.3125" xlink:href="#LiberationSans-72"/>
       <use x="1578.613281" xlink:href="#LiberationSans-5f"/>
       <use x="1634.228516" xlink:href="#LiberationSans-6b"/>
       <use x="1684.228516" xlink:href="#LiberationSans-67"/>
      </g>
     </g>
    </g>
    <g id="ytick_3">
     <g id="line2d_17">
      <path clip-path="url(#pcc0d0dfca0)" d="M 231.666797 272.205 
L 678.066797 272.205 
" style="fill:none;stroke:#ffffff;stroke-linecap:round;"/>
     </g>
     <g id="line2d_18"/>
     <g id="text_9">
      <!-- reanalysis_dew_point_temp_k -->
      <g style="fill:#262626;" transform="translate(56.520312 276.734297)scale(0.125 -0.125)">
       <use xlink:href="#LiberationSans-72"/>
       <use x="33.300781" xlink:href="#LiberationSans-65"/>
       <use x="88.916016" xlink:href="#LiberationSans-61"/>
       <use x="144.53125" xlink:href="#LiberationSans-6e"/>
       <use x="200.146484" xlink:href="#LiberationSans-61"/>
       <use x="255.761719" xlink:href="#LiberationSans-6c"/>
       <use x="277.978516" xlink:href="#LiberationSans-79"/>
       <use x="327.978516" xlink:href="#LiberationSans-73"/>
       <use x="377.978516" xlink:href="#LiberationSans-69"/>
       <use x="400.195312" xlink:href="#LiberationSans-73"/>
       <use x="450.195312" xlink:href="#LiberationSans-5f"/>
       <use x="505.810547" xlink:href="#LiberationSans-64"/>
       <use x="561.425781" xlink:href="#LiberationSans-65"/>
       <use x="617.041016" xlink:href="#LiberationSans-77"/>
       <use x="689.257812" xlink:href="#LiberationSans-5f"/>
       <use x="744.873047" xlink:href="#LiberationSans-70"/>
       <use x="800.488281" xlink:href="#LiberationSans-6f"/>
       <use x="856.103516" xlink:href="#LiberationSans-69"/>
       <use x="878.320312" xlink:href="#LiberationSans-6e"/>
       <use x="933.935547" xlink:href="#LiberationSans-74"/>
       <use x="961.71875" xlink:href="#LiberationSans-5f"/>
       <use x="1017.333984" xlink:href="#LiberationSans-74"/>
       <use x="1045.117188" xlink:href="#LiberationSans-65"/>
       <use x="1100.732422" xlink:href="#LiberationSans-6d"/>
       <use x="1184.033203" xlink:href="#LiberationSans-70"/>
       <use x="1239.648438" xlink:href="#LiberationSans-5f"/>
       <use x="1295.263672" xlink:href="#LiberationSans-6b"/>
      </g>
     </g>
    </g>
    <g id="ytick_4">
     <g id="line2d_19">
      <path clip-path="url(#pcc0d0dfca0)" d="M 231.666797 258.615 
L 678.066797 258.615 
" style="fill:none;stroke:#ffffff;stroke-linecap:round;"/>
     </g>
     <g id="line2d_20"/>
     <g id="text_10">
      <!-- station_avg_temp_c -->
      <defs>
       <path d="M 29.9375 0 
L 19.53125 0 
L 0.34375 52.828125 
L 9.71875 52.828125 
L 21.34375 18.453125 
Q 21.6875 17.390625 22.140625 15.84375 
Q 22.609375 14.3125 23.09375 12.640625 
Q 23.578125 10.984375 24 9.4375 
Q 24.421875 7.90625 24.703125 6.890625 
Q 25 7.90625 25.453125 9.4375 
Q 25.921875 10.984375 26.40625 12.59375 
Q 26.90625 14.203125 27.421875 15.734375 
Q 27.9375 17.28125 28.328125 18.359375 
L 40.328125 52.828125 
L 49.65625 52.828125 
z
" id="LiberationSans-76"/>
      </defs>
      <g style="fill:#262626;" transform="translate(112.797656 263.144297)scale(0.125 -0.125)">
       <use xlink:href="#LiberationSans-73"/>
       <use x="50" xlink:href="#LiberationSans-74"/>
       <use x="77.783203" xlink:href="#LiberationSans-61"/>
       <use x="133.398438" xlink:href="#LiberationSans-74"/>
       <use x="161.181641" xlink:href="#LiberationSans-69"/>
       <use x="183.398438" xlink:href="#LiberationSans-6f"/>
       <use x="239.013672" xlink:href="#LiberationSans-6e"/>
       <use x="294.628906" xlink:href="#LiberationSans-5f"/>
       <use x="350.244141" xlink:href="#LiberationSans-61"/>
       <use x="405.859375" xlink:href="#LiberationSans-76"/>
       <use x="455.859375" xlink:href="#LiberationSans-67"/>
       <use x="511.474609" xlink:href="#LiberationSans-5f"/>
       <use x="567.089844" xlink:href="#LiberationSans-74"/>
       <use x="594.873047" xlink:href="#LiberationSans-65"/>
       <use x="650.488281" xlink:href="#LiberationSans-6d"/>
       <use x="733.789062" xlink:href="#LiberationSans-70"/>
       <use x="789.404297" xlink:href="#LiberationSans-5f"/>
       <use x="845.019531" xlink:href="#LiberationSans-63"/>
      </g>
     </g>
    </g>
    <g id="ytick_5">
     <g id="line2d_21">
      <path clip-path="url(#pcc0d0dfca0)" d="M 231.666797 245.025 
L 678.066797 245.025 
" style="fill:none;stroke:#ffffff;stroke-linecap:round;"/>
     </g>
     <g id="line2d_22"/>
     <g id="text_11">
      <!-- reanalysis_max_air_temp_k -->
      <defs>
       <path d="M 39.109375 0 
L 24.90625 21.6875 
L 10.59375 0 
L 1.125 0 
L 19.921875 27.15625 
L 2 52.828125 
L 11.71875 52.828125 
L 24.90625 32.28125 
L 37.984375 52.828125 
L 47.796875 52.828125 
L 29.890625 27.25 
L 48.921875 0 
z
" id="LiberationSans-78"/>
      </defs>
      <g style="fill:#262626;" transform="translate(69.049609 249.554297)scale(0.125 -0.125)">
       <use xlink:href="#LiberationSans-72"/>
       <use x="33.300781" xlink:href="#LiberationSans-65"/>
       <use x="88.916016" xlink:href="#LiberationSans-61"/>
       <use x="144.53125" xlink:href="#LiberationSans-6e"/>
       <use x="200.146484" xlink:href="#LiberationSans-61"/>
       <use x="255.761719" xlink:href="#LiberationSans-6c"/>
       <use x="277.978516" xlink:href="#LiberationSans-79"/>
       <use x="327.978516" xlink:href="#LiberationSans-73"/>
       <use x="377.978516" xlink:href="#LiberationSans-69"/>
       <use x="400.195312" xlink:href="#LiberationSans-73"/>
       <use x="450.195312" xlink:href="#LiberationSans-5f"/>
       <use x="505.810547" xlink:href="#LiberationSans-6d"/>
       <use x="589.111328" xlink:href="#LiberationSans-61"/>
       <use x="644.726562" xlink:href="#LiberationSans-78"/>
       <use x="694.726562" xlink:href="#LiberationSans-5f"/>
       <use x="750.341797" xlink:href="#LiberationSans-61"/>
       <use x="805.957031" xlink:href="#LiberationSans-69"/>
       <use x="828.173828" xlink:href="#LiberationSans-72"/>
       <use x="861.474609" xlink:href="#LiberationSans-5f"/>
       <use x="917.089844" xlink:href="#LiberationSans-74"/>
       <use x="944.873047" xlink:href="#LiberationSans-65"/>
       <use x="1000.488281" xlink:href="#LiberationSans-6d"/>
       <use x="1083.789062" xlink:href="#LiberationSans-70"/>
       <use x="1139.404297" xlink:href="#LiberationSans-5f"/>
       <use x="1195.019531" xlink:href="#LiberationSans-6b"/>
      </g>
     </g>
    </g>
    <g id="ytick_6">
     <g id="line2d_23">
      <path clip-path="url(#pcc0d0dfca0)" d="M 231.666797 231.435 
L 678.066797 231.435 
" style="fill:none;stroke:#ffffff;stroke-linecap:round;"/>
     </g>
     <g id="line2d_24"/>
     <g id="text_12">
      <!-- station_max_temp_c -->
      <g style="fill:#262626;" transform="translate(109.336719 235.964297)scale(0.125 -0.125)">
       <use xlink:href="#LiberationSans-73"/>
       <use x="50" xlink:href="#LiberationSans-74"/>
       <use x="77.783203" xlink:href="#LiberationSans-61"/>
       <use x="133.398438" xlink:href="#LiberationSans-74"/>
       <use x="161.181641" xlink:href="#LiberationSans-69"/>
       <use x="183.398438" xlink:href="#LiberationSans-6f"/>
       <use x="239.013672" xlink:href="#LiberationSans-6e"/>
       <use x="294.628906" xlink:href="#LiberationSans-5f"/>
       <use x="350.244141" xlink:href="#LiberationSans-6d"/>
       <use x="433.544922" xlink:href="#LiberationSans-61"/>
       <use x="489.160156" xlink:href="#LiberationSans-78"/>
       <use x="539.160156" xlink:href="#LiberationSans-5f"/>
       <use x="594.775391" xlink:href="#LiberationSans-74"/>
       <use x="622.558594" xlink:href="#LiberationSans-65"/>
       <use x="678.173828" xlink:href="#LiberationSans-6d"/>
       <use x="761.474609" xlink:href="#LiberationSans-70"/>
       <use x="817.089844" xlink:href="#LiberationSans-5f"/>
       <use x="872.705078" xlink:href="#LiberationSans-63"/>
      </g>
     </g>
    </g>
    <g id="ytick_7">
     <g id="line2d_25">
      <path clip-path="url(#pcc0d0dfca0)" d="M 231.666797 217.845 
L 678.066797 217.845 
" style="fill:none;stroke:#ffffff;stroke-linecap:round;"/>
     </g>
     <g id="line2d_26"/>
     <g id="text_13">
      <!-- reanalysis_min_air_temp_k -->
      <g style="fill:#262626;" transform="translate(72.522266 222.374297)scale(0.125 -0.125)">
       <use xlink:href="#LiberationSans-72"/>
       <use x="33.300781" xlink:href="#LiberationSans-65"/>
       <use x="88.916016" xlink:href="#LiberationSans-61"/>
       <use x="144.53125" xlink:href="#LiberationSans-6e"/>
       <use x="200.146484" xlink:href="#LiberationSans-61"/>
       <use x="255.761719" xlink:href="#LiberationSans-6c"/>
       <use x="277.978516" xlink:href="#LiberationSans-79"/>
       <use x="327.978516" xlink:href="#LiberationSans-73"/>
       <use x="377.978516" xlink:href="#LiberationSans-69"/>
       <use x="400.195312" xlink:href="#LiberationSans-73"/>
       <use x="450.195312" xlink:href="#LiberationSans-5f"/>
       <use x="505.810547" xlink:href="#LiberationSans-6d"/>
       <use x="589.111328" xlink:href="#LiberationSans-69"/>
       <use x="611.328125" xlink:href="#LiberationSans-6e"/>
       <use x="666.943359" xlink:href="#LiberationSans-5f"/>
       <use x="722.558594" xlink:href="#LiberationSans-61"/>
       <use x="778.173828" xlink:href="#LiberationSans-69"/>
       <use x="800.390625" xlink:href="#LiberationSans-72"/>
       <use x="833.691406" xlink:href="#LiberationSans-5f"/>
       <use x="889.306641" xlink:href="#LiberationSans-74"/>
       <use x="917.089844" xlink:href="#LiberationSans-65"/>
       <use x="972.705078" xlink:href="#LiberationSans-6d"/>
       <use x="1056.005859" xlink:href="#LiberationSans-70"/>
       <use x="1111.621094" xlink:href="#LiberationSans-5f"/>
       <use x="1167.236328" xlink:href="#LiberationSans-6b"/>
      </g>
     </g>
    </g>
    <g id="ytick_8">
     <g id="line2d_27">
      <path clip-path="url(#pcc0d0dfca0)" d="M 231.666797 204.255 
L 678.066797 204.255 
" style="fill:none;stroke:#ffffff;stroke-linecap:round;"/>
     </g>
     <g id="line2d_28"/>
     <g id="text_14">
      <!-- reanalysis_air_temp_k -->
      <g style="fill:#262626;" transform="translate(99.614062 208.784297)scale(0.125 -0.125)">
       <use xlink:href="#LiberationSans-72"/>
       <use x="33.300781" xlink:href="#LiberationSans-65"/>
       <use x="88.916016" xlink:href="#LiberationSans-61"/>
       <use x="144.53125" xlink:href="#LiberationSans-6e"/>
       <use x="200.146484" xlink:href="#LiberationSans-61"/>
       <use x="255.761719" xlink:href="#LiberationSans-6c"/>
       <use x="277.978516" xlink:href="#LiberationSans-79"/>
       <use x="327.978516" xlink:href="#LiberationSans-73"/>
       <use x="377.978516" xlink:href="#LiberationSans-69"/>
       <use x="400.195312" xlink:href="#LiberationSans-73"/>
       <use x="450.195312" xlink:href="#LiberationSans-5f"/>
       <use x="505.810547" xlink:href="#LiberationSans-61"/>
       <use x="561.425781" xlink:href="#LiberationSans-69"/>
       <use x="583.642578" xlink:href="#LiberationSans-72"/>
       <use x="616.943359" xlink:href="#LiberationSans-5f"/>
       <use x="672.558594" xlink:href="#LiberationSans-74"/>
       <use x="700.341797" xlink:href="#LiberationSans-65"/>
       <use x="755.957031" xlink:href="#LiberationSans-6d"/>
       <use x="839.257812" xlink:href="#LiberationSans-70"/>
       <use x="894.873047" xlink:href="#LiberationSans-5f"/>
       <use x="950.488281" xlink:href="#LiberationSans-6b"/>
      </g>
     </g>
    </g>
    <g id="ytick_9">
     <g id="line2d_29">
      <path clip-path="url(#pcc0d0dfca0)" d="M 231.666797 190.665 
L 678.066797 190.665 
" style="fill:none;stroke:#ffffff;stroke-linecap:round;"/>
     </g>
     <g id="line2d_30"/>
     <g id="text_15">
      <!-- station_min_temp_c -->
      <g style="fill:#262626;" transform="translate(112.809375 195.194297)scale(0.125 -0.125)">
       <use xlink:href="#LiberationSans-73"/>
       <use x="50" xlink:href="#LiberationSans-74"/>
       <use x="77.783203" xlink:href="#LiberationSans-61"/>
       <use x="133.398438" xlink:href="#LiberationSans-74"/>
       <use x="161.181641" xlink:href="#LiberationSans-69"/>
       <use x="183.398438" xlink:href="#LiberationSans-6f"/>
       <use x="239.013672" xlink:href="#LiberationSans-6e"/>
       <use x="294.628906" xlink:href="#LiberationSans-5f"/>
       <use x="350.244141" xlink:href="#LiberationSans-6d"/>
       <use x="433.544922" xlink:href="#LiberationSans-69"/>
       <use x="455.761719" xlink:href="#LiberationSans-6e"/>
       <use x="511.376953" xlink:href="#LiberationSans-5f"/>
       <use x="566.992188" xlink:href="#LiberationSans-74"/>
       <use x="594.775391" xlink:href="#LiberationSans-65"/>
       <use x="650.390625" xlink:href="#LiberationSans-6d"/>
       <use x="733.691406" xlink:href="#LiberationSans-70"/>
       <use x="789.306641" xlink:href="#LiberationSans-5f"/>
       <use x="844.921875" xlink:href="#LiberationSans-63"/>
      </g>
     </g>
    </g>
    <g id="ytick_10">
     <g id="line2d_31">
      <path clip-path="url(#pcc0d0dfca0)" d="M 231.666797 177.075 
L 678.066797 177.075 
" style="fill:none;stroke:#ffffff;stroke-linecap:round;"/>
     </g>
     <g id="line2d_32"/>
     <g id="text_16">
      <!-- reanalysis_avg_temp_k -->
      <g style="fill:#262626;" transform="translate(93.352344 181.604297)scale(0.125 -0.125)">
       <use xlink:href="#LiberationSans-72"/>
       <use x="33.300781" xlink:href="#LiberationSans-65"/>
       <use x="88.916016" xlink:href="#LiberationSans-61"/>
       <use x="144.53125" xlink:href="#LiberationSans-6e"/>
       <use x="200.146484" xlink:href="#LiberationSans-61"/>
       <use x="255.761719" xlink:href="#LiberationSans-6c"/>
       <use x="277.978516" xlink:href="#LiberationSans-79"/>
       <use x="327.978516" xlink:href="#LiberationSans-73"/>
       <use x="377.978516" xlink:href="#LiberationSans-69"/>
       <use x="400.195312" xlink:href="#LiberationSans-73"/>
       <use x="450.195312" xlink:href="#LiberationSans-5f"/>
       <use x="505.810547" xlink:href="#LiberationSans-61"/>
       <use x="561.425781" xlink:href="#LiberationSans-76"/>
       <use x="611.425781" xlink:href="#LiberationSans-67"/>
       <use x="667.041016" xlink:href="#LiberationSans-5f"/>
       <use x="722.65625" xlink:href="#LiberationSans-74"/>
       <use x="750.439453" xlink:href="#LiberationSans-65"/>
       <use x="806.054688" xlink:href="#LiberationSans-6d"/>
       <use x="889.355469" xlink:href="#LiberationSans-70"/>
       <use x="944.970703" xlink:href="#LiberationSans-5f"/>
       <use x="1000.585938" xlink:href="#LiberationSans-6b"/>
      </g>
     </g>
    </g>
    <g id="ytick_11">
     <g id="line2d_33">
      <path clip-path="url(#pcc0d0dfca0)" d="M 231.666797 163.485 
L 678.066797 163.485 
" style="fill:none;stroke:#ffffff;stroke-linecap:round;"/>
     </g>
     <g id="line2d_34"/>
     <g id="text_17">
      <!-- reanalysis_relative_humidity_percent -->
      <g style="fill:#262626;" transform="translate(19.016406 168.014297)scale(0.125 -0.125)">
       <use xlink:href="#LiberationSans-72"/>
       <use x="33.300781" xlink:href="#LiberationSans-65"/>
       <use x="88.916016" xlink:href="#LiberationSans-61"/>
       <use x="144.53125" xlink:href="#LiberationSans-6e"/>
       <use x="200.146484" xlink:href="#LiberationSans-61"/>
       <use x="255.761719" xlink:href="#LiberationSans-6c"/>
       <use x="277.978516" xlink:href="#LiberationSans-79"/>
       <use x="327.978516" xlink:href="#LiberationSans-73"/>
       <use x="377.978516" xlink:href="#LiberationSans-69"/>
       <use x="400.195312" xlink:href="#LiberationSans-73"/>
       <use x="450.195312" xlink:href="#LiberationSans-5f"/>
       <use x="505.810547" xlink:href="#LiberationSans-72"/>
       <use x="539.111328" xlink:href="#LiberationSans-65"/>
       <use x="594.726562" xlink:href="#LiberationSans-6c"/>
       <use x="616.943359" xlink:href="#LiberationSans-61"/>
       <use x="672.558594" xlink:href="#LiberationSans-74"/>
       <use x="700.341797" xlink:href="#LiberationSans-69"/>
       <use x="722.558594" xlink:href="#LiberationSans-76"/>
       <use x="772.558594" xlink:href="#LiberationSans-65"/>
       <use x="828.173828" xlink:href="#LiberationSans-5f"/>
       <use x="883.789062" xlink:href="#LiberationSans-68"/>
       <use x="939.404297" xlink:href="#LiberationSans-75"/>
       <use x="995.019531" xlink:href="#LiberationSans-6d"/>
       <use x="1078.320312" xlink:href="#LiberationSans-69"/>
       <use x="1100.537109" xlink:href="#LiberationSans-64"/>
       <use x="1156.152344" xlink:href="#LiberationSans-69"/>
       <use x="1178.369141" xlink:href="#LiberationSans-74"/>
       <use x="1206.152344" xlink:href="#LiberationSans-79"/>
       <use x="1256.152344" xlink:href="#LiberationSans-5f"/>
       <use x="1311.767578" xlink:href="#LiberationSans-70"/>
       <use x="1367.382812" xlink:href="#LiberationSans-65"/>
       <use x="1422.998047" xlink:href="#LiberationSans-72"/>
       <use x="1456.298828" xlink:href="#LiberationSans-63"/>
       <use x="1506.298828" xlink:href="#LiberationSans-65"/>
       <use x="1561.914062" xlink:href="#LiberationSans-6e"/>
       <use x="1617.529297" xlink:href="#LiberationSans-74"/>
      </g>
     </g>
    </g>
    <g id="ytick_12">
     <g id="line2d_35">
      <path clip-path="url(#pcc0d0dfca0)" d="M 231.666797 149.895 
L 678.066797 149.895 
" style="fill:none;stroke:#ffffff;stroke-linecap:round;"/>
     </g>
     <g id="line2d_36"/>
     <g id="text_18">
      <!-- reanalysis_precip_amt_kg_per_m2 -->
      <g style="fill:#262626;" transform="translate(30.131641 154.424297)scale(0.125 -0.125)">
       <use xlink:href="#LiberationSans-72"/>
       <use x="33.300781" xlink:href="#LiberationSans-65"/>
       <use x="88.916016" xlink:href="#LiberationSans-61"/>
       <use x="144.53125" xlink:href="#LiberationSans-6e"/>
       <use x="200.146484" xlink:href="#LiberationSans-61"/>
       <use x="255.761719" xlink:href="#LiberationSans-6c"/>
       <use x="277.978516" xlink:href="#LiberationSans-79"/>
       <use x="327.978516" xlink:href="#LiberationSans-73"/>
       <use x="377.978516" xlink:href="#LiberationSans-69"/>
       <use x="400.195312" xlink:href="#LiberationSans-73"/>
       <use x="450.195312" xlink:href="#LiberationSans-5f"/>
       <use x="505.810547" xlink:href="#LiberationSans-70"/>
       <use x="561.425781" xlink:href="#LiberationSans-72"/>
       <use x="594.726562" xlink:href="#LiberationSans-65"/>
       <use x="650.341797" xlink:href="#LiberationSans-63"/>
       <use x="700.341797" xlink:href="#LiberationSans-69"/>
       <use x="722.558594" xlink:href="#LiberationSans-70"/>
       <use x="778.173828" xlink:href="#LiberationSans-5f"/>
       <use x="833.789062" xlink:href="#LiberationSans-61"/>
       <use x="889.404297" xlink:href="#LiberationSans-6d"/>
       <use x="972.705078" xlink:href="#LiberationSans-74"/>
       <use x="1000.488281" xlink:href="#LiberationSans-5f"/>
       <use x="1056.103516" xlink:href="#LiberationSans-6b"/>
       <use x="1106.103516" xlink:href="#LiberationSans-67"/>
       <use x="1161.71875" xlink:href="#LiberationSans-5f"/>
       <use x="1217.333984" xlink:href="#LiberationSans-70"/>
       <use x="1272.949219" xlink:href="#LiberationSans-65"/>
       <use x="1328.564453" xlink:href="#LiberationSans-72"/>
       <use x="1361.865234" xlink:href="#LiberationSans-5f"/>
       <use x="1417.480469" xlink:href="#LiberationSans-6d"/>
       <use x="1500.78125" xlink:href="#LiberationSans-32"/>
      </g>
     </g>
    </g>
    <g id="ytick_13">
     <g id="line2d_37">
      <path clip-path="url(#pcc0d0dfca0)" d="M 231.666797 136.305 
L 678.066797 136.305 
" style="fill:none;stroke:#ffffff;stroke-linecap:round;"/>
     </g>
     <g id="line2d_38"/>
     <g id="text_19">
      <!-- ndvi_ne -->
      <g style="fill:#262626;" transform="translate(180.883594 140.834297)scale(0.125 -0.125)">
       <use xlink:href="#LiberationSans-6e"/>
       <use x="55.615234" xlink:href="#LiberationSans-64"/>
       <use x="111.230469" xlink:href="#LiberationSans-76"/>
       <use x="161.230469" xlink:href="#LiberationSans-69"/>
       <use x="183.447266" xlink:href="#LiberationSans-5f"/>
       <use x="239.0625" xlink:href="#LiberationSans-6e"/>
       <use x="294.677734" xlink:href="#LiberationSans-65"/>
      </g>
     </g>
    </g>
    <g id="ytick_14">
     <g id="line2d_39">
      <path clip-path="url(#pcc0d0dfca0)" d="M 231.666797 122.715 
L 678.066797 122.715 
" style="fill:none;stroke:#ffffff;stroke-linecap:round;"/>
     </g>
     <g id="line2d_40"/>
     <g id="text_20">
      <!-- precipitation_amt_mm -->
      <g style="fill:#262626;" transform="translate(101.707812 127.244297)scale(0.125 -0.125)">
       <use xlink:href="#LiberationSans-70"/>
       <use x="55.615234" xlink:href="#LiberationSans-72"/>
       <use x="88.916016" xlink:href="#LiberationSans-65"/>
       <use x="144.53125" xlink:href="#LiberationSans-63"/>
       <use x="194.53125" xlink:href="#LiberationSans-69"/>
       <use x="216.748047" xlink:href="#LiberationSans-70"/>
       <use x="272.363281" xlink:href="#LiberationSans-69"/>
       <use x="294.580078" xlink:href="#LiberationSans-74"/>
       <use x="322.363281" xlink:href="#LiberationSans-61"/>
       <use x="377.978516" xlink:href="#LiberationSans-74"/>
       <use x="405.761719" xlink:href="#LiberationSans-69"/>
       <use x="427.978516" xlink:href="#LiberationSans-6f"/>
       <use x="483.59375" xlink:href="#LiberationSans-6e"/>
       <use x="539.208984" xlink:href="#LiberationSans-5f"/>
       <use x="594.824219" xlink:href="#LiberationSans-61"/>
       <use x="650.439453" xlink:href="#LiberationSans-6d"/>
       <use x="733.740234" xlink:href="#LiberationSans-74"/>
       <use x="761.523438" xlink:href="#LiberationSans-5f"/>
       <use x="817.138672" xlink:href="#LiberationSans-6d"/>
       <use x="900.439453" xlink:href="#LiberationSans-6d"/>
      </g>
     </g>
    </g>
    <g id="ytick_15">
     <g id="line2d_41">
      <path clip-path="url(#pcc0d0dfca0)" d="M 231.666797 109.125 
L 678.066797 109.125 
" style="fill:none;stroke:#ffffff;stroke-linecap:round;"/>
     </g>
     <g id="line2d_42"/>
     <g id="text_21">
      <!-- reanalysis_sat_precip_amt_mm -->
      <g style="fill:#262626;" transform="translate(48.213672 113.654297)scale(0.125 -0.125)">
       <use xlink:href="#LiberationSans-72"/>
       <use x="33.300781" xlink:href="#LiberationSans-65"/>
       <use x="88.916016" xlink:href="#LiberationSans-61"/>
       <use x="144.53125" xlink:href="#LiberationSans-6e"/>
       <use x="200.146484" xlink:href="#LiberationSans-61"/>
       <use x="255.761719" xlink:href="#LiberationSans-6c"/>
       <use x="277.978516" xlink:href="#LiberationSans-79"/>
       <use x="327.978516" xlink:href="#LiberationSans-73"/>
       <use x="377.978516" xlink:href="#LiberationSans-69"/>
       <use x="400.195312" xlink:href="#LiberationSans-73"/>
       <use x="450.195312" xlink:href="#LiberationSans-5f"/>
       <use x="505.810547" xlink:href="#LiberationSans-73"/>
       <use x="555.810547" xlink:href="#LiberationSans-61"/>
       <use x="611.425781" xlink:href="#LiberationSans-74"/>
       <use x="639.208984" xlink:href="#LiberationSans-5f"/>
       <use x="694.824219" xlink:href="#LiberationSans-70"/>
       <use x="750.439453" xlink:href="#LiberationSans-72"/>
       <use x="783.740234" xlink:href="#LiberationSans-65"/>
       <use x="839.355469" xlink:href="#LiberationSans-63"/>
       <use x="889.355469" xlink:href="#LiberationSans-69"/>
       <use x="911.572266" xlink:href="#LiberationSans-70"/>
       <use x="967.1875" xlink:href="#LiberationSans-5f"/>
       <use x="1022.802734" xlink:href="#LiberationSans-61"/>
       <use x="1078.417969" xlink:href="#LiberationSans-6d"/>
       <use x="1161.71875" xlink:href="#LiberationSans-74"/>
       <use x="1189.501953" xlink:href="#LiberationSans-5f"/>
       <use x="1245.117188" xlink:href="#LiberationSans-6d"/>
       <use x="1328.417969" xlink:href="#LiberationSans-6d"/>
      </g>
     </g>
    </g>
    <g id="ytick_16">
     <g id="line2d_43">
      <path clip-path="url(#pcc0d0dfca0)" d="M 231.666797 95.535 
L 678.066797 95.535 
" style="fill:none;stroke:#ffffff;stroke-linecap:round;"/>
     </g>
     <g id="line2d_44"/>
     <g id="text_22">
      <!-- station_precip_mm -->
      <g style="fill:#262626;" transform="translate(119.071094 100.064297)scale(0.125 -0.125)">
       <use xlink:href="#LiberationSans-73"/>
       <use x="50" xlink:href="#LiberationSans-74"/>
       <use x="77.783203" xlink:href="#LiberationSans-61"/>
       <use x="133.398438" xlink:href="#LiberationSans-74"/>
       <use x="161.181641" xlink:href="#LiberationSans-69"/>
       <use x="183.398438" xlink:href="#LiberationSans-6f"/>
       <use x="239.013672" xlink:href="#LiberationSans-6e"/>
       <use x="294.628906" xlink:href="#LiberationSans-5f"/>
       <use x="350.244141" xlink:href="#LiberationSans-70"/>
       <use x="405.859375" xlink:href="#LiberationSans-72"/>
       <use x="439.160156" xlink:href="#LiberationSans-65"/>
       <use x="494.775391" xlink:href="#LiberationSans-63"/>
       <use x="544.775391" xlink:href="#LiberationSans-69"/>
       <use x="566.992188" xlink:href="#LiberationSans-70"/>
       <use x="622.607422" xlink:href="#LiberationSans-5f"/>
       <use x="678.222656" xlink:href="#LiberationSans-6d"/>
       <use x="761.523438" xlink:href="#LiberationSans-6d"/>
      </g>
     </g>
    </g>
    <g id="ytick_17">
     <g id="line2d_45">
      <path clip-path="url(#pcc0d0dfca0)" d="M 231.666797 81.945 
L 678.066797 81.945 
" style="fill:none;stroke:#ffffff;stroke-linecap:round;"/>
     </g>
     <g id="line2d_46"/>
     <g id="text_23">
      <!-- ndvi_nw -->
      <g style="fill:#262626;" transform="translate(178.807422 86.474297)scale(0.125 -0.125)">
       <use xlink:href="#LiberationSans-6e"/>
       <use x="55.615234" xlink:href="#LiberationSans-64"/>
       <use x="111.230469" xlink:href="#LiberationSans-76"/>
       <use x="161.230469" xlink:href="#LiberationSans-69"/>
       <use x="183.447266" xlink:href="#LiberationSans-5f"/>
       <use x="239.0625" xlink:href="#LiberationSans-6e"/>
       <use x="294.677734" xlink:href="#LiberationSans-77"/>
      </g>
     </g>
    </g>
    <g id="ytick_18">
     <g id="line2d_47">
      <path clip-path="url(#pcc0d0dfca0)" d="M 231.666797 68.355 
L 678.066797 68.355 
" style="fill:none;stroke:#ffffff;stroke-linecap:round;"/>
     </g>
     <g id="line2d_48"/>
     <g id="text_24">
      <!-- ndvi_sw -->
      <g style="fill:#262626;" transform="translate(179.508594 72.884297)scale(0.125 -0.125)">
       <use xlink:href="#LiberationSans-6e"/>
       <use x="55.615234" xlink:href="#LiberationSans-64"/>
       <use x="111.230469" xlink:href="#LiberationSans-76"/>
       <use x="161.230469" xlink:href="#LiberationSans-69"/>
       <use x="183.447266" xlink:href="#LiberationSans-5f"/>
       <use x="239.0625" xlink:href="#LiberationSans-73"/>
       <use x="289.0625" xlink:href="#LiberationSans-77"/>
      </g>
     </g>
    </g>
    <g id="ytick_19">
     <g id="line2d_49">
      <path clip-path="url(#pcc0d0dfca0)" d="M 231.666797 54.765 
L 678.066797 54.765 
" style="fill:none;stroke:#ffffff;stroke-linecap:round;"/>
     </g>
     <g id="line2d_50"/>
     <g id="text_25">
      <!-- station_diur_temp_rng_c -->
      <g style="fill:#262626;" transform="translate(87.092578 59.294297)scale(0.125 -0.125)">
       <use xlink:href="#LiberationSans-73"/>
       <use x="50" xlink:href="#LiberationSans-74"/>
       <use x="77.783203" xlink:href="#LiberationSans-61"/>
       <use x="133.398438" xlink:href="#LiberationSans-74"/>
       <use x="161.181641" xlink:href="#LiberationSans-69"/>
       <use x="183.398438" xlink:href="#LiberationSans-6f"/>
       <use x="239.013672" xlink:href="#LiberationSans-6e"/>
       <use x="294.628906" xlink:href="#LiberationSans-5f"/>
       <use x="350.244141" xlink:href="#LiberationSans-64"/>
       <use x="405.859375" xlink:href="#LiberationSans-69"/>
       <use x="428.076172" xlink:href="#LiberationSans-75"/>
       <use x="483.691406" xlink:href="#LiberationSans-72"/>
       <use x="516.992188" xlink:href="#LiberationSans-5f"/>
       <use x="572.607422" xlink:href="#LiberationSans-74"/>
       <use x="600.390625" xlink:href="#LiberationSans-65"/>
       <use x="656.005859" xlink:href="#LiberationSans-6d"/>
       <use x="739.306641" xlink:href="#LiberationSans-70"/>
       <use x="794.921875" xlink:href="#LiberationSans-5f"/>
       <use x="850.537109" xlink:href="#LiberationSans-72"/>
       <use x="883.837891" xlink:href="#LiberationSans-6e"/>
       <use x="939.453125" xlink:href="#LiberationSans-67"/>
       <use x="995.068359" xlink:href="#LiberationSans-5f"/>
       <use x="1050.683594" xlink:href="#LiberationSans-63"/>
      </g>
     </g>
    </g>
    <g id="ytick_20">
     <g id="line2d_51">
      <path clip-path="url(#pcc0d0dfca0)" d="M 231.666797 41.175 
L 678.066797 41.175 
" style="fill:none;stroke:#ffffff;stroke-linecap:round;"/>
     </g>
     <g id="line2d_52"/>
     <g id="text_26">
      <!-- ndvi_se -->
      <g style="fill:#262626;" transform="translate(181.584766 45.704297)scale(0.125 -0.125)">
       <use xlink:href="#LiberationSans-6e"/>
       <use x="55.615234" xlink:href="#LiberationSans-64"/>
       <use x="111.230469" xlink:href="#LiberationSans-76"/>
       <use x="161.230469" xlink:href="#LiberationSans-69"/>
       <use x="183.447266" xlink:href="#LiberationSans-5f"/>
       <use x="239.0625" xlink:href="#LiberationSans-73"/>
       <use x="289.0625" xlink:href="#LiberationSans-65"/>
      </g>
     </g>
    </g>
    <g id="ytick_21">
     <g id="line2d_53">
      <path clip-path="url(#pcc0d0dfca0)" d="M 231.666797 27.585 
L 678.066797 27.585 
" style="fill:none;stroke:#ffffff;stroke-linecap:round;"/>
     </g>
     <g id="line2d_54"/>
     <g id="text_27">
      <!-- reanalysis_tdtr_k -->
      <g style="fill:#262626;" transform="translate(130.184375 32.114297)scale(0.125 -0.125)">
       <use xlink:href="#LiberationSans-72"/>
       <use x="33.300781" xlink:href="#LiberationSans-65"/>
       <use x="88.916016" xlink:href="#LiberationSans-61"/>
       <use x="144.53125" xlink:href="#LiberationSans-6e"/>
       <use x="200.146484" xlink:href="#LiberationSans-61"/>
       <use x="255.761719" xlink:href="#LiberationSans-6c"/>
       <use x="277.978516" xlink:href="#LiberationSans-79"/>
       <use x="327.978516" xlink:href="#LiberationSans-73"/>
       <use x="377.978516" xlink:href="#LiberationSans-69"/>
       <use x="400.195312" xlink:href="#LiberationSans-73"/>
       <use x="450.195312" xlink:href="#LiberationSans-5f"/>
       <use x="505.810547" xlink:href="#LiberationSans-74"/>
       <use x="533.59375" xlink:href="#LiberationSans-64"/>
       <use x="589.208984" xlink:href="#LiberationSans-74"/>
       <use x="616.992188" xlink:href="#LiberationSans-72"/>
       <use x="650.292969" xlink:href="#LiberationSans-5f"/>
       <use x="705.908203" xlink:href="#LiberationSans-6b"/>
      </g>
     </g>
    </g>
    <g id="ytick_22">
     <g id="line2d_55">
      <path clip-path="url(#pcc0d0dfca0)" d="M 231.666797 13.995 
L 678.066797 13.995 
" style="fill:none;stroke:#ffffff;stroke-linecap:round;"/>
     </g>
     <g id="line2d_56"/>
     <g id="text_28">
      <!-- year -->
      <g style="fill:#262626;" transform="translate(200.352344 18.524297)scale(0.125 -0.125)">
       <use xlink:href="#LiberationSans-79"/>
       <use x="50" xlink:href="#LiberationSans-65"/>
       <use x="105.615234" xlink:href="#LiberationSans-61"/>
       <use x="161.230469" xlink:href="#LiberationSans-72"/>
      </g>
     </g>
    </g>
   </g>
   <g id="patch_3">
    <path clip-path="url(#pcc0d0dfca0)" d="M 434.575888 302.7825 
L 667.624464 302.7825 
L 667.624464 295.9875 
L 434.575888 295.9875 
z
" style="fill:#4c72b0;"/>
   </g>
   <g id="patch_4">
    <path clip-path="url(#pcc0d0dfca0)" d="M 434.575888 289.1925 
L 602.537752 289.1925 
L 602.537752 282.3975 
L 434.575888 282.3975 
z
" style="fill:#4c72b0;"/>
   </g>
   <g id="patch_5">
    <path clip-path="url(#pcc0d0dfca0)" d="M 434.575888 275.6025 
L 599.181301 275.6025 
L 599.181301 268.8075 
L 434.575888 268.8075 
z
" style="fill:#4c72b0;"/>
   </g>
   <g id="patch_6">
    <path clip-path="url(#pcc0d0dfca0)" d="M 434.575888 262.0125 
L 592.701181 262.0125 
L 592.701181 255.2175 
L 434.575888 255.2175 
z
" style="fill:#4c72b0;"/>
   </g>
   <g id="patch_7">
    <path clip-path="url(#pcc0d0dfca0)" d="M 434.575888 248.4225 
L 591.41048 248.4225 
L 591.41048 241.6275 
L 434.575888 241.6275 
z
" style="fill:#4c72b0;"/>
   </g>
   <g id="patch_8">
    <path clip-path="url(#pcc0d0dfca0)" d="M 434.575888 234.8325 
L 587.526726 234.8325 
L 587.526726 228.0375 
L 434.575888 228.0375 
z
" style="fill:#4c72b0;"/>
   </g>
   <g id="patch_9">
    <path clip-path="url(#pcc0d0dfca0)" d="M 434.575888 221.2425 
L 585.977381 221.2425 
L 585.977381 214.4475 
L 434.575888 214.4475 
z
" style="fill:#4c72b0;"/>
   </g>
   <g id="patch_10">
    <path clip-path="url(#pcc0d0dfca0)" d="M 434.575888 207.6525 
L 580.922565 207.6525 
L 580.922565 200.8575 
L 434.575888 200.8575 
z
" style="fill:#4c72b0;"/>
   </g>
   <g id="patch_11">
    <path clip-path="url(#pcc0d0dfca0)" d="M 434.575888 194.0625 
L 576.813678 194.0625 
L 576.813678 187.2675 
L 434.575888 187.2675 
z
" style="fill:#4c72b0;"/>
   </g>
   <g id="patch_12">
    <path clip-path="url(#pcc0d0dfca0)" d="M 434.575888 180.4725 
L 575.533047 180.4725 
L 575.533047 173.6775 
L 434.575888 173.6775 
z
" style="fill:#4c72b0;"/>
   </g>
   <g id="patch_13">
    <path clip-path="url(#pcc0d0dfca0)" d="M 434.575888 166.8825 
L 551.779608 166.8825 
L 551.779608 160.0875 
L 434.575888 160.0875 
z
" style="fill:#4c72b0;"/>
   </g>
   <g id="patch_14">
    <path clip-path="url(#pcc0d0dfca0)" d="M 434.575888 153.2925 
L 521.371385 153.2925 
L 521.371385 146.4975 
L 434.575888 146.4975 
z
" style="fill:#4c72b0;"/>
   </g>
   <g id="patch_15">
    <path clip-path="url(#pcc0d0dfca0)" d="M 434.575888 139.7025 
L 505.566325 139.7025 
L 505.566325 132.9075 
L 434.575888 132.9075 
z
" style="fill:#4c72b0;"/>
   </g>
   <g id="patch_16">
    <path clip-path="url(#pcc0d0dfca0)" d="M 434.575888 126.1125 
L 483.513941 126.1125 
L 483.513941 119.3175 
L 434.575888 119.3175 
z
" style="fill:#4c72b0;"/>
   </g>
   <g id="patch_17">
    <path clip-path="url(#pcc0d0dfca0)" d="M 434.575888 112.5225 
L 483.513941 112.5225 
L 483.513941 105.7275 
L 434.575888 105.7275 
z
" style="fill:#4c72b0;"/>
   </g>
   <g id="patch_18">
    <path clip-path="url(#pcc0d0dfca0)" d="M 434.575888 98.9325 
L 476.685985 98.9325 
L 476.685985 92.1375 
L 434.575888 92.1375 
z
" style="fill:#4c72b0;"/>
   </g>
   <g id="patch_19">
    <path clip-path="url(#pcc0d0dfca0)" d="M 434.575888 85.3425 
L 473.049611 85.3425 
L 473.049611 78.5475 
L 434.575888 78.5475 
z
" style="fill:#4c72b0;"/>
   </g>
   <g id="patch_20">
    <path clip-path="url(#pcc0d0dfca0)" d="M 434.575888 71.7525 
L 469.208709 71.7525 
L 469.208709 64.9575 
L 434.575888 64.9575 
z
" style="fill:#4c72b0;"/>
   </g>
   <g id="patch_21">
    <path clip-path="url(#pcc0d0dfca0)" d="M 434.575888 58.1625 
L 463.22948 58.1625 
L 463.22948 51.3675 
L 434.575888 51.3675 
z
" style="fill:#4c72b0;"/>
   </g>
   <g id="patch_22">
    <path clip-path="url(#pcc0d0dfca0)" d="M 399.123714 44.5725 
L 434.575888 44.5725 
L 434.575888 37.7775 
L 399.123714 37.7775 
z
" style="fill:#4c72b0;"/>
   </g>
   <g id="patch_23">
    <path clip-path="url(#pcc0d0dfca0)" d="M 379.690863 30.9825 
L 434.575888 30.9825 
L 434.575888 24.1875 
L 379.690863 24.1875 
z
" style="fill:#4c72b0;"/>
   </g>
   <g id="patch_24">
    <path clip-path="url(#pcc0d0dfca0)" d="M 261.949127 17.3925 
L 434.575888 17.3925 
L 434.575888 10.5975 
L 261.949127 10.5975 
z
" style="fill:#4c72b0;"/>
   </g>
   <g id="patch_25">
    <path d="M 231.666797 306.18 
L 231.666797 7.2 
" style="fill:none;"/>
   </g>
   <g id="patch_26">
    <path d="M 678.066797 306.18 
L 678.066797 7.2 
" style="fill:none;"/>
   </g>
   <g id="patch_27">
    <path d="M 231.666797 306.18 
L 678.066797 306.18 
" style="fill:none;"/>
   </g>
   <g id="patch_28">
    <path d="M 231.666797 7.2 
L 678.066797 7.2 
" style="fill:none;"/>
   </g>
  </g>
 </g>
 <defs>
  <clipPath id="pcc0d0dfca0">
   <rect height="298.98" width="446.4" x="231.666797" y="7.2"/>
  </clipPath>
 </defs>
</svg>
