<?xml version="1.0" encoding="utf-8" standalone="no"?>
<!DOCTYPE svg PUBLIC "-//W3C//DTD SVG 1.1//EN"
  "http://www.w3.org/Graphics/SVG/1.1/DTD/svg11.dtd">
<!-- Created with matplotlib (http://matplotlib.org/) -->
<svg height="432pt" version="1.1" viewBox="0 0 1152 432" width="1152pt" xmlns="http://www.w3.org/2000/svg" xmlns:xlink="http://www.w3.org/1999/xlink">
 <defs>
  <style type="text/css">
*{stroke-linecap:butt;stroke-linejoin:round;}
  </style>
 </defs>
 <g id="figure_1">
  <g id="patch_1">
   <path d="M 0 432 
L 1152 432 
L 1152 0 
L 0 0 
z
" style="fill:#ffffff;"/>
  </g>
  <g id="axes_1">
   <g id="patch_2">
    <path d="M 144 378 
L 549.818182 378 
L 549.818182 51.84 
L 144 51.84 
z
" style="fill:#eaeaf2;"/>
   </g>
   <g id="matplotlib.axis_1">
    <g id="xtick_1">
     <g id="line2d_1">
      <path clip-path="url(#p9dec2a8ade)" d="M 144 378 
L 144 51.84 
" style="fill:none;stroke:#ffffff;stroke-linecap:round;"/>
     </g>
     <g id="line2d_2"/>
     <g id="text_1">
      <!-- 1990-04-30 -->
      <defs>
       <path d="M 7.625 0 
L 7.625 7.46875 
L 25.140625 7.46875 
L 25.140625 60.40625 
L 9.625 49.3125 
L 9.625 57.625 
L 25.875 68.796875 
L 33.984375 68.796875 
L 33.984375 7.46875 
L 50.734375 7.46875 
L 50.734375 0 
z
" id="LiberationSans-31"/>
       <path d="M 50.875 35.796875 
Q 50.875 26.609375 49.140625 19.703125 
Q 47.40625 12.796875 44.1875 8.203125 
Q 40.96875 3.609375 36.34375 1.3125 
Q 31.734375 -0.984375 25.984375 -0.984375 
Q 22.015625 -0.984375 18.84375 -0.171875 
Q 15.671875 0.640625 13.171875 2.34375 
Q 10.6875 4.046875 8.921875 6.78125 
Q 7.171875 9.515625 6.109375 13.375 
L 14.5 14.703125 
Q 15.875 10.25 18.78125 8.171875 
Q 21.6875 6.109375 26.125 6.109375 
Q 29.6875 6.109375 32.640625 7.78125 
Q 35.59375 9.46875 37.671875 12.84375 
Q 39.75 16.21875 40.921875 21.296875 
Q 42.09375 26.375 42.1875 33.203125 
Q 41.15625 30.90625 39.375 29.09375 
Q 37.59375 27.296875 35.328125 26.046875 
Q 33.0625 24.8125 30.421875 24.140625 
Q 27.78125 23.484375 25.09375 23.484375 
Q 20.40625 23.484375 16.625 25.171875 
Q 12.84375 26.859375 10.203125 29.875 
Q 7.5625 32.90625 6.125 37.171875 
Q 4.6875 41.453125 4.6875 46.6875 
Q 4.6875 52 6.21875 56.296875 
Q 7.765625 60.59375 10.6875 63.59375 
Q 13.625 66.609375 17.890625 68.21875 
Q 22.171875 69.828125 27.59375 69.828125 
Q 39.0625 69.828125 44.96875 61.328125 
Q 50.875 52.828125 50.875 35.796875 
M 41.3125 44.28125 
Q 41.3125 48.09375 40.40625 51.453125 
Q 39.5 54.828125 37.71875 57.3125 
Q 35.9375 59.8125 33.328125 61.25 
Q 30.71875 62.703125 27.296875 62.703125 
Q 24.125 62.703125 21.578125 61.578125 
Q 19.046875 60.453125 17.28125 58.375 
Q 15.53125 56.296875 14.578125 53.3125 
Q 13.625 50.34375 13.625 46.6875 
Q 13.625 43.21875 14.46875 40.234375 
Q 15.328125 37.25 17.03125 35.078125 
Q 18.75 32.90625 21.28125 31.65625 
Q 23.828125 30.421875 27.203125 30.421875 
Q 29.640625 30.421875 32.15625 31.25 
Q 34.671875 32.078125 36.6875 33.78125 
Q 38.71875 35.5 40.015625 38.109375 
Q 41.3125 40.71875 41.3125 44.28125 
" id="LiberationSans-39"/>
       <path d="M 51.703125 34.421875 
Q 51.703125 24.515625 49.828125 17.75 
Q 47.953125 10.984375 44.703125 6.8125 
Q 41.453125 2.640625 37.0625 0.828125 
Q 32.671875 -0.984375 27.6875 -0.984375 
Q 22.65625 -0.984375 18.3125 0.828125 
Q 13.96875 2.640625 10.765625 6.78125 
Q 7.5625 10.9375 5.734375 17.703125 
Q 3.90625 24.46875 3.90625 34.421875 
Q 3.90625 44.828125 5.734375 51.640625 
Q 7.5625 58.453125 10.78125 62.5 
Q 14.015625 66.546875 18.40625 68.1875 
Q 22.796875 69.828125 27.984375 69.828125 
Q 32.90625 69.828125 37.21875 68.1875 
Q 41.546875 66.546875 44.765625 62.5 
Q 48 58.453125 49.84375 51.640625 
Q 51.703125 44.828125 51.703125 34.421875 
M 42.78125 34.421875 
Q 42.78125 42.625 41.796875 48.0625 
Q 40.828125 53.515625 38.921875 56.765625 
Q 37.015625 60.015625 34.25 61.359375 
Q 31.5 62.703125 27.984375 62.703125 
Q 24.265625 62.703125 21.4375 61.328125 
Q 18.609375 59.96875 16.671875 56.71875 
Q 14.75 53.46875 13.765625 48.015625 
Q 12.796875 42.578125 12.796875 34.421875 
Q 12.796875 26.515625 13.796875 21.09375 
Q 14.796875 15.671875 16.71875 12.375 
Q 18.65625 9.078125 21.4375 7.640625 
Q 24.21875 6.203125 27.78125 6.203125 
Q 31.25 6.203125 34.03125 7.640625 
Q 36.8125 9.078125 38.734375 12.375 
Q 40.671875 15.671875 41.71875 21.09375 
Q 42.78125 26.515625 42.78125 34.421875 
" id="LiberationSans-30"/>
       <path d="M 4.4375 22.65625 
L 4.4375 30.46875 
L 28.859375 30.46875 
L 28.859375 22.65625 
z
" id="LiberationSans-2d"/>
       <path d="M 43.015625 15.578125 
L 43.015625 0 
L 34.71875 0 
L 34.71875 15.578125 
L 2.296875 15.578125 
L 2.296875 22.40625 
L 33.796875 68.796875 
L 43.015625 68.796875 
L 43.015625 22.515625 
L 52.6875 22.515625 
L 52.6875 15.578125 
z
M 34.71875 58.890625 
Q 34.625 58.640625 34.234375 57.9375 
Q 33.84375 57.234375 33.34375 56.34375 
Q 32.859375 55.46875 32.34375 54.5625 
Q 31.84375 53.65625 31.453125 53.078125 
L 13.8125 27.09375 
Q 13.578125 26.703125 13.109375 26.0625 
Q 12.640625 25.4375 12.15625 24.78125 
Q 11.671875 24.125 11.171875 23.484375 
Q 10.6875 22.859375 10.40625 22.515625 
L 34.71875 22.515625 
z
" id="LiberationSans-34"/>
       <path d="M 51.21875 19 
Q 51.21875 14.265625 49.671875 10.546875 
Q 48.140625 6.84375 45.1875 4.265625 
Q 42.234375 1.703125 37.859375 0.359375 
Q 33.5 -0.984375 27.875 -0.984375 
Q 21.484375 -0.984375 17.109375 0.609375 
Q 12.75 2.203125 9.90625 4.8125 
Q 7.078125 7.421875 5.65625 10.765625 
Q 4.25 14.109375 3.8125 17.671875 
L 12.890625 18.5 
Q 13.28125 15.765625 14.328125 13.515625 
Q 15.375 11.28125 17.1875 9.671875 
Q 19 8.0625 21.625 7.171875 
Q 24.265625 6.296875 27.875 6.296875 
Q 34.515625 6.296875 38.296875 9.5625 
Q 42.09375 12.84375 42.09375 19.28125 
Q 42.09375 23.09375 40.40625 25.40625 
Q 38.71875 27.734375 36.203125 29.03125 
Q 33.6875 30.328125 30.734375 30.765625 
Q 27.78125 31.203125 25.296875 31.203125 
L 20.3125 31.203125 
L 20.3125 38.8125 
L 25.09375 38.8125 
Q 27.59375 38.8125 30.265625 39.328125 
Q 32.953125 39.84375 35.171875 41.1875 
Q 37.40625 42.53125 38.84375 44.828125 
Q 40.28125 47.125 40.28125 50.6875 
Q 40.28125 56.203125 37.03125 59.390625 
Q 33.796875 62.59375 27.390625 62.59375 
Q 21.578125 62.59375 17.984375 59.609375 
Q 14.40625 56.640625 13.8125 51.21875 
L 4.984375 51.90625 
Q 5.515625 56.453125 7.46875 59.8125 
Q 9.421875 63.1875 12.421875 65.40625 
Q 15.4375 67.625 19.28125 68.71875 
Q 23.140625 69.828125 27.484375 69.828125 
Q 33.25 69.828125 37.390625 68.375 
Q 41.546875 66.9375 44.1875 64.46875 
Q 46.828125 62.015625 48.0625 58.6875 
Q 49.3125 55.375 49.3125 51.609375 
Q 49.3125 48.578125 48.484375 45.9375 
Q 47.65625 43.3125 45.890625 41.203125 
Q 44.140625 39.109375 41.421875 37.59375 
Q 38.71875 36.078125 34.90625 35.296875 
L 34.90625 35.109375 
Q 39.0625 34.671875 42.140625 33.21875 
Q 45.21875 31.78125 47.21875 29.625 
Q 49.21875 27.484375 50.21875 24.75 
Q 51.21875 22.015625 51.21875 19 
" id="LiberationSans-33"/>
      </defs>
      <g style="fill:#262626;" transform="translate(118.426563 392.246875)scale(0.1 -0.1)">
       <use xlink:href="#LiberationSans-31"/>
       <use x="55.615234" xlink:href="#LiberationSans-39"/>
       <use x="111.230469" xlink:href="#LiberationSans-39"/>
       <use x="166.845703" xlink:href="#LiberationSans-30"/>
       <use x="222.460938" xlink:href="#LiberationSans-2d"/>
       <use x="255.761719" xlink:href="#LiberationSans-30"/>
       <use x="311.376953" xlink:href="#LiberationSans-34"/>
       <use x="366.992188" xlink:href="#LiberationSans-2d"/>
       <use x="400.292969" xlink:href="#LiberationSans-33"/>
       <use x="455.908203" xlink:href="#LiberationSans-30"/>
      </g>
     </g>
    </g>
    <g id="xtick_2">
     <g id="line2d_3">
      <path clip-path="url(#p9dec2a8ade)" d="M 230.806028 378 
L 230.806028 51.84 
" style="fill:none;stroke:#ffffff;stroke-linecap:round;"/>
     </g>
     <g id="line2d_4"/>
     <g id="text_2">
      <!-- 1994-03-05 -->
      <defs>
       <path d="M 51.421875 22.40625 
Q 51.421875 17.234375 49.859375 12.9375 
Q 48.296875 8.640625 45.21875 5.53125 
Q 42.140625 2.4375 37.578125 0.71875 
Q 33.015625 -0.984375 27 -0.984375 
Q 21.578125 -0.984375 17.546875 0.28125 
Q 13.53125 1.5625 10.734375 3.78125 
Q 7.953125 6 6.3125 8.984375 
Q 4.6875 11.96875 4 15.375 
L 12.890625 16.40625 
Q 13.421875 14.453125 14.390625 12.625 
Q 15.375 10.796875 17.0625 9.34375 
Q 18.75 7.90625 21.21875 7.046875 
Q 23.6875 6.203125 27.203125 6.203125 
Q 30.609375 6.203125 33.390625 7.25 
Q 36.1875 8.296875 38.15625 10.34375 
Q 40.140625 12.40625 41.203125 15.375 
Q 42.28125 18.359375 42.28125 22.21875 
Q 42.28125 25.390625 41.25 28.046875 
Q 40.234375 30.71875 38.328125 32.640625 
Q 36.421875 34.578125 33.65625 35.640625 
Q 30.90625 36.71875 27.390625 36.71875 
Q 25.203125 36.71875 23.34375 36.328125 
Q 21.484375 35.9375 19.890625 35.25 
Q 18.3125 34.578125 17.015625 33.671875 
Q 15.71875 32.765625 14.59375 31.78125 
L 6 31.78125 
L 8.296875 68.796875 
L 47.40625 68.796875 
L 47.40625 61.328125 
L 16.3125 61.328125 
L 14.984375 39.5 
Q 17.328125 41.3125 20.84375 42.59375 
Q 24.359375 43.890625 29.203125 43.890625 
Q 34.328125 43.890625 38.421875 42.328125 
Q 42.53125 40.765625 45.40625 37.90625 
Q 48.296875 35.0625 49.859375 31.109375 
Q 51.421875 27.15625 51.421875 22.40625 
" id="LiberationSans-35"/>
      </defs>
      <g style="fill:#262626;" transform="translate(205.232591 392.246875)scale(0.1 -0.1)">
       <use xlink:href="#LiberationSans-31"/>
       <use x="55.615234" xlink:href="#LiberationSans-39"/>
       <use x="111.230469" xlink:href="#LiberationSans-39"/>
       <use x="166.845703" xlink:href="#LiberationSans-34"/>
       <use x="222.460938" xlink:href="#LiberationSans-2d"/>
       <use x="255.761719" xlink:href="#LiberationSans-30"/>
       <use x="311.376953" xlink:href="#LiberationSans-33"/>
       <use x="366.992188" xlink:href="#LiberationSans-2d"/>
       <use x="400.292969" xlink:href="#LiberationSans-30"/>
       <use x="455.908203" xlink:href="#LiberationSans-35"/>
      </g>
     </g>
    </g>
    <g id="xtick_3">
     <g id="line2d_5">
      <path clip-path="url(#p9dec2a8ade)" d="M 317.612056 378 
L 317.612056 51.84 
" style="fill:none;stroke:#ffffff;stroke-linecap:round;"/>
     </g>
     <g id="line2d_6"/>
     <g id="text_3">
      <!-- 1998-01-08 -->
      <defs>
       <path d="M 51.265625 19.1875 
Q 51.265625 14.796875 49.875 11.109375 
Q 48.484375 7.421875 45.625 4.734375 
Q 42.78125 2.046875 38.328125 0.53125 
Q 33.890625 -0.984375 27.828125 -0.984375 
Q 21.78125 -0.984375 17.359375 0.53125 
Q 12.9375 2.046875 10.03125 4.703125 
Q 7.125 7.375 5.734375 11.0625 
Q 4.34375 14.75 4.34375 19.09375 
Q 4.34375 22.859375 5.484375 25.78125 
Q 6.640625 28.71875 8.5625 30.828125 
Q 10.5 32.953125 12.96875 34.25 
Q 15.4375 35.546875 18.0625 35.984375 
L 18.0625 36.1875 
Q 15.1875 36.859375 12.90625 38.375 
Q 10.640625 39.890625 9.09375 42.015625 
Q 7.5625 44.140625 6.75 46.71875 
Q 5.953125 49.3125 5.953125 52.203125 
Q 5.953125 55.8125 7.34375 59 
Q 8.734375 62.203125 11.46875 64.625 
Q 14.203125 67.046875 18.25 68.4375 
Q 22.3125 69.828125 27.640625 69.828125 
Q 33.25 69.828125 37.375 68.40625 
Q 41.5 67 44.203125 64.578125 
Q 46.921875 62.15625 48.234375 58.9375 
Q 49.5625 55.71875 49.5625 52.09375 
Q 49.5625 49.265625 48.75 46.671875 
Q 47.953125 44.09375 46.40625 41.96875 
Q 44.875 39.84375 42.59375 38.34375 
Q 40.328125 36.859375 37.359375 36.28125 
L 37.359375 36.078125 
Q 40.328125 35.59375 42.859375 34.296875 
Q 45.40625 33.015625 47.265625 30.890625 
Q 49.125 28.765625 50.1875 25.828125 
Q 51.265625 22.90625 51.265625 19.1875 
M 40.4375 51.609375 
Q 40.4375 54.203125 39.765625 56.34375 
Q 39.109375 58.5 37.59375 60.03125 
Q 36.078125 61.578125 33.640625 62.421875 
Q 31.203125 63.28125 27.640625 63.28125 
Q 24.171875 63.28125 21.78125 62.421875 
Q 19.390625 61.578125 17.84375 60.03125 
Q 16.3125 58.5 15.625 56.34375 
Q 14.9375 54.203125 14.9375 51.609375 
Q 14.9375 49.5625 15.46875 47.40625 
Q 16.015625 45.265625 17.421875 43.5 
Q 18.84375 41.75 21.328125 40.625 
Q 23.828125 39.5 27.734375 39.5 
Q 31.890625 39.5 34.40625 40.625 
Q 36.921875 41.75 38.25 43.5 
Q 39.59375 45.265625 40.015625 47.40625 
Q 40.4375 49.5625 40.4375 51.609375 
M 42.140625 20.015625 
Q 42.140625 22.515625 41.453125 24.828125 
Q 40.765625 27.15625 39.109375 28.9375 
Q 37.453125 30.71875 34.640625 31.8125 
Q 31.84375 32.90625 27.640625 32.90625 
Q 23.78125 32.90625 21.0625 31.8125 
Q 18.359375 30.71875 16.671875 28.90625 
Q 14.984375 27.09375 14.203125 24.71875 
Q 13.421875 22.359375 13.421875 19.828125 
Q 13.421875 16.65625 14.203125 14.03125 
Q 14.984375 11.421875 16.6875 9.546875 
Q 18.40625 7.671875 21.1875 6.640625 
Q 23.96875 5.609375 27.9375 5.609375 
Q 31.9375 5.609375 34.671875 6.640625 
Q 37.40625 7.671875 39.0625 9.546875 
Q 40.71875 11.421875 41.421875 14.078125 
Q 42.140625 16.75 42.140625 20.015625 
" id="LiberationSans-38"/>
      </defs>
      <g style="fill:#262626;" transform="translate(292.038619 392.246875)scale(0.1 -0.1)">
       <use xlink:href="#LiberationSans-31"/>
       <use x="55.615234" xlink:href="#LiberationSans-39"/>
       <use x="111.230469" xlink:href="#LiberationSans-39"/>
       <use x="166.845703" xlink:href="#LiberationSans-38"/>
       <use x="222.460938" xlink:href="#LiberationSans-2d"/>
       <use x="255.761719" xlink:href="#LiberationSans-30"/>
       <use x="311.376953" xlink:href="#LiberationSans-31"/>
       <use x="366.992188" xlink:href="#LiberationSans-2d"/>
       <use x="400.292969" xlink:href="#LiberationSans-30"/>
       <use x="455.908203" xlink:href="#LiberationSans-38"/>
      </g>
     </g>
    </g>
    <g id="xtick_4">
     <g id="line2d_7">
      <path clip-path="url(#p9dec2a8ade)" d="M 404.418085 378 
L 404.418085 51.84 
" style="fill:none;stroke:#ffffff;stroke-linecap:round;"/>
     </g>
     <g id="line2d_8"/>
     <g id="text_4">
      <!-- 2001-11-12 -->
      <defs>
       <path d="M 5.03125 0 
L 5.03125 6.203125 
Q 7.515625 11.921875 11.109375 16.28125 
Q 14.703125 20.65625 18.65625 24.1875 
Q 22.609375 27.734375 26.484375 30.765625 
Q 30.375 33.796875 33.5 36.8125 
Q 36.625 39.84375 38.546875 43.15625 
Q 40.484375 46.484375 40.484375 50.6875 
Q 40.484375 53.609375 39.59375 55.828125 
Q 38.71875 58.0625 37.0625 59.5625 
Q 35.40625 61.078125 33.078125 61.828125 
Q 30.765625 62.59375 27.9375 62.59375 
Q 25.296875 62.59375 22.96875 61.859375 
Q 20.65625 61.140625 18.84375 59.671875 
Q 17.046875 58.203125 15.890625 56.03125 
Q 14.75 53.859375 14.40625 50.984375 
L 5.421875 51.8125 
Q 5.859375 55.515625 7.46875 58.78125 
Q 9.078125 62.0625 11.90625 64.53125 
Q 14.75 67 18.71875 68.40625 
Q 22.703125 69.828125 27.9375 69.828125 
Q 33.0625 69.828125 37.0625 68.609375 
Q 41.0625 67.390625 43.8125 64.984375 
Q 46.578125 62.59375 48.046875 59.078125 
Q 49.515625 55.5625 49.515625 50.984375 
Q 49.515625 47.515625 48.265625 44.390625 
Q 47.015625 41.265625 44.9375 38.421875 
Q 42.875 35.59375 40.140625 32.953125 
Q 37.40625 30.328125 34.421875 27.8125 
Q 31.453125 25.296875 28.421875 22.828125 
Q 25.390625 20.359375 22.71875 17.859375 
Q 20.0625 15.375 17.96875 12.8125 
Q 15.875 10.25 14.703125 7.46875 
L 50.59375 7.46875 
L 50.59375 0 
z
" id="LiberationSans-32"/>
      </defs>
      <g style="fill:#262626;" transform="translate(378.844647 392.246875)scale(0.1 -0.1)">
       <use xlink:href="#LiberationSans-32"/>
       <use x="55.615234" xlink:href="#LiberationSans-30"/>
       <use x="111.230469" xlink:href="#LiberationSans-30"/>
       <use x="166.845703" xlink:href="#LiberationSans-31"/>
       <use x="222.460938" xlink:href="#LiberationSans-2d"/>
       <use x="255.761719" xlink:href="#LiberationSans-31"/>
       <use x="311.376953" xlink:href="#LiberationSans-31"/>
       <use x="366.992188" xlink:href="#LiberationSans-2d"/>
       <use x="400.292969" xlink:href="#LiberationSans-31"/>
       <use x="455.908203" xlink:href="#LiberationSans-32"/>
      </g>
     </g>
    </g>
    <g id="xtick_5">
     <g id="line2d_9">
      <path clip-path="url(#p9dec2a8ade)" d="M 491.224113 378 
L 491.224113 51.84 
" style="fill:none;stroke:#ffffff;stroke-linecap:round;"/>
     </g>
     <g id="line2d_10"/>
     <g id="text_5">
      <!-- 2005-09-17 -->
      <defs>
       <path d="M 50.59375 61.671875 
Q 45.40625 53.765625 41.0625 46.453125 
Q 36.71875 39.15625 33.59375 31.75 
Q 30.46875 24.359375 28.734375 16.578125 
Q 27 8.796875 27 0 
L 17.828125 0 
Q 17.828125 8.25 19.78125 16.1875 
Q 21.734375 24.125 25.046875 31.765625 
Q 28.375 39.40625 32.765625 46.78125 
Q 37.15625 54.15625 42.09375 61.328125 
L 5.125 61.328125 
L 5.125 68.796875 
L 50.59375 68.796875 
z
" id="LiberationSans-37"/>
      </defs>
      <g style="fill:#262626;" transform="translate(465.650675 392.246875)scale(0.1 -0.1)">
       <use xlink:href="#LiberationSans-32"/>
       <use x="55.615234" xlink:href="#LiberationSans-30"/>
       <use x="111.230469" xlink:href="#LiberationSans-30"/>
       <use x="166.845703" xlink:href="#LiberationSans-35"/>
       <use x="222.460938" xlink:href="#LiberationSans-2d"/>
       <use x="255.761719" xlink:href="#LiberationSans-30"/>
       <use x="311.376953" xlink:href="#LiberationSans-39"/>
       <use x="366.992188" xlink:href="#LiberationSans-2d"/>
       <use x="400.292969" xlink:href="#LiberationSans-31"/>
       <use x="455.908203" xlink:href="#LiberationSans-37"/>
      </g>
     </g>
    </g>
    <g id="text_6">
     <!-- week_start_date -->
     <defs>
      <path d="M 57.328125 0 
L 47.125 0 
L 38.671875 34.078125 
Q 38.28125 35.40625 37.859375 37.359375 
Q 37.453125 39.3125 37.0625 41.15625 
Q 36.578125 43.3125 36.140625 45.609375 
Q 35.6875 43.40625 35.203125 41.265625 
Q 34.8125 39.40625 34.34375 37.40625 
Q 33.890625 35.40625 33.5 33.890625 
L 24.8125 0 
L 14.65625 0 
L -0.140625 52.828125 
L 8.546875 52.828125 
L 17.484375 16.9375 
Q 17.828125 15.828125 18.15625 14.1875 
Q 18.5 12.546875 18.84375 10.984375 
Q 19.1875 9.1875 19.578125 7.28125 
Q 19.96875 9.125 20.40625 10.890625 
Q 20.796875 12.40625 21.1875 13.96875 
Q 21.578125 15.53125 21.875 16.546875 
L 31.453125 52.828125 
L 40.875 52.828125 
L 50.09375 16.546875 
Q 50.4375 15.28125 50.828125 13.671875 
Q 51.21875 12.0625 51.5625 10.640625 
Q 51.953125 8.984375 52.34375 7.28125 
Q 52.734375 9.125 53.125 10.890625 
Q 53.46875 12.40625 53.828125 14.03125 
Q 54.203125 15.671875 54.546875 16.9375 
L 63.875 52.828125 
L 72.46875 52.828125 
z
" id="LiberationSans-77"/>
      <path d="M 13.484375 24.5625 
Q 13.484375 20.40625 14.328125 16.90625 
Q 15.1875 13.421875 16.96875 10.90625 
Q 18.75 8.40625 21.53125 7 
Q 24.3125 5.609375 28.21875 5.609375 
Q 33.9375 5.609375 37.375 7.90625 
Q 40.828125 10.203125 42.046875 13.71875 
L 49.75 11.53125 
Q 48.921875 9.328125 47.4375 7.109375 
Q 45.953125 4.890625 43.453125 3.09375 
Q 40.96875 1.3125 37.234375 0.15625 
Q 33.5 -0.984375 28.21875 -0.984375 
Q 16.5 -0.984375 10.375 6 
Q 4.25 12.984375 4.25 26.765625 
Q 4.25 34.1875 6.09375 39.328125 
Q 7.953125 44.484375 11.171875 47.703125 
Q 14.40625 50.921875 18.703125 52.359375 
Q 23 53.8125 27.875 53.8125 
Q 34.515625 53.8125 38.984375 51.65625 
Q 43.453125 49.515625 46.15625 45.71875 
Q 48.875 41.9375 50.015625 36.8125 
Q 51.171875 31.6875 51.171875 25.734375 
L 51.171875 24.5625 
z
M 42.09375 31.296875 
Q 41.359375 39.65625 37.84375 43.484375 
Q 34.328125 47.3125 27.734375 47.3125 
Q 25.53125 47.3125 23.109375 46.609375 
Q 20.703125 45.90625 18.65625 44.09375 
Q 16.609375 42.28125 15.1875 39.171875 
Q 13.765625 36.078125 13.578125 31.296875 
z
" id="LiberationSans-65"/>
      <path d="M 39.84375 0 
L 21.96875 24.125 
L 15.53125 18.796875 
L 15.53125 0 
L 6.734375 0 
L 6.734375 72.46875 
L 15.53125 72.46875 
L 15.53125 27.203125 
L 38.71875 52.828125 
L 49.03125 52.828125 
L 27.59375 30.125 
L 50.140625 0 
z
" id="LiberationSans-6b"/>
      <path d="M -1.515625 -19.875 
L -1.515625 -13.53125 
L 56.734375 -13.53125 
L 56.734375 -19.875 
z
" id="LiberationSans-5f"/>
      <path d="M 46.390625 14.59375 
Q 46.390625 10.890625 44.9375 7.984375 
Q 43.5 5.078125 40.765625 3.09375 
Q 38.03125 1.125 34.046875 0.0625 
Q 30.078125 -0.984375 24.953125 -0.984375 
Q 20.359375 -0.984375 16.671875 -0.265625 
Q 12.984375 0.4375 10.203125 2 
Q 7.421875 3.5625 5.53125 6.125 
Q 3.65625 8.6875 2.78125 12.40625 
L 10.546875 13.921875 
Q 11.671875 9.671875 15.1875 7.6875 
Q 18.703125 5.71875 24.953125 5.71875 
Q 27.78125 5.71875 30.140625 6.109375 
Q 32.515625 6.5 34.21875 7.453125 
Q 35.9375 8.40625 36.890625 9.984375 
Q 37.84375 11.578125 37.84375 13.921875 
Q 37.84375 16.3125 36.71875 17.84375 
Q 35.59375 19.390625 33.59375 20.40625 
Q 31.59375 21.4375 28.734375 22.1875 
Q 25.875 22.953125 22.46875 23.875 
Q 19.28125 24.703125 16.15625 25.734375 
Q 13.03125 26.765625 10.515625 28.4375 
Q 8.015625 30.125 6.453125 32.609375 
Q 4.890625 35.109375 4.890625 38.875 
Q 4.890625 46.09375 10.03125 49.875 
Q 15.1875 53.65625 25.046875 53.65625 
Q 33.796875 53.65625 38.9375 50.578125 
Q 44.09375 47.515625 45.453125 40.71875 
L 37.546875 39.75 
Q 37.109375 41.796875 35.9375 43.1875 
Q 34.765625 44.578125 33.109375 45.4375 
Q 31.453125 46.296875 29.375 46.65625 
Q 27.296875 47.015625 25.046875 47.015625 
Q 19.09375 47.015625 16.25 45.203125 
Q 13.421875 43.40625 13.421875 39.75 
Q 13.421875 37.59375 14.46875 36.203125 
Q 15.53125 34.8125 17.40625 33.859375 
Q 19.28125 32.90625 21.921875 32.203125 
Q 24.5625 31.5 27.734375 30.71875 
Q 29.828125 30.171875 32.03125 29.5625 
Q 34.234375 28.953125 36.296875 28.09375 
Q 38.375 27.25 40.203125 26.09375 
Q 42.046875 24.953125 43.40625 23.34375 
Q 44.78125 21.734375 45.578125 19.578125 
Q 46.390625 17.4375 46.390625 14.59375 
" id="LiberationSans-73"/>
      <path d="M 27.046875 0.390625 
Q 25.046875 -0.140625 22.96875 -0.453125 
Q 20.90625 -0.78125 18.171875 -0.78125 
Q 7.625 -0.78125 7.625 11.1875 
L 7.625 46.4375 
L 1.515625 46.4375 
L 1.515625 52.828125 
L 7.953125 52.828125 
L 10.546875 64.65625 
L 16.40625 64.65625 
L 16.40625 52.828125 
L 26.171875 52.828125 
L 26.171875 46.4375 
L 16.40625 46.4375 
L 16.40625 13.09375 
Q 16.40625 9.28125 17.640625 7.734375 
Q 18.890625 6.203125 21.96875 6.203125 
Q 23.25 6.203125 24.4375 6.390625 
Q 25.640625 6.59375 27.046875 6.890625 
z
" id="LiberationSans-74"/>
      <path d="M 20.21875 -0.984375 
Q 12.25 -0.984375 8.25 3.21875 
Q 4.25 7.421875 4.25 14.75 
Q 4.25 19.96875 6.21875 23.3125 
Q 8.203125 26.65625 11.390625 28.5625 
Q 14.59375 30.46875 18.6875 31.203125 
Q 22.796875 31.9375 27.046875 32.03125 
L 38.921875 32.234375 
L 38.921875 35.109375 
Q 38.921875 38.375 38.234375 40.671875 
Q 37.546875 42.96875 36.125 44.375 
Q 34.71875 45.796875 32.59375 46.453125 
Q 30.46875 47.125 27.59375 47.125 
Q 25.046875 47.125 23 46.75 
Q 20.953125 46.390625 19.4375 45.4375 
Q 17.921875 44.484375 16.984375 42.84375 
Q 16.0625 41.21875 15.765625 38.71875 
L 6.59375 39.546875 
Q 7.078125 42.671875 8.4375 45.28125 
Q 9.8125 47.90625 12.328125 49.796875 
Q 14.84375 51.703125 18.625 52.75 
Q 22.40625 53.8125 27.78125 53.8125 
Q 37.75 53.8125 42.765625 49.234375 
Q 47.796875 44.671875 47.796875 36.03125 
L 47.796875 13.28125 
Q 47.796875 9.375 48.828125 7.390625 
Q 49.859375 5.421875 52.734375 5.421875 
Q 53.46875 5.421875 54.203125 5.515625 
Q 54.9375 5.609375 55.609375 5.765625 
L 55.609375 0.296875 
Q 53.953125 -0.09375 52.3125 -0.28125 
Q 50.6875 -0.484375 48.828125 -0.484375 
Q 46.34375 -0.484375 44.5625 0.171875 
Q 42.78125 0.828125 41.65625 2.171875 
Q 40.53125 3.515625 39.9375 5.484375 
Q 39.359375 7.46875 39.203125 10.109375 
L 38.921875 10.109375 
Q 37.5 7.5625 35.8125 5.515625 
Q 34.125 3.46875 31.875 2.03125 
Q 29.640625 0.59375 26.78125 -0.1875 
Q 23.921875 -0.984375 20.21875 -0.984375 
M 22.21875 5.609375 
Q 26.421875 5.609375 29.5625 7.140625 
Q 32.71875 8.6875 34.78125 11.078125 
Q 36.859375 13.484375 37.890625 16.3125 
Q 38.921875 19.140625 38.921875 21.734375 
L 38.921875 26.078125 
L 29.296875 25.875 
Q 26.078125 25.828125 23.171875 25.40625 
Q 20.265625 25 18.0625 23.78125 
Q 15.875 22.5625 14.578125 20.359375 
Q 13.28125 18.171875 13.28125 14.59375 
Q 13.28125 10.296875 15.59375 7.953125 
Q 17.921875 5.609375 22.21875 5.609375 
" id="LiberationSans-61"/>
      <path d="M 6.9375 0 
L 6.9375 40.53125 
Q 6.9375 42.1875 6.90625 43.921875 
Q 6.890625 45.65625 6.828125 47.265625 
Q 6.78125 48.875 6.734375 50.28125 
Q 6.6875 51.703125 6.640625 52.828125 
L 14.9375 52.828125 
Q 14.984375 51.703125 15.0625 50.265625 
Q 15.140625 48.828125 15.203125 47.3125 
Q 15.28125 45.796875 15.296875 44.40625 
Q 15.328125 43.015625 15.328125 42.046875 
L 15.53125 42.046875 
Q 16.453125 45.0625 17.5 47.28125 
Q 18.5625 49.515625 19.96875 50.953125 
Q 21.390625 52.390625 23.34375 53.09375 
Q 25.296875 53.8125 28.078125 53.8125 
Q 29.15625 53.8125 30.125 53.640625 
Q 31.109375 53.46875 31.640625 53.328125 
L 31.640625 45.265625 
Q 30.765625 45.515625 29.59375 45.625 
Q 28.421875 45.75 26.953125 45.75 
Q 23.921875 45.75 21.796875 44.375 
Q 19.671875 43.015625 18.328125 40.59375 
Q 17 38.1875 16.359375 34.84375 
Q 15.71875 31.5 15.71875 27.546875 
L 15.71875 0 
z
" id="LiberationSans-72"/>
      <path d="M 40.09375 8.5 
Q 37.640625 3.421875 33.609375 1.21875 
Q 29.59375 -0.984375 23.640625 -0.984375 
Q 13.625 -0.984375 8.90625 5.75 
Q 4.203125 12.5 4.203125 26.171875 
Q 4.203125 53.8125 23.640625 53.8125 
Q 29.640625 53.8125 33.640625 51.609375 
Q 37.640625 49.421875 40.09375 44.625 
L 40.1875 44.625 
Q 40.1875 45.125 40.15625 46.171875 
Q 40.140625 47.21875 40.109375 48.359375 
Q 40.09375 49.515625 40.09375 50.53125 
Q 40.09375 51.5625 40.09375 52 
L 40.09375 72.46875 
L 48.875 72.46875 
L 48.875 10.890625 
Q 48.875 8.984375 48.890625 7.21875 
Q 48.921875 5.46875 48.96875 4 
Q 49.03125 2.546875 49.078125 1.484375 
Q 49.125 0.4375 49.171875 0 
L 40.765625 0 
Q 40.671875 0.484375 40.59375 1.390625 
Q 40.53125 2.296875 40.453125 3.46875 
Q 40.375 4.640625 40.328125 5.9375 
Q 40.28125 7.234375 40.28125 8.5 
z
M 13.421875 26.46875 
Q 13.421875 21 14.109375 17.09375 
Q 14.796875 13.1875 16.3125 10.671875 
Q 17.828125 8.15625 20.171875 6.984375 
Q 22.515625 5.8125 25.875 5.8125 
Q 29.34375 5.8125 32 6.9375 
Q 34.671875 8.0625 36.453125 10.578125 
Q 38.234375 13.09375 39.15625 17.140625 
Q 40.09375 21.1875 40.09375 27.046875 
Q 40.09375 32.671875 39.15625 36.546875 
Q 38.234375 40.4375 36.421875 42.828125 
Q 34.625 45.21875 32 46.265625 
Q 29.390625 47.3125 25.984375 47.3125 
Q 22.75 47.3125 20.40625 46.1875 
Q 18.0625 45.0625 16.5 42.578125 
Q 14.9375 40.09375 14.171875 36.109375 
Q 13.421875 32.125 13.421875 26.46875 
" id="LiberationSans-64"/>
     </defs>
     <g style="fill:#262626;" transform="translate(306.5537 406.293437)scale(0.11 -0.11)">
      <use xlink:href="#LiberationSans-77"/>
      <use x="72.216797" xlink:href="#LiberationSans-65"/>
      <use x="127.832031" xlink:href="#LiberationSans-65"/>
      <use x="183.447266" xlink:href="#LiberationSans-6b"/>
      <use x="233.447266" xlink:href="#LiberationSans-5f"/>
      <use x="289.0625" xlink:href="#LiberationSans-73"/>
      <use x="339.0625" xlink:href="#LiberationSans-74"/>
      <use x="366.845703" xlink:href="#LiberationSans-61"/>
      <use x="422.460938" xlink:href="#LiberationSans-72"/>
      <use x="455.761719" xlink:href="#LiberationSans-74"/>
      <use x="483.544922" xlink:href="#LiberationSans-5f"/>
      <use x="539.160156" xlink:href="#LiberationSans-64"/>
      <use x="594.775391" xlink:href="#LiberationSans-61"/>
      <use x="650.390625" xlink:href="#LiberationSans-74"/>
      <use x="678.173828" xlink:href="#LiberationSans-65"/>
     </g>
    </g>
   </g>
   <g id="matplotlib.axis_2">
    <g id="ytick_1">
     <g id="line2d_11">
      <path clip-path="url(#p9dec2a8ade)" d="M 144 363.174545 
L 549.818182 363.174545 
" style="fill:none;stroke:#ffffff;stroke-linecap:round;"/>
     </g>
     <g id="line2d_12"/>
     <g id="text_7">
      <!-- 0 -->
      <g style="fill:#262626;" transform="translate(131.439063 366.797983)scale(0.1 -0.1)">
       <use xlink:href="#LiberationSans-30"/>
      </g>
     </g>
    </g>
    <g id="ytick_2">
     <g id="line2d_13">
      <path clip-path="url(#p9dec2a8ade)" d="M 144 298.855871 
L 549.818182 298.855871 
" style="fill:none;stroke:#ffffff;stroke-linecap:round;"/>
     </g>
     <g id="line2d_14"/>
     <g id="text_8">
      <!-- 100 -->
      <g style="fill:#262626;" transform="translate(120.317188 302.479308)scale(0.1 -0.1)">
       <use xlink:href="#LiberationSans-31"/>
       <use x="55.615234" xlink:href="#LiberationSans-30"/>
       <use x="111.230469" xlink:href="#LiberationSans-30"/>
      </g>
     </g>
    </g>
    <g id="ytick_3">
     <g id="line2d_15">
      <path clip-path="url(#p9dec2a8ade)" d="M 144 234.537196 
L 549.818182 234.537196 
" style="fill:none;stroke:#ffffff;stroke-linecap:round;"/>
     </g>
     <g id="line2d_16"/>
     <g id="text_9">
      <!-- 200 -->
      <g style="fill:#262626;" transform="translate(120.317188 238.160633)scale(0.1 -0.1)">
       <use xlink:href="#LiberationSans-32"/>
       <use x="55.615234" xlink:href="#LiberationSans-30"/>
       <use x="111.230469" xlink:href="#LiberationSans-30"/>
      </g>
     </g>
    </g>
    <g id="ytick_4">
     <g id="line2d_17">
      <path clip-path="url(#p9dec2a8ade)" d="M 144 170.218521 
L 549.818182 170.218521 
" style="fill:none;stroke:#ffffff;stroke-linecap:round;"/>
     </g>
     <g id="line2d_18"/>
     <g id="text_10">
      <!-- 300 -->
      <g style="fill:#262626;" transform="translate(120.317188 173.841959)scale(0.1 -0.1)">
       <use xlink:href="#LiberationSans-33"/>
       <use x="55.615234" xlink:href="#LiberationSans-30"/>
       <use x="111.230469" xlink:href="#LiberationSans-30"/>
      </g>
     </g>
    </g>
    <g id="ytick_5">
     <g id="line2d_19">
      <path clip-path="url(#p9dec2a8ade)" d="M 144 105.899846 
L 549.818182 105.899846 
" style="fill:none;stroke:#ffffff;stroke-linecap:round;"/>
     </g>
     <g id="line2d_20"/>
     <g id="text_11">
      <!-- 400 -->
      <g style="fill:#262626;" transform="translate(120.317188 109.523284)scale(0.1 -0.1)">
       <use xlink:href="#LiberationSans-34"/>
       <use x="55.615234" xlink:href="#LiberationSans-30"/>
       <use x="111.230469" xlink:href="#LiberationSans-30"/>
      </g>
     </g>
    </g>
   </g>
   <g id="line2d_21">
    <path clip-path="url(#p9dec2a8ade)" d="M 144 360.601798 
L 144.43403 359.958612 
L 145.30209 361.244985 
L 145.736121 359.315425 
L 146.170151 361.888172 
L 146.604181 360.601798 
L 147.038211 359.958612 
L 147.472241 356.742678 
L 147.906271 359.315425 
L 148.340301 358.029051 
L 148.774332 361.888172 
L 149.208362 359.315425 
L 149.642392 352.240371 
L 150.076422 348.38125 
L 150.510452 354.813118 
L 151.378512 345.165317 
L 152.246573 350.31081 
L 152.680603 337.447076 
L 153.114633 345.808503 
L 153.548663 336.160702 
L 153.982693 341.949383 
L 154.416723 335.517515 
L 154.850754 339.376636 
L 155.284784 326.512901 
L 155.718814 317.508286 
L 156.152844 334.874329 
L 156.586874 327.156088 
L 157.020904 329.085648 
L 157.454934 329.728835 
L 157.888965 332.944768 
L 158.322995 346.45169 
L 158.757025 345.808503 
L 159.191055 349.667624 
L 159.625085 349.667624 
L 160.059115 346.45169 
L 160.493145 341.306196 
L 160.927175 339.376636 
L 161.361206 352.240371 
L 161.795236 350.953997 
L 162.229266 347.094877 
L 162.663296 351.597184 
L 163.097326 349.667624 
L 163.531356 352.240371 
L 163.965386 352.240371 
L 164.399417 352.883557 
L 164.833447 352.883557 
L 165.267477 353.526744 
L 165.701507 348.38125 
L 166.135537 352.883557 
L 166.569567 352.240371 
L 167.003597 355.456304 
L 167.437628 352.240371 
L 167.871658 356.742678 
L 168.739718 350.953997 
L 169.173748 349.667624 
L 169.607778 354.169931 
L 170.041808 351.597184 
L 170.475839 354.813118 
L 170.909869 354.169931 
L 172.211959 347.094877 
L 172.645989 323.296967 
L 173.080019 324.583341 
L 173.51405 314.292353 
L 173.94808 320.72422 
L 174.38211 322.010594 
L 174.81614 319.437847 
L 175.25017 305.930925 
L 175.6842 304.001365 
L 176.11823 273.128401 
L 176.552261 288.564883 
L 176.986291 271.842027 
L 177.420321 280.203455 
L 177.854351 273.128401 
L 178.288381 273.128401 
L 178.722411 281.489828 
L 179.156441 280.203455 
L 179.590472 254.475985 
L 180.892562 313.005979 
L 181.326592 318.151473 
L 181.760622 311.076419 
L 182.194652 296.283124 
L 182.628683 305.287738 
L 183.062713 308.503672 
L 183.496743 327.799274 
L 183.930773 329.085648 
L 184.364803 321.367407 
L 184.798833 341.949383 
L 185.232863 338.733449 
L 185.666894 325.226527 
L 186.100924 337.447076 
L 186.534954 339.376636 
L 186.968984 344.52213 
L 187.403014 343.878943 
L 187.837044 343.878943 
L 188.271074 345.165317 
L 188.705105 348.38125 
L 189.139135 347.738063 
L 189.573165 344.52213 
L 190.875255 350.31081 
L 191.309285 350.953997 
L 191.743316 350.31081 
L 192.177346 346.45169 
L 192.611376 344.52213 
L 193.045406 343.235756 
L 193.479436 345.165317 
L 193.913466 346.45169 
L 194.347496 342.59257 
L 194.781526 340.663009 
L 195.215557 341.949383 
L 195.649587 343.878943 
L 196.083617 329.728835 
L 196.951677 320.081033 
L 197.385707 321.367407 
L 197.819737 315.578726 
L 198.253768 318.151473 
L 199.121828 329.085648 
L 199.555858 314.292353 
L 199.989888 323.940154 
L 200.423918 326.512901 
L 201.291979 341.306196 
L 202.160039 324.583341 
L 202.594069 324.583341 
L 203.028099 329.085648 
L 203.462129 340.019823 
L 203.896159 343.235756 
L 204.33019 343.878943 
L 204.76422 342.59257 
L 205.19825 345.165317 
L 205.63228 341.949383 
L 206.06631 341.949383 
L 206.50034 340.663009 
L 206.93437 349.024437 
L 207.368401 354.813118 
L 207.802431 354.813118 
L 208.236461 349.667624 
L 208.670491 352.240371 
L 209.104521 356.099491 
L 209.538551 358.029051 
L 209.972581 358.029051 
L 210.406612 359.315425 
L 210.840642 359.315425 
L 211.274672 358.672238 
L 212.142732 352.240371 
L 212.576762 356.742678 
L 213.010792 356.742678 
L 213.444823 351.597184 
L 213.878853 350.953997 
L 214.312883 355.456304 
L 214.746913 349.024437 
L 215.180943 355.456304 
L 215.614973 349.667624 
L 216.049003 351.597184 
L 216.483034 352.883557 
L 216.917064 352.883557 
L 217.351094 349.024437 
L 217.785124 352.240371 
L 218.219154 347.094877 
L 218.653184 348.38125 
L 219.087214 355.456304 
L 219.521245 347.094877 
L 219.955275 345.165317 
L 220.389305 345.808503 
L 220.823335 351.597184 
L 221.257365 348.38125 
L 221.691395 348.38125 
L 222.125425 344.52213 
L 222.559456 338.733449 
L 222.993486 340.019823 
L 223.427516 335.517515 
L 223.861546 333.587955 
L 224.295576 343.235756 
L 224.729606 347.094877 
L 225.163636 337.447076 
L 225.597667 343.235756 
L 226.031697 338.733449 
L 226.899757 349.024437 
L 227.333787 343.235756 
L 227.767817 346.45169 
L 228.201847 340.663009 
L 228.635877 340.019823 
L 229.069908 338.090262 
L 229.503938 347.094877 
L 230.371998 339.376636 
L 230.806028 341.949383 
L 231.240058 347.094877 
L 231.674088 347.738063 
L 232.108119 351.597184 
L 232.542149 348.38125 
L 232.976179 354.813118 
L 233.410209 351.597184 
L 233.844239 354.169931 
L 234.278269 352.240371 
L 234.712299 349.024437 
L 235.14633 354.813118 
L 235.58036 347.738063 
L 236.01439 343.235756 
L 236.44842 341.306196 
L 236.88245 343.235756 
L 237.31648 343.235756 
L 237.75051 338.733449 
L 238.184541 331.658395 
L 238.618571 336.160702 
L 239.486631 327.799274 
L 239.920661 311.719606 
L 240.354691 309.146859 
L 240.788721 316.8651 
L 241.222752 305.930925 
L 241.656782 289.208069 
L 242.090812 248.044118 
L 242.524842 233.250822 
L 242.958872 188.22775 
L 243.392902 168.932148 
L 243.826932 109.11578 
L 244.694993 66.665455 
L 245.129023 118.120394 
L 245.563053 148.993358 
L 245.997083 136.129623 
L 246.431113 99.467979 
L 246.865143 129.054569 
L 247.299174 132.270503 
L 248.601264 267.33972 
L 249.035294 291.13763 
L 249.469324 264.123786 
L 249.903354 304.644551 
L 250.771415 327.156088 
L 252.507535 352.240371 
L 252.941565 352.240371 
L 253.375596 350.31081 
L 253.809626 356.099491 
L 254.243656 358.672238 
L 254.677686 352.883557 
L 255.111716 354.169931 
L 255.545746 352.883557 
L 255.979776 359.958612 
L 256.413807 361.888172 
L 256.847837 359.315425 
L 258.149927 361.244985 
L 258.583957 360.601798 
L 259.017987 352.883557 
L 259.452018 358.029051 
L 259.886048 358.672238 
L 260.320078 356.742678 
L 260.754108 354.169931 
L 261.188138 358.672238 
L 262.056198 356.099491 
L 262.490228 348.38125 
L 262.924259 352.240371 
L 263.358289 350.953997 
L 263.792319 347.738063 
L 264.226349 352.240371 
L 265.094409 337.447076 
L 265.528439 341.949383 
L 265.96247 343.235756 
L 266.3965 341.949383 
L 266.83053 344.52213 
L 267.26456 343.878943 
L 267.69859 340.019823 
L 268.13262 332.301582 
L 268.56665 337.447076 
L 269.000681 345.165317 
L 269.434711 340.019823 
L 269.868741 350.953997 
L 270.302771 341.306196 
L 270.736801 348.38125 
L 271.170831 352.240371 
L 271.604861 352.240371 
L 272.038892 348.38125 
L 272.472922 354.169931 
L 272.906952 350.31081 
L 273.340982 354.813118 
L 273.775012 348.38125 
L 274.209042 350.31081 
L 274.643072 352.883557 
L 275.077103 352.883557 
L 275.511133 348.38125 
L 275.945163 354.169931 
L 276.379193 353.526744 
L 276.813223 360.601798 
L 277.247253 359.958612 
L 277.681283 359.958612 
L 278.115314 356.099491 
L 278.549344 356.099491 
L 279.417404 360.601798 
L 279.851434 359.315425 
L 280.285464 359.958612 
L 280.719494 361.888172 
L 281.153525 360.601798 
L 281.587555 361.888172 
L 282.455615 359.315425 
L 282.889645 359.315425 
L 283.323675 360.601798 
L 283.757705 359.315425 
L 284.625766 352.883557 
L 285.059796 357.385865 
L 285.493826 355.456304 
L 285.927856 354.813118 
L 286.361886 345.808503 
L 286.795916 349.667624 
L 287.663977 352.240371 
L 288.098007 347.738063 
L 288.966067 343.878943 
L 289.400097 344.52213 
L 289.834127 347.094877 
L 290.268158 340.663009 
L 290.702188 341.949383 
L 291.136218 343.878943 
L 291.570248 344.52213 
L 292.004278 343.235756 
L 292.438308 344.52213 
L 292.872338 349.024437 
L 293.306368 345.808503 
L 293.740399 347.738063 
L 294.174429 346.45169 
L 294.608459 344.52213 
L 295.042489 349.024437 
L 295.476519 341.949383 
L 295.910549 347.738063 
L 296.344579 343.878943 
L 296.77861 350.31081 
L 297.21264 352.240371 
L 297.64667 347.738063 
L 298.0807 345.165317 
L 298.51473 351.597184 
L 299.38279 357.385865 
L 299.816821 354.169931 
L 300.250851 356.099491 
L 300.684881 356.099491 
L 301.118911 350.953997 
L 301.552941 356.742678 
L 301.986971 358.029051 
L 302.421001 358.029051 
L 302.855032 357.385865 
L 303.289062 361.244985 
L 303.723092 358.672238 
L 304.157122 354.169931 
L 304.591152 360.601798 
L 305.459212 354.169931 
L 305.893243 358.672238 
L 306.327273 357.385865 
L 306.761303 361.244985 
L 307.195333 361.244985 
L 307.629363 354.169931 
L 308.497423 356.742678 
L 308.931454 349.667624 
L 309.365484 346.45169 
L 309.799514 332.944768 
L 310.233544 336.160702 
L 310.667574 343.235756 
L 311.101604 341.306196 
L 311.535634 341.949383 
L 311.969665 329.728835 
L 312.403695 327.156088 
L 312.837725 318.151473 
L 313.271755 291.13763 
L 313.705785 318.151473 
L 314.139815 332.944768 
L 315.007876 331.658395 
L 315.441906 320.72422 
L 315.875936 327.156088 
L 316.743996 320.081033 
L 317.178026 322.010594 
L 317.612056 319.437847 
L 318.046087 331.658395 
L 318.480117 331.015208 
L 318.914147 327.156088 
L 319.348177 314.935539 
L 319.782207 322.65378 
L 320.216237 323.296967 
L 320.650267 336.803889 
L 321.084298 331.015208 
L 321.518328 341.306196 
L 321.952358 343.235756 
L 322.386388 338.733449 
L 322.820418 343.878943 
L 323.254448 342.59257 
L 323.688478 346.45169 
L 324.122509 343.878943 
L 324.556539 340.019823 
L 324.990569 340.663009 
L 325.424599 333.587955 
L 325.858629 332.301582 
L 326.292659 334.874329 
L 327.160719 325.226527 
L 327.59475 317.508286 
L 328.46281 280.846642 
L 328.89684 281.489828 
L 329.33087 266.696533 
L 329.7649 240.325877 
L 330.632961 151.566105 
L 331.066991 194.016431 
L 331.501021 221.673461 
L 331.935051 231.964449 
L 332.369081 246.757744 
L 332.803111 299.499057 
L 333.237141 328.442461 
L 334.539232 281.489828 
L 334.973262 316.221913 
L 335.841322 322.010594 
L 336.275352 327.799274 
L 336.709383 320.081033 
L 337.143413 309.146859 
L 337.577443 308.503672 
L 338.011473 320.081033 
L 338.445503 316.221913 
L 338.879533 305.930925 
L 339.313563 319.437847 
L 339.747594 325.226527 
L 340.181624 327.156088 
L 340.615654 313.649166 
L 341.049684 314.935539 
L 341.483714 332.944768 
L 341.917744 331.015208 
L 342.351774 336.160702 
L 342.785805 345.165317 
L 343.219835 339.376636 
L 343.653865 339.376636 
L 344.087895 345.808503 
L 344.521925 355.456304 
L 344.955955 353.526744 
L 345.389985 349.024437 
L 345.824016 358.029051 
L 346.258046 353.526744 
L 346.692076 352.240371 
L 347.126106 356.742678 
L 347.560136 357.385865 
L 347.994166 356.099491 
L 348.428196 350.31081 
L 348.862227 354.813118 
L 349.296257 356.099491 
L 349.730287 352.883557 
L 350.598347 358.672238 
L 351.032377 352.240371 
L 351.466407 354.169931 
L 351.900438 354.813118 
L 352.334468 353.526744 
L 352.768498 343.878943 
L 353.202528 347.094877 
L 353.636558 337.447076 
L 354.070588 334.874329 
L 354.504618 347.094877 
L 354.938649 349.667624 
L 355.372679 332.301582 
L 355.806709 327.156088 
L 356.240739 324.583341 
L 356.674769 334.231142 
L 357.108799 327.799274 
L 357.542829 342.59257 
L 358.41089 323.940154 
L 358.84492 336.160702 
L 359.27895 339.376636 
L 359.71298 335.517515 
L 360.14701 341.306196 
L 360.58104 337.447076 
L 361.01507 347.094877 
L 361.449101 352.883557 
L 361.883131 352.240371 
L 362.317161 352.240371 
L 362.751191 352.883557 
L 363.185221 348.38125 
L 363.619251 351.597184 
L 364.053281 351.597184 
L 364.487312 357.385865 
L 364.921342 358.672238 
L 365.355372 358.672238 
L 365.789402 360.601798 
L 366.657462 361.888172 
L 367.091492 358.029051 
L 367.525523 361.244985 
L 367.959553 362.531359 
L 368.393583 362.531359 
L 369.261643 361.244985 
L 369.695673 361.244985 
L 370.129703 361.888172 
L 370.563734 363.174545 
L 370.997764 363.174545 
L 371.431794 361.888172 
L 371.865824 361.888172 
L 372.299854 363.174545 
L 372.733884 359.315425 
L 373.167914 361.244985 
L 373.601945 359.315425 
L 374.035975 361.888172 
L 374.470005 361.244985 
L 374.904035 361.888172 
L 375.338065 360.601798 
L 375.772095 359.958612 
L 376.206125 361.888172 
L 376.640156 357.385865 
L 377.074186 361.888172 
L 377.508216 360.601798 
L 377.942246 358.029051 
L 378.376276 359.315425 
L 378.810306 361.244985 
L 379.244336 356.099491 
L 379.678367 354.169931 
L 380.112397 353.526744 
L 380.546427 350.31081 
L 380.980457 357.385865 
L 381.414487 350.31081 
L 382.282547 338.733449 
L 382.716578 343.878943 
L 383.150608 343.878943 
L 384.018668 352.883557 
L 384.886728 345.165317 
L 385.320758 354.169931 
L 386.188819 350.31081 
L 386.622849 352.240371 
L 387.056879 356.742678 
L 387.490909 354.813118 
L 387.924939 350.31081 
L 388.358969 357.385865 
L 388.793 351.597184 
L 389.22703 357.385865 
L 389.66106 358.029051 
L 390.09509 350.953997 
L 390.96315 360.601798 
L 391.39718 359.315425 
L 391.831211 359.315425 
L 392.265241 358.029051 
L 392.699271 354.813118 
L 393.133301 358.029051 
L 393.567331 358.029051 
L 394.001361 359.958612 
L 394.435391 352.883557 
L 394.869421 355.456304 
L 395.303452 356.099491 
L 395.737482 351.597184 
L 396.171512 356.742678 
L 396.605542 349.024437 
L 397.039572 354.169931 
L 397.907632 351.597184 
L 398.775693 338.733449 
L 399.209723 340.663009 
L 399.643753 336.803889 
L 400.077783 330.372021 
L 400.511813 321.367407 
L 400.945843 327.799274 
L 401.379874 328.442461 
L 401.813904 323.296967 
L 402.247934 322.010594 
L 402.681964 327.156088 
L 403.115994 321.367407 
L 403.550024 317.508286 
L 403.984054 314.935539 
L 404.418085 317.508286 
L 404.852115 316.8651 
L 405.720175 345.808503 
L 406.154205 340.663009 
L 406.588235 347.094877 
L 407.022265 350.953997 
L 407.456296 339.376636 
L 407.890326 338.733449 
L 408.324356 341.306196 
L 409.192416 350.953997 
L 409.626446 351.597184 
L 410.060476 349.024437 
L 410.494507 352.883557 
L 410.928537 351.597184 
L 411.362567 359.315425 
L 411.796597 355.456304 
L 412.230627 359.315425 
L 412.664657 359.315425 
L 413.098687 361.244985 
L 413.532718 358.672238 
L 413.966748 359.315425 
L 414.400778 362.531359 
L 414.834808 361.244985 
L 415.268838 361.888172 
L 415.702868 361.888172 
L 416.136898 362.531359 
L 416.570929 356.742678 
L 417.004959 361.244985 
L 417.438989 361.244985 
L 417.873019 362.531359 
L 418.307049 362.531359 
L 418.741079 361.888172 
L 419.175109 359.315425 
L 419.60914 361.244985 
L 420.04317 361.244985 
L 420.4772 359.958612 
L 420.91123 360.601798 
L 421.34526 358.672238 
L 422.21332 359.958612 
L 422.647351 358.672238 
L 423.081381 359.315425 
L 423.515411 360.601798 
L 423.949441 360.601798 
L 424.383471 358.672238 
L 424.817501 357.385865 
L 425.251531 359.958612 
L 425.685561 359.958612 
L 426.119592 356.742678 
L 426.553622 359.315425 
L 426.987652 354.813118 
L 427.421682 359.315425 
L 427.855712 359.958612 
L 428.289742 359.958612 
L 428.723772 357.385865 
L 429.157803 361.244985 
L 429.591833 359.315425 
L 430.025863 356.099491 
L 430.459893 358.672238 
L 430.893923 358.672238 
L 431.327953 353.526744 
L 431.761983 357.385865 
L 432.196014 359.315425 
L 433.064074 359.315425 
L 433.498104 358.672238 
L 433.932134 356.742678 
L 434.366164 358.029051 
L 434.800194 358.672238 
L 435.234225 355.456304 
L 435.668255 361.244985 
L 436.102285 361.888172 
L 436.536315 358.672238 
L 436.970345 359.958612 
L 437.404375 359.958612 
L 437.838405 358.672238 
L 439.140496 358.672238 
L 440.008556 354.813118 
L 440.442586 356.742678 
L 440.876616 354.169931 
L 441.310647 356.099491 
L 441.744677 350.31081 
L 442.178707 347.094877 
L 442.612737 352.240371 
L 443.046767 351.597184 
L 443.480797 347.094877 
L 443.914827 349.667624 
L 444.348858 343.235756 
L 444.782888 342.59257 
L 445.216918 346.45169 
L 445.650948 340.663009 
L 446.084978 345.165317 
L 446.519008 339.376636 
L 446.953038 336.803889 
L 447.387069 341.306196 
L 447.821099 343.878943 
L 448.255129 338.090262 
L 449.123189 338.090262 
L 449.991249 343.878943 
L 450.42528 339.376636 
L 450.85931 344.52213 
L 451.29334 346.45169 
L 451.72737 353.526744 
L 452.1614 349.024437 
L 452.59543 353.526744 
L 453.02946 350.31081 
L 453.463491 354.169931 
L 453.897521 356.742678 
L 454.331551 349.667624 
L 454.765581 354.169931 
L 455.199611 354.169931 
L 455.633641 357.385865 
L 456.067671 356.099491 
L 456.501702 359.958612 
L 457.369762 358.672238 
L 457.803792 356.099491 
L 458.237822 360.601798 
L 459.105882 361.888172 
L 459.973943 356.742678 
L 460.407973 358.672238 
L 461.276033 361.244985 
L 461.710063 355.456304 
L 462.144093 354.813118 
L 462.578123 356.742678 
L 463.012154 354.813118 
L 463.446184 354.813118 
L 463.880214 358.029051 
L 464.314244 349.667624 
L 464.748274 351.597184 
L 465.182304 358.029051 
L 465.616334 358.672238 
L 466.050365 350.31081 
L 466.484395 354.169931 
L 466.918425 354.169931 
L 467.352455 358.672238 
L 467.786485 354.169931 
L 468.220515 356.742678 
L 468.654545 354.813118 
L 469.088576 345.808503 
L 469.522606 354.813118 
L 469.956636 351.597184 
L 470.390666 352.883557 
L 470.824696 352.883557 
L 471.258726 350.31081 
L 471.692756 352.240371 
L 472.126787 360.601798 
L 472.560817 353.526744 
L 472.994847 358.029051 
L 473.428877 359.315425 
L 473.862907 355.456304 
L 474.296937 353.526744 
L 474.730967 356.099491 
L 475.164998 356.742678 
L 475.599028 353.526744 
L 476.033058 352.240371 
L 476.467088 358.672238 
L 476.901118 358.672238 
L 477.769178 357.385865 
L 478.203209 355.456304 
L 478.637239 355.456304 
L 479.071269 359.958612 
L 479.505299 360.601798 
L 479.939329 356.099491 
L 480.373359 360.601798 
L 480.807389 359.958612 
L 481.24142 358.672238 
L 481.67545 362.531359 
L 482.10948 362.531359 
L 482.54351 360.601798 
L 482.97754 361.888172 
L 483.41157 359.315425 
L 483.8456 361.244985 
L 484.279631 360.601798 
L 484.713661 356.742678 
L 485.147691 355.456304 
L 485.581721 349.667624 
L 486.015751 346.45169 
L 486.449781 349.667624 
L 486.883811 343.878943 
L 487.317842 334.231142 
L 487.751872 327.156088 
L 488.185902 314.935539 
L 488.619932 309.790045 
L 489.053962 310.433232 
L 489.487992 282.133015 
L 489.922022 286.635322 
L 490.356053 275.057961 
L 490.790083 278.917081 
L 491.224113 291.13763 
L 491.658143 310.433232 
L 492.092173 316.221913 
L 492.526203 335.517515 
L 492.960233 327.799274 
L 493.394263 327.799274 
L 493.828294 329.085648 
L 494.262324 333.587955 
L 494.696354 335.517515 
L 495.130384 344.52213 
L 495.564414 349.024437 
L 495.998444 346.45169 
L 496.432474 354.813118 
L 496.866505 352.240371 
L 497.300535 358.029051 
L 497.734565 354.813118 
L 498.168595 356.742678 
L 498.602625 352.240371 
L 499.036655 350.953997 
L 499.470685 357.385865 
L 500.338746 357.385865 
L 500.772776 361.244985 
L 501.206806 358.672238 
L 501.640836 358.672238 
L 502.074866 363.174545 
L 502.508896 361.888172 
L 502.942927 361.244985 
L 503.376957 361.244985 
L 503.810987 362.531359 
L 504.245017 361.244985 
L 505.113077 361.244985 
L 505.547107 358.672238 
L 505.981138 361.244985 
L 506.415168 359.958612 
L 506.849198 356.099491 
L 507.283228 359.958612 
L 507.717258 359.958612 
L 508.151288 359.315425 
L 508.585318 359.315425 
L 509.019349 360.601798 
L 509.453379 360.601798 
L 509.887409 358.029051 
L 510.321439 354.169931 
L 510.755469 355.456304 
L 511.189499 352.883557 
L 511.623529 356.742678 
L 512.05756 352.883557 
L 512.49159 351.597184 
L 512.92562 353.526744 
L 513.35965 348.38125 
L 513.79368 352.240371 
L 514.22771 341.949383 
L 514.66174 353.526744 
L 515.529801 356.099491 
L 516.397861 352.240371 
L 516.831891 350.953997 
L 517.265921 350.31081 
L 517.699951 355.456304 
L 518.133982 349.667624 
L 518.568012 358.672238 
L 519.002042 350.953997 
L 519.436072 356.742678 
L 519.870102 354.813118 
L 520.304132 356.742678 
L 520.738162 358.029051 
L 521.172193 349.667624 
L 521.606223 356.099491 
L 522.040253 357.385865 
L 522.474283 354.169931 
L 522.908313 354.169931 
L 523.342343 353.526744 
L 523.776373 351.597184 
L 524.210404 352.883557 
L 524.644434 355.456304 
L 525.078464 350.31081 
L 525.512494 358.029051 
L 525.946524 361.244985 
L 526.380554 354.813118 
L 526.814584 360.601798 
L 527.248614 362.531359 
L 527.682645 356.742678 
L 528.116675 358.029051 
L 528.550705 354.813118 
L 528.984735 356.742678 
L 529.418765 349.667624 
L 529.852795 351.597184 
L 530.286825 349.667624 
L 530.720856 341.306196 
L 531.154886 347.094877 
L 531.588916 341.306196 
L 532.022946 341.949383 
L 532.456976 337.447076 
L 532.891006 336.160702 
L 533.325036 340.019823 
L 533.759067 316.8651 
L 534.193097 314.935539 
L 534.627127 314.292353 
L 535.061157 304.001365 
L 535.495187 317.508286 
L 535.929217 291.13763 
L 536.797278 298.212684 
L 537.231308 253.832798 
L 538.533398 319.437847 
L 538.967428 332.301582 
L 539.401458 332.301582 
L 539.835489 346.45169 
L 540.269519 341.949383 
L 540.703549 344.52213 
L 541.137579 352.240371 
L 541.571609 355.456304 
L 542.005639 354.813118 
L 542.439669 352.240371 
L 542.8737 353.526744 
L 543.30773 354.169931 
L 543.74176 353.526744 
L 544.17579 356.742678 
L 544.60982 357.385865 
L 545.04385 361.888172 
L 545.47788 359.315425 
L 545.911911 358.029051 
L 546.345941 359.958612 
L 546.779971 362.531359 
L 548.082061 360.601798 
L 548.516091 361.244985 
L 548.950122 362.531359 
L 549.818182 359.958612 
L 549.818182 359.958612 
" style="fill:none;stroke:#4c72b0;stroke-linecap:round;stroke-width:1.75;"/>
   </g>
   <g id="patch_3">
    <path d="M 144 378 
L 144 51.84 
" style="fill:none;"/>
   </g>
   <g id="patch_4">
    <path d="M 549.818182 378 
L 549.818182 51.84 
" style="fill:none;"/>
   </g>
   <g id="patch_5">
    <path d="M 144 378 
L 549.818182 378 
" style="fill:none;"/>
   </g>
   <g id="patch_6">
    <path d="M 144 51.84 
L 549.818182 51.84 
" style="fill:none;"/>
   </g>
   <g id="text_12">
    <!-- Dengue total cases in San Juan -->
    <defs>
     <path d="M 67.4375 35.109375 
Q 67.4375 26.515625 64.84375 19.9375 
Q 62.25 13.375 57.75 8.953125 
Q 53.265625 4.546875 47.140625 2.265625 
Q 41.015625 0 33.9375 0 
L 8.203125 0 
L 8.203125 68.796875 
L 30.953125 68.796875 
Q 38.921875 68.796875 45.625 66.8125 
Q 52.34375 64.84375 57.171875 60.71875 
Q 62.015625 56.59375 64.71875 50.234375 
Q 67.4375 43.890625 67.4375 35.109375 
M 58.0625 35.109375 
Q 58.0625 42.09375 56.046875 47.046875 
Q 54.046875 52 50.4375 55.171875 
Q 46.828125 58.34375 41.796875 59.828125 
Q 36.765625 61.328125 30.765625 61.328125 
L 17.53125 61.328125 
L 17.53125 7.46875 
L 32.859375 7.46875 
Q 38.28125 7.46875 42.890625 9.21875 
Q 47.515625 10.984375 50.875 14.453125 
Q 54.25 17.921875 56.15625 23.09375 
Q 58.0625 28.265625 58.0625 35.109375 
" id="LiberationSans-44"/>
     <path d="M 40.28125 0 
L 40.28125 33.5 
Q 40.28125 37.359375 39.71875 39.9375 
Q 39.15625 42.53125 37.890625 44.109375 
Q 36.625 45.703125 34.546875 46.359375 
Q 32.46875 47.015625 29.390625 47.015625 
Q 26.265625 47.015625 23.75 45.921875 
Q 21.234375 44.828125 19.453125 42.75 
Q 17.671875 40.671875 16.6875 37.625 
Q 15.71875 34.578125 15.71875 30.609375 
L 15.71875 0 
L 6.9375 0 
L 6.9375 41.546875 
Q 6.9375 43.21875 6.90625 45.046875 
Q 6.890625 46.875 6.828125 48.5 
Q 6.78125 50.140625 6.734375 51.3125 
Q 6.6875 52.484375 6.640625 52.828125 
L 14.9375 52.828125 
Q 14.984375 52.59375 15.03125 51.515625 
Q 15.09375 50.4375 15.15625 49.046875 
Q 15.234375 47.65625 15.28125 46.21875 
Q 15.328125 44.78125 15.328125 43.796875 
L 15.484375 43.796875 
Q 16.75 46.09375 18.265625 47.953125 
Q 19.78125 49.8125 21.78125 51.09375 
Q 23.78125 52.390625 26.359375 53.09375 
Q 28.953125 53.8125 32.375 53.8125 
Q 36.765625 53.8125 39.9375 52.734375 
Q 43.109375 51.65625 45.15625 49.40625 
Q 47.21875 47.171875 48.171875 43.625 
Q 49.125 40.09375 49.125 35.203125 
L 49.125 0 
z
" id="LiberationSans-6e"/>
     <path d="M 26.765625 -20.75 
Q 22.21875 -20.75 18.703125 -19.8125 
Q 15.1875 -18.890625 12.6875 -17.15625 
Q 10.203125 -15.4375 8.640625 -13.03125 
Q 7.078125 -10.640625 6.390625 -7.71875 
L 15.234375 -6.453125 
Q 16.109375 -10.109375 19.109375 -12.078125 
Q 22.125 -14.0625 27 -14.0625 
Q 29.984375 -14.0625 32.421875 -13.234375 
Q 34.859375 -12.40625 36.5625 -10.5625 
Q 38.28125 -8.734375 39.203125 -5.796875 
Q 40.140625 -2.875 40.140625 1.3125 
L 40.140625 9.8125 
L 40.046875 9.8125 
Q 39.0625 7.8125 37.625 5.984375 
Q 36.1875 4.15625 34.109375 2.734375 
Q 32.03125 1.3125 29.296875 0.453125 
Q 26.5625 -0.390625 23.046875 -0.390625 
Q 18.015625 -0.390625 14.421875 1.296875 
Q 10.84375 2.984375 8.5625 6.34375 
Q 6.296875 9.71875 5.25 14.71875 
Q 4.203125 19.734375 4.203125 26.3125 
Q 4.203125 32.671875 5.25 37.75 
Q 6.296875 42.828125 8.65625 46.359375 
Q 11.03125 49.90625 14.8125 51.78125 
Q 18.609375 53.65625 24.03125 53.65625 
Q 29.640625 53.65625 33.765625 51.09375 
Q 37.890625 48.53125 40.140625 43.796875 
L 40.234375 43.796875 
Q 40.234375 45.015625 40.296875 46.53125 
Q 40.375 48.046875 40.453125 49.390625 
Q 40.53125 50.734375 40.625 51.703125 
Q 40.71875 52.6875 40.828125 52.828125 
L 49.171875 52.828125 
Q 49.125 52.390625 49.078125 51.34375 
Q 49.03125 50.296875 48.96875 48.828125 
Q 48.921875 47.359375 48.890625 45.578125 
Q 48.875 43.796875 48.875 41.890625 
L 48.875 1.515625 
Q 48.875 -9.578125 43.421875 -15.15625 
Q 37.984375 -20.75 26.765625 -20.75 
M 40.140625 26.421875 
Q 40.140625 31.9375 38.9375 35.859375 
Q 37.75 39.796875 35.796875 42.28125 
Q 33.84375 44.78125 31.328125 45.953125 
Q 28.8125 47.125 26.171875 47.125 
Q 22.796875 47.125 20.375 45.953125 
Q 17.96875 44.78125 16.375 42.265625 
Q 14.796875 39.75 14.03125 35.8125 
Q 13.28125 31.890625 13.28125 26.421875 
Q 13.28125 20.703125 14.03125 16.8125 
Q 14.796875 12.9375 16.359375 10.546875 
Q 17.921875 8.15625 20.3125 7.125 
Q 22.703125 6.109375 26.03125 6.109375 
Q 28.65625 6.109375 31.171875 7.21875 
Q 33.6875 8.34375 35.6875 10.78125 
Q 37.703125 13.234375 38.921875 17.09375 
Q 40.140625 20.953125 40.140625 26.421875 
" id="LiberationSans-67"/>
     <path d="M 15.328125 52.828125 
L 15.328125 19.34375 
Q 15.328125 15.484375 15.890625 12.890625 
Q 16.453125 10.296875 17.71875 8.703125 
Q 19 7.125 21.0625 6.46875 
Q 23.140625 5.8125 26.21875 5.8125 
Q 29.34375 5.8125 31.859375 6.90625 
Q 34.375 8.015625 36.15625 10.078125 
Q 37.9375 12.15625 38.90625 15.203125 
Q 39.890625 18.265625 39.890625 22.21875 
L 39.890625 52.828125 
L 48.6875 52.828125 
L 48.6875 11.28125 
Q 48.6875 9.625 48.703125 7.78125 
Q 48.734375 5.953125 48.78125 4.3125 
Q 48.828125 2.6875 48.875 1.515625 
Q 48.921875 0.34375 48.96875 0 
L 40.671875 0 
Q 40.625 0.25 40.578125 1.3125 
Q 40.53125 2.390625 40.453125 3.78125 
Q 40.375 5.171875 40.328125 6.609375 
Q 40.28125 8.0625 40.28125 9.03125 
L 40.140625 9.03125 
Q 38.875 6.734375 37.359375 4.875 
Q 35.84375 3.03125 33.84375 1.734375 
Q 31.84375 0.4375 29.25 -0.265625 
Q 26.65625 -0.984375 23.25 -0.984375 
Q 18.84375 -0.984375 15.671875 0.09375 
Q 12.5 1.171875 10.453125 3.421875 
Q 8.40625 5.671875 7.453125 9.1875 
Q 6.5 12.703125 6.5 17.625 
L 6.5 52.828125 
z
" id="LiberationSans-75"/>
     <path id="LiberationSans-20"/>
     <path d="M 51.421875 26.46875 
Q 51.421875 12.59375 45.3125 5.796875 
Q 39.203125 -0.984375 27.59375 -0.984375 
Q 22.078125 -0.984375 17.71875 0.671875 
Q 13.375 2.34375 10.375 5.765625 
Q 7.375 9.1875 5.78125 14.328125 
Q 4.203125 19.484375 4.203125 26.46875 
Q 4.203125 53.8125 27.875 53.8125 
Q 34.03125 53.8125 38.5 52.09375 
Q 42.96875 50.390625 45.828125 46.96875 
Q 48.6875 43.5625 50.046875 38.421875 
Q 51.421875 33.296875 51.421875 26.46875 
M 42.1875 26.46875 
Q 42.1875 32.625 41.234375 36.625 
Q 40.28125 40.625 38.453125 43.015625 
Q 36.625 45.40625 33.984375 46.359375 
Q 31.34375 47.3125 28.03125 47.3125 
Q 24.65625 47.3125 21.9375 46.3125 
Q 19.234375 45.3125 17.328125 42.890625 
Q 15.4375 40.484375 14.421875 36.46875 
Q 13.421875 32.46875 13.421875 26.46875 
Q 13.421875 20.3125 14.5 16.28125 
Q 15.578125 12.25 17.453125 9.859375 
Q 19.34375 7.46875 21.90625 6.484375 
Q 24.46875 5.515625 27.484375 5.515625 
Q 30.859375 5.515625 33.59375 6.46875 
Q 36.328125 7.421875 38.234375 9.8125 
Q 40.140625 12.203125 41.15625 16.25 
Q 42.1875 20.3125 42.1875 26.46875 
" id="LiberationSans-6f"/>
     <path d="M 6.734375 0 
L 6.734375 72.46875 
L 15.53125 72.46875 
L 15.53125 0 
z
" id="LiberationSans-6c"/>
     <path d="M 13.421875 26.65625 
Q 13.421875 22.125 14.078125 18.3125 
Q 14.75 14.5 16.3125 11.734375 
Q 17.875 8.984375 20.4375 7.46875 
Q 23 5.953125 26.765625 5.953125 
Q 31.453125 5.953125 34.59375 8.484375 
Q 37.75 11.03125 38.484375 16.3125 
L 47.359375 15.71875 
Q 46.921875 12.453125 45.453125 9.421875 
Q 44 6.390625 41.484375 4.09375 
Q 38.96875 1.8125 35.34375 0.40625 
Q 31.734375 -0.984375 27 -0.984375 
Q 20.796875 -0.984375 16.453125 1.109375 
Q 12.109375 3.21875 9.390625 6.90625 
Q 6.6875 10.59375 5.46875 15.59375 
Q 4.25 20.609375 4.25 26.46875 
Q 4.25 31.78125 5.125 35.859375 
Q 6 39.9375 7.59375 42.984375 
Q 9.1875 46.046875 11.328125 48.125 
Q 13.484375 50.203125 15.984375 51.4375 
Q 18.5 52.6875 21.28125 53.25 
Q 24.078125 53.8125 26.90625 53.8125 
Q 31.34375 53.8125 34.8125 52.59375 
Q 38.28125 51.375 40.796875 49.25 
Q 43.3125 47.125 44.875 44.234375 
Q 46.4375 41.359375 47.078125 38.03125 
L 38.03125 37.359375 
Q 37.359375 41.75 34.5625 44.328125 
Q 31.78125 46.921875 26.65625 46.921875 
Q 22.90625 46.921875 20.390625 45.671875 
Q 17.875 44.4375 16.3125 41.921875 
Q 14.75 39.40625 14.078125 35.59375 
Q 13.421875 31.78125 13.421875 26.65625 
" id="LiberationSans-63"/>
     <path d="M 6.6875 64.0625 
L 6.6875 72.46875 
L 15.484375 72.46875 
L 15.484375 64.0625 
z
M 6.6875 0 
L 6.6875 52.828125 
L 15.484375 52.828125 
L 15.484375 0 
z
" id="LiberationSans-69"/>
     <path d="M 62.109375 19 
Q 62.109375 14.65625 60.421875 10.984375 
Q 58.734375 7.328125 55.21875 4.65625 
Q 51.703125 2 46.359375 0.5 
Q 41.015625 -0.984375 33.6875 -0.984375 
Q 20.84375 -0.984375 13.671875 3.515625 
Q 6.5 8.015625 4.546875 16.5 
L 13.578125 18.3125 
Q 14.265625 15.625 15.671875 13.421875 
Q 17.09375 11.234375 19.5 9.640625 
Q 21.921875 8.0625 25.484375 7.171875 
Q 29.046875 6.296875 34.03125 6.296875 
Q 38.1875 6.296875 41.65625 7 
Q 45.125 7.71875 47.609375 9.171875 
Q 50.09375 10.640625 51.484375 12.953125 
Q 52.875 15.28125 52.875 18.5 
Q 52.875 21.875 51.34375 23.96875 
Q 49.8125 26.078125 47.015625 27.4375 
Q 44.234375 28.8125 40.375 29.734375 
Q 36.53125 30.671875 31.84375 31.734375 
Q 28.953125 32.375 26.046875 33.125 
Q 23.140625 33.890625 20.484375 34.9375 
Q 17.828125 35.984375 15.484375 37.390625 
Q 13.140625 38.8125 11.421875 40.796875 
Q 9.71875 42.78125 8.734375 45.390625 
Q 7.765625 48 7.765625 51.421875 
Q 7.765625 56.296875 9.734375 59.78125 
Q 11.71875 63.28125 15.234375 65.53125 
Q 18.75 67.78125 23.53125 68.796875 
Q 28.328125 69.828125 33.890625 69.828125 
Q 40.28125 69.828125 44.8125 68.828125 
Q 49.359375 67.828125 52.484375 65.8125 
Q 55.609375 63.8125 57.484375 60.859375 
Q 59.375 57.90625 60.5 54 
L 51.3125 52.390625 
Q 50.640625 54.890625 49.34375 56.84375 
Q 48.046875 58.796875 45.9375 60.109375 
Q 43.84375 61.421875 40.84375 62.109375 
Q 37.84375 62.796875 33.796875 62.796875 
Q 29 62.796875 25.75 61.9375 
Q 22.515625 61.078125 20.53125 59.609375 
Q 18.5625 58.15625 17.703125 56.171875 
Q 16.84375 54.203125 16.84375 51.90625 
Q 16.84375 48.828125 18.375 46.84375 
Q 19.921875 44.875 22.5625 43.546875 
Q 25.203125 42.234375 28.65625 41.359375 
Q 32.125 40.484375 36.03125 39.59375 
Q 39.203125 38.875 42.359375 38.109375 
Q 45.515625 37.359375 48.390625 36.296875 
Q 51.265625 35.25 53.78125 33.828125 
Q 56.296875 32.421875 58.15625 30.375 
Q 60.015625 28.328125 61.0625 25.53125 
Q 62.109375 22.75 62.109375 19 
" id="LiberationSans-53"/>
     <path d="M 22.3125 -0.984375 
Q 13.96875 -0.984375 8.609375 3.359375 
Q 3.265625 7.71875 1.5625 17.09375 
L 10.6875 18.609375 
Q 11.1875 15.4375 12.296875 13.15625 
Q 13.421875 10.890625 14.984375 9.421875 
Q 16.546875 7.953125 18.453125 7.265625 
Q 20.359375 6.59375 22.359375 6.59375 
Q 27.4375 6.59375 30.359375 10.078125 
Q 33.296875 13.578125 33.296875 20.3125 
L 33.296875 61.1875 
L 20.0625 61.1875 
L 20.0625 68.796875 
L 42.578125 68.796875 
L 42.578125 20.515625 
Q 42.578125 15.578125 41.203125 11.625 
Q 39.84375 7.671875 37.234375 4.859375 
Q 34.625 2.046875 30.859375 0.53125 
Q 27.09375 -0.984375 22.3125 -0.984375 
" id="LiberationSans-4a"/>
    </defs>
    <g style="fill:#262626;" transform="translate(262.190966 45.84)scale(0.12 -0.12)">
     <use xlink:href="#LiberationSans-44"/>
     <use x="72.216797" xlink:href="#LiberationSans-65"/>
     <use x="127.832031" xlink:href="#LiberationSans-6e"/>
     <use x="183.447266" xlink:href="#LiberationSans-67"/>
     <use x="239.0625" xlink:href="#LiberationSans-75"/>
     <use x="294.677734" xlink:href="#LiberationSans-65"/>
     <use x="350.292969" xlink:href="#LiberationSans-20"/>
     <use x="378.076172" xlink:href="#LiberationSans-74"/>
     <use x="405.859375" xlink:href="#LiberationSans-6f"/>
     <use x="461.474609" xlink:href="#LiberationSans-74"/>
     <use x="489.257812" xlink:href="#LiberationSans-61"/>
     <use x="544.873047" xlink:href="#LiberationSans-6c"/>
     <use x="567.089844" xlink:href="#LiberationSans-20"/>
     <use x="594.873047" xlink:href="#LiberationSans-63"/>
     <use x="644.873047" xlink:href="#LiberationSans-61"/>
     <use x="700.488281" xlink:href="#LiberationSans-73"/>
     <use x="750.488281" xlink:href="#LiberationSans-65"/>
     <use x="806.103516" xlink:href="#LiberationSans-73"/>
     <use x="856.103516" xlink:href="#LiberationSans-20"/>
     <use x="883.886719" xlink:href="#LiberationSans-69"/>
     <use x="906.103516" xlink:href="#LiberationSans-6e"/>
     <use x="961.71875" xlink:href="#LiberationSans-20"/>
     <use x="989.501953" xlink:href="#LiberationSans-53"/>
     <use x="1056.201172" xlink:href="#LiberationSans-61"/>
     <use x="1111.816406" xlink:href="#LiberationSans-6e"/>
     <use x="1167.431641" xlink:href="#LiberationSans-20"/>
     <use x="1195.214844" xlink:href="#LiberationSans-4a"/>
     <use x="1245.214844" xlink:href="#LiberationSans-75"/>
     <use x="1300.830078" xlink:href="#LiberationSans-61"/>
     <use x="1356.445312" xlink:href="#LiberationSans-6e"/>
    </g>
   </g>
   <g id="legend_1">
    <g id="line2d_22">
     <path d="M 462.235369 64.586875 
L 482.235369 64.586875 
" style="fill:none;stroke:#4c72b0;stroke-linecap:round;stroke-width:1.75;"/>
    </g>
    <g id="line2d_23"/>
    <g id="text_13">
     <!-- total_cases -->
     <g style="fill:#262626;" transform="translate(490.235369 68.086875)scale(0.1 -0.1)">
      <use xlink:href="#LiberationSans-74"/>
      <use x="27.783203" xlink:href="#LiberationSans-6f"/>
      <use x="83.398438" xlink:href="#LiberationSans-74"/>
      <use x="111.181641" xlink:href="#LiberationSans-61"/>
      <use x="166.796875" xlink:href="#LiberationSans-6c"/>
      <use x="189.013672" xlink:href="#LiberationSans-5f"/>
      <use x="244.628906" xlink:href="#LiberationSans-63"/>
      <use x="294.628906" xlink:href="#LiberationSans-61"/>
      <use x="350.244141" xlink:href="#LiberationSans-73"/>
      <use x="400.244141" xlink:href="#LiberationSans-65"/>
      <use x="455.859375" xlink:href="#LiberationSans-73"/>
     </g>
    </g>
   </g>
  </g>
  <g id="axes_2">
   <g id="patch_7">
    <path d="M 630.981818 378 
L 1036.8 378 
L 1036.8 51.84 
L 630.981818 51.84 
z
" style="fill:#eaeaf2;"/>
   </g>
   <g id="matplotlib.axis_3">
    <g id="xtick_6">
     <g id="line2d_24">
      <path clip-path="url(#p5c96e56080)" d="M 630.981818 378 
L 630.981818 51.84 
" style="fill:none;stroke:#ffffff;stroke-linecap:round;"/>
     </g>
     <g id="line2d_25"/>
     <g id="text_14">
      <!-- 2000-07-01 -->
      <g style="fill:#262626;" transform="translate(605.408381 392.246875)scale(0.1 -0.1)">
       <use xlink:href="#LiberationSans-32"/>
       <use x="55.615234" xlink:href="#LiberationSans-30"/>
       <use x="111.230469" xlink:href="#LiberationSans-30"/>
       <use x="166.845703" xlink:href="#LiberationSans-30"/>
       <use x="222.460938" xlink:href="#LiberationSans-2d"/>
       <use x="255.761719" xlink:href="#LiberationSans-30"/>
       <use x="311.376953" xlink:href="#LiberationSans-37"/>
       <use x="366.992188" xlink:href="#LiberationSans-2d"/>
       <use x="400.292969" xlink:href="#LiberationSans-30"/>
       <use x="455.908203" xlink:href="#LiberationSans-31"/>
      </g>
     </g>
    </g>
    <g id="xtick_7">
     <g id="line2d_26">
      <path clip-path="url(#p5c96e56080)" d="M 709.174146 378 
L 709.174146 51.84 
" style="fill:none;stroke:#ffffff;stroke-linecap:round;"/>
     </g>
     <g id="line2d_27"/>
     <g id="text_15">
      <!-- 2002-06-04 -->
      <defs>
       <path d="M 51.21875 22.515625 
Q 51.21875 17.328125 49.78125 13 
Q 48.34375 8.6875 45.53125 5.578125 
Q 42.71875 2.484375 38.5625 0.75 
Q 34.421875 -0.984375 29 -0.984375 
Q 23 -0.984375 18.5 1.3125 
Q 14.015625 3.609375 11.03125 7.921875 
Q 8.0625 12.25 6.5625 18.53125 
Q 5.078125 24.8125 5.078125 32.8125 
Q 5.078125 42 6.765625 48.921875 
Q 8.453125 55.859375 11.625 60.5 
Q 14.796875 65.140625 19.359375 67.484375 
Q 23.921875 69.828125 29.6875 69.828125 
Q 33.203125 69.828125 36.28125 69.09375 
Q 39.359375 68.359375 41.875 66.71875 
Q 44.390625 65.09375 46.28125 62.40625 
Q 48.1875 59.71875 49.3125 55.8125 
L 40.921875 54.296875 
Q 39.546875 58.734375 36.546875 60.71875 
Q 33.546875 62.703125 29.59375 62.703125 
Q 25.984375 62.703125 23.046875 60.984375 
Q 20.125 59.28125 18.0625 55.875 
Q 16.015625 52.484375 14.90625 47.359375 
Q 13.8125 42.234375 13.8125 35.40625 
Q 16.21875 39.84375 20.5625 42.15625 
Q 24.90625 44.484375 30.515625 44.484375 
Q 35.203125 44.484375 39.015625 42.96875 
Q 42.828125 41.453125 45.53125 38.59375 
Q 48.25 35.75 49.734375 31.671875 
Q 51.21875 27.59375 51.21875 22.515625 
M 42.28125 22.125 
Q 42.28125 25.6875 41.40625 28.5625 
Q 40.53125 31.453125 38.765625 33.46875 
Q 37.015625 35.5 34.421875 36.59375 
Q 31.84375 37.703125 28.421875 37.703125 
Q 26.03125 37.703125 23.578125 36.984375 
Q 21.140625 36.28125 19.15625 34.6875 
Q 17.1875 33.109375 15.9375 30.515625 
Q 14.703125 27.9375 14.703125 24.21875 
Q 14.703125 20.40625 15.671875 17.109375 
Q 16.65625 13.8125 18.484375 11.375 
Q 20.3125 8.9375 22.890625 7.515625 
Q 25.484375 6.109375 28.71875 6.109375 
Q 31.890625 6.109375 34.40625 7.203125 
Q 36.921875 8.296875 38.671875 10.375 
Q 40.4375 12.453125 41.359375 15.421875 
Q 42.28125 18.40625 42.28125 22.125 
" id="LiberationSans-36"/>
      </defs>
      <g style="fill:#262626;" transform="translate(683.600709 392.246875)scale(0.1 -0.1)">
       <use xlink:href="#LiberationSans-32"/>
       <use x="55.615234" xlink:href="#LiberationSans-30"/>
       <use x="111.230469" xlink:href="#LiberationSans-30"/>
       <use x="166.845703" xlink:href="#LiberationSans-32"/>
       <use x="222.460938" xlink:href="#LiberationSans-2d"/>
       <use x="255.761719" xlink:href="#LiberationSans-30"/>
       <use x="311.376953" xlink:href="#LiberationSans-36"/>
       <use x="366.992188" xlink:href="#LiberationSans-2d"/>
       <use x="400.292969" xlink:href="#LiberationSans-30"/>
       <use x="455.908203" xlink:href="#LiberationSans-34"/>
      </g>
     </g>
    </g>
    <g id="xtick_8">
     <g id="line2d_28">
      <path clip-path="url(#p5c96e56080)" d="M 787.366474 378 
L 787.366474 51.84 
" style="fill:none;stroke:#ffffff;stroke-linecap:round;"/>
     </g>
     <g id="line2d_29"/>
     <g id="text_16">
      <!-- 2004-05-06 -->
      <g style="fill:#262626;" transform="translate(761.793036 392.246875)scale(0.1 -0.1)">
       <use xlink:href="#LiberationSans-32"/>
       <use x="55.615234" xlink:href="#LiberationSans-30"/>
       <use x="111.230469" xlink:href="#LiberationSans-30"/>
       <use x="166.845703" xlink:href="#LiberationSans-34"/>
       <use x="222.460938" xlink:href="#LiberationSans-2d"/>
       <use x="255.761719" xlink:href="#LiberationSans-30"/>
       <use x="311.376953" xlink:href="#LiberationSans-35"/>
       <use x="366.992188" xlink:href="#LiberationSans-2d"/>
       <use x="400.292969" xlink:href="#LiberationSans-30"/>
       <use x="455.908203" xlink:href="#LiberationSans-36"/>
      </g>
     </g>
    </g>
    <g id="xtick_9">
     <g id="line2d_30">
      <path clip-path="url(#p5c96e56080)" d="M 865.558802 378 
L 865.558802 51.84 
" style="fill:none;stroke:#ffffff;stroke-linecap:round;"/>
     </g>
     <g id="line2d_31"/>
     <g id="text_17">
      <!-- 2006-04-09 -->
      <g style="fill:#262626;" transform="translate(839.985364 392.246875)scale(0.1 -0.1)">
       <use xlink:href="#LiberationSans-32"/>
       <use x="55.615234" xlink:href="#LiberationSans-30"/>
       <use x="111.230469" xlink:href="#LiberationSans-30"/>
       <use x="166.845703" xlink:href="#LiberationSans-36"/>
       <use x="222.460938" xlink:href="#LiberationSans-2d"/>
       <use x="255.761719" xlink:href="#LiberationSans-30"/>
       <use x="311.376953" xlink:href="#LiberationSans-34"/>
       <use x="366.992188" xlink:href="#LiberationSans-2d"/>
       <use x="400.292969" xlink:href="#LiberationSans-30"/>
       <use x="455.908203" xlink:href="#LiberationSans-39"/>
      </g>
     </g>
    </g>
    <g id="xtick_10">
     <g id="line2d_32">
      <path clip-path="url(#p5c96e56080)" d="M 943.75113 378 
L 943.75113 51.84 
" style="fill:none;stroke:#ffffff;stroke-linecap:round;"/>
     </g>
     <g id="line2d_33"/>
     <g id="text_18">
      <!-- 2008-03-11 -->
      <g style="fill:#262626;" transform="translate(918.177692 392.246875)scale(0.1 -0.1)">
       <use xlink:href="#LiberationSans-32"/>
       <use x="55.615234" xlink:href="#LiberationSans-30"/>
       <use x="111.230469" xlink:href="#LiberationSans-30"/>
       <use x="166.845703" xlink:href="#LiberationSans-38"/>
       <use x="222.460938" xlink:href="#LiberationSans-2d"/>
       <use x="255.761719" xlink:href="#LiberationSans-30"/>
       <use x="311.376953" xlink:href="#LiberationSans-33"/>
       <use x="366.992188" xlink:href="#LiberationSans-2d"/>
       <use x="400.292969" xlink:href="#LiberationSans-31"/>
       <use x="455.908203" xlink:href="#LiberationSans-31"/>
      </g>
     </g>
    </g>
    <g id="xtick_11">
     <g id="line2d_34">
      <path clip-path="url(#p5c96e56080)" d="M 1021.943458 378 
L 1021.943458 51.84 
" style="fill:none;stroke:#ffffff;stroke-linecap:round;"/>
     </g>
     <g id="line2d_35"/>
     <g id="text_19">
      <!-- 2010-02-12 -->
      <g style="fill:#262626;" transform="translate(996.37002 392.246875)scale(0.1 -0.1)">
       <use xlink:href="#LiberationSans-32"/>
       <use x="55.615234" xlink:href="#LiberationSans-30"/>
       <use x="111.230469" xlink:href="#LiberationSans-31"/>
       <use x="166.845703" xlink:href="#LiberationSans-30"/>
       <use x="222.460938" xlink:href="#LiberationSans-2d"/>
       <use x="255.761719" xlink:href="#LiberationSans-30"/>
       <use x="311.376953" xlink:href="#LiberationSans-32"/>
       <use x="366.992188" xlink:href="#LiberationSans-2d"/>
       <use x="400.292969" xlink:href="#LiberationSans-31"/>
       <use x="455.908203" xlink:href="#LiberationSans-32"/>
      </g>
     </g>
    </g>
    <g id="text_20">
     <!-- week_start_date -->
     <g style="fill:#262626;" transform="translate(793.535518 406.293437)scale(0.11 -0.11)">
      <use xlink:href="#LiberationSans-77"/>
      <use x="72.216797" xlink:href="#LiberationSans-65"/>
      <use x="127.832031" xlink:href="#LiberationSans-65"/>
      <use x="183.447266" xlink:href="#LiberationSans-6b"/>
      <use x="233.447266" xlink:href="#LiberationSans-5f"/>
      <use x="289.0625" xlink:href="#LiberationSans-73"/>
      <use x="339.0625" xlink:href="#LiberationSans-74"/>
      <use x="366.845703" xlink:href="#LiberationSans-61"/>
      <use x="422.460938" xlink:href="#LiberationSans-72"/>
      <use x="455.761719" xlink:href="#LiberationSans-74"/>
      <use x="483.544922" xlink:href="#LiberationSans-5f"/>
      <use x="539.160156" xlink:href="#LiberationSans-64"/>
      <use x="594.775391" xlink:href="#LiberationSans-61"/>
      <use x="650.390625" xlink:href="#LiberationSans-74"/>
      <use x="678.173828" xlink:href="#LiberationSans-65"/>
     </g>
    </g>
   </g>
   <g id="matplotlib.axis_4">
    <g id="ytick_6">
     <g id="line2d_36">
      <path clip-path="url(#p5c96e56080)" d="M 630.981818 363.174545 
L 1036.8 363.174545 
" style="fill:none;stroke:#ffffff;stroke-linecap:round;"/>
     </g>
     <g id="line2d_37"/>
     <g id="text_21">
      <!-- 0 -->
      <g style="fill:#262626;" transform="translate(618.420881 366.797983)scale(0.1 -0.1)">
       <use xlink:href="#LiberationSans-30"/>
      </g>
     </g>
    </g>
    <g id="ytick_7">
     <g id="line2d_38">
      <path clip-path="url(#p5c96e56080)" d="M 630.981818 312.052288 
L 1036.8 312.052288 
" style="fill:none;stroke:#ffffff;stroke-linecap:round;"/>
     </g>
     <g id="line2d_39"/>
     <g id="text_22">
      <!-- 20 -->
      <g style="fill:#262626;" transform="translate(612.859943 315.675726)scale(0.1 -0.1)">
       <use xlink:href="#LiberationSans-32"/>
       <use x="55.615234" xlink:href="#LiberationSans-30"/>
      </g>
     </g>
    </g>
    <g id="ytick_8">
     <g id="line2d_40">
      <path clip-path="url(#p5c96e56080)" d="M 630.981818 260.930031 
L 1036.8 260.930031 
" style="fill:none;stroke:#ffffff;stroke-linecap:round;"/>
     </g>
     <g id="line2d_41"/>
     <g id="text_23">
      <!-- 40 -->
      <g style="fill:#262626;" transform="translate(612.859943 264.553469)scale(0.1 -0.1)">
       <use xlink:href="#LiberationSans-34"/>
       <use x="55.615234" xlink:href="#LiberationSans-30"/>
      </g>
     </g>
    </g>
    <g id="ytick_9">
     <g id="line2d_42">
      <path clip-path="url(#p5c96e56080)" d="M 630.981818 209.807774 
L 1036.8 209.807774 
" style="fill:none;stroke:#ffffff;stroke-linecap:round;"/>
     </g>
     <g id="line2d_43"/>
     <g id="text_24">
      <!-- 60 -->
      <g style="fill:#262626;" transform="translate(612.859943 213.431212)scale(0.1 -0.1)">
       <use xlink:href="#LiberationSans-36"/>
       <use x="55.615234" xlink:href="#LiberationSans-30"/>
      </g>
     </g>
    </g>
    <g id="ytick_10">
     <g id="line2d_44">
      <path clip-path="url(#p5c96e56080)" d="M 630.981818 158.685517 
L 1036.8 158.685517 
" style="fill:none;stroke:#ffffff;stroke-linecap:round;"/>
     </g>
     <g id="line2d_45"/>
     <g id="text_25">
      <!-- 80 -->
      <g style="fill:#262626;" transform="translate(612.859943 162.308955)scale(0.1 -0.1)">
       <use xlink:href="#LiberationSans-38"/>
       <use x="55.615234" xlink:href="#LiberationSans-30"/>
      </g>
     </g>
    </g>
    <g id="ytick_11">
     <g id="line2d_46">
      <path clip-path="url(#p5c96e56080)" d="M 630.981818 107.56326 
L 1036.8 107.56326 
" style="fill:none;stroke:#ffffff;stroke-linecap:round;"/>
     </g>
     <g id="line2d_47"/>
     <g id="text_26">
      <!-- 100 -->
      <g style="fill:#262626;" transform="translate(607.299006 111.186698)scale(0.1 -0.1)">
       <use xlink:href="#LiberationSans-31"/>
       <use x="55.615234" xlink:href="#LiberationSans-30"/>
       <use x="111.230469" xlink:href="#LiberationSans-30"/>
      </g>
     </g>
    </g>
    <g id="ytick_12">
     <g id="line2d_48">
      <path clip-path="url(#p5c96e56080)" d="M 630.981818 56.441003 
L 1036.8 56.441003 
" style="fill:none;stroke:#ffffff;stroke-linecap:round;"/>
     </g>
     <g id="line2d_49"/>
     <g id="text_27">
      <!-- 120 -->
      <g style="fill:#262626;" transform="translate(607.299006 60.064441)scale(0.1 -0.1)">
       <use xlink:href="#LiberationSans-31"/>
       <use x="55.615234" xlink:href="#LiberationSans-32"/>
       <use x="111.230469" xlink:href="#LiberationSans-30"/>
      </g>
     </g>
    </g>
   </g>
   <g id="line2d_50">
    <path clip-path="url(#p5c96e56080)" d="M 630.981818 363.174545 
L 638.019128 363.174545 
L 638.801051 360.618433 
L 639.582974 363.174545 
L 641.928744 363.174545 
L 642.710667 360.618433 
L 643.492591 360.618433 
L 644.274514 363.174545 
L 648.966054 363.174545 
L 649.747977 360.618433 
L 650.5299 363.174545 
L 662.258749 363.174545 
L 663.040673 360.618433 
L 663.822596 363.174545 
L 666.168366 363.174545 
L 666.950289 360.618433 
L 667.732212 360.618433 
L 668.514136 363.174545 
L 669.296059 363.174545 
L 670.077982 360.618433 
L 670.859905 363.174545 
L 686.498371 363.174545 
L 687.280294 360.618433 
L 688.844141 360.618433 
L 689.626064 358.06232 
L 690.407987 352.950094 
L 691.189911 360.618433 
L 691.971834 352.950094 
L 692.753757 335.057304 
L 693.535681 322.27674 
L 694.317604 304.38395 
L 695.099527 332.501191 
L 695.88145 327.388966 
L 696.663374 317.164514 
L 697.445297 342.725643 
L 698.22722 345.281755 
L 699.009143 337.613417 
L 699.791067 345.281755 
L 700.57299 337.613417 
L 701.354913 350.393981 
L 702.136837 335.057304 
L 702.91876 342.725643 
L 703.700683 317.164514 
L 704.482606 329.945078 
L 705.26453 340.16953 
L 706.046453 306.940063 
L 706.828376 337.613417 
L 707.6103 350.393981 
L 708.392223 329.945078 
L 709.174146 358.06232 
L 709.956069 335.057304 
L 710.737993 335.057304 
L 711.519916 355.506207 
L 712.301839 345.281755 
L 713.083762 345.281755 
L 713.865686 352.950094 
L 716.211456 345.281755 
L 716.993379 345.281755 
L 717.775302 352.950094 
L 718.557225 340.16953 
L 719.339149 319.720627 
L 720.121072 342.725643 
L 720.902995 306.940063 
L 721.684919 317.164514 
L 722.466842 309.496176 
L 723.248765 322.27674 
L 724.030688 283.935047 
L 724.812612 299.271724 
L 725.594535 291.603386 
L 726.376458 296.715611 
L 727.158382 317.164514 
L 727.940305 294.159498 
L 728.722228 335.057304 
L 729.504151 266.042257 
L 731.849921 335.057304 
L 732.631844 337.613417 
L 733.413768 350.393981 
L 734.195691 347.837868 
L 734.977614 358.06232 
L 735.759538 360.618433 
L 736.541461 358.06232 
L 737.323384 358.06232 
L 738.105307 355.506207 
L 738.887231 350.393981 
L 739.669154 360.618433 
L 740.451077 352.950094 
L 741.233001 358.06232 
L 742.014924 352.950094 
L 742.796847 363.174545 
L 745.142617 363.174545 
L 745.92454 360.618433 
L 749.052233 360.618433 
L 751.398003 352.950094 
L 752.179926 347.837868 
L 752.96185 358.06232 
L 753.743773 358.06232 
L 754.525696 350.393981 
L 755.30762 360.618433 
L 756.089543 360.618433 
L 756.871466 363.174545 
L 759.217236 363.174545 
L 759.999159 358.06232 
L 760.781083 363.174545 
L 761.563006 355.506207 
L 762.344929 363.174545 
L 763.908776 363.174545 
L 764.690699 358.06232 
L 765.472622 358.06232 
L 766.254545 355.506207 
L 767.818392 355.506207 
L 768.600315 360.618433 
L 770.164162 355.506207 
L 770.946085 347.837868 
L 771.728008 350.393981 
L 772.509932 360.618433 
L 773.291855 352.950094 
L 774.073778 350.393981 
L 774.855702 342.725643 
L 776.419548 358.06232 
L 777.201471 355.506207 
L 777.983395 355.506207 
L 778.765318 360.618433 
L 779.547241 347.837868 
L 780.329164 352.950094 
L 781.111088 360.618433 
L 782.674934 355.506207 
L 783.456858 360.618433 
L 784.238781 342.725643 
L 785.020704 352.950094 
L 785.802627 347.837868 
L 786.584551 345.281755 
L 787.366474 350.393981 
L 788.148397 342.725643 
L 788.930321 347.837868 
L 789.712244 350.393981 
L 790.494167 347.837868 
L 791.27609 347.837868 
L 792.058014 329.945078 
L 792.839937 358.06232 
L 793.62186 337.613417 
L 794.403783 355.506207 
L 795.185707 332.501191 
L 795.96763 345.281755 
L 797.531477 350.393981 
L 798.3134 347.837868 
L 799.877246 347.837868 
L 800.65917 342.725643 
L 801.441093 347.837868 
L 803.00494 332.501191 
L 803.786863 314.608401 
L 804.568786 342.725643 
L 805.350709 322.27674 
L 806.132633 309.496176 
L 806.914556 347.837868 
L 808.478403 268.59837 
L 809.260326 278.822821 
L 810.042249 317.164514 
L 810.824172 151.017179 
L 811.606096 66.665455 
L 812.388019 281.378934 
L 813.169942 345.281755 
L 813.951865 340.16953 
L 814.733789 337.613417 
L 815.515712 350.393981 
L 816.297635 342.725643 
L 817.079559 345.281755 
L 817.861482 342.725643 
L 818.643405 335.057304 
L 819.425328 347.837868 
L 820.207252 345.281755 
L 820.989175 345.281755 
L 821.771098 327.388966 
L 822.553022 345.281755 
L 823.334945 340.16953 
L 824.116868 329.945078 
L 824.898791 322.27674 
L 825.680715 345.281755 
L 826.462638 340.16953 
L 827.244561 358.06232 
L 828.026484 329.945078 
L 829.590331 355.506207 
L 830.372254 350.393981 
L 831.154178 352.950094 
L 831.936101 342.725643 
L 832.718024 358.06232 
L 833.499947 355.506207 
L 835.063794 345.281755 
L 835.845717 355.506207 
L 836.627641 350.393981 
L 837.409564 347.837868 
L 838.191487 350.393981 
L 838.97341 350.393981 
L 839.755334 352.950094 
L 840.537257 363.174545 
L 843.66495 363.174545 
L 845.228797 352.950094 
L 846.01072 352.950094 
L 846.792643 355.506207 
L 847.574566 355.506207 
L 848.35649 350.393981 
L 849.138413 347.837868 
L 849.920336 327.388966 
L 850.70226 355.506207 
L 852.266106 335.057304 
L 853.048029 358.06232 
L 853.829953 347.837868 
L 854.611876 342.725643 
L 855.393799 299.271724 
L 856.175723 309.496176 
L 856.957646 337.613417 
L 857.739569 291.603386 
L 858.521492 263.486144 
L 859.303416 312.052288 
L 860.867262 291.603386 
L 861.649185 296.715611 
L 862.431109 342.725643 
L 863.213032 340.16953 
L 863.994955 332.501191 
L 864.776879 317.164514 
L 865.558802 340.16953 
L 866.340725 340.16953 
L 867.122648 347.837868 
L 867.904572 347.837868 
L 868.686495 342.725643 
L 869.468418 350.393981 
L 870.250342 345.281755 
L 871.814188 350.393981 
L 873.378035 360.618433 
L 874.159958 363.174545 
L 876.505728 355.506207 
L 877.287651 358.06232 
L 880.415344 358.06232 
L 881.197267 352.950094 
L 881.979191 363.174545 
L 882.761114 347.837868 
L 883.543037 355.506207 
L 884.324961 358.06232 
L 885.106884 347.837868 
L 885.888807 358.06232 
L 886.67073 345.281755 
L 887.452654 352.950094 
L 888.234577 347.837868 
L 889.0165 347.837868 
L 889.798424 358.06232 
L 890.580347 329.945078 
L 891.36227 337.613417 
L 892.144193 350.393981 
L 892.926117 358.06232 
L 893.70804 363.174545 
L 894.489963 360.618433 
L 895.271886 363.174545 
L 896.05381 327.388966 
L 896.835733 347.837868 
L 897.617656 337.613417 
L 898.39958 350.393981 
L 899.181503 332.501191 
L 899.963426 340.16953 
L 900.745349 350.393981 
L 901.527273 335.057304 
L 902.309196 358.06232 
L 903.091119 347.837868 
L 903.873043 345.281755 
L 905.436889 350.393981 
L 906.218812 340.16953 
L 907.000736 350.393981 
L 907.782659 342.725643 
L 908.564582 355.506207 
L 909.346506 352.950094 
L 910.128429 335.057304 
L 910.910352 350.393981 
L 911.692275 342.725643 
L 912.474199 352.950094 
L 913.256122 355.506207 
L 914.038045 360.618433 
L 916.383815 352.950094 
L 917.165738 360.618433 
L 917.947662 342.725643 
L 918.729585 350.393981 
L 919.511508 355.506207 
L 920.293431 358.06232 
L 921.075355 345.281755 
L 921.857278 360.618433 
L 922.639201 347.837868 
L 923.421125 345.281755 
L 924.203048 350.393981 
L 924.984971 358.06232 
L 925.766894 347.837868 
L 926.548818 335.057304 
L 927.330741 347.837868 
L 928.112664 355.506207 
L 928.894587 335.057304 
L 929.676511 335.057304 
L 930.458434 350.393981 
L 931.240357 352.950094 
L 932.022281 340.16953 
L 932.804204 304.38395 
L 933.586127 291.603386 
L 934.36805 296.715611 
L 935.149974 345.281755 
L 935.931897 289.047273 
L 936.71382 214.92 
L 937.495744 296.715611 
L 938.277667 266.042257 
L 939.05959 273.710596 
L 939.841513 268.59837 
L 940.623437 312.052288 
L 941.40536 289.047273 
L 942.187283 299.271724 
L 942.969207 304.38395 
L 943.75113 340.16953 
L 944.533053 355.506207 
L 945.314976 347.837868 
L 946.0969 347.837868 
L 946.878823 355.506207 
L 947.660746 360.618433 
L 948.442669 355.506207 
L 949.224593 360.618433 
L 950.006516 360.618433 
L 950.788439 363.174545 
L 951.570363 358.06232 
L 952.352286 360.618433 
L 953.134209 360.618433 
L 953.916132 363.174545 
L 954.698056 363.174545 
L 955.479979 360.618433 
L 956.261902 363.174545 
L 957.043826 355.506207 
L 957.825749 355.506207 
L 958.607672 360.618433 
L 959.389595 350.393981 
L 960.171519 358.06232 
L 960.953442 350.393981 
L 962.517288 350.393981 
L 963.299212 340.16953 
L 964.081135 319.720627 
L 964.863058 314.608401 
L 965.644982 299.271724 
L 966.426905 248.149467 
L 967.208828 276.266708 
L 967.990751 202.139436 
L 968.772675 250.70558 
L 969.554598 235.368903 
L 970.336521 273.710596 
L 971.118445 322.27674 
L 971.900368 322.27674 
L 972.682291 329.945078 
L 973.464214 340.16953 
L 974.246138 324.832853 
L 975.028061 352.950094 
L 975.809984 363.174545 
L 976.591908 360.618433 
L 977.373831 337.613417 
L 978.155754 335.057304 
L 978.937677 289.047273 
L 979.719601 273.710596 
L 980.501524 286.49116 
L 981.283447 312.052288 
L 982.06537 309.496176 
L 982.847294 332.501191 
L 983.629217 340.16953 
L 984.41114 335.057304 
L 985.193064 340.16953 
L 985.974987 350.393981 
L 986.75691 335.057304 
L 987.538833 355.506207 
L 988.320757 350.393981 
L 989.10268 350.393981 
L 989.884603 352.950094 
L 990.666527 352.950094 
L 991.44845 360.618433 
L 992.230373 363.174545 
L 993.012296 358.06232 
L 993.79422 355.506207 
L 994.576143 355.506207 
L 995.358066 350.393981 
L 996.139989 358.06232 
L 996.921913 360.618433 
L 997.703836 358.06232 
L 998.485759 363.174545 
L 999.267683 363.174545 
L 1000.049606 355.506207 
L 1000.831529 350.393981 
L 1001.613452 350.393981 
L 1002.395376 345.281755 
L 1003.177299 350.393981 
L 1003.959222 358.06232 
L 1005.523069 358.06232 
L 1006.304992 363.174545 
L 1007.086915 358.06232 
L 1007.868839 360.618433 
L 1008.650762 360.618433 
L 1009.432685 358.06232 
L 1010.214609 358.06232 
L 1010.996532 355.506207 
L 1011.778455 340.16953 
L 1012.560378 350.393981 
L 1013.342302 350.393981 
L 1014.124225 352.950094 
L 1014.906148 352.950094 
L 1015.688071 360.618433 
L 1016.469995 363.174545 
L 1017.251918 363.174545 
L 1018.033841 337.613417 
L 1018.815765 340.16953 
L 1019.597688 319.720627 
L 1020.379611 322.27674 
L 1021.161534 335.057304 
L 1021.943458 332.501191 
L 1022.725381 314.608401 
L 1023.507304 324.832853 
L 1024.289228 332.501191 
L 1025.071151 332.501191 
L 1025.853074 322.27674 
L 1026.634997 340.16953 
L 1027.416921 352.950094 
L 1028.198844 340.16953 
L 1028.980767 347.837868 
L 1029.76269 342.725643 
L 1030.544614 352.950094 
L 1031.326537 358.06232 
L 1032.10846 345.281755 
L 1033.672307 350.393981 
L 1034.45423 342.725643 
L 1035.236153 360.618433 
L 1036.018077 360.618433 
L 1036.8 352.950094 
L 1036.8 352.950094 
" style="fill:none;stroke:#4c72b0;stroke-linecap:round;stroke-width:1.75;"/>
   </g>
   <g id="patch_8">
    <path d="M 630.981818 378 
L 630.981818 51.84 
" style="fill:none;"/>
   </g>
   <g id="patch_9">
    <path d="M 1036.8 378 
L 1036.8 51.84 
" style="fill:none;"/>
   </g>
   <g id="patch_10">
    <path d="M 630.981818 378 
L 1036.8 378 
" style="fill:none;"/>
   </g>
   <g id="patch_11">
    <path d="M 630.981818 51.84 
L 1036.8 51.84 
" style="fill:none;"/>
   </g>
   <g id="text_28">
    <!-- Dengue total cases in Iquitos -->
    <defs>
     <path d="M 9.234375 0 
L 9.234375 68.796875 
L 18.5625 68.796875 
L 18.5625 0 
z
" id="LiberationSans-49"/>
     <path d="M 23.640625 -0.984375 
Q 13.578125 -0.984375 8.890625 5.796875 
Q 4.203125 12.59375 4.203125 26.171875 
Q 4.203125 39.9375 9 46.875 
Q 13.8125 53.8125 23.640625 53.8125 
Q 26.90625 53.8125 29.421875 53.21875 
Q 31.9375 52.640625 33.90625 51.484375 
Q 35.890625 50.34375 37.375 48.625 
Q 38.875 46.921875 40.09375 44.625 
L 40.1875 44.625 
Q 40.1875 45.84375 40.25 47.328125 
Q 40.328125 48.828125 40.40625 50.140625 
Q 40.484375 51.46875 40.578125 52.421875 
Q 40.671875 53.375 40.765625 53.515625 
L 49.21875 53.515625 
Q 49.125 52.6875 49 49.171875 
Q 48.875 45.65625 48.875 39.109375 
L 48.875 -20.75 
L 40.09375 -20.75 
L 40.09375 0.6875 
Q 40.09375 1.953125 40.109375 3.3125 
Q 40.140625 4.6875 40.1875 5.90625 
Q 40.234375 7.28125 40.28125 8.6875 
L 40.1875 8.6875 
Q 38.921875 6.203125 37.375 4.375 
Q 35.84375 2.546875 33.84375 1.34375 
Q 31.84375 0.140625 29.328125 -0.421875 
Q 26.8125 -0.984375 23.640625 -0.984375 
M 40.09375 27.046875 
Q 40.09375 32.8125 39.09375 36.71875 
Q 38.09375 40.625 36.25 42.96875 
Q 34.421875 45.3125 31.8125 46.3125 
Q 29.203125 47.3125 25.984375 47.3125 
Q 22.609375 47.3125 20.21875 46.0625 
Q 17.828125 44.828125 16.328125 42.265625 
Q 14.84375 39.703125 14.125 35.765625 
Q 13.421875 31.84375 13.421875 26.46875 
Q 13.421875 21.1875 14.078125 17.28125 
Q 14.75 13.375 16.234375 10.828125 
Q 17.71875 8.296875 20.09375 7.046875 
Q 22.46875 5.8125 25.875 5.8125 
Q 28.8125 5.8125 31.390625 6.71875 
Q 33.984375 7.625 35.90625 9.984375 
Q 37.84375 12.359375 38.96875 16.484375 
Q 40.09375 20.609375 40.09375 27.046875 
" id="LiberationSans-71"/>
    </defs>
    <g style="fill:#262626;" transform="translate(756.848097 45.84)scale(0.12 -0.12)">
     <use xlink:href="#LiberationSans-44"/>
     <use x="72.216797" xlink:href="#LiberationSans-65"/>
     <use x="127.832031" xlink:href="#LiberationSans-6e"/>
     <use x="183.447266" xlink:href="#LiberationSans-67"/>
     <use x="239.0625" xlink:href="#LiberationSans-75"/>
     <use x="294.677734" xlink:href="#LiberationSans-65"/>
     <use x="350.292969" xlink:href="#LiberationSans-20"/>
     <use x="378.076172" xlink:href="#LiberationSans-74"/>
     <use x="405.859375" xlink:href="#LiberationSans-6f"/>
     <use x="461.474609" xlink:href="#LiberationSans-74"/>
     <use x="489.257812" xlink:href="#LiberationSans-61"/>
     <use x="544.873047" xlink:href="#LiberationSans-6c"/>
     <use x="567.089844" xlink:href="#LiberationSans-20"/>
     <use x="594.873047" xlink:href="#LiberationSans-63"/>
     <use x="644.873047" xlink:href="#LiberationSans-61"/>
     <use x="700.488281" xlink:href="#LiberationSans-73"/>
     <use x="750.488281" xlink:href="#LiberationSans-65"/>
     <use x="806.103516" xlink:href="#LiberationSans-73"/>
     <use x="856.103516" xlink:href="#LiberationSans-20"/>
     <use x="883.886719" xlink:href="#LiberationSans-69"/>
     <use x="906.103516" xlink:href="#LiberationSans-6e"/>
     <use x="961.71875" xlink:href="#LiberationSans-20"/>
     <use x="989.501953" xlink:href="#LiberationSans-49"/>
     <use x="1017.285156" xlink:href="#LiberationSans-71"/>
     <use x="1072.900391" xlink:href="#LiberationSans-75"/>
     <use x="1128.515625" xlink:href="#LiberationSans-69"/>
     <use x="1150.732422" xlink:href="#LiberationSans-74"/>
     <use x="1178.515625" xlink:href="#LiberationSans-6f"/>
     <use x="1234.130859" xlink:href="#LiberationSans-73"/>
    </g>
   </g>
   <g id="legend_2">
    <g id="line2d_51">
     <path d="M 949.217187 64.586875 
L 969.217187 64.586875 
" style="fill:none;stroke:#4c72b0;stroke-linecap:round;stroke-width:1.75;"/>
    </g>
    <g id="line2d_52"/>
    <g id="text_29">
     <!-- total_cases -->
     <g style="fill:#262626;" transform="translate(977.217187 68.086875)scale(0.1 -0.1)">
      <use xlink:href="#LiberationSans-74"/>
      <use x="27.783203" xlink:href="#LiberationSans-6f"/>
      <use x="83.398438" xlink:href="#LiberationSans-74"/>
      <use x="111.181641" xlink:href="#LiberationSans-61"/>
      <use x="166.796875" xlink:href="#LiberationSans-6c"/>
      <use x="189.013672" xlink:href="#LiberationSans-5f"/>
      <use x="244.628906" xlink:href="#LiberationSans-63"/>
      <use x="294.628906" xlink:href="#LiberationSans-61"/>
      <use x="350.244141" xlink:href="#LiberationSans-73"/>
      <use x="400.244141" xlink:href="#LiberationSans-65"/>
      <use x="455.859375" xlink:href="#LiberationSans-73"/>
     </g>
    </g>
   </g>
  </g>
 </g>
 <defs>
  <clipPath id="p9dec2a8ade">
   <rect height="326.16" width="405.818182" x="144" y="51.84"/>
  </clipPath>
  <clipPath id="p5c96e56080">
   <rect height="326.16" width="405.818182" x="630.981818" y="51.84"/>
  </clipPath>
 </defs>
</svg>
